<svg width="375" height="347" viewBox="0 0 375 347" fill="none" xmlns="http://www.w3.org/2000/svg">
<g opacity="0.9">
<path d="M41.5988 24.7225L19.7561 33.7255C7.54027 40.6987 0 53.6852 0 67.7512V274.003C0 282.839 7.16344 290.003 16 290.003H359C367.837 290.003 375 282.839 375 274.003V18.5513C375 8.30732 366.696 0.00292969 356.452 0.00292969C355.853 0.00292969 355.262 0.145316 354.729 0.418345L341.163 7.3663C340.458 7.72765 339.793 8.1642 339.182 8.66835L334.388 12.6194C332.117 14.4908 329.191 15.3745 326.264 15.073L316.468 14.0637C313.791 13.7879 311.106 14.5028 308.921 16.073L294.349 26.5451C291.562 28.5473 287.996 29.1507 284.746 28.0521C278.964 26.0978 272.016 23.4476 270.629 21.8153C269.139 20.0606 256.559 14.5416 246.873 10.5103C242.995 8.89635 238.546 9.69216 235.425 12.5032L227.928 19.2557C226.088 20.9134 224.86 23.1438 224.445 25.5858L218.719 59.2777C217.598 65.8741 210.896 69.95 204.523 67.9117L177.099 59.1405C174.224 58.221 171.853 56.1603 170.542 53.4413L150.248 11.3579C147.98 6.65273 142.714 4.1922 137.649 5.47008L122.127 9.38647C120.295 9.84847 118.614 10.7741 117.244 12.0743L111.375 17.6459C108.64 20.2418 104.767 21.2562 101.111 20.3338L81.5791 15.406C77.3206 14.3316 72.8312 15.8932 70.1588 19.3785L68.511 21.5276C66.0562 24.7292 62.0457 26.33 58.0609 25.6989L47.5114 24.028C45.5141 23.7116 43.4683 23.9519 41.5988 24.7225Z" fill="#FCFDFF"/>
<path d="M41.5988 24.7225L19.7561 33.7255C7.54027 40.6987 0 53.6852 0 67.7512V274.003C0 282.839 7.16344 290.003 16 290.003H359C367.837 290.003 375 282.839 375 274.003V18.5513C375 8.30732 366.696 0.00292969 356.452 0.00292969C355.853 0.00292969 355.262 0.145316 354.729 0.418345L341.163 7.3663C340.458 7.72765 339.793 8.1642 339.182 8.66835L334.388 12.6194C332.117 14.4908 329.191 15.3745 326.264 15.073L316.468 14.0637C313.791 13.7879 311.106 14.5028 308.921 16.073L294.349 26.5451C291.562 28.5473 287.996 29.1507 284.746 28.0521C278.964 26.0978 272.016 23.4476 270.629 21.8153C269.139 20.0606 256.559 14.5416 246.873 10.5103C242.995 8.89635 238.546 9.69216 235.425 12.5032L227.928 19.2557C226.088 20.9134 224.86 23.1438 224.445 25.5858L218.719 59.2777C217.598 65.8741 210.896 69.95 204.523 67.9117L177.099 59.1405C174.224 58.221 171.853 56.1603 170.542 53.4413L150.248 11.3579C147.98 6.65273 142.714 4.1922 137.649 5.47008L122.127 9.38647C120.295 9.84847 118.614 10.7741 117.244 12.0743L111.375 17.6459C108.64 20.2418 104.767 21.2562 101.111 20.3338L81.5791 15.406C77.3206 14.3316 72.8312 15.8932 70.1588 19.3785L68.511 21.5276C66.0562 24.7292 62.0457 26.33 58.0609 25.6989L47.5114 24.028C45.5141 23.7116 43.4683 23.9519 41.5988 24.7225Z" fill="url(#paint0_linear_8466_263874)"/>
</g>
<g opacity="0.9">
<path d="M41.5988 46.7225L20.3888 55.4647C19.9677 55.6382 19.5616 55.8463 19.1748 56.0867C7.25092 63.4968 0 76.54 0 90.5788V273.602C0 282.439 7.16344 289.602 16 289.602H359C367.837 289.602 375 282.439 375 273.602V42.3396C375 31.9226 367.122 23.1932 356.759 22.1282C355.964 22.0464 355.161 22.197 354.45 22.5616L341.163 29.3663C340.458 29.7277 339.793 30.1642 339.182 30.6684L334.388 34.6194C332.117 36.4908 329.191 37.3745 326.264 37.073L316.468 36.0637C313.791 35.7879 311.106 36.5028 308.921 38.073L294.349 48.5451C291.562 50.5473 287.996 51.1507 284.746 50.0521C278.964 48.0978 272.016 45.4476 270.629 43.8153C269.139 42.0606 256.559 36.5416 246.873 32.5103C242.995 30.8963 238.546 31.6922 235.425 34.5032L227.928 41.2557C226.088 42.9134 224.86 45.1438 224.445 47.5858L218.719 81.2777C217.598 87.8741 210.896 91.95 204.523 89.9117L177.099 81.1405C174.224 80.221 171.853 78.1603 170.542 75.4413L150.248 33.3579C147.98 28.6527 142.714 26.1922 137.649 27.4701L122.127 31.3865C120.295 31.8485 118.614 32.7741 117.244 34.0743L111.375 39.6459C108.64 42.2418 104.767 43.2562 101.111 42.3338L81.5791 37.406C77.3206 36.3316 72.8312 37.8932 70.1588 41.3785L68.511 43.5276C66.0562 46.7292 62.0457 48.33 58.0609 47.6989L47.5114 46.028C45.5141 45.7116 43.4683 45.9519 41.5988 46.7225Z" fill="#EFF3FC"/>
<path d="M41.5988 46.7225L20.3888 55.4647C19.9677 55.6382 19.5616 55.8463 19.1748 56.0867C7.25092 63.4968 0 76.54 0 90.5788V273.602C0 282.439 7.16344 289.602 16 289.602H359C367.837 289.602 375 282.439 375 273.602V42.3396C375 31.9226 367.122 23.1932 356.759 22.1282C355.964 22.0464 355.161 22.197 354.45 22.5616L341.163 29.3663C340.458 29.7277 339.793 30.1642 339.182 30.6684L334.388 34.6194C332.117 36.4908 329.191 37.3745 326.264 37.073L316.468 36.0637C313.791 35.7879 311.106 36.5028 308.921 38.073L294.349 48.5451C291.562 50.5473 287.996 51.1507 284.746 50.0521C278.964 48.0978 272.016 45.4476 270.629 43.8153C269.139 42.0606 256.559 36.5416 246.873 32.5103C242.995 30.8963 238.546 31.6922 235.425 34.5032L227.928 41.2557C226.088 42.9134 224.86 45.1438 224.445 47.5858L218.719 81.2777C217.598 87.8741 210.896 91.95 204.523 89.9117L177.099 81.1405C174.224 80.221 171.853 78.1603 170.542 75.4413L150.248 33.3579C147.98 28.6527 142.714 26.1922 137.649 27.4701L122.127 31.3865C120.295 31.8485 118.614 32.7741 117.244 34.0743L111.375 39.6459C108.64 42.2418 104.767 43.2562 101.111 42.3338L81.5791 37.406C77.3206 36.3316 72.8312 37.8932 70.1588 41.3785L68.511 43.5276C66.0562 46.7292 62.0457 48.33 58.0609 47.6989L47.5114 46.028C45.5141 45.7116 43.4683 45.9519 41.5988 46.7225Z" fill="url(#paint1_linear_8466_263874)"/>
<path d="M41.5988 46.7225L20.3888 55.4647C19.9677 55.6382 19.5616 55.8463 19.1748 56.0867C7.25092 63.4968 0 76.54 0 90.5788V273.602C0 282.439 7.16344 289.602 16 289.602H359C367.837 289.602 375 282.439 375 273.602V42.3396C375 31.9226 367.122 23.1932 356.759 22.1282C355.964 22.0464 355.161 22.197 354.45 22.5616L341.163 29.3663C340.458 29.7277 339.793 30.1642 339.182 30.6684L334.388 34.6194C332.117 36.4908 329.191 37.3745 326.264 37.073L316.468 36.0637C313.791 35.7879 311.106 36.5028 308.921 38.073L294.349 48.5451C291.562 50.5473 287.996 51.1507 284.746 50.0521C278.964 48.0978 272.016 45.4476 270.629 43.8153C269.139 42.0606 256.559 36.5416 246.873 32.5103C242.995 30.8963 238.546 31.6922 235.425 34.5032L227.928 41.2557C226.088 42.9134 224.86 45.1438 224.445 47.5858L218.719 81.2777C217.598 87.8741 210.896 91.95 204.523 89.9117L177.099 81.1405C174.224 80.221 171.853 78.1603 170.542 75.4413L150.248 33.3579C147.98 28.6527 142.714 26.1922 137.649 27.4701L122.127 31.3865C120.295 31.8485 118.614 32.7741 117.244 34.0743L111.375 39.6459C108.64 42.2418 104.767 43.2562 101.111 42.3338L81.5791 37.406C77.3206 36.3316 72.8312 37.8932 70.1588 41.3785L68.511 43.5276C66.0562 46.7292 62.0457 48.33 58.0609 47.6989L47.5114 46.028C45.5141 45.7116 43.4683 45.9519 41.5988 46.7225Z" fill="url(#paint2_linear_8466_263874)"/>
</g>
<path d="M33.5604 88.1892L18.6949 86.5743C17.0999 86.401 15.4958 86.8072 14.1754 87.7185C5.29927 93.8452 0 103.942 0 114.727V273.905C0 282.741 7.16344 289.905 16 289.905H359C367.837 289.905 375 282.741 375 273.905V85.5431C375 75.9717 370.928 66.8523 363.802 60.463C362.742 59.5131 361.414 58.9162 360 58.7547L342.249 56.7266C340.954 56.5787 339.696 56.2019 338.534 55.6139L334.333 53.4895C332.794 52.7112 331.093 52.3057 329.369 52.3057H315.306C313.625 52.3057 311.967 51.9205 310.458 51.1798L294.856 43.5194C292.992 42.6039 290.906 42.2351 288.84 42.4556L274.878 43.9464C273.237 44.1217 271.656 44.6641 270.252 45.5336L253.342 56.0111C249.297 58.5173 244.099 58.1386 240.46 55.0725L233.756 49.4235C229.011 45.425 221.899 46.1409 218.046 51.0049L213.736 56.4459C209.15 62.2338 200.278 61.9499 196.072 55.8807L177.845 29.5785C174.808 25.1957 169.065 23.6223 164.218 25.8453L137.089 38.2884C135.251 39.1315 133.681 40.465 132.551 42.1424L119.451 61.5937C117.849 63.9736 115.38 65.6331 112.571 66.2182L96.4979 69.5657C95.3031 69.8146 94.158 70.2605 93.1096 70.8853L80.4024 78.458C76.8232 80.591 72.346 80.5187 68.8376 78.2712L63.7876 75.0361C59.2132 72.1057 53.1847 72.9535 49.596 77.0318L43.0064 84.5202C40.6421 87.2071 37.1185 88.5757 33.5604 88.1892Z" fill="url(#paint3_linear_8466_263874)"/>
<path d="M39.5439 98.6024L19.7561 106.762C7.54292 113.711 0 126.681 0 140.733V301.003C0 325.856 20.1472 346.003 45 346.003H330C354.853 346.003 375 325.856 375 301.003V99.5497C375 89.3066 366.696 81.0029 356.453 81.0029C355.853 81.0029 355.262 81.1458 354.728 81.4197L341.164 88.3813C340.458 88.7435 339.793 89.181 339.182 89.6862L334.391 93.6428C332.119 95.5195 329.188 96.4058 326.257 96.1032L316.475 95.0934C313.794 94.8166 311.105 95.5338 308.918 97.1088L294.354 107.596C291.565 109.604 287.992 110.21 284.737 109.107C278.957 107.149 272.015 104.495 270.629 102.86C269.14 101.103 256.568 95.5754 246.884 91.5363C243.001 89.9167 238.543 90.7147 235.42 93.5336L227.922 100.301C226.085 101.958 224.861 104.187 224.447 106.627L218.717 140.413C217.597 147.014 210.89 151.092 204.514 149.049L177.1 140.262C174.224 139.341 171.854 137.278 170.545 134.557L150.247 92.3785C147.98 87.6666 142.708 85.2023 137.639 86.484L122.129 90.4051C120.296 90.8685 118.614 91.7965 117.244 93.0995L111.379 98.6789C108.642 101.282 104.762 102.299 101.101 101.373L81.4829 96.4134C77.2839 95.3518 72.8562 96.8933 70.2243 100.333C66.9536 104.607 61.0409 105.832 56.3412 103.209L49.0984 99.1666C46.1666 97.5302 42.6479 97.3224 39.5439 98.6024Z" fill="#EFF3FC"/>
<path d="M39.5439 98.6024L19.7561 106.762C7.54292 113.711 0 126.681 0 140.733V301.003C0 325.856 20.1472 346.003 45 346.003H330C354.853 346.003 375 325.856 375 301.003V99.5497C375 89.3066 366.696 81.0029 356.453 81.0029C355.853 81.0029 355.262 81.1458 354.728 81.4197L341.164 88.3813C340.458 88.7435 339.793 89.181 339.182 89.6862L334.391 93.6428C332.119 95.5195 329.188 96.4058 326.257 96.1032L316.475 95.0934C313.794 94.8166 311.105 95.5338 308.918 97.1088L294.354 107.596C291.565 109.604 287.992 110.21 284.737 109.107C278.957 107.149 272.015 104.495 270.629 102.86C269.14 101.103 256.568 95.5754 246.884 91.5363C243.001 89.9167 238.543 90.7147 235.42 93.5336L227.922 100.301C226.085 101.958 224.861 104.187 224.447 106.627L218.717 140.413C217.597 147.014 210.89 151.092 204.514 149.049L177.1 140.262C174.224 139.341 171.854 137.278 170.545 134.557L150.247 92.3785C147.98 87.6666 142.708 85.2023 137.639 86.484L122.129 90.4051C120.296 90.8685 118.614 91.7965 117.244 93.0995L111.379 98.6789C108.642 101.282 104.762 102.299 101.101 101.373L81.4829 96.4134C77.2839 95.3518 72.8562 96.8933 70.2243 100.333C66.9536 104.607 61.0409 105.832 56.3412 103.209L49.0984 99.1666C46.1666 97.5302 42.6479 97.3224 39.5439 98.6024Z" fill="url(#paint4_linear_8466_263874)"/>
<path opacity="0.9" d="M41.097 130.874L20.7807 132.62C19.6109 132.72 18.4811 133.094 17.4821 133.711C6.61563 140.419 0 152.278 0 165.048V301.003C0 325.856 20.1472 346.003 45 346.003H330C354.853 346.003 375 325.856 375 301.003V136.284C375 125.766 367.328 116.82 356.932 115.218C356.028 115.078 355.102 115.228 354.287 115.646L341.164 122.386C340.458 122.748 339.793 123.186 339.182 123.691L334.392 127.65C332.119 129.528 329.187 130.415 326.254 130.112L316.477 129.102C313.795 128.825 311.104 129.543 308.916 131.119L294.356 141.611C291.566 143.621 287.991 144.227 284.734 143.123C278.955 141.164 272.015 138.509 270.629 136.873C269.14 135.115 256.57 129.585 246.887 125.544C243.002 123.923 238.542 124.721 235.418 127.542L227.921 134.314C226.085 135.972 224.861 138.2 224.448 140.639L218.716 174.453C217.597 181.055 210.888 185.134 204.512 183.089L177.1 174.298C174.224 173.376 171.855 171.312 170.546 168.591L150.247 126.384C147.98 121.671 142.707 119.205 137.636 120.488L122.13 124.411C120.297 124.874 118.614 125.803 117.244 127.107L111.38 132.688C108.643 135.293 104.761 136.311 101.098 135.385L81.485 130.423C77.2851 129.361 72.8561 130.903 70.2245 134.344C66.9542 138.621 61.0393 139.846 56.339 137.221L47.4021 132.23C45.4831 131.158 43.287 130.686 41.097 130.874Z" fill="#E7EBF5"/>
<defs>
<linearGradient id="paint0_linear_8466_263874" x1="189.386" y1="0.00292969" x2="189.386" y2="301.602" gradientUnits="userSpaceOnUse">
<stop stop-color="#BEC4D6" stop-opacity="0.06"/>
<stop offset="1" stop-color="white" stop-opacity="0"/>
</linearGradient>
<linearGradient id="paint1_linear_8466_263874" x1="189.386" y1="16.0029" x2="189.386" y2="289.602" gradientUnits="userSpaceOnUse">
<stop stop-color="#CFD5E4" stop-opacity="0.06"/>
<stop offset="1" stop-color="white" stop-opacity="0"/>
</linearGradient>
<linearGradient id="paint2_linear_8466_263874" x1="189.386" y1="16.0029" x2="189.386" y2="289.602" gradientUnits="userSpaceOnUse">
<stop stop-color="#CFD5E4" stop-opacity="0.06"/>
<stop offset="1" stop-color="white" stop-opacity="0"/>
</linearGradient>
<linearGradient id="paint3_linear_8466_263874" x1="189.386" y1="30.0029" x2="189.386" y2="297.905" gradientUnits="userSpaceOnUse">
<stop stop-color="#00F6B2"/>
<stop offset="1" stop-color="#18DCA6"/>
</linearGradient>
<linearGradient id="paint4_linear_8466_263874" x1="189.386" y1="95.0029" x2="189.386" y2="290.003" gradientUnits="userSpaceOnUse">
<stop stop-color="#CFD5E4" stop-opacity="0.06"/>
<stop offset="1" stop-color="white" stop-opacity="0"/>
</linearGradient>
</defs>
</svg>
