<svg width="207" height="169" viewBox="0 0 207 169" fill="none" xmlns="http://www.w3.org/2000/svg">
<g filter="url(#filter_rc_0_d)">
<rect x="79.0879" y="130" width="17.5266" height="14" rx="5.25" fill="white"/>
</g>
<g filter="url(#filter_rc_1_d)">
<rect x="21" y="18" width="28.0425" height="21" rx="5.25" fill="white"/>
</g>
<g filter="url(#filter_rc_2_d)">
<rect x="164.968" y="72.25" width="21.0319" height="15.75" rx="5.25" fill="white"/>
</g>
<rect x="87.4775" y="102" width="21.0319" height="8.75" fill="#D1D7E4"/>
<rect x="55.0518" y="46" width="85.8801" height="60.375" rx="8.47368" fill="#E7EBF4"/>
<rect x="83.0947" y="110.75" width="28.9188" height="2.625" rx="1.3125" fill="#E7EBF4"/>
<path d="M58.0557 54.9803C58.0557 51.4703 60.901 48.625 64.4109 48.625H132.323C135.832 48.625 138.678 51.4703 138.678 54.9803V96.5658C138.678 97.1508 138.204 97.625 137.619 97.625H59.1149C58.5299 97.625 58.0557 97.1508 58.0557 96.5658V54.9803Z" fill="white"/>
<path d="M58.0557 72.5625H59.032C59.3774 72.5625 59.7175 72.6469 60.0228 72.8085L63.7308 74.7704C64.6588 75.2614 65.8065 74.9986 66.4283 74.1527L69.9741 69.3295C70.8485 68.1401 72.6408 68.1873 73.4514 69.4211L78.6193 77.2867C79.4593 78.5651 81.3357 78.5592 82.1676 77.2755L85.2218 72.5625L91.5823 64.1078C92.2601 63.2067 93.525 62.9946 94.4598 63.6251L101.736 68.5335C101.827 68.5944 101.912 68.6622 101.992 68.7363L107.859 74.1755C107.957 74.2666 108.064 74.3482 108.177 74.4192L112.81 77.31C113.949 78.0209 115.453 77.5063 115.918 76.2468L118.306 69.7821C118.818 68.3953 120.574 67.9711 121.663 68.971V68.971C122.673 69.8983 124.288 69.6113 124.917 68.3928L125.92 66.4475C126.737 64.8636 129.026 64.9352 129.743 66.5671L132.527 72.9079C133.24 74.5333 135.517 74.6127 136.342 73.041L137.211 71.3867C137.497 70.8415 138.062 70.5 138.678 70.5V70.5" stroke="#18DCA6" stroke-width="2.11842"/>
<ellipse cx="98.8676" cy="74.75" rx="15.7739" ry="15.75" fill="#18DCA6"/>
<ellipse cx="153.141" cy="26.9414" rx="11.9595" ry="11.9414" fill="#18DCA6"/>
<path d="M156.182 28.1041C155.838 27.902 155.447 27.841 155.062 27.8269C154.74 27.8175 154.258 27.6014 154.258 27C154.258 26.5537 154.612 26.1919 155.066 26.1731C155.452 26.159 155.842 26.098 156.187 25.8959C156.82 25.5248 157.206 24.8342 157.206 24.0872C157.206 23.3401 156.816 22.6495 156.187 22.2784C155.553 21.9072 154.777 21.9072 154.148 22.2784C153.514 22.6495 153.129 23.3401 153.129 24.0872C153.129 24.4912 153.271 24.8623 153.45 25.21C153.601 25.5013 153.675 26.0416 153.161 26.347C152.775 26.5725 152.293 26.4315 152.054 26.0369C151.852 25.7033 151.609 25.3932 151.264 25.1912C150.631 24.8201 149.855 24.8201 149.226 25.1912C148.583 25.5624 148.192 26.253 148.192 27C148.192 27.747 148.583 28.4376 149.212 28.8088C149.845 29.1799 150.621 29.1799 151.251 28.8088C151.595 28.6068 151.838 28.2967 152.04 27.9631C152.206 27.6906 152.623 27.343 153.147 27.653C153.533 27.8786 153.652 28.3766 153.436 28.79C153.257 29.133 153.115 29.5088 153.115 29.9128C153.115 30.6599 153.505 31.3505 154.134 31.7216C154.768 32.0928 155.544 32.0928 156.173 31.7216C156.807 31.3505 157.192 30.6599 157.192 29.9128C157.201 29.1658 156.811 28.4752 156.182 28.1041Z" fill="white"/>
<ellipse cx="30.0137" cy="107" rx="9.01366" ry="9" fill="#18DCA6"/>
<path d="M29.6278 108.624L30.0563 106.912L31.0707 106.519L31.3231 105.513L31.3145 105.488L30.3159 105.875L31.0354 103H28.9949L28.054 106.752L27.2684 107.056L27.0088 108.093L27.7938 107.789L27.2392 110H32.6698L33.0179 108.624H29.6278Z" fill="white"/>
<ellipse cx="165.719" cy="118.5" rx="5.50835" ry="5.5" fill="#18DCA6"/>
<path fill-rule="evenodd" clip-rule="evenodd" d="M164.66 116.285C164.66 116.125 164.79 115.996 164.949 115.996C165.109 115.996 165.238 116.125 165.238 116.285V116.575H165.817V116.285C165.817 116.125 165.946 115.996 166.106 115.996C166.265 115.996 166.395 116.125 166.395 116.285V116.614C166.63 116.657 166.824 116.734 166.978 116.845C167.227 117.021 167.352 117.265 167.352 117.577C167.352 117.768 167.308 117.936 167.218 118.083C167.129 118.23 167.006 118.344 166.85 118.424C167.066 118.494 167.237 118.612 167.363 118.777C167.49 118.938 167.553 119.14 167.553 119.382C167.553 119.716 167.423 119.975 167.162 120.158C166.971 120.291 166.715 120.374 166.395 120.409V120.716C166.395 120.876 166.265 121.005 166.106 121.005C165.946 121.005 165.817 120.876 165.817 120.716V120.428H165.238V120.716C165.238 120.876 165.109 121.005 164.949 121.005C164.79 121.005 164.66 120.876 164.66 120.716V120.428H164.08V120.428H163.984C163.825 120.428 163.695 120.298 163.695 120.139C163.695 119.979 163.825 119.85 163.984 119.85H164.08V117.153H163.984C163.825 117.153 163.695 117.023 163.695 116.864C163.695 116.704 163.825 116.575 163.984 116.575L164.08 116.575L164.371 116.575L164.66 116.575V116.285ZM164.806 117.136V118.199H165.833C166.086 118.199 166.28 118.155 166.414 118.067C166.552 117.975 166.621 117.843 166.621 117.67C166.621 117.494 166.552 117.362 166.414 117.274C166.28 117.182 166.086 117.136 165.833 117.136H164.806ZM165.978 119.867C166.541 119.867 166.822 119.681 166.822 119.311C166.822 118.94 166.541 118.755 165.978 118.755H164.806V119.867H165.978Z" fill="white"/>
<path fill-rule="evenodd" clip-rule="evenodd" d="M95.8722 68.4089C95.8722 67.9512 96.2433 67.5801 96.7011 67.5801C97.1588 67.5801 97.5299 67.9512 97.5299 68.4089V69.2344H99.1858V68.4089C99.1858 67.9512 99.5569 67.5801 100.015 67.5801C100.472 67.5801 100.844 67.9512 100.844 68.4089V69.3476C101.516 69.4693 102.072 69.689 102.513 70.0068C103.227 70.5112 103.584 71.2101 103.584 72.1034C103.584 72.6499 103.456 73.1333 103.2 73.5536C102.945 73.974 102.593 74.2998 102.145 74.531C102.763 74.7307 103.254 75.067 103.616 75.5399C103.979 76.0023 104.16 76.5803 104.16 77.2739C104.16 78.2302 103.787 78.9711 103.041 79.4966C102.492 79.8749 101.76 80.1142 100.844 80.2146V81.0968C100.844 81.5546 100.472 81.9257 100.015 81.9257C99.5569 81.9257 99.1858 81.5546 99.1858 81.0968V80.269H97.5299V81.0968C97.5299 81.5546 97.1588 81.9257 96.7011 81.9257C96.2433 81.9257 95.8722 81.5546 95.8722 81.0968V80.269H95.1143C95.0913 80.2709 95.0681 80.2719 95.0446 80.2719H93.937C93.4799 80.2719 93.1094 79.9014 93.1094 79.4443C93.1094 78.9872 93.4799 78.6167 93.937 78.6167H94.2137V70.8896H93.937C93.4799 70.8896 93.1094 70.519 93.1094 70.062C93.1094 69.6049 93.4799 69.2344 93.937 69.2344H94.2137L95.0446 69.2344L95.8722 69.2344V68.4089ZM96.2925 70.8423V73.8847H99.2348C99.9597 73.8847 100.514 73.7586 100.898 73.5064C101.292 73.2436 101.489 72.8653 101.489 72.3714C101.489 71.8669 101.292 71.4886 100.898 71.2364C100.514 70.9736 99.9597 70.8423 99.2348 70.8423H96.2925ZM99.6506 78.6611C101.26 78.6611 102.065 78.1304 102.065 77.069C102.065 76.0075 101.26 75.4768 99.6506 75.4768H96.2925V78.6611H99.6506Z" fill="white"/>
<defs>
<filter id="filter_rc_0_d" x="58.0879" y="112.5" width="59.5266" height="56" filterUnits="userSpaceOnUse" color-interpolation-filters="sRGB">
<feFlood flood-opacity="0" result="BackgroundImageFix"/>
<feColorMatrix in="SourceAlpha" type="matrix" values="0 0 0 0 0 0 0 0 0 0 0 0 0 0 0 0 0 0 127 0"/>
<feOffset dy="3.5"/>
<feGaussianBlur stdDeviation="10.5"/>
<feColorMatrix type="matrix" values="0 0 0 0 0.0627451 0 0 0 0 0.152941 0 0 0 0 0.396078 0 0 0 0.11 0"/>
<feBlend mode="normal" in2="BackgroundImageFix" result="effect1_dropShadow"/>
<feBlend mode="normal" in="SourceGraphic" in2="effect1_dropShadow" result="shape"/>
</filter>
<filter id="filter_rc_1_d" x="0" y="0.5" width="70.0425" height="63" filterUnits="userSpaceOnUse" color-interpolation-filters="sRGB">
<feFlood flood-opacity="0" result="BackgroundImageFix"/>
<feColorMatrix in="SourceAlpha" type="matrix" values="0 0 0 0 0 0 0 0 0 0 0 0 0 0 0 0 0 0 127 0"/>
<feOffset dy="3.5"/>
<feGaussianBlur stdDeviation="10.5"/>
<feColorMatrix type="matrix" values="0 0 0 0 0.0627451 0 0 0 0 0.152941 0 0 0 0 0.396078 0 0 0 0.11 0"/>
<feBlend mode="normal" in2="BackgroundImageFix" result="effect1_dropShadow"/>
<feBlend mode="normal" in="SourceGraphic" in2="effect1_dropShadow" result="shape"/>
</filter>
<filter id="filter_rc_2_d" x="143.968" y="54.75" width="63.0319" height="57.75" filterUnits="userSpaceOnUse" color-interpolation-filters="sRGB">
<feFlood flood-opacity="0" result="BackgroundImageFix"/>
<feColorMatrix in="SourceAlpha" type="matrix" values="0 0 0 0 0 0 0 0 0 0 0 0 0 0 0 0 0 0 127 0"/>
<feOffset dy="3.5"/>
<feGaussianBlur stdDeviation="10.5"/>
<feColorMatrix type="matrix" values="0 0 0 0 0.0627451 0 0 0 0 0.152941 0 0 0 0 0.396078 0 0 0 0.11 0"/>
<feBlend mode="normal" in2="BackgroundImageFix" result="effect1_dropShadow"/>
<feBlend mode="normal" in="SourceGraphic" in2="effect1_dropShadow" result="shape"/>
</filter>
</defs>
</svg>
