<svg width="279" height="393" viewBox="0 0 279 393" fill="none" xmlns="http://www.w3.org/2000/svg">
<g clip-path="url(#clip0_7304_194599)">
<path d="M64.8656 366.733C64.8656 366.733 80.9432 372.787 103.835 374.243C126.727 375.698 153.062 369.917 160.079 367.511L168.545 348.185C168.545 348.185 153.137 344.363 139.347 342.397C125.558 340.432 108.371 336.582 108.371 336.582C108.371 336.582 92.5646 335.143 80.7264 344.912C68.8881 354.681 64.8656 366.733 64.8656 366.733Z" fill="#F575A0"/>
<path d="M72.8873 302.412C72.8873 302.412 102.506 312.133 113.11 329.786L66.3752 309.03L72.8873 302.412Z" fill="#3C3452"/>
<path d="M113.936 331.531C112.828 329.434 108.501 323.781 92.354 314.458C72.1536 302.796 63.5659 305.396 62.0143 306.128C54.3934 309.722 52.43 319.197 52.43 319.197C52.43 319.197 47.2246 325.878 46.2214 329.103C44.7922 333.697 46.2221 346.476 47.0244 348.476C47.8266 350.477 53.7014 356.828 53.7014 356.828C53.7014 356.828 54.3072 365.173 60.0733 368.463C66.788 370.909 71.3519 368.633 71.3519 368.633L68.5751 367.722C69.8707 362.935 77.222 351.662 85.8166 345.698C101.055 335.125 114.884 337.728 116.985 337.903C116.985 337.903 115.69 334.85 113.936 331.531Z" fill="#634F77"/>
<path d="M151.27 362.426C151.246 355.263 164.5 344.313 165.522 343.673C166.544 343.033 186.797 339.736 188.621 341.097C190.445 342.458 203.124 351.008 203.192 352.585C203.261 354.161 203.451 366.263 202.918 367.185C202.385 368.108 200.032 371.054 200.032 371.054L195.92 370.832C195.92 370.832 189.795 381.44 189.151 381.99C188.507 382.541 171.596 387.536 169.883 386.547C168.17 385.559 166.634 383.134 166.634 383.134L172.161 375.256C172.161 375.256 161.802 374.271 158.766 372.749C157.478 372.104 151.294 369.588 151.27 362.426Z" fill="#C3CAE7"/>
<path d="M165.241 343.741L163.436 339.239L121.039 338.514L101.519 357.916L102.973 361.753L151.272 362.426L165.241 343.741Z" fill="#C3CAE7"/>
<path d="M139.317 361.521C139.317 361.521 136.522 368.055 139.194 371.904C139.194 371.904 133.282 373.103 127.014 373.789C121.752 374.365 115.906 374.525 115.906 374.525C115.906 374.525 110.633 370.097 112.423 359.369L139.317 361.521Z" fill="#C3CAE7"/>
<path d="M53.4608 316.564C74.1804 313.306 95.1125 322.393 112.445 332.63C112.445 332.63 77.8691 317.511 50.681 320.954L53.4608 316.564Z" fill="#494064"/>
<path d="M51.9836 355.145C63.5508 335.533 78.4447 324.992 102.308 330.698C102.308 330.698 70.9615 327.359 54.4552 359.339L51.9836 355.145Z" fill="#494064"/>
<path d="M188.621 341.097L188.649 346.417L175.465 366.709L176.684 369.258L190.583 347.303L191.763 343.141L188.621 341.097Z" fill="#A4A3BD"/>
<path d="M187.237 351.828L197.783 360.684L199.631 370.053L196.924 368.951L194.981 360.45L185.472 354.038L187.237 351.828Z" fill="#A4A3BD"/>
<path d="M181.027 360.465L191.02 366.465L194.028 373.967L193.213 375.803L189.371 368.05L179.662 361.983L181.027 360.465Z" fill="#A4A3BD"/>
<path d="M175.465 366.708L185.524 373.439L189.151 381.99L186.9 382.074L183.724 374.014L174.183 368.505L175.465 366.708Z" fill="#A4A3BD"/>
<path d="M197.884 356.13L183.725 374.015L184.577 375.506L198.308 358.22L197.884 356.13Z" fill="#A4A3BD"/>
<path d="M172.162 375.256L179.093 376.529L166.635 383.134L172.162 375.256Z" fill="#A4A3BD"/>
<path d="M165.239 343.74L151.27 362.426L151.624 365.628L169.206 342.802L165.239 343.74Z" fill="#A4A3BD"/>
<path d="M111.765 360.718L139.316 361.519L138.563 364.236L112.156 365.056L111.765 360.718Z" fill="#A4A3BD"/>
<path d="M163.436 339.239L148.449 357.568L101.519 357.916L102.973 361.753L151.272 362.426L149.228 358.479L164.082 341.227L163.436 339.239Z" fill="#A4A3BD"/>
<path d="M123.281 345.443C124.828 345.332 125.985 344.488 125.866 343.557C125.746 342.627 124.396 341.963 122.849 342.074C121.303 342.185 120.146 343.029 120.265 343.959C120.384 344.889 121.735 345.553 123.281 345.443Z" fill="#A4A3BD"/>
<path d="M131.712 345.391C133.259 345.28 134.416 344.437 134.297 343.506C134.177 342.576 132.827 341.912 131.28 342.023C129.733 342.133 128.576 342.977 128.696 343.908C128.815 344.838 130.165 345.502 131.712 345.391Z" fill="#A4A3BD"/>
<path d="M150.079 345.925C151.626 345.814 152.783 344.97 152.664 344.04C152.544 343.11 151.194 342.445 149.647 342.556C148.101 342.667 146.943 343.511 147.063 344.441C147.182 345.372 148.533 346.036 150.079 345.925Z" fill="#A4A3BD"/>
<path d="M140.654 345.864C142.201 345.753 143.358 344.909 143.239 343.979C143.12 343.048 141.769 342.384 140.222 342.495C138.676 342.606 137.519 343.45 137.638 344.38C137.757 345.311 139.108 345.975 140.654 345.864Z" fill="#14B18B"/>
<path d="M116.081 353.816C117.628 353.705 118.785 352.861 118.666 351.931C118.546 351 117.196 350.336 115.649 350.447C114.102 350.558 112.945 351.402 113.065 352.332C113.184 353.262 114.535 353.926 116.081 353.816Z" fill="#A4A3BD"/>
<path d="M133.416 354.446C134.963 354.335 136.12 353.491 136 352.561C135.881 351.631 134.531 350.966 132.984 351.077C131.437 351.188 130.28 352.032 130.4 352.962C130.519 353.892 131.869 354.557 133.416 354.446Z" fill="#A4A3BD"/>
<path d="M124.714 354.265C126.261 354.154 127.418 353.31 127.298 352.38C127.179 351.449 125.828 350.785 124.282 350.896C122.735 351.007 121.578 351.851 121.697 352.781C121.817 353.711 123.167 354.376 124.714 354.265Z" fill="#A4A3BD"/>
<path d="M142.68 354.644C144.226 354.533 145.383 353.689 145.264 352.759C145.145 351.828 143.794 351.164 142.248 351.275C140.701 351.386 139.544 352.23 139.663 353.16C139.783 354.09 141.133 354.755 142.68 354.644Z" fill="#A4A3BD"/>
<path d="M201.343 369.088C201.343 369.088 201.531 368.712 201.867 368.04C202.187 367.367 202.706 366.385 203.129 365.168C203.222 364.883 203.323 364.507 203.264 364.361C203.206 363.972 203.147 363.568 203.085 363.15C202.976 362.316 202.86 361.427 202.738 360.493C202.511 358.626 202.309 356.571 202.132 354.438L202.064 353.651L202.027 353.276C202.014 353.151 202.026 353.24 202.024 353.21C202.016 353.199 202.048 353.227 202.002 353.179L201.775 352.937L201.198 352.388C200.378 351.652 199.585 350.941 198.827 350.262C197.302 348.894 195.922 347.655 194.756 346.609C192.447 344.503 191.058 343.142 191.058 343.142C191.058 343.142 192.752 344.113 195.379 345.84C196.692 346.706 198.238 347.757 199.914 348.994C200.753 349.615 201.622 350.277 202.513 351.019L203.19 351.611L203.563 351.981C203.747 352.122 203.852 352.422 203.998 352.637C204.134 352.844 204.186 353.201 204.207 353.337L204.258 353.758L204.335 354.575C204.515 356.746 204.578 358.786 204.599 360.643C204.597 361.567 204.595 362.447 204.593 363.273C204.586 363.682 204.579 364.078 204.572 364.459C204.552 365.091 204.318 365.364 204.155 365.692C203.419 366.894 202.671 367.677 202.164 368.245C201.65 368.801 201.343 369.088 201.343 369.088Z" fill="#DDFFFF"/>
<path d="M187.076 342.088C187.076 342.088 186.548 342.106 185.547 342.138C184.546 342.172 183.077 342.255 181.204 342.412C179.334 342.585 177.06 342.842 174.457 343.247C173.155 343.447 171.772 343.685 170.316 343.967C169.591 344.114 168.846 344.266 168.081 344.422C167.064 344.655 166.021 344.894 164.953 345.14C164.52 344.238 163.661 342.446 162.767 340.582L162.722 340.594C162.488 340.584 162.24 340.574 161.979 340.562C161.417 340.535 160.801 340.504 160.147 340.472C158.838 340.398 157.377 340.315 155.894 340.232C136.692 339.067 121.037 337.091 121.037 337.091C121.037 337.091 136.515 337.003 155.717 338.168C158.965 338.391 162.118 338.607 164.037 338.738C164.54 339.887 165.033 341.014 165.461 341.993C165.61 342.345 165.747 342.67 165.869 342.958C165.882 343.015 165.894 343.065 165.903 343.105C165.98 343.098 165.996 343.103 166.328 343.046C166.732 342.978 167.131 342.911 167.526 342.845C168.318 342.73 169.09 342.618 169.841 342.509C171.347 342.31 172.777 342.16 174.122 342.052C176.812 341.831 179.156 341.768 181.078 341.773C183.003 341.793 184.503 341.87 185.522 341.952C186.54 342.041 187.076 342.088 187.076 342.088Z" fill="#DDFFFF"/>
<path d="M153.64 371.205C153.64 371.205 152.616 371.433 150.766 371.845C148.911 372.253 146.232 372.874 142.82 373.341C136.047 374.418 126.431 375.254 115.617 374.829C104.807 374.461 94.9379 372.949 87.8545 371.499C80.7601 370.074 76.4404 368.696 76.4404 368.696C76.4404 368.696 80.8184 369.631 87.8904 370.599C94.9594 371.593 104.717 372.635 115.411 373C126.108 373.419 135.699 373.05 142.564 372.432C146.019 372.195 148.761 371.802 150.67 371.563C152.581 371.332 153.64 371.205 153.64 371.205Z" fill="#B8EFEE"/>
<path opacity="0.47" d="M-15.0454 248.892L276.132 239.497L141.886 343.965H139.108L-15.0454 248.892Z" fill="url(#paint0_linear_7304_194599)"/>
<path opacity="0.6" d="M141 365.997C240.687 365.997 321.5 282.946 321.5 180.497C321.5 78.0483 240.687 -5.00293 141 -5.00293C41.3126 -5.00293 -39.5 78.0483 -39.5 180.497C-39.5 282.946 41.3126 365.997 141 365.997Z" fill="url(#paint1_radial_7304_194599)"/>
<path d="M27.1865 54.4971L33.3077 58.9767C35.7069 60.7325 38.6027 61.6789 41.5757 61.6789H241.68C247.204 61.6789 251.682 66.1571 251.682 71.6812V282.84C251.682 288.364 247.204 292.843 241.68 292.843H35.1865C30.7682 292.843 27.1865 289.261 27.1865 284.843V54.4971Z" fill="url(#paint2_linear_7304_194599)"/>
<path d="M251.682 276.172H27.1865V279.506H251.682V276.172Z" fill="#003628" fill-opacity="0.03"/>
<path d="M251.682 193.931H27.1865V197.265H251.682V193.931Z" fill="#003628" fill-opacity="0.03"/>
<path d="M251.682 266.17H27.1865V269.504H251.682V266.17Z" fill="#003628" fill-opacity="0.03"/>
<path d="M251.682 183.929H27.1865V187.263H251.682V183.929Z" fill="#003628" fill-opacity="0.03"/>
<path d="M251.682 255.056H27.1865V258.39H251.682V255.056Z" fill="#003628" fill-opacity="0.03"/>
<path d="M251.682 226.161H27.1865V229.495H251.682V226.161Z" fill="#003628" fill-opacity="0.03"/>
<path d="M251.682 86.1289H27.1865V89.463H251.682V86.1289Z" fill="#003628" fill-opacity="0.03"/>
<path d="M251.682 123.915H27.1865V127.249H251.682V123.915Z" fill="#003628" fill-opacity="0.03"/>
<path d="M251.682 229.495H27.1865V232.829H251.682V229.495Z" fill="#003628" fill-opacity="0.03"/>
<path d="M251.682 89.4629H27.1865V92.797H251.682V89.4629Z" fill="#003628" fill-opacity="0.03"/>
<path d="M251.682 127.25H27.1865V130.584H251.682V127.25Z" fill="#003628" fill-opacity="0.03"/>
<path d="M251.682 156.145H27.1865V159.479H251.682V156.145Z" fill="#003628" fill-opacity="0.03"/>
<path d="M251.682 236.163H27.1865V239.497H251.682V236.163Z" fill="#003628" fill-opacity="0.03"/>
<path d="M251.682 133.917H27.1865V137.252H251.682V133.917Z" fill="#003628" fill-opacity="0.03"/>
<path d="M251.682 222.827H27.1865V226.161H251.682V222.827Z" fill="#003628" fill-opacity="0.03"/>
<path d="M251.682 82.7949H27.1865V86.129H251.682V82.7949Z" fill="#003628" fill-opacity="0.03"/>
<path d="M62.857 107.595C61.4033 107.595 60.0897 107.282 58.9161 106.655C57.7558 106.028 56.8423 105.168 56.1754 104.074C55.522 102.967 55.1952 101.727 55.1952 100.353C55.1952 98.9797 55.522 97.7461 56.1754 96.6525C56.8423 95.5456 57.7558 94.6788 58.9161 94.052C60.0897 93.4251 61.4033 93.1117 62.857 93.1117C64.3106 93.1117 65.6176 93.4251 66.7778 94.052C67.9381 94.6788 68.8517 95.5456 69.5185 96.6525C70.1853 97.7461 70.5187 98.9797 70.5187 100.353C70.5187 101.727 70.1853 102.967 69.5185 104.074C68.8517 105.168 67.9381 106.028 66.7778 106.655C65.6176 107.282 64.3106 107.595 62.857 107.595ZM62.857 104.834C63.6838 104.834 64.4306 104.648 65.0975 104.274C65.7643 103.888 66.2844 103.354 66.6578 102.674C67.0446 101.994 67.238 101.22 67.238 100.353C67.238 99.4865 67.0446 98.713 66.6578 98.0329C66.2844 97.3527 65.7643 96.8259 65.0975 96.4525C64.4306 96.0657 63.6838 95.8724 62.857 95.8724C62.0301 95.8724 61.2833 96.0657 60.6164 96.4525C59.9496 96.8259 59.4228 97.3527 59.0361 98.0329C58.6627 98.713 58.476 99.4865 58.476 100.353C58.476 101.22 58.6627 101.994 59.0361 102.674C59.4228 103.354 59.9496 103.888 60.6164 104.274C61.2833 104.648 62.0301 104.834 62.857 104.834ZM81.8763 107.355L79.1757 103.454H79.0156H76.195V107.355H72.9543V93.3518H79.0156C80.2559 93.3518 81.3295 93.5585 82.2364 93.9719C83.1566 94.3854 83.8634 94.9722 84.3568 95.7323C84.8503 96.4925 85.097 97.3927 85.097 98.433C85.097 99.4732 84.8436 100.373 84.3368 101.134C83.8434 101.88 83.1366 102.454 82.2164 102.854L85.3571 107.355H81.8763ZM81.8163 98.433C81.8163 97.6461 81.5629 97.046 81.0561 96.6325C80.5493 96.2058 79.8091 95.9924 78.8356 95.9924H76.195V100.874H78.8356C79.8091 100.874 80.5493 100.66 81.0561 100.233C81.5629 99.8066 81.8163 99.2065 81.8163 98.433ZM87.6646 93.3518H94.0261C95.5464 93.3518 96.8867 93.6452 98.047 94.232C99.2206 94.8055 100.127 95.619 100.768 96.6726C101.421 97.7261 101.748 98.9531 101.748 100.353C101.748 101.754 101.421 102.981 100.768 104.034C100.127 105.088 99.2206 105.908 98.047 106.495C96.8867 107.068 95.5464 107.355 94.0261 107.355H87.6646V93.3518ZM93.866 104.694C95.2664 104.694 96.3799 104.308 97.2068 103.534C98.047 102.747 98.4671 101.687 98.4671 100.353C98.4671 99.0198 98.047 97.9662 97.2068 97.1927C96.3799 96.4058 95.2664 96.0124 93.866 96.0124H90.9054V104.694H93.866ZM115.634 106.155C114.968 106.608 114.127 106.962 113.114 107.215C112.114 107.468 111.047 107.595 109.913 107.595C108.499 107.595 107.299 107.422 106.312 107.075C105.325 106.715 104.579 106.221 104.072 105.595C103.565 104.954 103.312 104.228 103.312 103.414C103.312 102.667 103.518 102.007 103.932 101.434C104.345 100.86 104.912 100.433 105.632 100.153C105.085 99.8599 104.659 99.4599 104.352 98.9531C104.058 98.4463 103.912 97.8795 103.912 97.2527C103.912 96.4925 104.145 95.799 104.612 95.1722C105.079 94.5454 105.786 94.0453 106.732 93.6719C107.679 93.2985 108.84 93.1117 110.213 93.1117C111.12 93.1117 112.007 93.2051 112.874 93.3918C113.741 93.5652 114.494 93.8052 115.134 94.112L114.234 96.5925C113.007 96.0191 111.707 95.7323 110.333 95.7323C109.293 95.7323 108.506 95.8924 107.973 96.2124C107.453 96.5192 107.193 96.9393 107.193 97.4727C107.193 97.9662 107.366 98.3463 107.713 98.613C108.073 98.8664 108.613 98.9931 109.333 98.9931H113.154V101.554H109.133C108.319 101.554 107.693 101.694 107.253 101.974C106.812 102.254 106.592 102.661 106.592 103.194C106.592 103.754 106.872 104.194 107.433 104.514C108.006 104.821 108.88 104.974 110.053 104.974C110.88 104.974 111.707 104.868 112.534 104.654C113.361 104.428 114.061 104.114 114.634 103.714L115.634 106.155ZM126.457 107.355L123.756 103.454H123.596H120.775V107.355H117.535V93.3518H123.596C124.836 93.3518 125.91 93.5585 126.817 93.9719C127.737 94.3854 128.444 94.9722 128.937 95.7323C129.431 96.4925 129.677 97.3927 129.677 98.433C129.677 99.4732 129.424 100.373 128.917 101.134C128.424 101.88 127.717 102.454 126.797 102.854L129.938 107.355H126.457ZM126.397 98.433C126.397 97.6461 126.143 97.046 125.637 96.6325C125.13 96.2058 124.39 95.9924 123.416 95.9924H120.775V100.874H123.416C124.39 100.874 125.13 100.66 125.637 100.233C126.143 99.8066 126.397 99.2065 126.397 98.433ZM76.9002 118.352V126.614C76.9002 128.561 76.3734 130.048 75.3198 131.075C74.2662 132.088 72.7725 132.595 70.8388 132.595C69.8786 132.595 69.0184 132.455 68.2582 132.175C67.5113 131.895 66.8979 131.501 66.4178 130.995C65.9243 131.501 65.3042 131.895 64.5573 132.175C63.8105 132.455 62.9636 132.595 62.0168 132.595C60.083 132.595 58.5893 132.088 57.5357 131.075C56.4822 130.048 55.9554 128.561 55.9554 126.614V118.352H59.1961V126.514C59.1961 127.647 59.4295 128.487 59.8963 129.034C60.3631 129.568 61.0565 129.834 61.9768 129.834C63.8572 129.834 64.7974 128.727 64.7974 126.514V118.352H68.0381V126.514C68.0381 128.727 68.985 129.834 70.8788 129.834C72.7192 129.834 73.6394 128.727 73.6394 126.514V118.352H76.9002ZM86.4057 118.112C87.6994 118.112 88.8263 118.365 89.7865 118.872C90.7467 119.379 91.4936 120.126 92.027 121.112C92.5605 122.099 92.8272 123.293 92.8272 124.693V132.355H89.5865V128.994H83.185V132.355H79.9843V124.693C79.9843 123.293 80.251 122.099 80.7845 121.112C81.3179 120.126 82.0648 119.379 83.025 118.872C83.9852 118.365 85.1121 118.112 86.4057 118.112ZM89.5865 126.394V124.393C89.5865 123.233 89.2997 122.359 88.7263 121.773C88.1528 121.172 87.3726 120.872 86.3857 120.872C85.3855 120.872 84.5987 121.172 84.0252 121.773C83.4651 122.359 83.185 123.233 83.185 124.393V126.394H89.5865ZM100.627 132.595C99.52 132.595 98.4465 132.448 97.4062 132.155C96.3793 131.848 95.5525 131.455 94.9257 130.975L96.0259 128.534C96.626 128.974 97.3395 129.328 98.1664 129.594C98.9932 129.861 99.8201 129.994 100.647 129.994C101.567 129.994 102.247 129.861 102.687 129.594C103.128 129.314 103.348 128.948 103.348 128.494C103.348 128.161 103.214 127.887 102.947 127.674C102.694 127.447 102.361 127.267 101.947 127.134C101.547 127 101 126.854 100.307 126.694C99.24 126.44 98.3664 126.187 97.6863 125.934C97.0061 125.68 96.4193 125.273 95.9259 124.713C95.4458 124.153 95.2057 123.406 95.2057 122.473C95.2057 121.659 95.4258 120.926 95.8659 120.272C96.306 119.605 96.9661 119.079 97.8463 118.692C98.7399 118.305 99.8268 118.112 101.107 118.112C102.001 118.112 102.874 118.218 103.728 118.432C104.581 118.645 105.328 118.952 105.968 119.352L104.968 121.813C103.674 121.079 102.381 120.712 101.087 120.712C100.18 120.712 99.5067 120.859 99.0666 121.152C98.6398 121.446 98.4265 121.833 98.4265 122.313C98.4265 122.793 98.6732 123.153 99.1666 123.393C99.6734 123.62 100.44 123.846 101.467 124.073C102.534 124.326 103.408 124.58 104.088 124.833C104.768 125.087 105.348 125.487 105.828 126.034C106.322 126.58 106.568 127.321 106.568 128.254C106.568 129.054 106.342 129.788 105.888 130.455C105.448 131.108 104.781 131.628 103.888 132.015C102.994 132.402 101.907 132.595 100.627 132.595ZM120.97 120.872C119.849 120.872 119.002 121.119 118.429 121.613C117.856 122.093 117.569 122.819 117.569 123.793V124.653H123.33V127.254H117.569V132.355H114.328V123.813C114.328 122.013 114.888 120.612 116.008 119.612C117.142 118.612 118.722 118.112 120.749 118.112C121.55 118.112 122.303 118.198 123.01 118.372C123.717 118.532 124.33 118.772 124.85 119.092L123.85 121.653C123.05 121.132 122.09 120.872 120.97 120.872ZM131.557 120.952V129.754H133.977V132.355H125.875V129.754H128.316V120.952H125.875V118.352H133.977V120.952H131.557ZM136.426 118.352H139.666V129.714H146.688V132.355H136.426V118.352ZM148.499 118.352H151.74V129.714H158.761V132.355H148.499V118.352ZM171.936 131.155C171.269 131.608 170.429 131.962 169.416 132.215C168.415 132.468 167.349 132.595 166.215 132.595C164.801 132.595 163.601 132.422 162.614 132.075C161.627 131.715 160.88 131.221 160.374 130.595C159.867 129.954 159.613 129.228 159.613 128.414C159.613 127.667 159.82 127.007 160.234 126.434C160.647 125.86 161.214 125.433 161.934 125.153C161.387 124.86 160.96 124.46 160.654 123.953C160.36 123.446 160.214 122.879 160.214 122.253C160.214 121.493 160.447 120.799 160.914 120.172C161.381 119.545 162.087 119.045 163.034 118.672C163.981 118.298 165.141 118.112 166.515 118.112C167.422 118.112 168.309 118.205 169.176 118.392C170.043 118.565 170.796 118.805 171.436 119.112L170.536 121.593C169.309 121.019 168.009 120.732 166.635 120.732C165.595 120.732 164.808 120.892 164.275 121.212C163.754 121.519 163.494 121.939 163.494 122.473C163.494 122.966 163.668 123.346 164.014 123.613C164.375 123.866 164.915 123.993 165.635 123.993H169.456V126.554H165.435C164.621 126.554 163.994 126.694 163.554 126.974C163.114 127.254 162.894 127.661 162.894 128.194C162.894 128.754 163.174 129.194 163.734 129.514C164.308 129.821 165.181 129.974 166.355 129.974C167.182 129.974 168.009 129.868 168.836 129.654C169.662 129.428 170.363 129.114 170.936 128.714L171.936 131.155ZM173.837 118.352H180.198C181.718 118.352 183.059 118.645 184.219 119.232C185.393 119.805 186.299 120.619 186.94 121.673C187.593 122.726 187.92 123.953 187.92 125.353C187.92 126.754 187.593 127.981 186.94 129.034C186.299 130.088 185.393 130.908 184.219 131.495C183.059 132.068 181.718 132.355 180.198 132.355H173.837V118.352ZM180.038 129.694C181.438 129.694 182.552 129.308 183.379 128.534C184.219 127.747 184.639 126.687 184.639 125.353C184.639 124.02 184.219 122.966 183.379 122.193C182.552 121.406 181.438 121.012 180.038 121.012H177.077V129.694H180.038Z" fill="white"/>
<path d="M62.2835 158.737C62.7992 158.906 63.2081 159.19 63.5104 159.59C63.8127 159.982 63.9639 160.471 63.9639 161.057C63.9639 161.866 63.6527 162.493 63.0303 162.938C62.408 163.373 61.5011 163.591 60.3097 163.591H55.6687V154.256H60.043C61.1455 154.256 61.9945 154.474 62.5902 154.909C63.1859 155.336 63.4838 155.927 63.4838 156.683C63.4838 157.145 63.3771 157.554 63.1637 157.91C62.9503 158.266 62.6569 158.541 62.2835 158.737ZM57.4024 155.616V158.19H59.8563C60.4609 158.19 60.9232 158.083 61.2433 157.87C61.5722 157.648 61.7367 157.328 61.7367 156.91C61.7367 156.483 61.5722 156.163 61.2433 155.95C60.9232 155.727 60.4609 155.616 59.8563 155.616H57.4024ZM60.203 162.231C61.5455 162.231 62.2168 161.782 62.2168 160.884C62.2168 159.986 61.5455 159.537 60.203 159.537H57.4024V162.231H60.203ZM72.5491 156.47V162.511C72.5491 165.018 71.3177 166.272 68.8549 166.272C68.2058 166.272 67.5835 166.183 66.9878 166.005C66.401 165.836 65.9164 165.587 65.5341 165.258L66.281 164.005C66.5833 164.263 66.9522 164.467 67.3879 164.618C67.8235 164.769 68.2814 164.845 68.7615 164.845C69.4906 164.845 70.024 164.667 70.3619 164.311C70.7086 163.965 70.882 163.427 70.882 162.698V162.364C70.6153 162.658 70.2908 162.884 69.9085 163.045C69.5261 163.196 69.1127 163.271 68.6682 163.271C67.7168 163.271 66.9656 163.009 66.4143 162.484C65.872 161.96 65.6008 161.173 65.6008 160.124V156.47H67.2679V159.91C67.2679 160.542 67.4101 161.017 67.6946 161.337C67.988 161.649 68.4014 161.804 68.9349 161.804C69.5306 161.804 70.0018 161.622 70.3486 161.257C70.7042 160.893 70.882 160.364 70.882 159.67V156.47H72.5491ZM83.2186 154.122C84.3388 154.122 85.2101 154.465 85.8325 155.149C86.4637 155.834 86.7794 156.812 86.7794 158.083V163.591H85.0456V158.15C85.0456 157.323 84.8456 156.701 84.4455 156.283C84.0543 155.856 83.5075 155.643 82.8051 155.643C82.0405 155.643 81.4315 155.87 80.9781 156.323C80.5335 156.768 80.3112 157.434 80.3112 158.323V163.591H78.5775V154.256H80.2579V155.429C80.9069 154.558 81.8938 154.122 83.2186 154.122ZM92.4323 162.271C93.2058 162.271 93.8504 162.013 94.3661 161.497L95.2463 162.524C94.9351 162.907 94.535 163.196 94.046 163.391C93.557 163.587 93.0058 163.685 92.3923 163.685C91.6099 163.685 90.9209 163.529 90.3252 163.218C89.7295 162.907 89.2672 162.475 88.9382 161.924C88.6181 161.364 88.4581 160.733 88.4581 160.03C88.4581 159.337 88.6137 158.715 88.9249 158.163C89.2449 157.603 89.6806 157.168 90.2318 156.856C90.792 156.545 91.4232 156.39 92.1256 156.39C92.7924 156.39 93.397 156.536 93.9393 156.83C94.4906 157.114 94.9262 157.528 95.2463 158.07C95.5664 158.604 95.7264 159.23 95.7264 159.95L90.2718 161.017C90.4408 161.426 90.7119 161.738 91.0854 161.951C91.4588 162.164 91.9078 162.271 92.4323 162.271ZM92.1256 157.723C91.5121 157.723 91.0142 157.923 90.6319 158.323C90.2585 158.724 90.0718 159.261 90.0718 159.937V159.95L94.0994 159.177C93.9838 158.741 93.7482 158.39 93.3925 158.123C93.0458 157.857 92.6235 157.723 92.1256 157.723ZM101.667 163.591L99.8399 161.124L97.9995 163.591H96.1591L98.9331 159.977L96.2791 156.47H98.1329L99.88 158.804L101.627 156.47H103.427L100.76 159.95L103.547 163.591H101.667ZM108.779 163.205C108.583 163.365 108.343 163.485 108.058 163.565C107.783 163.645 107.489 163.685 107.178 163.685C106.396 163.685 105.791 163.48 105.364 163.071C104.938 162.662 104.724 162.067 104.724 161.284V154.896H106.391V156.523H108.298V157.857H106.391V161.244C106.391 161.591 106.476 161.858 106.645 162.044C106.823 162.222 107.067 162.311 107.378 162.311C107.752 162.311 108.063 162.213 108.312 162.018L108.779 163.205ZM120.377 158.817H122.017V163.591H120.59V163.045C119.924 163.498 119.088 163.725 118.083 163.725C117.221 163.725 116.429 163.538 115.709 163.165C114.989 162.791 114.411 162.249 113.976 161.538C113.549 160.826 113.335 159.977 113.335 158.99C113.335 158.057 113.553 157.221 113.989 156.483C114.425 155.736 115.025 155.158 115.789 154.749C116.563 154.331 117.43 154.122 118.39 154.122C119.172 154.122 119.884 154.251 120.524 154.509C121.164 154.767 121.702 155.145 122.137 155.643L121.044 156.71C120.333 155.998 119.475 155.643 118.47 155.643C117.812 155.643 117.225 155.785 116.71 156.07C116.203 156.345 115.803 156.736 115.509 157.243C115.225 157.75 115.082 158.328 115.082 158.977C115.082 159.662 115.225 160.253 115.509 160.751C115.803 161.24 116.189 161.613 116.67 161.871C117.15 162.12 117.674 162.244 118.243 162.244C118.643 162.244 119.026 162.182 119.39 162.058C119.764 161.933 120.093 161.751 120.377 161.511V158.817ZM127.531 162.271C128.305 162.271 128.95 162.013 129.465 161.497L130.345 162.524C130.034 162.907 129.634 163.196 129.145 163.391C128.656 163.587 128.105 163.685 127.491 163.685C126.709 163.685 126.02 163.529 125.424 163.218C124.829 162.907 124.366 162.475 124.037 161.924C123.717 161.364 123.557 160.733 123.557 160.03C123.557 159.337 123.713 158.715 124.024 158.163C124.344 157.603 124.78 157.168 125.331 156.856C125.891 156.545 126.522 156.39 127.225 156.39C127.892 156.39 128.496 156.536 129.038 156.83C129.59 157.114 130.025 157.528 130.345 158.07C130.665 158.604 130.826 159.23 130.826 159.95L125.371 161.017C125.54 161.426 125.811 161.738 126.184 161.951C126.558 162.164 127.007 162.271 127.531 162.271ZM127.225 157.723C126.611 157.723 126.113 157.923 125.731 158.323C125.358 158.724 125.171 159.261 125.171 159.937V159.95L129.198 159.177C129.083 158.741 128.847 158.39 128.492 158.123C128.145 157.857 127.723 157.723 127.225 157.723ZM136.468 156.39C137.366 156.39 138.086 156.652 138.629 157.177C139.171 157.701 139.442 158.479 139.442 159.51V163.591H137.775V159.724C137.775 159.101 137.628 158.635 137.335 158.323C137.042 158.003 136.624 157.843 136.081 157.843C135.468 157.843 134.983 158.03 134.628 158.403C134.272 158.768 134.094 159.297 134.094 159.99V163.591H132.427V156.47H134.014V157.39C134.29 157.061 134.637 156.812 135.054 156.643C135.472 156.474 135.944 156.39 136.468 156.39ZM151.884 156.576C151.004 156.078 150.088 155.776 149.137 155.67V163.591H147.403V155.67C146.443 155.776 145.523 156.078 144.642 156.576L144.042 155.243C144.665 154.869 145.331 154.589 146.043 154.403C146.763 154.216 147.501 154.122 148.257 154.122C149.012 154.122 149.75 154.216 150.47 154.403C151.191 154.589 151.862 154.869 152.484 155.243L151.884 156.576ZM154.93 157.51C155.41 156.763 156.255 156.39 157.464 156.39V157.977C157.322 157.95 157.193 157.937 157.078 157.937C156.429 157.937 155.922 158.128 155.557 158.51C155.193 158.884 155.01 159.426 155.01 160.137V163.591H153.343V156.47H154.93V157.51ZM165.775 156.47V163.591H164.188V162.671C163.912 163.009 163.57 163.262 163.161 163.431C162.761 163.6 162.316 163.685 161.827 163.685C161.134 163.685 160.512 163.534 159.96 163.231C159.418 162.929 158.991 162.502 158.68 161.951C158.378 161.4 158.227 160.76 158.227 160.03C158.227 159.301 158.378 158.666 158.68 158.123C158.991 157.572 159.418 157.145 159.96 156.843C160.512 156.541 161.134 156.39 161.827 156.39C162.29 156.39 162.712 156.47 163.094 156.63C163.486 156.79 163.823 157.025 164.108 157.337V156.47H165.775ZM162.014 162.258C162.628 162.258 163.134 162.053 163.534 161.644C163.935 161.235 164.135 160.697 164.135 160.03C164.135 159.364 163.935 158.826 163.534 158.417C163.134 158.008 162.628 157.803 162.014 157.803C161.401 157.803 160.894 158.008 160.494 158.417C160.103 158.826 159.907 159.364 159.907 160.03C159.907 160.697 160.103 161.235 160.494 161.644C160.894 162.053 161.401 162.258 162.014 162.258ZM174.931 153.696V163.591H173.331V162.671C173.055 163.009 172.713 163.262 172.304 163.431C171.904 163.6 171.459 163.685 170.97 163.685C170.285 163.685 169.668 163.534 169.116 163.231C168.574 162.929 168.147 162.502 167.836 161.951C167.525 161.391 167.369 160.751 167.369 160.03C167.369 159.31 167.525 158.675 167.836 158.123C168.147 157.572 168.574 157.145 169.116 156.843C169.668 156.541 170.285 156.39 170.97 156.39C171.441 156.39 171.873 156.47 172.264 156.63C172.655 156.79 172.988 157.03 173.264 157.35V153.696H174.931ZM171.17 162.258C171.57 162.258 171.93 162.169 172.25 161.991C172.57 161.804 172.824 161.542 173.011 161.204C173.197 160.866 173.291 160.475 173.291 160.03C173.291 159.586 173.197 159.195 173.011 158.857C172.824 158.519 172.57 158.261 172.25 158.083C171.93 157.897 171.57 157.803 171.17 157.803C170.77 157.803 170.41 157.897 170.09 158.083C169.77 158.261 169.516 158.519 169.33 158.857C169.143 159.195 169.05 159.586 169.05 160.03C169.05 160.475 169.143 160.866 169.33 161.204C169.516 161.542 169.77 161.804 170.09 161.991C170.41 162.169 170.77 162.258 171.17 162.258ZM180.499 162.271C181.273 162.271 181.917 162.013 182.433 161.497L183.313 162.524C183.002 162.907 182.602 163.196 182.113 163.391C181.624 163.587 181.073 163.685 180.459 163.685C179.677 163.685 178.988 163.529 178.392 163.218C177.796 162.907 177.334 162.475 177.005 161.924C176.685 161.364 176.525 160.733 176.525 160.03C176.525 159.337 176.681 158.715 176.992 158.163C177.312 157.603 177.747 157.168 178.299 156.856C178.859 156.545 179.49 156.39 180.192 156.39C180.859 156.39 181.464 156.536 182.006 156.83C182.557 157.114 182.993 157.528 183.313 158.07C183.633 158.604 183.793 159.23 183.793 159.95L178.339 161.017C178.508 161.426 178.779 161.738 179.152 161.951C179.526 162.164 179.975 162.271 180.499 162.271ZM180.192 157.723C179.579 157.723 179.081 157.923 178.699 158.323C178.325 158.724 178.139 159.261 178.139 159.937V159.95L182.166 159.177C182.051 158.741 181.815 158.39 181.459 158.123C181.113 157.857 180.69 157.723 180.192 157.723ZM186.982 157.51C187.462 156.763 188.307 156.39 189.516 156.39V157.977C189.374 157.95 189.245 157.937 189.129 157.937C188.48 157.937 187.973 158.128 187.609 158.51C187.244 158.884 187.062 159.426 187.062 160.137V163.591H185.395V156.47H186.982V157.51Z" fill="white"/>
<path d="M58.5626 185.952C57.8425 185.952 57.1445 185.849 56.4688 185.645C55.802 185.44 55.273 185.169 54.8818 184.831L55.4819 183.484C55.8643 183.787 56.331 184.036 56.8823 184.231C57.4424 184.418 58.0025 184.511 58.5626 184.511C59.2561 184.511 59.7718 184.4 60.1097 184.178C60.4564 183.956 60.6298 183.662 60.6298 183.298C60.6298 183.031 60.532 182.813 60.3364 182.644C60.1497 182.466 59.9096 182.329 59.6162 182.231C59.3228 182.133 58.9227 182.022 58.4159 181.897C57.7047 181.729 57.1268 181.56 56.6822 181.391C56.2466 181.222 55.8687 180.959 55.5486 180.604C55.2374 180.239 55.0819 179.75 55.0819 179.137C55.0819 178.621 55.2197 178.154 55.4953 177.737C55.7798 177.31 56.2021 176.972 56.7622 176.723C57.3313 176.474 58.0247 176.35 58.8427 176.35C59.4117 176.35 59.9719 176.421 60.5231 176.563C61.0743 176.705 61.55 176.91 61.9501 177.176L61.4033 178.523C60.9943 178.283 60.5675 178.101 60.123 177.977C59.6785 177.852 59.2472 177.79 58.8294 177.79C58.1448 177.79 57.6335 177.905 57.2957 178.137C56.9667 178.368 56.8022 178.675 56.8022 179.057C56.8022 179.324 56.8956 179.541 57.0823 179.71C57.2779 179.879 57.5224 180.013 57.8158 180.11C58.1092 180.208 58.5093 180.319 59.0161 180.444C59.7096 180.604 60.2786 180.773 60.7231 180.951C61.1677 181.12 61.5455 181.382 61.8567 181.737C62.1768 182.093 62.3368 182.573 62.3368 183.178C62.3368 183.693 62.1946 184.16 61.9101 184.578C61.6345 184.996 61.2121 185.329 60.6431 185.578C60.0741 185.827 59.3806 185.952 58.5626 185.952ZM70.7908 178.697V184.738C70.7908 187.245 69.5595 188.499 67.0967 188.499C66.4476 188.499 65.8253 188.41 65.2296 188.232C64.6428 188.063 64.1582 187.814 63.7759 187.485L64.5228 186.232C64.825 186.49 65.194 186.694 65.6297 186.845C66.0653 186.996 66.5232 187.072 67.0033 187.072C67.7324 187.072 68.2658 186.894 68.6037 186.539C68.9504 186.192 69.1238 185.654 69.1238 184.925V184.591C68.8571 184.885 68.5326 185.112 68.1502 185.272C67.7679 185.423 67.3545 185.498 66.91 185.498C65.9586 185.498 65.2074 185.236 64.6561 184.711C64.1138 184.187 63.8426 183.4 63.8426 182.351V178.697H65.5096V182.138C65.5096 182.769 65.6519 183.244 65.9364 183.565C66.2298 183.876 66.6432 184.031 67.1767 184.031C67.7724 184.031 68.2436 183.849 68.5903 183.484C68.946 183.12 69.1238 182.591 69.1238 181.897V178.697H70.7908ZM81.9622 178.617C82.8602 178.617 83.5715 178.879 84.0961 179.404C84.6206 179.919 84.8829 180.697 84.8829 181.737V185.818H83.2159V181.951C83.2159 181.328 83.078 180.862 82.8024 180.55C82.5268 180.23 82.1312 180.07 81.6155 180.07C81.0554 180.07 80.6064 180.257 80.2685 180.631C79.9307 180.995 79.7617 181.52 79.7617 182.204V185.818H78.0947V181.951C78.0947 181.328 77.9569 180.862 77.6813 180.55C77.4056 180.23 77.01 180.07 76.4943 180.07C75.9253 180.07 75.4719 180.253 75.134 180.617C74.8051 180.982 74.6406 181.511 74.6406 182.204V185.818H72.9735V178.697H74.5606V179.604C74.8273 179.284 75.1607 179.039 75.5608 178.87C75.9609 178.701 76.4054 178.617 76.8944 178.617C77.4279 178.617 77.8991 178.719 78.3081 178.923C78.7259 179.119 79.0549 179.412 79.295 179.804C79.5884 179.43 79.9662 179.141 80.4286 178.937C80.8909 178.723 81.4021 178.617 81.9622 178.617ZM90.9607 178.617C91.6542 178.617 92.2722 178.768 92.8145 179.07C93.3657 179.372 93.7969 179.799 94.1081 180.35C94.4193 180.902 94.5749 181.537 94.5749 182.258C94.5749 182.978 94.4193 183.618 94.1081 184.178C93.7969 184.729 93.3657 185.156 92.8145 185.458C92.2722 185.761 91.6542 185.912 90.9607 185.912C90.4717 185.912 90.0228 185.827 89.6138 185.658C89.2137 185.489 88.8758 185.236 88.6002 184.898V185.818H87.0132V175.923H88.6802V179.564C88.9647 179.252 89.2981 179.017 89.6805 178.857C90.0717 178.697 90.4984 178.617 90.9607 178.617ZM90.774 184.485C91.3875 184.485 91.8898 184.28 92.281 183.871C92.6811 183.462 92.8812 182.924 92.8812 182.258C92.8812 181.591 92.6811 181.053 92.281 180.644C91.8898 180.235 91.3875 180.03 90.774 180.03C90.3739 180.03 90.0139 180.124 89.6938 180.31C89.3737 180.488 89.1203 180.746 88.9336 181.084C88.7469 181.422 88.6536 181.813 88.6536 182.258C88.6536 182.702 88.7469 183.093 88.9336 183.431C89.1203 183.769 89.3737 184.031 89.6938 184.218C90.0139 184.396 90.3739 184.485 90.774 184.485ZM99.3566 185.912C98.6364 185.912 97.9874 185.756 97.4095 185.445C96.8316 185.134 96.3782 184.703 96.0492 184.151C95.7291 183.591 95.5691 182.96 95.5691 182.258C95.5691 181.555 95.7291 180.928 96.0492 180.377C96.3782 179.826 96.8316 179.395 97.4095 179.083C97.9874 178.772 98.6364 178.617 99.3566 178.617C100.086 178.617 100.739 178.772 101.317 179.083C101.895 179.395 102.344 179.826 102.664 180.377C102.993 180.928 103.157 181.555 103.157 182.258C103.157 182.96 102.993 183.591 102.664 184.151C102.344 184.703 101.895 185.134 101.317 185.445C100.739 185.756 100.086 185.912 99.3566 185.912ZM99.3566 184.485C99.9701 184.485 100.477 184.28 100.877 183.871C101.277 183.462 101.477 182.924 101.477 182.258C101.477 181.591 101.277 181.053 100.877 180.644C100.477 180.235 99.9701 180.03 99.3566 180.03C98.7431 180.03 98.2364 180.235 97.8363 180.644C97.4451 181.053 97.2495 181.591 97.2495 182.258C97.2495 182.924 97.4451 183.462 97.8363 183.871C98.2364 184.28 98.7431 184.485 99.3566 184.485ZM107.099 185.912C106.361 185.912 105.783 185.712 105.365 185.312C104.956 184.903 104.752 184.329 104.752 183.591V175.923H106.419V183.471C106.419 184.182 106.752 184.538 107.419 184.538C107.641 184.538 107.841 184.494 108.019 184.405L108.099 185.738C107.788 185.854 107.454 185.912 107.099 185.912ZM119.692 180.964C120.208 181.133 120.617 181.417 120.919 181.817C121.222 182.209 121.373 182.698 121.373 183.284C121.373 184.094 121.062 184.72 120.439 185.165C119.817 185.601 118.91 185.818 117.719 185.818H113.078V176.483H117.452C118.554 176.483 119.403 176.701 119.999 177.136C120.595 177.563 120.893 178.154 120.893 178.91C120.893 179.372 120.786 179.781 120.573 180.137C120.359 180.493 120.066 180.768 119.692 180.964ZM114.811 177.843V180.417H117.265C117.87 180.417 118.332 180.31 118.652 180.097C118.981 179.875 119.146 179.555 119.146 179.137C119.146 178.71 118.981 178.39 118.652 178.177C118.332 177.954 117.87 177.843 117.265 177.843H114.811ZM117.612 184.458C118.954 184.458 119.626 184.009 119.626 183.111C119.626 182.213 118.954 181.764 117.612 181.764H114.811V184.458H117.612ZM127.864 176.35C128.984 176.35 129.856 176.692 130.478 177.376C131.109 178.061 131.425 179.039 131.425 180.31V185.818H129.691V180.377C129.691 179.55 129.491 178.928 129.091 178.51C128.7 178.083 128.153 177.87 127.451 177.87C126.686 177.87 126.077 178.097 125.624 178.55C125.179 178.995 124.957 179.661 124.957 180.55V185.818H123.223V176.483H124.903V177.657C125.552 176.785 126.539 176.35 127.864 176.35ZM140.465 180.964C140.981 181.133 141.39 181.417 141.692 181.817C141.995 182.209 142.146 182.698 142.146 183.284C142.146 184.094 141.835 184.72 141.212 185.165C140.59 185.601 139.683 185.818 138.492 185.818H133.85V176.483H138.225C139.327 176.483 140.176 176.701 140.772 177.136C141.368 177.563 141.666 178.154 141.666 178.91C141.666 179.372 141.559 179.781 141.346 180.137C141.132 180.493 140.839 180.768 140.465 180.964ZM135.584 177.843V180.417H138.038C138.643 180.417 139.105 180.31 139.425 180.097C139.754 179.875 139.919 179.555 139.919 179.137C139.919 178.71 139.754 178.39 139.425 178.177C139.105 177.954 138.643 177.843 138.038 177.843H135.584ZM138.385 184.458C139.727 184.458 140.399 184.009 140.399 183.111C140.399 182.213 139.727 181.764 138.385 181.764H135.584V184.458H138.385ZM143.476 181.417H147.143V182.804H143.476V181.417ZM157.196 176.483V185.818H155.529V184.631C154.898 185.512 153.92 185.952 152.595 185.952C151.492 185.952 150.626 185.609 149.994 184.925C149.363 184.231 149.047 183.253 149.047 181.991V176.483H150.781V181.924C150.781 182.751 150.977 183.378 151.368 183.805C151.768 184.222 152.315 184.431 153.008 184.431C153.755 184.431 154.351 184.209 154.795 183.765C155.24 183.311 155.462 182.64 155.462 181.751V176.483H157.196ZM162.597 185.952C161.877 185.952 161.179 185.849 160.503 185.645C159.836 185.44 159.307 185.169 158.916 184.831L159.516 183.484C159.898 183.787 160.365 184.036 160.916 184.231C161.476 184.418 162.037 184.511 162.597 184.511C163.29 184.511 163.806 184.4 164.144 184.178C164.49 183.956 164.664 183.662 164.664 183.298C164.664 183.031 164.566 182.813 164.37 182.644C164.184 182.466 163.944 182.329 163.65 182.231C163.357 182.133 162.957 182.022 162.45 181.897C161.739 181.729 161.161 181.56 160.716 181.391C160.281 181.222 159.903 180.959 159.583 180.604C159.272 180.239 159.116 179.75 159.116 179.137C159.116 178.621 159.254 178.154 159.529 177.737C159.814 177.31 160.236 176.972 160.796 176.723C161.365 176.474 162.059 176.35 162.877 176.35C163.446 176.35 164.006 176.421 164.557 176.563C165.108 176.705 165.584 176.91 165.984 177.176L165.437 178.523C165.028 178.283 164.602 178.101 164.157 177.977C163.713 177.852 163.281 177.79 162.863 177.79C162.179 177.79 161.668 177.905 161.33 178.137C161.001 178.368 160.836 178.675 160.836 179.057C160.836 179.324 160.93 179.541 161.116 179.71C161.312 179.879 161.556 180.013 161.85 180.11C162.143 180.208 162.543 180.319 163.05 180.444C163.744 180.604 164.313 180.773 164.757 180.951C165.202 181.12 165.58 181.382 165.891 181.737C166.211 182.093 166.371 182.573 166.371 183.178C166.371 183.693 166.229 184.16 165.944 184.578C165.669 184.996 165.246 185.329 164.677 185.578C164.108 185.827 163.415 185.952 162.597 185.952ZM168.09 176.483H172.171C173.167 176.483 174.051 176.679 174.825 177.07C175.598 177.452 176.199 177.999 176.625 178.71C177.052 179.412 177.265 180.226 177.265 181.151C177.265 182.075 177.052 182.893 176.625 183.605C176.199 184.307 175.598 184.854 174.825 185.245C174.051 185.627 173.167 185.818 172.171 185.818H168.09V176.483ZM172.091 184.351C172.776 184.351 173.376 184.222 173.891 183.965C174.416 183.698 174.816 183.324 175.092 182.844C175.376 182.355 175.518 181.791 175.518 181.151C175.518 180.51 175.376 179.95 175.092 179.47C174.816 178.981 174.416 178.608 173.891 178.35C173.376 178.083 172.776 177.95 172.091 177.95H169.824V184.351H172.091ZM185.459 178.803C184.579 178.306 183.663 178.003 182.712 177.897V185.818H180.978V177.897C180.018 178.003 179.098 178.306 178.218 178.803L177.618 177.47C178.24 177.096 178.907 176.816 179.618 176.63C180.338 176.443 181.076 176.35 181.832 176.35C182.588 176.35 183.326 176.443 184.046 176.63C184.766 176.816 185.437 177.096 186.06 177.47L185.459 178.803Z" fill="white"/>
<path d="M58.5626 208.179C57.8425 208.179 57.1445 208.077 56.4688 207.873C55.802 207.668 55.273 207.397 54.8818 207.059L55.4819 205.712C55.8643 206.014 56.331 206.263 56.8823 206.459C57.4424 206.646 58.0025 206.739 58.5626 206.739C59.2561 206.739 59.7718 206.628 60.1097 206.406C60.4564 206.183 60.6298 205.89 60.6298 205.525C60.6298 205.259 60.532 205.041 60.3364 204.872C60.1497 204.694 59.9096 204.556 59.6162 204.458C59.3228 204.361 58.9227 204.249 58.4159 204.125C57.7047 203.956 57.1268 203.787 56.6822 203.618C56.2466 203.449 55.8687 203.187 55.5486 202.831C55.2374 202.467 55.0819 201.978 55.0819 201.364C55.0819 200.849 55.2197 200.382 55.4953 199.964C55.7798 199.537 56.2021 199.199 56.7622 198.95C57.3313 198.702 58.0247 198.577 58.8427 198.577C59.4117 198.577 59.9719 198.648 60.5231 198.79C61.0743 198.933 61.55 199.137 61.9501 199.404L61.4033 200.751C60.9943 200.511 60.5675 200.329 60.123 200.204C59.6785 200.08 59.2472 200.017 58.8294 200.017C58.1448 200.017 57.6335 200.133 57.2957 200.364C56.9667 200.595 56.8022 200.902 56.8022 201.284C56.8022 201.551 56.8956 201.769 57.0823 201.938C57.2779 202.107 57.5224 202.24 57.8158 202.338C58.1092 202.436 58.5093 202.547 59.0161 202.671C59.7096 202.831 60.2786 203 60.7231 203.178C61.1677 203.347 61.5455 203.609 61.8567 203.965C62.1768 204.321 62.3368 204.801 62.3368 205.405C62.3368 205.921 62.1946 206.388 61.9101 206.806C61.6345 207.223 61.2121 207.557 60.6431 207.806C60.0741 208.055 59.3806 208.179 58.5626 208.179ZM67.2834 206.726C68.0569 206.726 68.7015 206.468 69.2172 205.952L70.0974 206.979C69.7862 207.361 69.3861 207.65 68.8971 207.846C68.4081 208.041 67.8568 208.139 67.2434 208.139C66.461 208.139 65.7719 207.984 65.1762 207.672C64.5805 207.361 64.1182 206.93 63.7893 206.379C63.4692 205.819 63.3091 205.187 63.3091 204.485C63.3091 203.792 63.4647 203.169 63.7759 202.618C64.096 202.058 64.5316 201.622 65.0829 201.311C65.643 201 66.2743 200.844 66.9766 200.844C67.6435 200.844 68.248 200.991 68.7904 201.284C69.3416 201.569 69.7773 201.982 70.0974 202.525C70.4174 203.058 70.5775 203.685 70.5775 204.405L65.1229 205.472C65.2918 205.881 65.563 206.192 65.9364 206.406C66.3098 206.619 66.7588 206.726 67.2834 206.726ZM66.9766 202.178C66.3632 202.178 65.8653 202.378 65.483 202.778C65.1096 203.178 64.9228 203.716 64.9228 204.392V204.405L68.9504 203.632C68.8348 203.196 68.5992 202.845 68.2436 202.578C67.8969 202.311 67.4745 202.178 66.9766 202.178ZM74.5263 208.139C73.7883 208.139 73.2104 207.939 72.7925 207.539C72.3836 207.13 72.1791 206.557 72.1791 205.819V198.15H73.8461V205.699C73.8461 206.41 74.1795 206.766 74.8463 206.766C75.0686 206.766 75.2687 206.721 75.4465 206.632L75.5265 207.966C75.2153 208.081 74.8819 208.139 74.5263 208.139ZM79.0065 208.139C78.2685 208.139 77.6906 207.939 77.2727 207.539C76.8638 207.13 76.6593 206.557 76.6593 205.819V198.15H78.3263V205.699C78.3263 206.41 78.6597 206.766 79.3265 206.766C79.5488 206.766 79.7489 206.721 79.9267 206.632L80.0067 207.966C79.6955 208.081 79.3621 208.139 79.0065 208.139ZM92.6403 205.925H90.9866V208.046H89.3062V205.925H84.185V204.725L88.7861 198.71H90.6398L86.3055 204.458H89.3595V202.578H90.9866V204.458H92.6403V205.925ZM96.4522 198.577C97.7325 198.577 98.7238 198.977 99.4262 199.777C100.137 200.578 100.493 201.724 100.493 203.218C100.493 204.267 100.302 205.165 99.9197 205.912C99.5373 206.65 98.9994 207.215 98.306 207.606C97.6214 207.988 96.8256 208.179 95.9187 208.179C95.4386 208.179 94.9852 208.13 94.5584 208.033C94.1406 207.926 93.776 207.775 93.4649 207.579L94.105 206.272C94.5673 206.574 95.1586 206.726 95.8787 206.726C96.7767 206.726 97.4791 206.45 97.9859 205.899C98.4927 205.348 98.7461 204.552 98.7461 203.512V203.498C98.4704 203.818 98.1192 204.063 97.6925 204.232C97.2657 204.392 96.7856 204.472 96.2522 204.472C95.6387 204.472 95.0874 204.356 94.5984 204.125C94.1094 203.885 93.7271 203.547 93.4515 203.111C93.1759 202.676 93.0381 202.173 93.0381 201.604C93.0381 201 93.1892 200.471 93.4915 200.017C93.7938 199.555 94.2028 199.199 94.7185 198.95C95.2341 198.702 95.8121 198.577 96.4522 198.577ZM96.5856 203.111C97.1457 203.111 97.5991 202.96 97.9459 202.658C98.3015 202.356 98.4793 201.973 98.4793 201.511C98.4793 201.058 98.306 200.684 97.9592 200.391C97.6214 200.089 97.1501 199.937 96.5456 199.937C96.0032 199.937 95.5631 200.084 95.2253 200.377C94.8874 200.662 94.7185 201.044 94.7185 201.524C94.7185 202.013 94.8874 202.4 95.2253 202.685C95.5631 202.969 96.0165 203.111 96.5856 203.111ZM102.55 208.139C102.248 208.139 101.99 208.037 101.777 207.833C101.563 207.619 101.456 207.352 101.456 207.032C101.456 206.703 101.559 206.437 101.763 206.232C101.977 206.028 102.239 205.925 102.55 205.925C102.861 205.925 103.119 206.028 103.324 206.232C103.537 206.437 103.644 206.703 103.644 207.032C103.644 207.352 103.537 207.619 103.324 207.833C103.11 208.037 102.852 208.139 102.55 208.139ZM108.87 202.565C109.733 202.671 110.391 202.965 110.844 203.445C111.297 203.925 111.524 204.525 111.524 205.245C111.524 205.788 111.386 206.281 111.111 206.726C110.835 207.17 110.417 207.526 109.857 207.793C109.306 208.05 108.63 208.179 107.83 208.179C107.163 208.179 106.519 208.086 105.896 207.899C105.283 207.704 104.758 207.437 104.323 207.099L105.069 205.752C105.407 206.037 105.816 206.263 106.296 206.432C106.785 206.592 107.288 206.672 107.803 206.672C108.417 206.672 108.897 206.548 109.244 206.299C109.599 206.041 109.777 205.694 109.777 205.259C109.777 204.823 109.608 204.485 109.27 204.245C108.941 203.996 108.435 203.872 107.75 203.872H106.896V202.685L109.017 200.164H104.776V198.71H111.137V199.871L108.87 202.565ZM119.355 206.579V208.046H112.473V206.886L116.181 203.365C116.598 202.965 116.878 202.618 117.021 202.325C117.172 202.022 117.247 201.724 117.247 201.431C117.247 200.995 117.101 200.662 116.807 200.431C116.514 200.2 116.083 200.084 115.514 200.084C114.562 200.084 113.833 200.409 113.327 201.058L112.113 200.124C112.477 199.635 112.966 199.257 113.58 198.991C114.202 198.715 114.896 198.577 115.66 198.577C116.674 198.577 117.483 198.817 118.088 199.297C118.692 199.777 118.995 200.431 118.995 201.258C118.995 201.764 118.888 202.24 118.674 202.685C118.461 203.129 118.052 203.636 117.447 204.205L114.954 206.579H119.355ZM122.566 203.738C121.899 203.738 121.361 203.503 120.952 203.031C120.543 202.56 120.339 201.942 120.339 201.178C120.339 200.413 120.543 199.795 120.952 199.324C121.361 198.853 121.899 198.617 122.566 198.617C123.233 198.617 123.771 198.853 124.18 199.324C124.598 199.786 124.806 200.404 124.806 201.178C124.806 201.951 124.598 202.574 124.18 203.045C123.771 203.507 123.233 203.738 122.566 203.738ZM128.167 198.71H129.474L123.099 208.046H121.792L128.167 198.71ZM122.566 202.805C122.93 202.805 123.211 202.662 123.406 202.378C123.611 202.093 123.713 201.693 123.713 201.178C123.713 200.662 123.611 200.262 123.406 199.977C123.211 199.693 122.93 199.551 122.566 199.551C122.219 199.551 121.939 199.697 121.726 199.991C121.521 200.275 121.419 200.671 121.419 201.178C121.419 201.684 121.521 202.085 121.726 202.378C121.939 202.662 122.219 202.805 122.566 202.805ZM128.687 208.139C128.021 208.139 127.483 207.904 127.074 207.432C126.665 206.961 126.46 206.343 126.46 205.579C126.46 204.814 126.665 204.196 127.074 203.725C127.483 203.254 128.021 203.018 128.687 203.018C129.354 203.018 129.892 203.254 130.301 203.725C130.719 204.196 130.928 204.814 130.928 205.579C130.928 206.343 130.719 206.961 130.301 207.432C129.892 207.904 129.354 208.139 128.687 208.139ZM128.687 207.206C129.043 207.206 129.323 207.063 129.528 206.779C129.732 206.486 129.834 206.085 129.834 205.579C129.834 205.072 129.732 204.676 129.528 204.392C129.323 204.098 129.043 203.952 128.687 203.952C128.332 203.952 128.052 204.094 127.847 204.378C127.643 204.663 127.54 205.063 127.54 205.579C127.54 206.094 127.643 206.494 127.847 206.779C128.052 207.063 128.332 207.206 128.687 207.206ZM139.353 208.139C138.633 208.139 137.983 207.984 137.406 207.672C136.828 207.361 136.374 206.93 136.045 206.379C135.725 205.819 135.565 205.187 135.565 204.485C135.565 203.783 135.725 203.156 136.045 202.605C136.374 202.053 136.828 201.622 137.406 201.311C137.983 201 138.633 200.844 139.353 200.844C140.082 200.844 140.735 201 141.313 201.311C141.891 201.622 142.34 202.053 142.66 202.605C142.989 203.156 143.154 203.783 143.154 204.485C143.154 205.187 142.989 205.819 142.66 206.379C142.34 206.93 141.891 207.361 141.313 207.672C140.735 207.984 140.082 208.139 139.353 208.139ZM139.353 206.712C139.966 206.712 140.473 206.508 140.873 206.099C141.273 205.69 141.473 205.152 141.473 204.485C141.473 203.818 141.273 203.28 140.873 202.871C140.473 202.462 139.966 202.258 139.353 202.258C138.739 202.258 138.232 202.462 137.832 202.871C137.441 203.28 137.246 203.818 137.246 204.485C137.246 205.152 137.441 205.69 137.832 206.099C138.232 206.508 138.739 206.712 139.353 206.712ZM147.428 199.404C146.726 199.404 146.375 199.786 146.375 200.551V200.978H148.335V202.311H146.415V208.046H144.748V200.524C144.748 199.768 144.97 199.168 145.414 198.724C145.859 198.279 146.49 198.057 147.308 198.057C147.939 198.057 148.437 198.186 148.802 198.444L148.335 199.697C148.068 199.502 147.766 199.404 147.428 199.404ZM159.91 203.191C160.426 203.36 160.835 203.645 161.137 204.045C161.439 204.436 161.59 204.925 161.59 205.512C161.59 206.321 161.279 206.948 160.657 207.392C160.034 207.828 159.127 208.046 157.936 208.046H153.295V198.71H157.669C158.772 198.71 159.621 198.928 160.217 199.364C160.812 199.791 161.11 200.382 161.11 201.138C161.11 201.6 161.003 202.009 160.79 202.365C160.577 202.72 160.283 202.996 159.91 203.191ZM155.029 200.071V202.645H157.483C158.087 202.645 158.55 202.538 158.87 202.325C159.199 202.102 159.363 201.782 159.363 201.364C159.363 200.938 159.199 200.618 158.87 200.404C158.55 200.182 158.087 200.071 157.483 200.071H155.029ZM157.829 206.686C159.172 206.686 159.843 206.237 159.843 205.339C159.843 204.441 159.172 203.992 157.829 203.992H155.029V206.686H157.829ZM168.082 198.577C169.202 198.577 170.073 198.919 170.696 199.604C171.327 200.289 171.642 201.267 171.642 202.538V208.046H169.909V202.605C169.909 201.778 169.709 201.155 169.309 200.738C168.917 200.311 168.371 200.097 167.668 200.097C166.904 200.097 166.295 200.324 165.841 200.778C165.397 201.222 165.174 201.889 165.174 202.778V208.046H163.441V198.71H165.121V199.884C165.77 199.013 166.757 198.577 168.082 198.577ZM180.683 203.191C181.198 203.36 181.607 203.645 181.91 204.045C182.212 204.436 182.363 204.925 182.363 205.512C182.363 206.321 182.052 206.948 181.43 207.392C180.807 207.828 179.9 208.046 178.709 208.046H174.068V198.71H178.442C179.545 198.71 180.394 198.928 180.99 199.364C181.585 199.791 181.883 200.382 181.883 201.138C181.883 201.6 181.776 202.009 181.563 202.365C181.35 202.72 181.056 202.996 180.683 203.191ZM175.802 200.071V202.645H178.256C178.86 202.645 179.322 202.538 179.643 202.325C179.972 202.102 180.136 201.782 180.136 201.364C180.136 200.938 179.972 200.618 179.643 200.404C179.322 200.182 178.86 200.071 178.256 200.071H175.802ZM178.602 206.686C179.945 206.686 180.616 206.237 180.616 205.339C180.616 204.441 179.945 203.992 178.602 203.992H175.802V206.686H178.602Z" fill="white"/>
<path d="M59.7362 220.804C60.572 220.804 61.301 220.969 61.9234 221.298C62.5458 221.627 63.0259 222.116 63.3637 222.765C63.7105 223.405 63.8839 224.183 63.8839 225.098V230.273H62.1501V227.872H57.2957V230.273H55.5886V225.098C55.5886 224.183 55.7576 223.405 56.0954 222.765C56.4422 222.116 56.9267 221.627 57.5491 221.298C58.1714 220.969 58.9005 220.804 59.7362 220.804ZM62.1501 226.419V224.938C62.1501 224.076 61.9367 223.427 61.51 222.991C61.0832 222.547 60.4875 222.324 59.7229 222.324C58.9583 222.324 58.3626 222.547 57.9358 222.991C57.5091 223.427 57.2957 224.076 57.2957 224.938V226.419H62.1501ZM70.15 229.886C69.9544 230.046 69.7143 230.166 69.4298 230.246C69.1542 230.326 68.8608 230.366 68.5496 230.366C67.7672 230.366 67.1626 230.162 66.7359 229.753C66.3091 229.344 66.0957 228.748 66.0957 227.966V221.578H67.7628V223.205H69.6699V224.538H67.7628V227.926C67.7628 228.272 67.8472 228.539 68.0162 228.726C68.194 228.904 68.4385 228.993 68.7497 228.993C69.1231 228.993 69.4343 228.895 69.6832 228.699L70.15 229.886ZM83.0287 228.152H81.375V230.273H79.6946V228.152H74.5735V226.952L79.1745 220.937H81.0283L76.694 226.685H79.748V224.805H81.375V226.685H83.0287V228.152ZM86.64 224.552C87.9558 224.552 88.9294 224.809 89.5606 225.325C90.1919 225.832 90.5075 226.525 90.5075 227.406C90.5075 227.966 90.3697 228.473 90.0941 228.926C89.8185 229.379 89.405 229.739 88.8538 230.006C88.3026 230.273 87.6224 230.406 86.8133 230.406C86.1465 230.406 85.5019 230.313 84.8796 230.126C84.2572 229.931 83.7326 229.664 83.3059 229.326L84.0394 227.979C84.3861 228.264 84.7995 228.49 85.2797 228.659C85.7687 228.819 86.271 228.899 86.7867 228.899C87.4001 228.899 87.8802 228.775 88.227 228.526C88.5826 228.268 88.7604 227.917 88.7604 227.472C88.7604 226.992 88.5693 226.632 88.187 226.392C87.8136 226.143 87.169 226.019 86.2532 226.019H83.9994L84.4795 220.937H89.9607V222.391H85.9465L85.7464 224.552H86.64ZM95.7485 224.512C96.362 224.512 96.9132 224.632 97.4022 224.872C97.8912 225.103 98.2735 225.436 98.5491 225.872C98.8247 226.308 98.9626 226.81 98.9626 227.379C98.9626 227.984 98.8114 228.517 98.5091 228.979C98.2068 229.433 97.7978 229.784 97.2822 230.033C96.7665 230.282 96.1886 230.406 95.5484 230.406C94.2682 230.406 93.2724 230.006 92.5611 229.206C91.8587 228.406 91.5075 227.259 91.5075 225.765C91.5075 224.716 91.6987 223.823 92.081 223.085C92.4633 222.338 92.9968 221.773 93.6814 221.391C94.3748 221 95.175 220.804 96.0819 220.804C96.562 220.804 97.011 220.857 97.4289 220.964C97.8556 221.062 98.2246 221.209 98.5358 221.404L97.8956 222.711C97.4333 222.409 96.8421 222.258 96.1219 222.258C95.2239 222.258 94.5215 222.533 94.0148 223.085C93.508 223.636 93.2546 224.432 93.2546 225.472V225.485C93.5302 225.165 93.8814 224.925 94.3082 224.765C94.7349 224.596 95.215 224.512 95.7485 224.512ZM95.4551 229.046C95.9974 229.046 96.4375 228.904 96.7754 228.619C97.1132 228.326 97.2822 227.939 97.2822 227.459C97.2822 226.97 97.1132 226.583 96.7754 226.299C96.4375 226.014 95.9841 225.872 95.4151 225.872C94.855 225.872 94.3971 226.023 94.0414 226.325C93.6947 226.628 93.5213 227.01 93.5213 227.472C93.5213 227.926 93.6902 228.304 94.0281 228.606C94.3748 228.899 94.8505 229.046 95.4551 229.046ZM101.039 230.366C100.737 230.366 100.479 230.264 100.266 230.06C100.052 229.846 99.9457 229.579 99.9457 229.259C99.9457 228.93 100.048 228.664 100.252 228.459C100.466 228.255 100.728 228.152 101.039 228.152C101.35 228.152 101.608 228.255 101.813 228.459C102.026 228.664 102.133 228.93 102.133 229.259C102.133 229.579 102.026 229.846 101.813 230.06C101.599 230.264 101.342 230.366 101.039 230.366ZM110.101 220.937V222.098L106.474 230.273H104.62L108.127 222.404H104.46V223.992H102.846V220.937H110.101ZM114.321 220.804C115.601 220.804 116.592 221.204 117.295 222.004C118.006 222.805 118.362 223.952 118.362 225.445C118.362 226.494 118.171 227.392 117.788 228.139C117.406 228.877 116.868 229.442 116.175 229.833C115.49 230.215 114.694 230.406 113.787 230.406C113.307 230.406 112.854 230.357 112.427 230.26C112.009 230.153 111.645 230.002 111.333 229.806L111.974 228.499C112.436 228.802 113.027 228.953 113.747 228.953C114.645 228.953 115.348 228.677 115.855 228.126C116.361 227.575 116.615 226.779 116.615 225.739V225.725C116.339 226.045 115.988 226.29 115.561 226.459C115.134 226.619 114.654 226.699 114.121 226.699C113.507 226.699 112.956 226.583 112.467 226.352C111.978 226.112 111.596 225.774 111.32 225.338C111.045 224.903 110.907 224.401 110.907 223.831C110.907 223.227 111.058 222.698 111.36 222.244C111.662 221.782 112.071 221.426 112.587 221.178C113.103 220.929 113.681 220.804 114.321 220.804ZM114.454 225.338C115.014 225.338 115.468 225.187 115.815 224.885C116.17 224.583 116.348 224.2 116.348 223.738C116.348 223.285 116.175 222.911 115.828 222.618C115.49 222.316 115.019 222.164 114.414 222.164C113.872 222.164 113.432 222.311 113.094 222.605C112.756 222.889 112.587 223.271 112.587 223.751C112.587 224.24 112.756 224.627 113.094 224.912C113.432 225.196 113.885 225.338 114.454 225.338ZM123.429 230.406C122.682 230.406 122.015 230.22 121.429 229.846C120.842 229.464 120.379 228.913 120.042 228.192C119.704 227.463 119.535 226.601 119.535 225.605C119.535 224.609 119.704 223.751 120.042 223.031C120.379 222.302 120.842 221.751 121.429 221.378C122.015 220.995 122.682 220.804 123.429 220.804C124.176 220.804 124.843 220.995 125.429 221.378C126.025 221.751 126.492 222.302 126.83 223.031C127.168 223.751 127.337 224.609 127.337 225.605C127.337 226.601 127.168 227.463 126.83 228.192C126.492 228.913 126.025 229.464 125.429 229.846C124.843 230.22 124.176 230.406 123.429 230.406ZM123.429 228.899C124.096 228.899 124.62 228.624 125.003 228.072C125.394 227.521 125.589 226.699 125.589 225.605C125.589 224.512 125.394 223.689 125.003 223.138C124.62 222.587 124.096 222.311 123.429 222.311C122.771 222.311 122.246 222.587 121.855 223.138C121.473 223.689 121.282 224.512 121.282 225.605C121.282 226.699 121.473 227.521 121.855 228.072C122.246 228.624 122.771 228.899 123.429 228.899ZM132.402 230.406C131.656 230.406 130.989 230.22 130.402 229.846C129.815 229.464 129.353 228.913 129.015 228.192C128.677 227.463 128.508 226.601 128.508 225.605C128.508 224.609 128.677 223.751 129.015 223.031C129.353 222.302 129.815 221.751 130.402 221.378C130.989 220.995 131.656 220.804 132.402 220.804C133.149 220.804 133.816 220.995 134.403 221.378C134.998 221.751 135.465 222.302 135.803 223.031C136.141 223.751 136.31 224.609 136.31 225.605C136.31 226.601 136.141 227.463 135.803 228.192C135.465 228.913 134.998 229.464 134.403 229.846C133.816 230.22 133.149 230.406 132.402 230.406ZM132.402 228.899C133.069 228.899 133.594 228.624 133.976 228.072C134.367 227.521 134.563 226.699 134.563 225.605C134.563 224.512 134.367 223.689 133.976 223.138C133.594 222.587 133.069 222.311 132.402 222.311C131.744 222.311 131.22 222.587 130.829 223.138C130.446 223.689 130.255 224.512 130.255 225.605C130.255 226.699 130.446 227.521 130.829 228.072C131.22 228.624 131.744 228.899 132.402 228.899ZM141.376 230.406C140.629 230.406 139.962 230.22 139.375 229.846C138.788 229.464 138.326 228.913 137.988 228.192C137.65 227.463 137.482 226.601 137.482 225.605C137.482 224.609 137.65 223.751 137.988 223.031C138.326 222.302 138.788 221.751 139.375 221.378C139.962 220.995 140.629 220.804 141.376 220.804C142.123 220.804 142.789 220.995 143.376 221.378C143.972 221.751 144.439 222.302 144.777 223.031C145.114 223.751 145.283 224.609 145.283 225.605C145.283 226.601 145.114 227.463 144.777 228.192C144.439 228.913 143.972 229.464 143.376 229.846C142.789 230.22 142.123 230.406 141.376 230.406ZM141.376 228.899C142.043 228.899 142.567 228.624 142.949 228.072C143.341 227.521 143.536 226.699 143.536 225.605C143.536 224.512 143.341 223.689 142.949 223.138C142.567 222.587 142.043 222.311 141.376 222.311C140.718 222.311 140.193 222.587 139.802 223.138C139.42 223.689 139.229 224.512 139.229 225.605C139.229 226.699 139.42 227.521 139.802 228.072C140.193 228.624 140.718 228.899 141.376 228.899ZM150.349 230.406C149.602 230.406 148.935 230.22 148.349 229.846C147.762 229.464 147.3 228.913 146.962 228.192C146.624 227.463 146.455 226.601 146.455 225.605C146.455 224.609 146.624 223.751 146.962 223.031C147.3 222.302 147.762 221.751 148.349 221.378C148.935 220.995 149.602 220.804 150.349 220.804C151.096 220.804 151.763 220.995 152.35 221.378C152.945 221.751 153.412 222.302 153.75 223.031C154.088 223.751 154.257 224.609 154.257 225.605C154.257 226.601 154.088 227.463 153.75 228.192C153.412 228.913 152.945 229.464 152.35 229.846C151.763 230.22 151.096 230.406 150.349 230.406ZM150.349 228.899C151.016 228.899 151.541 228.624 151.923 228.072C152.314 227.521 152.51 226.699 152.51 225.605C152.51 224.512 152.314 223.689 151.923 223.138C151.541 222.587 151.016 222.311 150.349 222.311C149.691 222.311 149.167 222.587 148.775 223.138C148.393 223.689 148.202 224.512 148.202 225.605C148.202 226.699 148.393 227.521 148.775 228.072C149.167 228.624 149.691 228.899 150.349 228.899ZM159.323 230.406C158.576 230.406 157.909 230.22 157.322 229.846C156.735 229.464 156.273 228.913 155.935 228.192C155.597 227.463 155.428 226.601 155.428 225.605C155.428 224.609 155.597 223.751 155.935 223.031C156.273 222.302 156.735 221.751 157.322 221.378C157.909 220.995 158.576 220.804 159.323 220.804C160.069 220.804 160.736 220.995 161.323 221.378C161.919 221.751 162.385 222.302 162.723 223.031C163.061 223.751 163.23 224.609 163.23 225.605C163.23 226.601 163.061 227.463 162.723 228.192C162.385 228.913 161.919 229.464 161.323 229.846C160.736 230.22 160.069 230.406 159.323 230.406ZM159.323 228.899C159.989 228.899 160.514 228.624 160.896 228.072C161.287 227.521 161.483 226.699 161.483 225.605C161.483 224.512 161.287 223.689 160.896 223.138C160.514 222.587 159.989 222.311 159.323 222.311C158.665 222.311 158.14 222.587 157.749 223.138C157.367 223.689 157.175 224.512 157.175 225.605C157.175 226.699 157.367 227.521 157.749 228.072C158.14 228.624 158.665 228.899 159.323 228.899ZM168.296 230.406C167.549 230.406 166.882 230.22 166.295 229.846C165.709 229.464 165.246 228.913 164.908 228.192C164.571 227.463 164.402 226.601 164.402 225.605C164.402 224.609 164.571 223.751 164.908 223.031C165.246 222.302 165.709 221.751 166.295 221.378C166.882 220.995 167.549 220.804 168.296 220.804C169.043 220.804 169.71 220.995 170.296 221.378C170.892 221.751 171.359 222.302 171.697 223.031C172.035 223.751 172.203 224.609 172.203 225.605C172.203 226.601 172.035 227.463 171.697 228.192C171.359 228.913 170.892 229.464 170.296 229.846C169.71 230.22 169.043 230.406 168.296 230.406ZM168.296 228.899C168.963 228.899 169.487 228.624 169.87 228.072C170.261 227.521 170.456 226.699 170.456 225.605C170.456 224.512 170.261 223.689 169.87 223.138C169.487 222.587 168.963 222.311 168.296 222.311C167.638 222.311 167.113 222.587 166.722 223.138C166.34 223.689 166.149 224.512 166.149 225.605C166.149 226.699 166.34 227.521 166.722 228.072C167.113 228.624 167.638 228.899 168.296 228.899ZM185.796 220.937V230.273H184.129V229.086C183.498 229.966 182.52 230.406 181.195 230.406C180.093 230.406 179.226 230.064 178.595 229.379C177.963 228.686 177.648 227.708 177.648 226.445V220.937H179.381V226.379C179.381 227.206 179.577 227.832 179.968 228.259C180.368 228.677 180.915 228.886 181.609 228.886C182.355 228.886 182.951 228.664 183.396 228.219C183.84 227.766 184.062 227.094 184.062 226.205V220.937H185.796ZM191.197 230.406C190.477 230.406 189.779 230.304 189.103 230.1C188.436 229.895 187.907 229.624 187.516 229.286L188.116 227.939C188.499 228.241 188.965 228.49 189.517 228.686C190.077 228.873 190.637 228.966 191.197 228.966C191.89 228.966 192.406 228.855 192.744 228.633C193.091 228.41 193.264 228.117 193.264 227.752C193.264 227.486 193.166 227.268 192.971 227.099C192.784 226.921 192.544 226.783 192.251 226.685C191.957 226.588 191.557 226.477 191.05 226.352C190.339 226.183 189.761 226.014 189.317 225.845C188.881 225.676 188.503 225.414 188.183 225.058C187.872 224.694 187.716 224.205 187.716 223.591C187.716 223.076 187.854 222.609 188.13 222.191C188.414 221.764 188.836 221.426 189.397 221.178C189.966 220.929 190.659 220.804 191.477 220.804C192.046 220.804 192.606 220.875 193.157 221.018C193.709 221.16 194.184 221.364 194.584 221.631L194.038 222.978C193.629 222.738 193.202 222.556 192.757 222.431C192.313 222.307 191.882 222.244 191.464 222.244C190.779 222.244 190.268 222.36 189.93 222.591C189.601 222.822 189.437 223.129 189.437 223.511C189.437 223.778 189.53 223.996 189.717 224.165C189.912 224.334 190.157 224.467 190.45 224.565C190.744 224.663 191.144 224.774 191.65 224.898C192.344 225.058 192.913 225.227 193.357 225.405C193.802 225.574 194.18 225.836 194.491 226.192C194.811 226.548 194.971 227.028 194.971 227.632C194.971 228.148 194.829 228.615 194.544 229.033C194.269 229.451 193.846 229.784 193.277 230.033C192.708 230.282 192.015 230.406 191.197 230.406ZM196.69 220.937H200.771C201.767 220.937 202.652 221.133 203.425 221.524C204.199 221.907 204.799 222.453 205.226 223.165C205.652 223.867 205.866 224.681 205.866 225.605C205.866 226.53 205.652 227.348 205.226 228.059C204.799 228.761 204.199 229.308 203.425 229.699C202.652 230.082 201.767 230.273 200.771 230.273H196.69V220.937ZM200.691 228.806C201.376 228.806 201.976 228.677 202.492 228.419C203.016 228.152 203.416 227.779 203.692 227.299C203.976 226.81 204.119 226.245 204.119 225.605C204.119 224.965 203.976 224.405 203.692 223.925C203.416 223.436 203.016 223.062 202.492 222.805C201.976 222.538 201.376 222.404 200.691 222.404H198.424V228.806H200.691ZM214.06 223.258C213.179 222.76 212.264 222.458 211.312 222.351V230.273H209.579V222.351C208.618 222.458 207.698 222.76 206.818 223.258L206.218 221.924C206.84 221.551 207.507 221.271 208.218 221.084C208.938 220.897 209.676 220.804 210.432 220.804C211.188 220.804 211.926 220.897 212.646 221.084C213.366 221.271 214.037 221.551 214.66 221.924L214.06 223.258Z" fill="white"/>
<path d="M60.0296 252.634C59.0783 252.634 58.2203 252.429 57.4557 252.02C56.6911 251.603 56.091 251.029 55.6553 250.3C55.2197 249.562 55.0018 248.74 55.0018 247.833C55.0018 246.926 55.2197 246.108 55.6553 245.379C56.091 244.641 56.6911 244.067 57.4557 243.658C58.2203 243.241 59.0783 243.032 60.0296 243.032C60.981 243.032 61.8389 243.241 62.6036 243.658C63.3682 244.067 63.9683 244.636 64.404 245.366C64.8396 246.095 65.0575 246.917 65.0575 247.833C65.0575 248.749 64.8396 249.571 64.404 250.3C63.9683 251.029 63.3682 251.603 62.6036 252.02C61.8389 252.429 60.981 252.634 60.0296 252.634ZM60.0296 251.114C60.652 251.114 61.2121 250.976 61.71 250.7C62.2079 250.416 62.5991 250.024 62.8836 249.526C63.1681 249.02 63.3104 248.455 63.3104 247.833C63.3104 247.21 63.1681 246.65 62.8836 246.152C62.5991 245.646 62.2079 245.254 61.71 244.979C61.2121 244.694 60.652 244.552 60.0296 244.552C59.4073 244.552 58.8472 244.694 58.3493 244.979C57.8514 245.254 57.4602 245.646 57.1757 246.152C56.8912 246.65 56.7489 247.21 56.7489 247.833C56.7489 248.455 56.8912 249.02 57.1757 249.526C57.4602 250.024 57.8514 250.416 58.3493 250.7C58.8472 250.976 59.4073 251.114 60.0296 251.114ZM70.776 245.299C71.674 245.299 72.3942 245.561 72.9365 246.086C73.4789 246.61 73.7501 247.388 73.7501 248.42V252.5H72.083V248.633C72.083 248.011 71.9363 247.544 71.6429 247.233C71.3495 246.913 70.9316 246.753 70.3893 246.753C69.7758 246.753 69.2913 246.939 68.9356 247.313C68.58 247.677 68.4022 248.206 68.4022 248.9V252.5H66.7351V245.379H68.3222V246.299C68.5978 245.97 68.9445 245.721 69.3624 245.552C69.7803 245.383 70.2515 245.299 70.776 245.299ZM86.3254 247.646C86.8411 247.815 87.2501 248.099 87.5524 248.5C87.8547 248.891 88.0058 249.38 88.0058 249.967C88.0058 250.776 87.6946 251.402 87.0723 251.847C86.4499 252.283 85.543 252.5 84.3516 252.5H79.7106V243.165H84.0849C85.1874 243.165 86.0365 243.383 86.6322 243.819C87.2278 244.245 87.5257 244.837 87.5257 245.592C87.5257 246.055 87.419 246.464 87.2056 246.819C86.9922 247.175 86.6988 247.45 86.3254 247.646ZM81.4443 244.525V247.099H83.8982C84.5028 247.099 84.9651 246.993 85.2852 246.779C85.6141 246.557 85.7786 246.237 85.7786 245.819C85.7786 245.392 85.6141 245.072 85.2852 244.859C84.9651 244.636 84.5028 244.525 83.8982 244.525H81.4443ZM84.2449 251.14C85.5875 251.14 86.2587 250.691 86.2587 249.793C86.2587 248.895 85.5875 248.446 84.2449 248.446H81.4443V251.14H84.2449ZM89.6961 245.379H91.3631V252.5H89.6961V245.379ZM90.5363 244.205C90.234 244.205 89.9806 244.112 89.7761 243.925C89.5716 243.73 89.4694 243.49 89.4694 243.205C89.4694 242.921 89.5716 242.685 89.7761 242.498C89.9806 242.303 90.234 242.205 90.5363 242.205C90.8386 242.205 91.092 242.298 91.2964 242.485C91.5009 242.663 91.6032 242.889 91.6032 243.165C91.6032 243.458 91.5009 243.707 91.2964 243.912C91.1008 244.107 90.8475 244.205 90.5363 244.205ZM97.592 245.299C98.49 245.299 99.2102 245.561 99.7525 246.086C100.295 246.61 100.566 247.388 100.566 248.42V252.5H98.899V248.633C98.899 248.011 98.7523 247.544 98.4589 247.233C98.1655 246.913 97.7476 246.753 97.2053 246.753C96.5918 246.753 96.1073 246.939 95.7516 247.313C95.396 247.677 95.2182 248.206 95.2182 248.9V252.5H93.5511V245.379H95.1382V246.299C95.4138 245.97 95.7605 245.721 96.1784 245.552C96.5963 245.383 97.0675 245.299 97.592 245.299ZM109.708 245.379V252.5H108.12V251.58C107.845 251.918 107.503 252.172 107.094 252.34C106.693 252.509 106.249 252.594 105.76 252.594C105.066 252.594 104.444 252.443 103.893 252.14C103.351 251.838 102.924 251.411 102.613 250.86C102.31 250.309 102.159 249.669 102.159 248.94C102.159 248.211 102.31 247.575 102.613 247.033C102.924 246.481 103.351 246.055 103.893 245.752C104.444 245.45 105.066 245.299 105.76 245.299C106.222 245.299 106.645 245.379 107.027 245.539C107.418 245.699 107.756 245.935 108.04 246.246V245.379H109.708ZM105.947 251.167C106.56 251.167 107.067 250.962 107.467 250.553C107.867 250.144 108.067 249.606 108.067 248.94C108.067 248.273 107.867 247.735 107.467 247.326C107.067 246.917 106.56 246.713 105.947 246.713C105.333 246.713 104.826 246.917 104.426 247.326C104.035 247.735 103.84 248.273 103.84 248.94C103.84 249.606 104.035 250.144 104.426 250.553C104.826 250.962 105.333 251.167 105.947 251.167ZM115.93 245.299C116.828 245.299 117.548 245.561 118.09 246.086C118.632 246.61 118.904 247.388 118.904 248.42V252.5H117.237V248.633C117.237 248.011 117.09 247.544 116.796 247.233C116.503 246.913 116.085 246.753 115.543 246.753C114.929 246.753 114.445 246.939 114.089 247.313C113.733 247.677 113.556 248.206 113.556 248.9V252.5H111.889V245.379H113.476V246.299C113.751 245.97 114.098 245.721 114.516 245.552C114.934 245.383 115.405 245.299 115.93 245.299ZM124.351 252.594C123.613 252.594 122.951 252.438 122.364 252.127C121.777 251.816 121.319 251.385 120.99 250.833C120.661 250.273 120.497 249.642 120.497 248.94C120.497 248.237 120.661 247.61 120.99 247.059C121.319 246.508 121.772 246.077 122.35 245.766C122.937 245.454 123.604 245.299 124.351 245.299C125.053 245.299 125.667 245.441 126.191 245.726C126.725 246.01 127.125 246.419 127.392 246.953L126.111 247.699C125.907 247.37 125.649 247.126 125.338 246.966C125.035 246.797 124.702 246.713 124.337 246.713C123.715 246.713 123.199 246.917 122.79 247.326C122.381 247.726 122.177 248.264 122.177 248.94C122.177 249.615 122.377 250.158 122.777 250.567C123.186 250.967 123.706 251.167 124.337 251.167C124.702 251.167 125.035 251.087 125.338 250.927C125.649 250.758 125.907 250.509 126.111 250.18L127.392 250.927C127.116 251.46 126.711 251.874 126.178 252.167C125.653 252.452 125.044 252.594 124.351 252.594ZM132.116 251.18C132.889 251.18 133.534 250.922 134.05 250.407L134.93 251.434C134.619 251.816 134.219 252.105 133.73 252.3C133.241 252.496 132.689 252.594 132.076 252.594C131.293 252.594 130.604 252.438 130.009 252.127C129.413 251.816 128.951 251.385 128.622 250.833C128.302 250.273 128.142 249.642 128.142 248.94C128.142 248.246 128.297 247.624 128.608 247.073C128.928 246.512 129.364 246.077 129.915 245.766C130.475 245.454 131.107 245.299 131.809 245.299C132.476 245.299 133.08 245.446 133.623 245.739C134.174 246.023 134.61 246.437 134.93 246.979C135.25 247.513 135.41 248.139 135.41 248.86L129.955 249.927C130.124 250.336 130.395 250.647 130.769 250.86C131.142 251.073 131.591 251.18 132.116 251.18ZM131.809 246.632C131.196 246.632 130.698 246.833 130.315 247.233C129.942 247.633 129.755 248.171 129.755 248.846V248.86L133.783 248.086C133.667 247.65 133.432 247.299 133.076 247.033C132.729 246.766 132.307 246.632 131.809 246.632Z" fill="white"/>
<path d="M251.682 120.581H27.1865V123.915H251.682V120.581Z" fill="#003628" fill-opacity="0.03"/>
<path d="M251.682 148.365H27.1865V151.699H251.682V148.365Z" fill="#003628" fill-opacity="0.03"/>
<path d="M251.682 177.261H27.1865V180.595H251.682V177.261Z" fill="#003628" fill-opacity="0.03"/>
<path d="M251.682 232.829H27.1865V236.163H251.682V232.829Z" fill="#003628" fill-opacity="0.03"/>
<path d="M251.682 130.583H27.1865V133.918H251.682V130.583Z" fill="#003628" fill-opacity="0.03"/>
<path d="M251.682 159.479H27.1865V162.813H251.682V159.479Z" fill="#003628" fill-opacity="0.03"/>
<path d="M251.682 215.047H27.1865V218.381H251.682V215.047Z" fill="#003628" fill-opacity="0.03"/>
<path d="M243.347 61.6821H32.1875V65.0162H243.347V61.6821Z" fill="#003628" fill-opacity="0.03"/>
<path d="M251.682 106.133H27.1865V109.467H251.682V106.133Z" fill="#003628" fill-opacity="0.03"/>
<path d="M251.682 282.84H27.1865V286.174H251.682V282.84Z" fill="#003628" fill-opacity="0.03"/>
<path d="M251.682 272.838H27.1865V276.172H251.682V272.838Z" fill="#003628" fill-opacity="0.03"/>
<path d="M251.682 190.597H27.1865V193.931H251.682V190.597Z" fill="#003628" fill-opacity="0.03"/>
<path d="M251.682 279.506H27.1865V282.84H251.682V279.506Z" fill="#003628" fill-opacity="0.03"/>
<path d="M251.682 197.265H27.1865V200.599H251.682V197.265Z" fill="#003628" fill-opacity="0.03"/>
<path d="M251.682 269.504H27.1865V272.838H251.682V269.504Z" fill="#003628" fill-opacity="0.03"/>
<path d="M251.682 187.263H27.1865V190.597H251.682V187.263Z" fill="#003628" fill-opacity="0.03"/>
<path d="M251.682 258.39H27.1865V261.724H251.682V258.39Z" fill="#003628" fill-opacity="0.03"/>
<path d="M52.3048 40.2941C50.1217 43.393 46.5158 45.4175 42.437 45.4175C35.7754 45.4175 30.375 40.0172 30.375 33.3555C30.375 26.6938 35.7754 21.2935 42.437 21.2935C45.6077 21.2935 48.4926 22.5168 50.6455 24.5173C51.0168 24.8622 51.0033 25.4429 50.645 25.8012L47.4416 29.005C47.0518 29.3948 46.4151 29.3615 45.9886 29.0123C45.0213 28.2204 43.7846 27.7452 42.437 27.7452C39.3386 27.7452 36.8268 30.257 36.8268 33.3555C36.8268 36.4539 39.3386 38.9657 42.437 38.9657C44.2665 38.9657 45.8915 38.09 46.9156 36.7349L52.3048 40.2941Z" fill="url(#paint3_angular_7304_194599)"/>
<path d="M44.9272 43.1508L51.9794 35.2351L48.9773 32.5605L43.4541 38.7601L36.882 32.7983L36.8503 32.8352C36.8346 33.0065 36.8265 33.1801 36.8265 33.3555C36.8265 34.8527 37.413 36.2129 38.3687 37.2189L38.3694 37.2359L38.5145 37.3669C38.623 37.473 38.7358 37.5747 38.8526 37.6718L44.9272 43.1508Z" fill="#0BAC80"/>
<path d="M31.6897 38.8377C32.3216 40.074 33.1606 41.1869 34.1609 42.1307L31.1416 45.6426L28.0928 43.0214L31.6897 38.8377Z" fill="#0BAC80"/>
<path d="M38.8516 37.6717L46.6148 44.6739C46.6105 44.6755 46.6062 44.6771 46.6018 44.6787L47.7857 45.7492L56.122 36.6286L53.1542 33.916L47.516 40.0847L40.9916 34.1852L38.3683 37.2347L38.3684 37.2359L38.5135 37.3668C38.622 37.4729 38.7348 37.5747 38.8516 37.6717Z" fill="#23FFC2"/>
<path d="M34.1582 42.129L32.2158 44.387L35.2639 47.009L37.5279 44.3772C36.2779 43.8197 35.1403 43.0559 34.1582 42.129Z" fill="#23FFC2"/>
<path d="M69.9316 33.2418C69.1389 33.2418 68.4202 33.0714 67.7756 32.7305C67.1384 32.3823 66.6346 31.9044 66.2641 31.2969C65.9011 30.6819 65.7196 29.9892 65.7196 29.2186C65.7196 28.4481 65.9011 27.759 66.2641 27.1515C66.6346 26.5365 67.1384 26.0586 67.7756 25.7178C68.4202 25.3696 69.1426 25.1955 69.9427 25.1955C70.617 25.1955 71.2245 25.314 71.7654 25.5511C72.3137 25.7882 72.773 26.129 73.1435 26.5736L71.9877 27.6405C71.4616 27.0329 70.8096 26.7292 70.0317 26.7292C69.5501 26.7292 69.1203 26.8366 68.7425 27.0515C68.3646 27.2589 68.0682 27.5516 67.8534 27.9294C67.6459 28.3073 67.5422 28.737 67.5422 29.2186C67.5422 29.7002 67.6459 30.1299 67.8534 30.5078C68.0682 30.8857 68.3646 31.182 68.7425 31.3969C69.1203 31.6044 69.5501 31.7081 70.0317 31.7081C70.8096 31.7081 71.4616 31.4006 71.9877 30.7856L73.1435 31.8526C72.773 32.3045 72.3137 32.649 71.7654 32.8861C71.2171 33.1232 70.6059 33.2418 69.9316 33.2418ZM80.0272 27.5071C79.3604 27.1219 78.6454 26.8736 77.8823 26.7625V33.1084H76.0819V26.7625C75.3188 26.8736 74.6001 27.1219 73.9259 27.5071L73.3146 26.1624C73.8481 25.8438 74.426 25.603 75.0483 25.44C75.6707 25.277 76.3116 25.1955 76.971 25.1955C77.6378 25.1955 78.2824 25.277 78.9048 25.44C79.5345 25.603 80.1124 25.8438 80.6385 26.1624L80.0272 27.5071ZM87.1144 27.5071C86.4475 27.1219 85.7326 26.8736 84.9694 26.7625V33.1084H83.169V26.7625C82.4059 26.8736 81.6872 27.1219 81.013 27.5071L80.4017 26.1624C80.9352 25.8438 81.5131 25.603 82.1354 25.44C82.7578 25.277 83.3987 25.1955 84.0581 25.1955C84.7249 25.1955 85.3695 25.277 85.9919 25.44C86.6217 25.603 87.1996 25.8438 87.7256 26.1624L87.1144 27.5071ZM95.404 33.2418C94.6112 33.2418 93.8925 33.0714 93.248 32.7305C92.6108 32.3823 92.107 31.9044 91.7365 31.2969C91.3735 30.6819 91.1919 29.9892 91.1919 29.2186C91.1919 28.4481 91.3735 27.759 91.7365 27.1515C92.107 26.5365 92.6108 26.0586 93.248 25.7178C93.8925 25.3696 94.6149 25.1955 95.4151 25.1955C96.0893 25.1955 96.6969 25.314 97.2378 25.5511C97.786 25.7882 98.2454 26.129 98.6158 26.5736L97.46 27.6405C96.934 27.0329 96.282 26.7292 95.504 26.7292C95.0224 26.7292 94.5927 26.8366 94.2148 27.0515C93.837 27.2589 93.5406 27.5516 93.3258 27.9294C93.1183 28.3073 93.0146 28.737 93.0146 29.2186C93.0146 29.7002 93.1183 30.1299 93.3258 30.5078C93.5406 30.8857 93.837 31.182 94.2148 31.3969C94.5927 31.6044 95.0224 31.7081 95.504 31.7081C96.282 31.7081 96.934 31.4006 97.46 30.7856L98.6158 31.8526C98.2454 32.3045 97.786 32.649 97.2378 32.8861C96.6895 33.1232 96.0782 33.2418 95.404 33.2418ZM102.348 33.1973C101.719 33.1973 101.152 33.0676 100.648 32.8083C100.151 32.5416 99.7625 32.1749 99.481 31.7081C99.1994 31.2413 99.0587 30.7116 99.0587 30.1188C99.0587 29.5261 99.1994 28.9964 99.481 28.5296C99.7625 28.0628 100.151 27.6998 100.648 27.4404C101.152 27.1737 101.719 27.0404 102.348 27.0404C102.978 27.0404 103.541 27.1737 104.038 27.4404C104.534 27.6998 104.923 28.0628 105.204 28.5296C105.486 28.9964 105.627 29.5261 105.627 30.1188C105.627 30.7116 105.486 31.2413 105.204 31.7081C104.923 32.1749 104.534 32.5416 104.038 32.8083C103.541 33.0676 102.978 33.1973 102.348 33.1973ZM102.348 31.7748C102.793 31.7748 103.156 31.6266 103.437 31.3302C103.726 31.0264 103.871 30.6226 103.871 30.1188C103.871 29.615 103.726 29.2149 103.437 28.9186C103.156 28.6148 102.793 28.4629 102.348 28.4629C101.904 28.4629 101.537 28.6148 101.248 28.9186C100.959 29.2149 100.815 29.615 100.815 30.1188C100.815 30.6226 100.959 31.0264 101.248 31.3302C101.537 31.6266 101.904 31.7748 102.348 31.7748ZM110.32 27.0404C110.875 27.0404 111.379 27.17 111.831 27.4293C112.291 27.6812 112.65 28.0406 112.909 28.5074C113.169 28.9667 113.298 29.5039 113.298 30.1188C113.298 30.7338 113.169 31.2746 112.909 31.7414C112.65 32.2008 112.291 32.5601 111.831 32.8194C111.379 33.0714 110.875 33.1973 110.32 33.1973C109.557 33.1973 108.957 32.9565 108.519 32.4749V35.2644H106.786V27.1293H108.442V27.8183C108.871 27.2997 109.497 27.0404 110.32 27.0404ZM110.02 31.7748C110.464 31.7748 110.827 31.6266 111.109 31.3302C111.398 31.0264 111.542 30.6226 111.542 30.1188C111.542 29.615 111.398 29.2149 111.109 28.9186C110.827 28.6148 110.464 28.4629 110.02 28.4629C109.575 28.4629 109.208 28.6148 108.919 28.9186C108.638 29.2149 108.497 29.615 108.497 30.1188C108.497 30.6226 108.638 31.0264 108.919 31.3302C109.208 31.6266 109.575 31.7748 110.02 31.7748ZM120.482 27.1293V32.1082C120.482 33.2047 120.205 34.0197 119.649 34.5532C119.093 35.0866 118.286 35.3534 117.226 35.3534C116.663 35.3534 116.13 35.283 115.626 35.1422C115.129 35.0014 114.711 34.7977 114.37 34.5309L115.059 33.2862C115.311 33.4937 115.618 33.6567 115.981 33.7752C116.344 33.8938 116.711 33.953 117.082 33.953C117.66 33.953 118.082 33.8197 118.349 33.5529C118.615 33.2862 118.749 32.8787 118.749 32.3304V32.1304C118.526 32.3527 118.263 32.5231 117.96 32.6416C117.656 32.7602 117.33 32.8194 116.982 32.8194C116.196 32.8194 115.574 32.5972 115.115 32.1526C114.655 31.7007 114.426 31.0264 114.426 30.1299V27.1293H116.159V29.8743C116.159 30.8449 116.563 31.3302 117.371 31.3302C117.786 31.3302 118.119 31.1969 118.371 30.9301C118.623 30.656 118.749 30.2522 118.749 29.7187V27.1293H120.482ZM131.026 27.5071C130.359 27.1219 129.644 26.8736 128.881 26.7625V33.1084H127.081V26.7625C126.318 26.8736 125.599 27.1219 124.925 27.5071L124.314 26.1624C124.847 25.8438 125.425 25.603 126.047 25.44C126.67 25.277 127.311 25.1955 127.97 25.1955C128.637 25.1955 129.281 25.277 129.904 25.44C130.534 25.603 131.111 25.8438 131.638 26.1624L131.026 27.5071ZM133.871 27.9183C134.078 27.6294 134.356 27.4108 134.704 27.2626C135.06 27.1144 135.467 27.0404 135.927 27.0404V28.6407C135.734 28.6259 135.604 28.6185 135.538 28.6185C135.041 28.6185 134.652 28.7593 134.371 29.0408C134.089 29.3149 133.948 29.7299 133.948 30.2855V33.1084H132.215V27.1293H133.871V27.9183ZM142.971 27.1293V33.1084H141.315V32.4194C140.886 32.938 140.263 33.1973 139.448 33.1973C138.885 33.1973 138.374 33.0714 137.915 32.8194C137.463 32.5675 137.107 32.2082 136.848 31.7414C136.588 31.2746 136.459 30.7338 136.459 30.1188C136.459 29.5039 136.588 28.963 136.848 28.4962C137.107 28.0295 137.463 27.6701 137.915 27.4182C138.374 27.1663 138.885 27.0404 139.448 27.0404C140.211 27.0404 140.808 27.2811 141.238 27.7627V27.1293H142.971ZM139.748 31.7748C140.185 31.7748 140.548 31.6266 140.837 31.3302C141.126 31.0264 141.271 30.6226 141.271 30.1188C141.271 29.615 141.126 29.2149 140.837 28.9186C140.548 28.6148 140.185 28.4629 139.748 28.4629C139.304 28.4629 138.937 28.6148 138.648 28.9186C138.359 29.2149 138.215 29.615 138.215 30.1188C138.215 30.6226 138.359 31.0264 138.648 31.3302C138.937 31.6266 139.304 31.7748 139.748 31.7748ZM150.667 24.8621V33.1084H149.011V32.4194C148.581 32.938 147.959 33.1973 147.144 33.1973C146.581 33.1973 146.069 33.0714 145.61 32.8194C145.158 32.5675 144.802 32.2082 144.543 31.7414C144.284 31.2746 144.154 30.7338 144.154 30.1188C144.154 29.5039 144.284 28.963 144.543 28.4962C144.802 28.0295 145.158 27.6701 145.61 27.4182C146.069 27.1663 146.581 27.0404 147.144 27.0404C147.907 27.0404 148.503 27.2811 148.933 27.7627V24.8621H150.667ZM147.444 31.7748C147.881 31.7748 148.244 31.6266 148.533 31.3302C148.822 31.0264 148.966 30.6226 148.966 30.1188C148.966 29.615 148.822 29.2149 148.533 28.9186C148.244 28.6148 147.881 28.4629 147.444 28.4629C146.999 28.4629 146.632 28.6148 146.343 28.9186C146.054 29.2149 145.91 29.615 145.91 30.1188C145.91 30.6226 146.054 31.0264 146.343 31.3302C146.632 31.6266 146.999 31.7748 147.444 31.7748ZM152.271 27.1293H154.005V33.1084H152.271V27.1293ZM153.138 26.2957C152.82 26.2957 152.56 26.2031 152.36 26.0179C152.16 25.8327 152.06 25.603 152.06 25.3289C152.06 25.0547 152.16 24.825 152.36 24.6398C152.56 24.4546 152.82 24.362 153.138 24.362C153.457 24.362 153.716 24.4509 153.916 24.6287C154.116 24.8065 154.216 25.0288 154.216 25.2955C154.216 25.5845 154.116 25.8253 153.916 26.0179C153.716 26.2031 153.457 26.2957 153.138 26.2957ZM159.248 27.0404C159.989 27.0404 160.586 27.2626 161.038 27.7072C161.497 28.1517 161.727 28.8111 161.727 29.6854V33.1084H159.993V29.9521C159.993 29.4779 159.889 29.126 159.682 28.8963C159.474 28.6592 159.174 28.5407 158.781 28.5407C158.344 28.5407 157.996 28.6778 157.737 28.9519C157.477 29.2186 157.348 29.6187 157.348 30.1522V33.1084H155.614V27.1293H157.27V27.8294C157.5 27.5775 157.785 27.3849 158.126 27.2515C158.467 27.1107 158.841 27.0404 159.248 27.0404ZM169.531 27.1293V32.1082C169.531 33.2047 169.246 34.0197 168.676 34.5532C168.105 35.0866 167.272 35.3534 166.175 35.3534C165.597 35.3534 165.049 35.283 164.53 35.1422C164.012 35.0014 163.582 34.7977 163.241 34.5309L163.93 33.2862C164.182 33.4937 164.501 33.6567 164.886 33.7752C165.271 33.9012 165.656 33.9641 166.042 33.9641C166.642 33.9641 167.083 33.8271 167.364 33.5529C167.653 33.2862 167.798 32.8787 167.798 32.3304V32.0748C167.346 32.5712 166.716 32.8194 165.908 32.8194C165.36 32.8194 164.856 32.7009 164.397 32.4638C163.945 32.2193 163.585 31.8785 163.319 31.4414C163.052 31.0042 162.919 30.5004 162.919 29.9299C162.919 29.3594 163.052 28.8556 163.319 28.4184C163.585 27.9813 163.945 27.6442 164.397 27.4071C164.856 27.1626 165.36 27.0404 165.908 27.0404C166.775 27.0404 167.435 27.3256 167.886 27.8961V27.1293H169.531ZM166.253 31.3969C166.712 31.3969 167.086 31.2635 167.375 30.9968C167.672 30.7227 167.82 30.367 167.82 29.9299C167.82 29.4928 167.672 29.1408 167.375 28.8741C167.086 28.6 166.712 28.4629 166.253 28.4629C165.793 28.4629 165.416 28.6 165.119 28.8741C164.823 29.1408 164.675 29.4928 164.675 29.9299C164.675 30.367 164.823 30.7227 165.119 30.9968C165.416 31.2635 165.793 31.3969 166.253 31.3969Z" fill="white"/>
<path d="M66.1587 38.2092H67.9517C68.7939 38.2092 69.4031 38.3351 69.7793 38.5869C70.1556 38.8387 70.3437 39.2367 70.3437 39.7808C70.3437 40.157 70.2381 40.4681 70.0268 40.7141C69.8184 40.9572 69.5131 41.115 69.1108 41.1873V41.2307C70.0745 41.3957 70.5564 41.9022 70.5564 42.7502C70.5564 43.3174 70.364 43.7603 69.979 44.0786C69.597 44.397 69.0616 44.5562 68.3728 44.5562H66.1587V38.2092ZM66.8967 40.9269H68.1123C68.6332 40.9269 69.008 40.8458 69.2367 40.6837C69.4653 40.5188 69.5796 40.2424 69.5796 39.8546C69.5796 39.4986 69.4523 39.2424 69.1976 39.0862C68.9429 38.927 68.5377 38.8474 67.9821 38.8474H66.8967V40.9269ZM66.8967 41.552V43.9267H68.2208C68.7331 43.9267 69.118 43.8283 69.3756 43.6315C69.6361 43.4318 69.7663 43.1206 69.7663 42.6981C69.7663 42.3045 69.6332 42.0151 69.3669 41.8298C69.1036 41.6446 68.7013 41.552 68.1601 41.552H66.8967ZM75.9222 42.1728C75.9222 42.9484 75.7269 43.5548 75.3362 43.9918C74.9454 44.4259 74.4057 44.643 73.7169 44.643C73.2914 44.643 72.9137 44.5431 72.5838 44.3434C72.2539 44.1437 71.9992 43.8572 71.8197 43.4839C71.6403 43.1105 71.5506 42.6735 71.5506 42.1728C71.5506 41.3972 71.7445 40.7937 72.1323 40.3625C72.5201 39.9284 73.0584 39.7113 73.7473 39.7113C74.4129 39.7113 74.9411 39.9327 75.3318 40.3755C75.7254 40.8183 75.9222 41.4174 75.9222 42.1728ZM72.2973 42.1728C72.2973 42.7806 72.4188 43.2436 72.6619 43.562C72.9051 43.8804 73.2625 44.0395 73.7342 44.0395C74.206 44.0395 74.5634 43.8818 74.8065 43.5663C75.0525 43.248 75.1755 42.7835 75.1755 42.1728C75.1755 41.5679 75.0525 41.1092 74.8065 40.7966C74.5634 40.4812 74.2031 40.3234 73.7256 40.3234C73.2538 40.3234 72.8978 40.4783 72.6576 40.7879C72.4174 41.0976 72.2973 41.5592 72.2973 42.1728ZM78.7267 44.0482C78.854 44.0482 78.977 44.0395 79.0957 44.0222C79.2144 44.0019 79.3084 43.9817 79.3779 43.9614V44.5127C79.2997 44.5504 79.184 44.5808 79.0306 44.6039C78.8801 44.63 78.7441 44.643 78.6225 44.643C77.7021 44.643 77.242 44.1582 77.242 43.1887V40.3581H76.5604V40.0108L77.242 39.7113L77.5459 38.6954H77.9626V39.7981H79.3431V40.3581H77.9626V43.1583C77.9626 43.4448 78.0306 43.6647 78.1667 43.8181C78.3027 43.9715 78.4894 44.0482 78.7267 44.0482Z" fill="white"/>
</g>
<defs>
<linearGradient id="paint0_linear_7304_194599" x1="131.854" y1="351.606" x2="131.854" y2="283.244" gradientUnits="userSpaceOnUse">
<stop stop-color="#08F4B4"/>
<stop offset="0.115004" stop-color="#08F4B4" stop-opacity="0.884996"/>
<stop offset="1" stop-color="#08F4B4" stop-opacity="0"/>
</linearGradient>
<radialGradient id="paint1_radial_7304_194599" cx="0" cy="0" r="1" gradientUnits="userSpaceOnUse" gradientTransform="translate(141 180.497) scale(180.5 185.5)">
<stop stop-color="#009A5A"/>
<stop offset="1" stop-color="#005F96" stop-opacity="0"/>
</radialGradient>
<linearGradient id="paint2_linear_7304_194599" x1="136.281" y1="292.843" x2="136.281" y2="33.1742" gradientUnits="userSpaceOnUse">
<stop stop-color="#4997C1"/>
<stop offset="1" stop-color="#06B485"/>
</linearGradient>
<radialGradient id="paint3_angular_7304_194599" cx="0" cy="0" r="1" gradientUnits="userSpaceOnUse" gradientTransform="translate(41.3399 33.3555) rotate(52.5096) scale(14.3847 13.8469)">
<stop stop-color="#405387"/>
<stop offset="1" stop-color="#51A4E0"/>
</radialGradient>
<clipPath id="clip0_7304_194599">
<rect width="279" height="393" fill="white"/>
</clipPath>
</defs>
</svg>
