<svg width="1064" height="590" viewBox="0 0 1064 590" fill="none" xmlns="http://www.w3.org/2000/svg">
<g id="plus-1" opacity="0.6">
  <g class="js-rellax" data-rellax-speed="0.75">
    <g>
      <path d="M1047.84 32.1762C1056.34 32.1762 1063.23 25.2875 1063.23 16.7898C1063.23 8.29217 1056.34 1.40344 1047.84 1.40344C1039.35 1.40344 1032.46 8.29217 1032.46 16.7898C1032.46 25.2875 1039.35 32.1762 1047.84 32.1762Z" fill="url(#paint0_linear)"/>
      <path d="M1047.84 32.1762C1056.34 32.1762 1063.23 25.2875 1063.23 16.7898C1063.23 8.29217 1056.34 1.40344 1047.84 1.40344C1039.35 1.40344 1032.46 8.29217 1032.46 16.7898C1032.46 25.2875 1039.35 32.1762 1047.84 32.1762Z" stroke="#00FFA1" stroke-miterlimit="10"/>
      <path d="M1055.48 14.0792H1051.19V9.52562C1051.19 8.59153 1050.43 7.83447 1049.5 7.83447H1046.69C1045.76 7.83447 1045 8.59153 1045 9.52562V14.0792H1040.7C1039.77 14.0792 1039.01 14.8362 1039.01 15.7703V18.4633C1039.01 19.3973 1039.77 20.1544 1040.7 20.1544H1045V24.7664C1045 25.7005 1045.76 26.4575 1046.69 26.4575H1049.5C1050.43 26.4575 1051.19 25.7005 1051.19 24.7664V20.1544H1055.48C1056.42 20.1544 1057.17 19.3973 1057.17 18.4633V15.7703C1057.17 14.8362 1056.42 14.0792 1055.48 14.0792Z" fill="#009291"/>
      <path d="M1047.67 1C1047.67 1 1047.38 1.12843 1046.85 1.35913C1046.33 1.59921 1045.56 1.83944 1044.68 2.33037C1042.89 3.17584 1040.6 4.58462 1038.48 6.56628C1036.33 8.5117 1034.7 10.6653 1033.62 12.3341C1032.54 14.0011 1032 15.1672 1032 15.1672C1032 15.1672 1032 14.8462 1032.09 14.2735C1032.16 13.6983 1032.33 12.8726 1032.64 11.8762C1032.96 10.8783 1033.45 9.7257 1034.15 8.51296C1034.89 7.33175 1035.8 6.05293 1037.03 4.97553C1039.43 2.73326 1042.3 1.66012 1044.34 1.3072C1045.35 1.05455 1046.21 1.07372 1046.78 1.02928C1047.35 1.01047 1047.67 1 1047.67 1Z" fill="#93FFFF"/>
    </g>
  </g>
</g>
<g id="plus-2" opacity="0.3">
  <g class="js-rellax" data-rellax-speed="0.75">
    <g>
      <path d="M624.77 154C633.762 154 641.052 146.708 641.052 137.714C641.052 128.719 633.762 121.427 624.77 121.427C615.778 121.427 608.488 128.719 608.488 137.714C608.488 146.708 615.778 154 624.77 154Z" fill="url(#paint1_linear)"/>
      <path d="M624.77 154C633.762 154 641.052 146.708 641.052 137.714C641.052 128.719 633.762 121.427 624.77 121.427C615.778 121.427 608.488 128.719 608.488 137.714C608.488 146.708 615.778 154 624.77 154Z" stroke="#00FFA1" stroke-miterlimit="10"/>
      <path d="M632.857 134.844H628.313V130.024C628.313 129.036 627.512 128.234 626.523 128.234H623.551C622.563 128.234 621.761 129.036 621.761 130.024V134.844H617.214C616.226 134.844 615.425 135.646 615.425 136.634V139.485C615.425 140.474 616.226 141.275 617.214 141.275H621.761V146.157C621.761 147.146 622.563 147.947 623.551 147.947H626.523C627.512 147.947 628.313 147.146 628.313 146.157V141.275H632.857C633.846 141.275 634.647 140.474 634.647 139.485V136.634C634.647 135.646 633.846 134.844 632.857 134.844Z" fill="#009291"/>
      <path d="M624.59 121C624.59 121 624.279 121.136 623.722 121.38C623.171 121.634 622.35 121.889 621.426 122.408C619.526 123.303 617.108 124.794 614.864 126.892C612.581 128.951 610.862 131.231 609.716 132.997C608.568 134.762 608 135.996 608 135.996C608 135.996 608.001 135.656 608.091 135.05C608.173 134.441 608.348 133.567 608.682 132.512C609.012 131.456 609.537 130.236 610.277 128.952C611.057 127.702 612.019 126.349 613.32 125.208C615.863 122.835 618.901 121.699 621.062 121.325C622.134 121.058 623.042 121.078 623.647 121.031C624.253 121.011 624.59 121 624.59 121Z" fill="#93FFFF"/>
    </g>
  </g>
</g>
<g id="dot-1">
  <g class="js-rellax" data-rellax-speed="0.75">
    <g>
      <path d="M43.2279 183.459C46.1152 183.459 48.4559 181.117 48.4559 178.229C48.4559 175.341 46.1152 173 43.2279 173C40.3406 173 38 175.341 38 178.229C38 181.117 40.3406 183.459 43.2279 183.459Z" fill="#008887"/>
    </g>
  </g>
</g>
<g id="dot-2">
  <g class="js-rellax" data-rellax-speed="0.75">
    <g>
      <path opacity="0.7" d="M945.228 286.459C948.115 286.459 950.456 284.117 950.456 281.229C950.456 278.341 948.115 276 945.228 276C942.341 276 940 278.341 940 281.229C940 284.117 942.341 286.459 945.228 286.459Z" fill="#008887"/>
    </g>
  </g>
</g>
<g id="dot-3">
  <g class="js-rellax" data-rellax-speed="0.75">
    <g>
      <path opacity="0.4" d="M267.228 559.459C270.115 559.459 272.456 557.117 272.456 554.229C272.456 551.341 270.115 549 267.228 549C264.341 549 262 551.341 262 554.229C262 557.117 264.341 559.459 267.228 559.459Z" fill="#008887"/>
    </g>
  </g>
</g>
<g id="plus-3" opacity="0.3">
  <g class="js-rellax" data-rellax-speed="0.75">
    <g>
      <path d="M202.639 589C207.271 589 211.026 585.243 211.026 580.61C211.026 575.976 207.271 572.22 202.639 572.22C198.006 572.22 194.251 575.976 194.251 580.61C194.251 585.243 198.006 589 202.639 589Z" fill="url(#paint2_linear)"/>
      <path d="M202.639 589C207.271 589 211.026 585.243 211.026 580.61C211.026 575.976 207.271 572.22 202.639 572.22C198.006 572.22 194.251 575.976 194.251 580.61C194.251 585.243 198.006 589 202.639 589Z" stroke="#00FFA1" stroke-miterlimit="10"/>
      <path d="M206.805 579.132H204.464V576.649C204.464 576.14 204.051 575.727 203.542 575.727H202.011C201.502 575.727 201.089 576.14 201.089 576.649V579.132H198.747C198.238 579.132 197.825 579.545 197.825 580.054V581.522C197.825 582.032 198.238 582.445 198.747 582.445H201.089V584.96C201.089 585.469 201.502 585.882 202.011 585.882H203.542C204.051 585.882 204.464 585.469 204.464 584.96V582.445H206.805C207.315 582.445 207.727 582.032 207.727 581.522V580.054C207.727 579.545 207.315 579.132 206.805 579.132Z" fill="#009291"/>
      <path d="M202.546 572C202.546 572 202.386 572.07 202.099 572.196C201.815 572.327 201.392 572.458 200.916 572.725C199.938 573.186 198.692 573.955 197.536 575.035C196.36 576.096 195.474 577.27 194.884 578.18C194.293 579.089 194 579.725 194 579.725C194 579.725 194.001 579.55 194.047 579.238C194.089 578.924 194.179 578.474 194.351 577.931C194.521 577.387 194.792 576.758 195.173 576.097C195.575 575.453 196.07 574.755 196.74 574.168C198.051 572.945 199.616 572.36 200.729 572.168C201.281 572.03 201.749 572.04 202.061 572.016C202.373 572.006 202.546 572 202.546 572Z" fill="#93FFFF"/>
    </g>
  </g>
</g>
<g id="plus-4" opacity="0.4">
  <g class="js-rellax" data-rellax-speed="0.75">
    <g>
      <path d="M814.196 298C820.736 298 826.038 292.697 826.038 286.155C826.038 279.614 820.736 274.311 814.196 274.311C807.656 274.311 802.354 279.614 802.354 286.155C802.354 292.697 807.656 298 814.196 298Z" fill="url(#paint3_linear)"/>
      <path d="M814.196 298C820.736 298 826.038 292.697 826.038 286.155C826.038 279.614 820.736 274.311 814.196 274.311C807.656 274.311 802.354 279.614 802.354 286.155C802.354 292.697 807.656 298 814.196 298Z" stroke="#00FFA1" stroke-miterlimit="10"/>
      <path d="M820.078 284.069H816.773V280.563C816.773 279.844 816.19 279.261 815.471 279.261H813.31C812.591 279.261 812.008 279.844 812.008 280.563V284.069H808.701C807.983 284.069 807.4 284.651 807.4 285.37V287.443C807.4 288.163 807.983 288.745 808.701 288.745H812.008V292.296C812.008 293.015 812.591 293.598 813.31 293.598H815.471C816.19 293.598 816.773 293.015 816.773 292.296V288.745H820.078C820.797 288.745 821.38 288.163 821.38 287.443V285.37C821.38 284.651 820.797 284.069 820.078 284.069Z" fill="#009291"/>
      <path d="M814.065 274C814.065 274 813.84 274.099 813.434 274.276C813.033 274.461 812.436 274.646 811.764 275.024C810.383 275.675 808.624 276.76 806.992 278.285C805.331 279.783 804.081 281.441 803.248 282.725C802.413 284.008 802 284.906 802 284.906C802 284.906 802.001 284.659 802.066 284.218C802.125 283.775 802.253 283.14 802.496 282.373C802.736 281.605 803.118 280.717 803.656 279.784C804.223 278.874 804.923 277.89 805.869 277.06C807.718 275.334 809.928 274.508 811.5 274.236C812.279 274.042 812.94 274.057 813.38 274.023C813.82 274.008 814.065 274 814.065 274Z" fill="#93FFFF"/>
    </g>
  </g>
</g>
<g id="plus-5" opacity="0.2">
  <g class="js-rellax" data-rellax-speed="0.75">
    <g>
      <path d="M13.1536 106C18.0585 106 22.0347 102.023 22.0347 97.1165C22.0347 92.2102 18.0585 88.2329 13.1536 88.2329C8.24868 88.2329 4.27246 92.2102 4.27246 97.1165C4.27246 102.023 8.24868 106 13.1536 106Z" fill="url(#paint4_linear)"/>
      <path d="M13.1536 106C18.0585 106 22.0347 102.023 22.0347 97.1165C22.0347 92.2102 18.0585 88.2329 13.1536 88.2329C8.24868 88.2329 4.27246 92.2102 4.27246 97.1165C4.27246 102.023 8.24868 106 13.1536 106Z" stroke="#00FFA1" stroke-miterlimit="10"/>
      <path d="M17.565 95.5514H15.0861V92.9223C15.0861 92.383 14.6492 91.9459 14.11 91.9459H12.4889C11.9497 91.9459 11.5127 92.383 11.5127 92.9223V95.5514H9.03253C8.49338 95.5514 8.0564 95.9885 8.0564 96.5278V98.0826C8.0564 98.6219 8.49338 99.059 9.03253 99.059H11.5127V101.722C11.5127 102.261 11.9497 102.698 12.4889 102.698H14.11C14.6492 102.698 15.0861 102.261 15.0861 101.722V99.059H17.565C18.1042 99.059 18.5411 98.6219 18.5411 98.0826V96.5278C18.5411 95.9885 18.1042 95.5514 17.565 95.5514Z" fill="#009291"/>
      <path d="M13.0554 88C13.0554 88 12.886 88.0741 12.5818 88.2073C12.2814 88.346 11.8334 88.4847 11.3294 88.7681C10.2935 89.2563 8.97417 90.0696 7.75008 91.2138C6.50494 92.337 5.56736 93.5804 4.94249 94.5439C4.31617 95.5064 4.00635 96.1797 4.00635 96.1797C4.00635 96.1797 4.00709 95.9943 4.05603 95.6636C4.10045 95.3315 4.19594 94.8548 4.3784 94.2795C4.55834 93.7034 4.84453 93.0379 5.2484 92.3377C5.67375 91.6557 6.19833 90.9174 6.90802 90.2953C8.29518 89.0007 9.9522 88.3811 11.1313 88.1774C11.7157 88.0315 12.2113 88.0426 12.5412 88.0169C12.8715 88.006 13.0554 88 13.0554 88Z" fill="#93FFFF"/>
    </g>
  </g>
</g>
<g id="plus-6" opacity="0.6">
  <g class="js-rellax" data-rellax-speed="0.75">
    <g>
      <path d="M914.769 539C923.762 539 931.051 531.708 931.051 522.714C931.051 513.719 923.762 506.427 914.769 506.427C905.777 506.427 898.487 513.719 898.487 522.714C898.487 531.708 905.777 539 914.769 539Z" fill="url(#paint5_linear)"/>
      <path d="M914.769 539C923.762 539 931.051 531.708 931.051 522.714C931.051 513.719 923.762 506.427 914.769 506.427C905.777 506.427 898.487 513.719 898.487 522.714C898.487 531.708 905.777 539 914.769 539Z" stroke="#00FFA1" stroke-miterlimit="10"/>
      <path d="M922.857 519.844H918.313V515.024C918.313 514.036 917.512 513.234 916.523 513.234H913.551C912.563 513.234 911.761 514.036 911.761 515.024V519.844H907.214C906.226 519.844 905.425 520.646 905.425 521.634V524.485C905.425 525.473 906.226 526.275 907.214 526.275H911.761V531.157C911.761 532.145 912.563 532.947 913.551 532.947H916.523C917.512 532.947 918.313 532.145 918.313 531.157V526.275H922.857C923.846 526.275 924.647 525.473 924.647 524.485V521.634C924.647 520.646 923.846 519.844 922.857 519.844Z" fill="#009291"/>
      <path d="M914.59 506C914.59 506 914.279 506.136 913.722 506.38C913.171 506.634 912.35 506.889 911.426 507.408C909.526 508.303 907.108 509.794 904.864 511.892C902.581 513.951 900.862 516.231 899.716 517.997C898.568 519.762 898 520.996 898 520.996C898 520.996 898.001 520.656 898.091 520.05C898.173 519.441 898.348 518.567 898.682 517.512C899.012 516.456 899.537 515.236 900.277 513.952C901.057 512.702 902.019 511.349 903.32 510.208C905.863 507.835 908.901 506.699 911.062 506.325C912.134 506.058 913.042 506.078 913.647 506.031C914.253 506.011 914.59 506 914.59 506Z" fill="#93FFFF"/>
    </g>
  </g>
</g>
<g id="plus-7" opacity="0.6">
  <g class="js-rellax" data-rellax-speed="0.75">
    <g>
      <path d="M59.2613 138C67.9812 138 75.05 130.929 75.05 122.207C75.05 113.485 67.9812 106.414 59.2613 106.414C50.5415 106.414 43.4727 113.485 43.4727 122.207C43.4727 130.929 50.5415 138 59.2613 138Z" fill="url(#paint6_linear)"/>
      <path d="M59.2613 138C67.9812 138 75.05 130.929 75.05 122.207C75.05 113.485 67.9812 106.414 59.2613 106.414C50.5415 106.414 43.4727 113.485 43.4727 122.207C43.4727 130.929 50.5415 138 59.2613 138Z" stroke="#00FFA1" stroke-miterlimit="10"/>
      <path d="M67.1039 119.425H62.697V114.751C62.697 113.792 61.9202 113.015 60.9616 113.015H58.0797C57.1212 113.015 56.3443 113.792 56.3443 114.751V119.425H51.9351C50.9766 119.425 50.1997 120.202 50.1997 121.16V123.925C50.1997 124.883 50.9766 125.66 51.9351 125.66H56.3443V130.394C56.3443 131.353 57.1212 132.13 58.0797 132.13H60.9616C61.9202 132.13 62.697 131.353 62.697 130.394V125.66H67.1039C68.0624 125.66 68.8392 124.883 68.8392 123.925V121.16C68.8392 120.202 68.0624 119.425 67.1039 119.425Z" fill="#009291"/>
      <path d="M59.0872 106C59.0872 106 58.7861 106.132 58.2452 106.369C57.7112 106.615 56.9148 106.862 56.0187 107.366C54.1772 108.233 51.8317 109.679 49.6555 111.713C47.4419 113.71 45.7751 115.921 44.6643 117.634C43.5508 119.345 43 120.542 43 120.542C43 120.542 43.0013 120.212 43.0883 119.624C43.1673 119.034 43.337 118.186 43.6614 117.164C43.9813 116.139 44.4901 114.956 45.2081 113.711C45.9643 112.499 46.8969 111.186 48.1585 110.081C50.6246 107.779 53.5704 106.678 55.6666 106.315C56.7055 106.056 57.5865 106.076 58.1731 106.03C58.7603 106.011 59.0872 106 59.0872 106Z" fill="#93FFFF"/>
    </g>
  </g>
</g>
<defs>
<linearGradient id="paint0_linear" x1="1047.84" y1="32.1762" x2="1047.84" y2="1.40345" gradientUnits="userSpaceOnUse">
<stop offset="0.225942" stop-color="#00FF9E"/>
<stop offset="0.797396" stop-color="#00FF9E" stop-opacity="0.6"/>
</linearGradient>
<linearGradient id="paint1_linear" x1="624.77" y1="154" x2="624.77" y2="121.427" gradientUnits="userSpaceOnUse">
<stop offset="0.225942" stop-color="#00FF9E"/>
<stop offset="0.797396" stop-color="#00FF9E" stop-opacity="0.6"/>
</linearGradient>
<linearGradient id="paint2_linear" x1="202.639" y1="589" x2="202.639" y2="572.22" gradientUnits="userSpaceOnUse">
<stop offset="0.225942" stop-color="#00FF9E"/>
<stop offset="0.797396" stop-color="#00FF9E" stop-opacity="0.6"/>
</linearGradient>
<linearGradient id="paint3_linear" x1="814.196" y1="298" x2="814.196" y2="274.311" gradientUnits="userSpaceOnUse">
<stop offset="0.225942" stop-color="#00FF9E"/>
<stop offset="0.797396" stop-color="#00FF9E" stop-opacity="0.6"/>
</linearGradient>
<linearGradient id="paint4_linear" x1="13.1536" y1="106" x2="13.1536" y2="88.2329" gradientUnits="userSpaceOnUse">
<stop offset="0.225942" stop-color="#00FF9E"/>
<stop offset="0.797396" stop-color="#00FF9E" stop-opacity="0.6"/>
</linearGradient>
<linearGradient id="paint5_linear" x1="914.769" y1="539" x2="914.769" y2="506.427" gradientUnits="userSpaceOnUse">
<stop offset="0.225942" stop-color="#00FF9E"/>
<stop offset="0.797396" stop-color="#00FF9E" stop-opacity="0.6"/>
</linearGradient>
<linearGradient id="paint6_linear" x1="59.2613" y1="138" x2="59.2613" y2="106.414" gradientUnits="userSpaceOnUse">
<stop offset="0.225942" stop-color="#00FF9E"/>
<stop offset="0.797396" stop-color="#00FF9E" stop-opacity="0.6"/>
</linearGradient>
</defs>
</svg>
