<svg width="16" height="16" viewBox="0 0 16 16" fill="none" xmlns="http://www.w3.org/2000/svg">
<path opacity="0.8" d="M6.12737 1.06102C6.0922 0.485814 6.54922 0 7.1255 0H8.8745C9.45078 0 9.9078 0.485812 9.87263 1.06102L9.34907 9.62505C9.31682 10.1527 8.87952 10.564 8.35094 10.564H7.64906C7.12048 10.564 6.68318 10.1527 6.65093 9.62505L6.12737 1.06102ZM8 16C7.43056 16 6.95139 15.8123 6.5625 15.4369C6.1875 15.0471 6 14.5778 6 14.0292C6 13.4805 6.1875 13.0257 6.5625 12.6648C6.9375 12.2894 7.41667 12.1017 8 12.1017C8.58333 12.1017 9.0625 12.2894 9.4375 12.6648C9.8125 13.0257 10 13.4805 10 14.0292C10 14.5778 9.80556 15.0471 9.41667 15.4369C9.04167 15.8123 8.56944 16 8 16Z" fill="#041133"/>
</svg>
