<svg width="20" height="20" viewBox="0 0 20 20" fill="none" xmlns="http://www.w3.org/2000/svg">
<path fill-rule="evenodd" clip-rule="evenodd" d="M10.0858 6.70711C10.4763 6.31658 10.4763 5.68342 10.0858 5.29289C9.69524 4.90237 9.06208 4.90237 8.67155 5.29289L4.29289 9.67155C3.90237 10.0621 3.90237 10.6952 4.29289 11.0858L8.67155 15.4644C9.06208 15.855 9.69524 15.855 10.0858 15.4644C10.4763 15.0739 10.4763 14.4407 10.0858 14.0502L6.41421 10.3787L10.0858 6.70711ZM13.5 12C14.3284 12 15 11.3284 15 10.5C15 9.67157 14.3284 9 13.5 9C12.6716 9 12 9.67157 12 10.5C12 11.3284 12.6716 12 13.5 12Z" fill="#00F6B2"/>
</svg>
