<svg width="20" height="20" viewBox="0 0 20 20" fill="none" xmlns="http://www.w3.org/2000/svg">
<path fill-rule="evenodd" clip-rule="evenodd" d="M8.91423 6.70711C8.52371 6.31658 8.52371 5.68342 8.91423 5.29289C9.30476 4.90237 9.93792 4.90237 10.3284 5.29289L14.7071 9.67155C15.0976 10.0621 15.0976 10.6952 14.7071 11.0858L10.3284 15.4644C9.93792 15.855 9.30476 15.855 8.91423 15.4644C8.52371 15.0739 8.52371 14.4407 8.91423 14.0502L12.5858 10.3787L8.91423 6.70711ZM5.49999 12C4.67157 12 3.99999 11.3284 3.99999 10.5C3.99999 9.67157 4.67157 9 5.49999 9C6.32842 9 6.99999 9.67157 6.99999 10.5C6.99999 11.3284 6.32842 12 5.49999 12Z" fill="white" fill-opacity="0.4"/>
</svg>
