<svg width="32" height="32" viewBox="0 0 32 32" fill="none" xmlns="http://www.w3.org/2000/svg">
<path d="M11.0285 13.9576L16 8.98618L20.9741 13.9601L23.8669 11.0673L16 3.2002L8.1358 11.0648L11.0285 13.9576ZM3.2002 15.9998L6.09309 13.1069L8.98579 15.9996L6.09292 18.8925L3.2002 15.9998ZM11.0285 18.0428L16 23.0142L20.974 18.0404L23.8683 20.9317L23.8669 20.9332L16 28.8002L8.13554 20.9359L8.13145 20.9318L11.0285 18.0428ZM23.0147 16.0014L25.9076 13.1085L28.8003 16.0012L25.9074 18.8941L23.0147 16.0014Z" fill="#F3BA2F"/>
<path d="M18.9345 15.9999H18.9357L16.0003 13.0645L13.831 15.2338H13.8308L13.5816 15.4831L13.0676 15.9973L13.0635 16.0013L13.0676 16.0055L16.0003 18.9384L18.9357 16.0029L18.9371 16.0013L18.9345 15.9999Z" fill="#F3BA2F"/>
</svg>
