<svg width="12" height="12" viewBox="0 0 12 12" fill="none" xmlns="http://www.w3.org/2000/svg">
<path fill-rule="evenodd" clip-rule="evenodd" d="M6 12C9.31371 12 12 9.31371 12 6C12 2.68629 9.31371 0 6 0C2.68629 0 0 2.68629 0 6C0 9.31371 2.68629 12 6 12ZM8.41997 8.94681C8.80666 8.5 9 7.97872 9 7.38298C9 6.84397 8.87005 6.41844 8.61014 6.10638C8.35658 5.79433 8.05547 5.57092 7.70681 5.43617C7.35816 5.29433 6.93027 5.17021 6.42314 5.06383C6.03011 4.97872 5.74802 4.90071 5.57686 4.82979C5.4057 4.75177 5.32013 4.6383 5.32013 4.48936C5.32013 4.17731 5.60856 4.02128 6.18542 4.02128C6.76862 4.02128 7.38669 4.20567 8.03962 4.57447L8.71474 2.75532C8.18859 2.42199 7.54517 2.21631 6.78447 2.1383V1H5.44374V2.15958C4.68938 2.28014 4.10935 2.56383 3.70364 3.01064C3.30428 3.45745 3.1046 3.99291 3.1046 4.61702C3.1046 5.15603 3.23138 5.58511 3.48494 5.90426C3.73851 6.21631 4.03645 6.44326 4.37876 6.58511C4.72108 6.71986 5.14897 6.84752 5.66244 6.96809C6.06181 7.06028 6.34707 7.14539 6.51823 7.2234C6.69572 7.30142 6.78447 7.41844 6.78447 7.57447C6.78447 7.70922 6.71791 7.81206 6.58479 7.88298C6.45166 7.94681 6.22979 7.97872 5.91918 7.97872C5.55784 7.97872 5.18067 7.91844 4.78764 7.79787C4.39461 7.67021 4.03962 7.50355 3.72266 7.29787L3 9.12766C3.28526 9.32624 3.64342 9.49291 4.07448 9.62766C4.51189 9.76241 4.9683 9.84397 5.44374 9.87234V11H6.78447V9.81915C7.49445 9.67731 8.03962 9.38653 8.41997 8.94681Z" fill="#40D4FF"/>
</svg>
