<svg width="66" height="30" viewBox="0 0 66 30" fill="none" xmlns="http://www.w3.org/2000/svg">
<g opacity="0.5">
<path d="M50.8297 29.2942C58.5426 29.2942 64.7953 23.0424 64.7953 15.3306C64.7953 7.61866 58.5426 1.36694 50.8297 1.36694C43.1167 1.36694 36.8641 7.61866 36.8641 15.3306C36.8641 23.0424 43.1167 29.2942 50.8297 29.2942Z" fill="url(#paint0_linear_6634_173384)"/>
<path d="M50.8297 29.2942C58.5426 29.2942 64.7953 23.0424 64.7953 15.3306C64.7953 7.61866 58.5426 1.36694 50.8297 1.36694C43.1167 1.36694 36.8641 7.61866 36.8641 15.3306C36.8641 23.0424 43.1167 29.2942 50.8297 29.2942Z" stroke="#00FFA1" stroke-miterlimit="10"/>
<path d="M57.7648 12.8696H53.8668V8.73718C53.8668 7.88946 53.1796 7.20239 52.3318 7.20239H49.7826C48.9347 7.20239 48.2476 7.88946 48.2476 8.73718V12.8696H44.3475C43.4996 12.8696 42.8125 13.5567 42.8125 14.4044V16.8484C42.8125 17.6961 43.4996 18.3831 44.3475 18.3831H48.2476V22.5686C48.2476 23.4163 48.9347 24.1034 49.7826 24.1034H52.3318C53.1796 24.1034 53.8668 23.4163 53.8668 22.5686V18.3831H57.7648C58.6126 18.3831 59.2998 17.6961 59.2998 16.8484V14.4044C59.2998 13.5567 58.6126 12.8696 57.7648 12.8696Z" fill="#009291"/>
<path d="M50.6749 1C50.6749 1 50.4075 1.1103 49.9265 1.3087C49.4514 1.51633 48.7427 1.72081 47.9428 2.1539C46.301 2.89545 44.1957 4.1564 42.2561 5.96841C41.2539 6.84208 40.4321 7.81601 39.6781 8.70642C38.9588 9.62453 38.3398 10.4936 37.8663 11.262C36.9047 12.792 36.4453 13.8571 36.4453 13.8571C36.4453 13.8571 36.4534 13.5673 36.5402 13.0514C36.6199 12.5333 36.7829 11.7902 37.0815 10.8944C37.376 9.99715 37.8364 8.96193 38.4766 7.87248C39.1507 6.81158 39.9754 5.66242 41.0844 4.691C41.6031 4.16779 42.2099 3.77297 42.7676 3.36487C43.3356 2.96986 43.9468 2.68558 44.4985 2.37988C45.0722 2.11242 45.6455 1.92026 46.1661 1.72154C46.6868 1.52067 47.212 1.44865 47.6672 1.33227C48.5789 1.09053 49.3539 1.09438 49.8701 1.04383C50.3874 1.01564 50.6749 1 50.6749 1Z" fill="#93FFFF"/>
</g>
<path opacity="0.39" d="M4.44214 29.5976C6.89547 29.5976 8.88428 27.6091 8.88428 25.1561C8.88428 22.7031 6.89547 20.7146 4.44214 20.7146C1.98881 20.7146 0 22.7031 0 25.1561C0 27.6091 1.98881 29.5976 4.44214 29.5976Z" fill="#00FFA1"/>
<defs>
<linearGradient id="paint0_linear_6634_173384" x1="50.8297" y1="29.2942" x2="50.8297" y2="1.36694" gradientUnits="userSpaceOnUse">
<stop offset="0.225942" stop-color="#00FF9E"/>
<stop offset="0.797396" stop-color="#00FF9E" stop-opacity="0.6"/>
</linearGradient>
</defs>
</svg>
