<svg width="24" height="24" viewBox="0 0 24 24" fill="none" xmlns="http://www.w3.org/2000/svg">
<path fill-rule="evenodd" clip-rule="evenodd" d="M20.2071 5.20711C20.5976 4.81658 20.5976 4.18342 20.2071 3.79289C19.8166 3.40237 19.1834 3.40237 18.7929 3.79289L17.1078 5.47795C15.6858 4.5988 13.9741 4 12 4C5.63636 4 2 10.2222 2 12C2 12.998 3.14595 15.3966 5.27702 17.3088L3.79289 18.7929C3.40237 19.1834 3.40237 19.8166 3.79289 20.2071C4.18342 20.5976 4.81658 20.5976 5.20711 20.2071L6.89217 18.522C8.31422 19.4012 10.0259 20 12 20C18.3636 20 22 13.7778 22 12C22 11.002 20.8541 8.60342 18.723 6.69123L20.2071 5.20711ZM15.6454 6.94035C14.5828 6.36331 13.3627 6 12 6C9.5149 6 7.50437 7.20823 6.05727 8.7175C5.33605 9.46971 4.79113 10.2622 4.43592 10.9344C4.11877 11.5346 4.03029 11.8897 4.00741 11.9815L4.00267 12L4.00741 12.0185C4.03029 12.1103 4.11877 12.4654 4.43592 13.0656C4.79113 13.7378 5.33605 14.5303 6.05727 15.2825C6.25853 15.4924 6.47068 15.6965 6.69349 15.8923L8.55382 14.032C8.20193 13.4365 8 12.7418 8 12C8 9.79086 9.79086 8 12 8C12.7418 8 13.4365 8.20193 14.032 8.55382L15.6454 6.94035ZM15.4462 9.96803L17.3065 8.1077C17.5293 8.30352 17.7415 8.5076 17.9427 8.7175C18.664 9.46971 19.2089 10.2622 19.5641 10.9344C19.8812 11.5346 19.9697 11.8897 19.9926 11.9815L19.9973 12L19.9926 12.0185C19.9697 12.1103 19.8812 12.4654 19.5641 13.0656C19.2089 13.7378 18.664 14.5303 17.9427 15.2825C16.4956 16.7918 14.4851 18 12 18C10.6373 18 9.41724 17.6367 8.35457 17.0596L9.96803 15.4462C10.5635 15.7981 11.2582 16 12 16C14.2091 16 16 14.2091 16 12C16 11.2582 15.7981 10.5635 15.4462 9.96803ZM12.518 10.0677C12.3528 10.0236 12.1792 10 12 10C10.8954 10 10 10.8954 10 12C10 12.1792 10.0236 12.3528 10.0677 12.518L12.518 10.0677ZM11.482 13.9323L13.9323 11.482C13.9764 11.6472 14 11.8208 14 12C14 13.1046 13.1046 14 12 14C11.8208 14 11.6472 13.9764 11.482 13.9323Z" fill="#CFD5E4"/>
</svg>
