<?xml version="1.0" encoding="UTF-8" standalone="no" ?>
<!DOCTYPE svg PUBLIC "-//W3C//DTD SVG 1.1//EN" "http://www.w3.org/Graphics/SVG/1.1/DTD/svg11.dtd">
<svg xmlns="http://www.w3.org/2000/svg" xmlns:xlink="http://www.w3.org/1999/xlink" version="1.1" width="1080" height="1080" viewBox="0 0 1080 1080" xml:space="preserve">
<desc>Created with Fabric.js 5.2.4</desc>
<defs>
</defs>
<g transform="matrix(1 0 0 1 540 540)" id="20553192-4d17-43f8-860d-69875a6470f6"  >
<rect style="stroke: none; stroke-width: 1; stroke-dasharray: none; stroke-linecap: butt; stroke-dashoffset: 0; stroke-linejoin: miter; stroke-miterlimit: 4; fill: rgb(255,255,255); fill-rule: nonzero; opacity: 1; visibility: hidden;" vector-effect="non-scaling-stroke"  x="-540" y="-540" rx="0" ry="0" width="1080" height="1080" />
</g>
<g transform="matrix(1 0 0 1 540 540)" id="e2406d0d-f19d-4f9f-a9ab-100118147d51"  >
</g>
<g transform="matrix(NaN NaN NaN NaN 0 0)"  >
<g style=""   >
</g>
</g>
<g transform="matrix(33.75 0 0 33.75 540 540)"  >
<g style=""   >
		<g transform="matrix(1 0 0 1 0 0)"  >
<rect style="stroke: none; stroke-width: 1; stroke-dasharray: none; stroke-linecap: butt; stroke-dashoffset: 0; stroke-linejoin: miter; stroke-miterlimit: 4; fill: none; fill-rule: nonzero; opacity: 1;" vector-effect="non-scaling-stroke"  x="-16" y="-12" rx="0" ry="0" width="32" height="24" />
</g>
		<g transform="matrix(1 0 0 1 0 0)"  >
<rect style="stroke: none; stroke-width: 1; stroke-dasharray: none; stroke-linecap: butt; stroke-dashoffset: 0; stroke-linejoin: miter; stroke-miterlimit: 4; fill: none; fill-rule: nonzero; opacity: 1;" vector-effect="non-scaling-stroke"  x="-16" y="-12" rx="0" ry="0" width="32" height="24" />
</g>
		<g transform="matrix(1 0 0 1 0 0)"  >
<rect style="stroke: none; stroke-width: 1; stroke-dasharray: none; stroke-linecap: butt; stroke-dashoffset: 0; stroke-linejoin: miter; stroke-miterlimit: 4; fill: none; fill-rule: nonzero; opacity: 1;" vector-effect="non-scaling-stroke"  x="-16" y="-12" rx="0" ry="0" width="32" height="24" />
</g>
		<g transform="matrix(1 0 0 1 0 1.78)" clip-path="url(#CLIPPATH_4)"  >
<clipPath id="CLIPPATH_4" >
	<rect transform="matrix(1 0 0 1 0 -1.78)" id="highcharts-b73mifp-6482-" x="-16" y="-12" rx="0" ry="0" width="32" height="24" />
</clipPath>
<path style="stroke: rgb(24,220,166); stroke-width: 2; stroke-dasharray: none; stroke-linecap: round; stroke-dashoffset: 0; stroke-linejoin: round; stroke-miterlimit: 4; fill: none; fill-rule: nonzero; opacity: 1;" vector-effect="non-scaling-stroke"  transform=" translate(-16, -13.78)" d="M 0.001777580268859 24 C 0.001777580268859 24 0.0657704699477836 23.4324 0.1084323964004 23.4324 C 0.151094322853016 23.4324 0.172425286079324 23.6892 0.21508721253194 23.6892 C 0.257749138984556 23.6892 0.279080102210864 23.6616 0.32174202866348 23.64 C 0.36440395511609597 23.6184 0.38573491834240403 23.64 0.42839684479502 23.5812 C 0.471058771247636 23.522399999999998 0.49238973447394396 22.8612 0.53505166092656 22.8612 C 0.57771358737918 22.8612 0.59904455060549 22.9908 0.64170647705811 22.9908 C 0.684368403510726 22.9908 0.7056993667370339 22.7604 0.74836129318965 22.554 C 0.791023219642266 22.3476 0.812354182868574 21.9588 0.85501610932119 21.9588 C 0.8976780357738061 21.9588 0.9190089990001139 22.0932 0.96167092545273 22.0932 C 1.004332851905358 22.0932 1.025663815131672 22.0608 1.0683257415843 22.0608 C 1.11098766803694 22.0608 1.13231863126326 22.327439999999886 1.1749805577159 22.5732 C 1.2176424841685 22.818959999999887 1.2389734473948 23.04456 1.2816353738474 23.2896 C 1.3242973003 23.53464 1.3456282635263002 23.7984 1.3882901899789 23.7984 C 1.43095211643154 23.7984 1.4522830796578599 23.348640000000117 1.4949450061105 23.0952 C 1.5376069325631 22.841760000000118 1.5589378957894 22.70183999999992 1.601599822242 22.5312 C 1.64426174869464 22.360559999999918 1.6655927119209601 22.4632800000001 1.7082546383736 22.242 C 1.7509165648262002 22.020720000000104 1.7722475280525 21.4248 1.8149094545051 21.4248 C 1.8575713809577 21.4248 1.878902344184 21.6432 1.9215642706366 21.6432 C 1.9642261970892398 21.6432 1.9855571603155604 19.880399999999998 2.0282190867682 19.8024 C 2.0708810132208 19.7244 2.0922119764471 19.7244 2.1348739028997 19.7244 C 2.17753582935234 19.7244 2.1988667925786602 19.9632 2.2415287190313 19.9632 C 2.2841906454839 19.9632 2.3055216087102 19.656 2.3481835351628 19.656 C 2.3908454616154 19.656 2.4121764248417 20.0304 2.4548383512943 20.0304 C 2.4975002777469397 20.0304 2.51883124097326 20.0304 2.5614931674259 20.009999999999998 C 2.6041550938785 19.989599999999996 2.6254860571048 19.6692 2.6681479835574 19.6692 C 2.7108099100100396 19.6692 2.73214087323636 20.7684 2.774802799689 20.7684 C 2.8174647261416 20.7684 2.8387956893679003 20.7684 2.8814576158205 20.7648 C 2.9241195422731003 20.761200000000002 2.9454505054994002 19.810559999999803 2.988112431952 19.3872 C 3.03077435840464 18.963839999999802 3.05210532163096 18.648 3.0947672480836 18.648 C 3.1374291745362 18.648 3.1587601377625 18.648 3.2014220642151 18.6492 C 3.2440839906677397 18.6504 3.26541495389406 18.730079999999976 3.3080768803467 18.7812 C 3.3507388067993005 18.832319999999974 3.3720697700256004 18.839760000000034 3.4147316964782 18.9048 C 3.45739362293084 18.969840000000033 3.4787245861571607 19.042079999999974 3.5213865126098 19.1064 C 3.5640484390624003 19.17071999999997 3.5853794022887002 19.226399999999998 3.6280413287413 19.226399999999998 C 3.6707032551939003 19.226399999999998 3.6920342184201997 19.07231999999997 3.7346961448728 19.008 C 3.77735807132544 18.943679999999972 3.79868903455176 18.94536000000002 3.8413509610044 18.9048 C 3.8840128874569997 18.86424000000002 3.9053438506832996 18.806399999999996 3.9480057771359 18.8052 C 3.9906677035885396 18.804000000000002 4.0119986668148595 18.804720000000003 4.0546605932675 18.804000000000002 C 4.0973225197201 18.803280000000004 4.1186534829464 18.803520000000002 4.161315409399 18.8016 C 4.2039773358516 18.799680000000002 4.2253082990779 18.7944 4.2679702255305 18.7944 C 4.31063215198314 18.7944 4.33196311520946 18.814799999999998 4.3746250416621 18.814799999999998 C 4.4172869681147 18.814799999999998 4.438617931341001 18.7944 4.4812798577936 18.7884 C 4.52394178424624 18.7824 4.54527274747256 18.78648 4.5879346739252 18.7824 C 4.6305966003778 18.77832 4.6519275636041 18.768 4.6945894900567 18.768 C 4.7372514165093 18.768 4.7585823797356 18.768 4.8012443061882 18.7716 C 4.84390623264084 18.775199999999998 4.865237195867159 18.7872 4.9078991223198 18.7872 C 4.9505610487724 18.7872 4.9718920119987 18.786 5.0145539384513 18.786 C 5.05721586490394 18.786 5.07854682813026 18.7896 5.1212087545829 18.7896 C 5.1638706810355 18.7896 5.1852016442618005 18.7896 5.2278635707144 18.7884 C 5.270525497167 18.7872 5.2918564603933005 18.6744 5.3345183868459 18.6744 C 5.37718031329854 18.6744 5.39851127652486 19.0764 5.4411732029775 19.0764 C 5.4838351294300995 19.0764 5.5051660926564 19.014959999999974 5.547828019109 18.96 C 5.59048994556164 18.905039999999975 5.61182090878796 18.8016 5.6544828352406 18.8016 C 5.6971447616932 18.8016 5.7184757249195 18.852 5.7611376513721 18.852 C 5.803799577824741 18.852 5.82513054105106 18.7956 5.8677924675037 18.7956 C 5.9104543939563 18.7956 5.9317853571826005 18.8556 5.9744472836352 18.8556 C 6.0171092100878 18.8556 6.0384401733141 18.7776 6.0811020997667 18.7776 C 6.12376402621934 18.7776 6.14509498944566 19.247999999999998 6.1877569158983 19.3248 C 6.2304188423509 19.401600000000002 6.2517498055772 19.346400000000028 6.2944117320298 19.401600000000002 C 6.33707365848244 19.45680000000003 6.35840462170876 19.6008 6.4010665481614 19.6008 C 6.443728474614 19.6008 6.4650594378403 19.293599999999998 6.5077213642929 19.293599999999998 C 6.550383290745501 19.293599999999998 6.5717142539718 19.488 6.6143761804244 19.488 C 6.657038106877041 19.488 6.6783690701033604 19.418880000000012 6.721030996556 19.3932 C 6.7636929230086 19.36752000000001 6.7850238862349 19.3596 6.8276858126875 19.3596 C 6.870347739140141 19.3596 6.89167870236646 19.409759999999988 6.9343406288191 19.434 C 6.9770025552716985 19.45823999999999 6.998333518497999 19.480800000000002 7.0409954449506 19.480800000000002 C 7.0836573714032 19.480800000000002 7.104988334629501 19.407600000000002 7.1476502610821 19.407600000000002 C 7.190312187534741 19.407600000000002 7.21164315076106 19.407600000000002 7.2543050772137 19.4868 C 7.296967003666299 19.565999999999995 7.318297966892599 19.9068 7.3609598933452 19.9068 C 7.40362181979784 19.9068 7.42495278302416 19.713600000000003 7.4676147094768 19.6944 C 7.510276635929401 19.6752 7.5316075991557 19.6944 7.5742695256083 19.6752 C 7.616931452060899 19.656 7.638262415287199 18.978 7.6809243417398 18.864 C 7.72358626819244 18.75 7.744917231418761 18.786240000000017 7.7875791578714 18.75 C 7.830241084324001 18.71376000000002 7.851572047550301 18.72359999999998 7.8942339740029 18.6828 C 7.936895900455539 18.64199999999998 7.95822686368186 18.546 8.0008887901345 18.546 C 8.0435507165871 18.546 8.0648816798134 18.864 8.107543606266 18.864 C 8.15020553271864 18.864 8.17153649594496 18.8316 8.2141984223976 18.8316 C 8.2568603488502 18.8316 8.2781913120765 18.9432 8.3208532385291 18.9432 C 8.3635151649817 18.9432 8.384846128208 18.9432 8.4275080546606 18.936 C 8.470169981113239 18.9288 8.49150094433956 18.8544 8.5341628707922 18.8544 C 8.5768247972448 18.8544 8.5981557604711 19.0332 8.6408176869237 19.0332 C 8.68347961337634 19.0332 8.70481057660266 18.9384 8.7474725030553 18.9384 C 8.790134429507901 18.9384 8.8114653927342 19.06032 8.8541273191868 19.1592 C 8.8967892456394 19.25808 8.9181202088657 19.4328 8.9607821353183 19.4328 C 9.00344406177094 19.4328 9.02477502499726 19.009199999999996 9.0674369514499 18.9 C 9.110098877902498 18.7908 9.1314298411288 18.7908 9.1740917675814 18.7908 C 9.21675369403404 18.7908 9.23808465726036 18.814079999999993 9.280746583713 18.8292 C 9.323408510165601 18.844319999999993 9.3447394733919 18.8664 9.3874013998445 18.8664 C 9.430063326297098 18.8664 9.4513942895234 18.6792 9.494056215976 18.6792 C 9.53671814242864 18.6792 9.55804910565496 18.691200000000002 9.6007110321076 18.691200000000002 C 9.643372958560201 18.691200000000002 9.6647039217865 18.575039999999973 9.7073658482391 18.5172 C 9.75002777469174 18.459359999999972 9.77135873791806 18.451920000000023 9.8140206643707 18.402 C 9.8566825908233 18.352080000000026 9.8780135540496 18.2676 9.9206754805022 18.2676 C 9.96333740695492 18.2676 9.98466837018128 18.322319999999728 10.027330296634 18.3948 C 10.0699922230864 18.46727999999973 10.0913231863126 18.63 10.133985112765 18.63 C 10.176647039217801 18.63 10.197978002444199 18.35616000000055 10.240639928897 18.240000000000002 C 10.2833018553494 18.12384000000055 10.3046328185756 18.0492 10.347294745028 18.0492 C 10.3899566714808 18.0492 10.411287634707199 18.1056 10.45394956116 18.1056 C 10.4966114876128 18.1056 10.5179424508392 18.0684 10.560604377292 18.0684 C 10.6032663037444 18.0684 10.6245972669706 18.16776000000029 10.667259193423 18.2292 C 10.7099211198758 18.290640000000288 10.7312520831022 18.3756 10.773914009555 18.3756 C 10.8165759360074 18.3756 10.8379068992336 18.3012 10.880568825686 18.3012 C 10.923230752138801 18.3012 10.9445617153652 18.538319999999604 10.987223641818 18.622799999999998 C 11.0298855682704 18.707279999999603 11.051216531496598 18.7236 11.093878457949 18.7236 C 11.1365403844018 18.7236 11.1578713476282 18.546 11.200533274081 18.546 C 11.243195200533401 18.546 11.2645261637596 18.5976 11.307188090212 18.5976 C 11.3498500166648 18.5976 11.371180979891198 18.4776 11.413842906344 18.4776 C 11.4565048327964 18.4776 11.4778357960226 18.708 11.520497722475 18.708 C 11.5631596489278 18.708 11.5844906121542 18.48864 11.627152538607 18.354 C 11.6698144650598 18.219359999999998 11.6911454282862 18.0348 11.733807354739 18.0348 C 11.7764692811914 18.0348 11.7978002444176 18.15312000000047 11.84046217087 18.2532 C 11.883124097322801 18.35328000000047 11.9044550605492 18.4752 11.947116987002 18.5352 C 11.9897789134544 18.5952 12.011109876680598 18.5952 12.053771803133 18.5952 C 12.096433729585799 18.5952 12.1177646928122 18.47424000000031 12.160426619265 18.408 C 12.203088545717401 18.34176000000031 12.2244195089436 18.408 12.267081435396 18.264 C 12.309743361848799 18.119999999999997 12.331074325075198 17.6652 12.373736251528 17.6652 C 12.4163981779804 17.6652 12.4377291412066 17.7084 12.480391067659 17.7084 C 12.523052994111799 17.7084 12.5443839573382 17.590800000000247 12.587045883791 17.538 C 12.6297078102434 17.485200000000248 12.6510387734696 17.4444 12.693700699922 17.4444 C 12.736362626374799 17.4444 12.7576935896012 17.680799999999998 12.800355516054 17.680799999999998 C 12.8430174425064 17.680799999999998 12.8643484057326 17.53751999999964 12.907010332185 17.461199999999998 C 12.949672258637799 17.38487999999964 12.971003221864198 17.2992 13.013665148317 17.2992 C 13.056327074769797 17.2992 13.077658037996201 17.3491199999998 13.120319964449 17.3916 C 13.162981890901401 17.434079999999803 13.184312854127601 17.47512000000017 13.22697478058 17.5116 C 13.269636707032799 17.54808000000017 13.290967670259201 17.5116 13.333629596712 17.573999999999998 C 13.3762915231644 17.636399999999995 13.397622486390599 17.838 13.440284412843 17.838 C 13.482946339295802 17.838 13.504277302522201 17.809680000001066 13.546939228975 17.5812 C 13.589601155427403 17.352720000001064 13.610932118653599 16.6956 13.653594045106 16.6956 C 13.696255971558799 16.6956 13.717586934785203 16.6956 13.760248861238 16.7208 C 13.802910787690402 16.746000000000002 13.824241750916599 16.795440000000216 13.866903677369 16.842 C 13.9095656038218 16.888560000000215 13.9308965670482 16.842 13.973558493501 16.9536 C 14.016220419953402 17.065200000000004 14.0375513831796 17.336880000003656 14.080213309632 18.1176 C 14.1228752360848 18.898320000003654 14.144206199311203 20.8572 14.186868125764 20.8572 C 14.2295300522164 20.8572 14.2508610154426 18.7272 14.293522941895 18.7272 C 14.3361848683478 18.7272 14.3575158315742 18.970080000000003 14.400177758027 19.0992 C 14.442839684479802 19.22832 14.4641706477062 19.265759999999496 14.506832574159 19.372799999999998 C 14.549494500611399 19.479839999999495 14.570825463837599 19.6344 14.61348739029 19.6344 C 14.656149316742802 19.6344 14.677480279969199 19.2324 14.720142206422 19.2072 C 14.762804132874402 19.182000000000002 14.784135096100602 19.182000000000002 14.826797022553 19.182000000000002 C 14.8694589490058 19.182000000000002 14.890789912232199 19.386 14.933451838685 19.3872 C 14.976113765137399 19.3884 14.9974447283636 19.3884 15.040106654816 19.3884 C 15.0827685812688 19.3884 15.104099544495199 19.3428 15.146761470948 19.3428 C 15.1894233974004 19.3428 15.2107543606266 19.3428 15.253416287079 19.3524 C 15.2960782135318 19.362 15.3174091767582 19.554239999999172 15.360071103211 19.7304 C 15.4027330296634 19.906559999999175 15.4240639928896 20.2332 15.466725919342 20.2332 C 15.5093878457948 20.2332 15.530718809021199 19.950000000000006 15.573380735474 19.7628 C 15.616042661926798 19.57560000000001 15.637373625153202 19.3428 15.680035551606 19.2972 C 15.722697478058402 19.2516 15.744028441284598 19.271759999999905 15.786690367737 19.2516 C 15.8293522941898 19.231439999999907 15.850683257416199 19.2182400000001 15.893345183869 19.1964 C 15.936007110321402 19.174560000000103 15.9573380735476 19.142400000000002 16 19.142400000000002 C 16.0426619264528 19.142400000000002 16.063992889679202 19.142400000000002 16.106654816132 19.1712 C 16.1493167425844 19.199999999999996 16.1706477058106 19.3824 16.213309632263 19.3824 C 16.2559715587158 19.3824 16.277302521942204 19.20336000000097 16.319964448395 18.996000000000002 C 16.3626263748474 18.78864000000097 16.3839573380736 18.3456 16.426619264526 18.3456 C 16.4692811909788 18.3456 16.490612154205202 18.42 16.533274080658 18.42 C 16.5759360071104 18.42 16.5972669703366 18.3396 16.639928896789 18.3396 C 16.682590823241803 18.3396 16.703921786468204 18.3948 16.746583712921 18.3948 C 16.789245639373398 18.3948 16.8105766025996 18.376559999999955 16.853238529052 18.3672 C 16.8959004555048 18.357839999999957 16.9172314187312 18.36048 16.959893345184 18.348 C 17.0025552716368 18.33552 17.0238862348632 18.33288000000013 17.066548161316 18.3048 C 17.1092100877684 18.276720000000132 17.1305410509946 18.3048 17.173202977447 18.2076 C 17.215864903899803 18.1104 17.2371958671262 17.788800000000002 17.279857793579 17.7708 C 17.3225197200314 17.7528 17.343850683257603 17.755200000000002 17.38651260971 17.7528 C 17.429174536162797 17.7504 17.450505499389198 17.7504 17.493167425842 17.7504 C 17.5358293522944 17.7504 17.557160315520598 17.7852 17.599822241973 17.7852 C 17.642484168425803 17.7852 17.6638151316522 17.697120000000144 17.706477058105 17.6664 C 17.7491389845574 17.635680000000143 17.770469947783603 17.6316 17.813131874236 17.6316 C 17.855793800688797 17.6316 17.877124763915198 17.6316 17.919786690368 17.6436 C 17.9624486168204 17.6556 17.9837795800466 17.6436 18.026441506499 17.755200000000002 C 18.0691034329518 17.866800000000005 18.0904343961782 18.397199999999998 18.133096322631 18.397199999999998 C 18.1757582490838 18.397199999999998 18.197089212310203 18.2316 18.239751138763 18.2316 C 18.2824130652154 18.2316 18.3037440284416 18.2316 18.346405954894 18.2808 C 18.3890678813468 18.33 18.4103988445732 18.5712 18.453060771026 18.5712 C 18.4957226974784 18.5712 18.5170536607046 17.9928 18.559715587157 17.9928 C 18.602377513609802 17.9928 18.623708476836203 18.06 18.666370403289 18.06 C 18.709032329741397 18.06 18.7303632929676 18.01103999999992 18.77302521942 17.994 C 18.8156871458728 17.976959999999917 18.837018109099198 17.976000000000003 18.879680035552 17.974800000000002 C 18.922341962004403 17.9736 18.9436729252306 17.974800000000002 18.986334851683 17.9736 C 19.028996778135802 17.9724 19.050327741362203 17.95416000000015 19.092989667815 17.922 C 19.135651594267397 17.889840000000152 19.1569825574936 17.8128 19.199644483946 17.8128 C 19.2423064103988 17.8128 19.263637373625198 17.891039999999638 19.306299300078 17.9688 C 19.3489612265304 18.046559999999637 19.3702921897566 18.2016 19.412954116209 18.2016 C 19.455616042661802 18.2016 19.4769470058882 18.0696 19.519608932341 18.0696 C 19.562270858793802 18.0696 19.5836018220202 18.088319999999904 19.626263748473 18.1092 C 19.6689256749254 18.130079999999904 19.690256638151602 18.174 19.732918564604 18.174 C 19.775580491056797 18.174 19.796911454283197 18.13680000000018 19.839573380736 18.098399999999998 C 19.8822353071884 18.06000000000018 19.9035662704146 17.989199999999997 19.946228196867 17.982 C 19.9888901233198 17.974800000000002 20.0102210865462 17.982 20.052883012999 17.974800000000002 C 20.0955449394514 17.967600000000004 20.1168759026776 17.616 20.15953782913 17.616 C 20.202199755582797 17.616 20.2235307188092 17.6628 20.266192645262 17.6628 C 20.3088545717144 17.6628 20.3301855349406 17.4804 20.372847461393 17.4804 C 20.4155093878458 17.4804 20.4368403510722 17.514 20.479502277525 17.514 C 20.5221642039774 17.514 20.5434951672036 17.335919999999543 20.586157093656 17.2392 C 20.6288190201088 17.142479999999544 20.6501499833352 17.12448000000044 20.692811909788 17.0304 C 20.7354738362404 16.93632000000044 20.7568047994666 16.949279999999156 20.799466725919 16.7688 C 20.842128652371798 16.588319999999158 20.863459615598202 16.405919999999988 20.906121542051 16.128 C 20.9487834685038 15.85007999999999 20.970114431730202 15.714000000001576 21.012776358183 15.3792 C 21.055438284635397 15.044400000001575 21.0767692478616 14.88791999999796 21.119431174314 14.454 C 21.1620931007668 14.020079999997959 21.183424063993197 13.2096 21.226085990446 13.2096 C 21.2687479168984 13.2096 21.2900788801246 13.2456 21.332740806577 13.2456 C 21.3754027330298 13.2456 21.3967336962562 12.9024 21.439395622709 12.9024 C 21.4820575491614 12.9024 21.5033885123876 12.9024 21.54605043884 13.0032 C 21.5887123652928 13.104 21.610043328519197 13.626 21.652705254972 13.626 C 21.6953671814244 13.626 21.7166981446506 13.56767999999796 21.759360071103 13.134 C 21.8020219975558 12.70031999999796 21.8233529607822 11.4576 21.866014887235 11.4576 C 21.9086768136874 11.4576 21.9300077769136 11.533200000000134 21.972669703366 11.562 C 22.015331629818803 11.590800000000135 22.0366625930452 11.6016 22.079324519498 11.6016 C 22.121986445950803 11.6016 22.1433174091772 11.4624 22.18597933563 11.4624 C 22.228641262082398 11.4624 22.2499722253086 12.0588 22.292634151761 12.0588 C 22.335296078213798 12.0588 22.3566270414402 11.4492 22.399288967893 11.4492 C 22.4419508943454 11.4492 22.4632818575716 11.5428 22.505943784024 11.5428 C 22.5486057104768 11.5428 22.5699366737032 11.5056 22.612598600156 11.5056 C 22.6552605266084 11.5056 22.6765914898346 11.6916 22.719253416287 11.6916 C 22.761915342739798 11.6916 22.783246305966202 10.7988 22.825908232419 10.7988 C 22.8685701588714 10.7988 22.889901122097598 11.8632 22.93256304855 11.8632 C 22.9752249750028 11.8632 22.9965559382292 11.759520000000979 23.039217864682 11.5512 C 23.0818797911344 11.34288000000098 23.1032107543606 10.8216 23.145872680813 10.8216 C 23.1885346072658 10.8216 23.2098655704922 10.9728 23.252527496945 10.9728 C 23.295189423397403 10.9728 23.3165203866236 10.8876 23.359182313076 10.8876 C 23.4018442395288 10.8876 23.423175202755203 10.8876 23.465837129208 10.9404 C 23.508499055660803 10.9932 23.529830018887203 11.282399999999361 23.57249194534 11.418 C 23.615153871792398 11.55359999999936 23.6364848350186 11.6184 23.679146761471 11.6184 C 23.7218086879238 11.6184 23.743139651150198 10.9632 23.785801577603 10.9632 C 23.8284635040554 10.9632 23.8497944672816 10.9632 23.892456393734 11.268 C 23.935118320186803 11.5728 23.9564492834132 12.365999999999998 23.999111209866 12.6612 C 24.0417731363184 12.9564 24.0631040995446 12.9564 24.105766025997 12.9564 C 24.1484279524498 12.9564 24.169758915676198 12.6504 24.212420842129 12.6504 C 24.2550827685814 12.6504 24.2764137318076 12.785760000000238 24.31907565826 12.8364 C 24.361737584712802 12.887040000000237 24.3830685479392 12.9036 24.425730474392 12.9036 C 24.4683924008444 12.9036 24.489723364070603 12.863039999997492 24.532385290523 12.33 C 24.575047216975797 11.796959999997492 24.596378180202198 10.2384 24.639040106655 10.2384 C 24.6817020331074 10.2384 24.703032996333597 10.9956 24.745694922786 10.9956 C 24.788356849238802 10.9956 24.8096878124652 9.994800000000001 24.852349738918 9.9648 C 24.8950116653708 9.9348 24.9163426285972 9.9348 24.95900455505 9.9348 C 25.0016664815024 9.9348 25.0229974447286 10.2348 25.065659371181 10.2348 C 25.1083212976338 10.2348 25.1296522608602 9.7068 25.172314187313 9.7068 C 25.214976113765402 9.7068 25.2363070769916 10.05888000000073 25.278969003444 10.2156 C 25.3216309298968 10.37232000000073 25.342961893123203 10.411199999999631 25.385623819576 10.4904 C 25.4282857460284 10.56959999999963 25.4496167092546 10.4904 25.492278635707 10.6116 C 25.5349405621598 10.7328 25.5562715253862 11.267999999999999 25.598933451839 11.3652 C 25.641595378291402 11.4624 25.6629263415176 11.4624 25.70558826797 11.4624 C 25.748250194422802 11.4624 25.769581157649203 10.9284 25.812243084102 10.9284 C 25.854905010554397 10.9284 25.876235973780602 10.9284 25.918897900233 11.0184 C 25.9615598266858 11.1084 25.982890789912197 11.4192 26.025552716365 11.4192 C 26.0682146428178 11.4192 26.089545606044197 10.7448 26.132207532497 10.7448 C 26.1748694589494 10.7448 26.1962004221756 10.7448 26.238862348628 10.9608 C 26.281524275080802 11.176800000000002 26.3028552383072 12.121199999999998 26.34551716476 12.1512 C 26.3881790912124 12.1812 26.409510054438602 12.1812 26.452171980891 12.1812 C 26.494833907343796 12.1812 26.516164870570197 12.1392 26.558826797023 12.1392 C 26.6014887234754 12.1392 26.622819686701597 12.1392 26.665481613154 12.1428 C 26.7081435396068 12.146399999999998 26.7294745028332 12.175439999999362 26.772136429286 12.3108 C 26.8147983557384 12.446159999999363 26.836129318964595 12.431040000001795 26.878791245417 12.8196 C 26.921453171869796 13.208160000001794 26.9427841350962 14.054400000000001 26.985446061549 14.2536 C 27.0281079880014 14.4528 27.049438951227604 14.4528 27.09210087768 14.4528 C 27.134762804132798 14.4528 27.1560937673592 14.418000000001975 27.198755693812 13.998 C 27.2414176202644 13.578000000001976 27.2627485834906 13.068719999996661 27.305410509943 12.3528 C 27.348072436395796 11.636879999996662 27.3694033996222 10.909439999999979 27.412065326075 10.4184 C 27.4547272525278 9.927359999999979 27.4760582157542 9.8976 27.518720142207 9.8976 C 27.561382068659395 9.8976 27.5827130318856 10.4544 27.625374958338 10.4544 C 27.668036884790798 10.4544 27.689367848017202 10.416000000002645 27.73202977447 9.8436 C 27.774691700922403 9.271200000002645 27.796022664148598 7.592400000000001 27.838684590601 7.592400000000001 C 27.8813465170538 7.592400000000001 27.902677480280204 8.0928 27.945339406733 8.0928 C 27.9880013331854 8.0928 28.0093322964116 7.249199999999998 28.051994222864 7.249199999999998 C 28.0946561493168 7.249199999999998 28.115987112543202 7.698 28.158649038996 7.698 C 28.201310965448396 7.698 28.2226419286746 7.0512000000000015 28.265303855127 7.0512000000000015 C 28.3079657815798 7.0512000000000015 28.329296744806204 8.0088 28.371958671259 8.0088 C 28.414620597711405 8.0088 28.4359515609376 6.8603999999999985 28.47861348739 6.8603999999999985 C 28.5212754138428 6.8603999999999985 28.5426063770692 7.531199999999998 28.585268303522 7.576799999999999 C 28.6279302299748 7.622399999999999 28.6492611932012 7.622399999999999 28.691923119654 7.622399999999999 C 28.7345850461064 7.622399999999999 28.7559160093326 7.1004000000000005 28.798577935785 7.1004000000000005 C 28.841239862237803 7.1004000000000005 28.8625708254642 8.004 28.905232751917 8.004 C 28.9478946783694 8.004 28.969225641595603 7.833119999998799 29.011887568048 7.577999999999999 C 29.054549494500797 7.322879999998799 29.075880457727198 6.728400000000001 29.11854238418 6.728400000000001 C 29.1612043106324 6.728400000000001 29.182535273858598 6.945599999999999 29.225197200311 6.945599999999999 C 29.267859126763803 6.945599999999999 29.2891900899902 6.486000000000001 29.331852016443 6.486000000000001 C 29.374513942895398 6.486000000000001 29.395844906121603 6.486000000000001 29.438506832574 6.498000000000001 C 29.481168759026797 6.510000000000002 29.502499722253198 6.74111999999953 29.545161648706 6.841200000000001 C 29.5878235751584 6.941279999999529 29.609154538384598 6.9984 29.651816464837 6.9984 C 29.6944783912898 6.9984 29.7158093545162 6.569280000000766 29.758471280969 6.4068000000000005 C 29.8011332074214 6.244320000000765 29.8224641706476 6.186 29.8651260971 6.186 C 29.907788023552797 6.186 29.9291189867792 6.398160000000004 29.971780913232 6.4848 C 30.0144428396848 6.5714400000000035 30.0357738029112 6.578879999999813 30.078435729364 6.619199999999999 C 30.121097655816403 6.659519999999813 30.1424286190426 6.686399999999999 30.185090545495 6.686399999999999 C 30.227752471947802 6.686399999999999 30.249083435174203 6.666720000001396 30.291745361627 6.369599999999998 C 30.334407288079397 6.072480000001397 30.355738251305603 5.460000000000001 30.398400177758 5.200800000000001 C 30.4410621042108 4.941600000000001 30.462393067437198 4.941600000000001 30.50505499389 4.941600000000001 C 30.547716920342403 4.941600000000001 30.5690478835686 4.998000000000001 30.611709810021 4.998000000000001 C 30.654371736473802 4.998000000000001 30.675702699700203 4.420320000001348 30.718364626153 4.134 C 30.761026552605397 3.847680000001348 30.7823575158316 3.5664000000000016 30.825019442284 3.5664000000000016 C 30.8676813687368 3.5664000000000016 30.889012331963198 3.734400000000001 30.931674258416 3.734400000000001 C 30.9743361848684 3.734400000000001 30.9956671480946 3.5627999999999993 31.038329074547 3.5627999999999993 C 31.080991000999802 3.5627999999999993 31.1023219642262 4.401599999999998 31.144983890679 4.401599999999998 C 31.187645817131397 4.401599999999998 31.208976780357602 3.5976 31.25163870681 3.5976 C 31.2943006332628 3.5976 31.315631596489197 5.319600000000001 31.358293522942 5.640000000000001 C 31.400955449394797 5.9604 31.4222864126212 5.656799999998584 31.464948339074 5.9604 C 31.5076102655264 6.263999999998584 31.528941228752604 7.158000000000001 31.571603155205 7.158000000000001 C 31.6142650816578 7.158000000000001 31.6355960448842 6.6396000000000015 31.678257971337 6.6396000000000015 C 31.7209198977894 6.6396000000000015 31.7422508610156 6.784320000000366 31.784912787468 6.8628 C 31.827574713920797 6.941280000000366 31.8489056771472 7.032 31.8915676036 7.032 C 31.934229530052402 7.032 31.998222419731 6.364799999999999 31.998222419731 6.364799999999999" stroke-linecap="round" />
</g>
		<g transform="matrix(1 0 0 1 0 1.78)" clip-path="url(#CLIPPATH_5)"  >
<clipPath id="CLIPPATH_5" >
	<rect transform="matrix(1 0 0 1 0 -1.78)" id="highcharts-b73mifp-6482-" x="-16" y="-12" rx="0" ry="0" width="32" height="24" />
</clipPath>
<path style="stroke: rgb(192,192,192); stroke-opacity: 0.0001; stroke-width: 22; stroke-dasharray: none; stroke-linecap: round; stroke-dashoffset: 0; stroke-linejoin: round; stroke-miterlimit: 4; fill: none; fill-rule: nonzero; opacity: 1;" vector-effect="non-scaling-stroke"  transform=" translate(-16, -13.78)" d="M 0.001777580268859 24 C 0.001777580268859 24 0.0657704699477836 23.4324 0.1084323964004 23.4324 C 0.151094322853016 23.4324 0.172425286079324 23.6892 0.21508721253194 23.6892 C 0.257749138984556 23.6892 0.279080102210864 23.6616 0.32174202866348 23.64 C 0.36440395511609597 23.6184 0.38573491834240403 23.64 0.42839684479502 23.5812 C 0.471058771247636 23.522399999999998 0.49238973447394396 22.8612 0.53505166092656 22.8612 C 0.57771358737918 22.8612 0.59904455060549 22.9908 0.64170647705811 22.9908 C 0.684368403510726 22.9908 0.7056993667370339 22.7604 0.74836129318965 22.554 C 0.791023219642266 22.3476 0.812354182868574 21.9588 0.85501610932119 21.9588 C 0.8976780357738061 21.9588 0.9190089990001139 22.0932 0.96167092545273 22.0932 C 1.004332851905358 22.0932 1.025663815131672 22.0608 1.0683257415843 22.0608 C 1.11098766803694 22.0608 1.13231863126326 22.327439999999886 1.1749805577159 22.5732 C 1.2176424841685 22.818959999999887 1.2389734473948 23.04456 1.2816353738474 23.2896 C 1.3242973003 23.53464 1.3456282635263002 23.7984 1.3882901899789 23.7984 C 1.43095211643154 23.7984 1.4522830796578599 23.348640000000117 1.4949450061105 23.0952 C 1.5376069325631 22.841760000000118 1.5589378957894 22.70183999999992 1.601599822242 22.5312 C 1.64426174869464 22.360559999999918 1.6655927119209601 22.4632800000001 1.7082546383736 22.242 C 1.7509165648262002 22.020720000000104 1.7722475280525 21.4248 1.8149094545051 21.4248 C 1.8575713809577 21.4248 1.878902344184 21.6432 1.9215642706366 21.6432 C 1.9642261970892398 21.6432 1.9855571603155604 19.880399999999998 2.0282190867682 19.8024 C 2.0708810132208 19.7244 2.0922119764471 19.7244 2.1348739028997 19.7244 C 2.17753582935234 19.7244 2.1988667925786602 19.9632 2.2415287190313 19.9632 C 2.2841906454839 19.9632 2.3055216087102 19.656 2.3481835351628 19.656 C 2.3908454616154 19.656 2.4121764248417 20.0304 2.4548383512943 20.0304 C 2.4975002777469397 20.0304 2.51883124097326 20.0304 2.5614931674259 20.009999999999998 C 2.6041550938785 19.989599999999996 2.6254860571048 19.6692 2.6681479835574 19.6692 C 2.7108099100100396 19.6692 2.73214087323636 20.7684 2.774802799689 20.7684 C 2.8174647261416 20.7684 2.8387956893679003 20.7684 2.8814576158205 20.7648 C 2.9241195422731003 20.761200000000002 2.9454505054994002 19.810559999999803 2.988112431952 19.3872 C 3.03077435840464 18.963839999999802 3.05210532163096 18.648 3.0947672480836 18.648 C 3.1374291745362 18.648 3.1587601377625 18.648 3.2014220642151 18.6492 C 3.2440839906677397 18.6504 3.26541495389406 18.730079999999976 3.3080768803467 18.7812 C 3.3507388067993005 18.832319999999974 3.3720697700256004 18.839760000000034 3.4147316964782 18.9048 C 3.45739362293084 18.969840000000033 3.4787245861571607 19.042079999999974 3.5213865126098 19.1064 C 3.5640484390624003 19.17071999999997 3.5853794022887002 19.226399999999998 3.6280413287413 19.226399999999998 C 3.6707032551939003 19.226399999999998 3.6920342184201997 19.07231999999997 3.7346961448728 19.008 C 3.77735807132544 18.943679999999972 3.79868903455176 18.94536000000002 3.8413509610044 18.9048 C 3.8840128874569997 18.86424000000002 3.9053438506832996 18.806399999999996 3.9480057771359 18.8052 C 3.9906677035885396 18.804000000000002 4.0119986668148595 18.804720000000003 4.0546605932675 18.804000000000002 C 4.0973225197201 18.803280000000004 4.1186534829464 18.803520000000002 4.161315409399 18.8016 C 4.2039773358516 18.799680000000002 4.2253082990779 18.7944 4.2679702255305 18.7944 C 4.31063215198314 18.7944 4.33196311520946 18.814799999999998 4.3746250416621 18.814799999999998 C 4.4172869681147 18.814799999999998 4.438617931341001 18.7944 4.4812798577936 18.7884 C 4.52394178424624 18.7824 4.54527274747256 18.78648 4.5879346739252 18.7824 C 4.6305966003778 18.77832 4.6519275636041 18.768 4.6945894900567 18.768 C 4.7372514165093 18.768 4.7585823797356 18.768 4.8012443061882 18.7716 C 4.84390623264084 18.775199999999998 4.865237195867159 18.7872 4.9078991223198 18.7872 C 4.9505610487724 18.7872 4.9718920119987 18.786 5.0145539384513 18.786 C 5.05721586490394 18.786 5.07854682813026 18.7896 5.1212087545829 18.7896 C 5.1638706810355 18.7896 5.1852016442618005 18.7896 5.2278635707144 18.7884 C 5.270525497167 18.7872 5.2918564603933005 18.6744 5.3345183868459 18.6744 C 5.37718031329854 18.6744 5.39851127652486 19.0764 5.4411732029775 19.0764 C 5.4838351294300995 19.0764 5.5051660926564 19.014959999999974 5.547828019109 18.96 C 5.59048994556164 18.905039999999975 5.61182090878796 18.8016 5.6544828352406 18.8016 C 5.6971447616932 18.8016 5.7184757249195 18.852 5.7611376513721 18.852 C 5.803799577824741 18.852 5.82513054105106 18.7956 5.8677924675037 18.7956 C 5.9104543939563 18.7956 5.9317853571826005 18.8556 5.9744472836352 18.8556 C 6.0171092100878 18.8556 6.0384401733141 18.7776 6.0811020997667 18.7776 C 6.12376402621934 18.7776 6.14509498944566 19.247999999999998 6.1877569158983 19.3248 C 6.2304188423509 19.401600000000002 6.2517498055772 19.346400000000028 6.2944117320298 19.401600000000002 C 6.33707365848244 19.45680000000003 6.35840462170876 19.6008 6.4010665481614 19.6008 C 6.443728474614 19.6008 6.4650594378403 19.293599999999998 6.5077213642929 19.293599999999998 C 6.550383290745501 19.293599999999998 6.5717142539718 19.488 6.6143761804244 19.488 C 6.657038106877041 19.488 6.6783690701033604 19.418880000000012 6.721030996556 19.3932 C 6.7636929230086 19.36752000000001 6.7850238862349 19.3596 6.8276858126875 19.3596 C 6.870347739140141 19.3596 6.89167870236646 19.409759999999988 6.9343406288191 19.434 C 6.9770025552716985 19.45823999999999 6.998333518497999 19.480800000000002 7.0409954449506 19.480800000000002 C 7.0836573714032 19.480800000000002 7.104988334629501 19.407600000000002 7.1476502610821 19.407600000000002 C 7.190312187534741 19.407600000000002 7.21164315076106 19.407600000000002 7.2543050772137 19.4868 C 7.296967003666299 19.565999999999995 7.318297966892599 19.9068 7.3609598933452 19.9068 C 7.40362181979784 19.9068 7.42495278302416 19.713600000000003 7.4676147094768 19.6944 C 7.510276635929401 19.6752 7.5316075991557 19.6944 7.5742695256083 19.6752 C 7.616931452060899 19.656 7.638262415287199 18.978 7.6809243417398 18.864 C 7.72358626819244 18.75 7.744917231418761 18.786240000000017 7.7875791578714 18.75 C 7.830241084324001 18.71376000000002 7.851572047550301 18.72359999999998 7.8942339740029 18.6828 C 7.936895900455539 18.64199999999998 7.95822686368186 18.546 8.0008887901345 18.546 C 8.0435507165871 18.546 8.0648816798134 18.864 8.107543606266 18.864 C 8.15020553271864 18.864 8.17153649594496 18.8316 8.2141984223976 18.8316 C 8.2568603488502 18.8316 8.2781913120765 18.9432 8.3208532385291 18.9432 C 8.3635151649817 18.9432 8.384846128208 18.9432 8.4275080546606 18.936 C 8.470169981113239 18.9288 8.49150094433956 18.8544 8.5341628707922 18.8544 C 8.5768247972448 18.8544 8.5981557604711 19.0332 8.6408176869237 19.0332 C 8.68347961337634 19.0332 8.70481057660266 18.9384 8.7474725030553 18.9384 C 8.790134429507901 18.9384 8.8114653927342 19.06032 8.8541273191868 19.1592 C 8.8967892456394 19.25808 8.9181202088657 19.4328 8.9607821353183 19.4328 C 9.00344406177094 19.4328 9.02477502499726 19.009199999999996 9.0674369514499 18.9 C 9.110098877902498 18.7908 9.1314298411288 18.7908 9.1740917675814 18.7908 C 9.21675369403404 18.7908 9.23808465726036 18.814079999999993 9.280746583713 18.8292 C 9.323408510165601 18.844319999999993 9.3447394733919 18.8664 9.3874013998445 18.8664 C 9.430063326297098 18.8664 9.4513942895234 18.6792 9.494056215976 18.6792 C 9.53671814242864 18.6792 9.55804910565496 18.691200000000002 9.6007110321076 18.691200000000002 C 9.643372958560201 18.691200000000002 9.6647039217865 18.575039999999973 9.7073658482391 18.5172 C 9.75002777469174 18.459359999999972 9.77135873791806 18.451920000000023 9.8140206643707 18.402 C 9.8566825908233 18.352080000000026 9.8780135540496 18.2676 9.9206754805022 18.2676 C 9.96333740695492 18.2676 9.98466837018128 18.322319999999728 10.027330296634 18.3948 C 10.0699922230864 18.46727999999973 10.0913231863126 18.63 10.133985112765 18.63 C 10.176647039217801 18.63 10.197978002444199 18.35616000000055 10.240639928897 18.240000000000002 C 10.2833018553494 18.12384000000055 10.3046328185756 18.0492 10.347294745028 18.0492 C 10.3899566714808 18.0492 10.411287634707199 18.1056 10.45394956116 18.1056 C 10.4966114876128 18.1056 10.5179424508392 18.0684 10.560604377292 18.0684 C 10.6032663037444 18.0684 10.6245972669706 18.16776000000029 10.667259193423 18.2292 C 10.7099211198758 18.290640000000288 10.7312520831022 18.3756 10.773914009555 18.3756 C 10.8165759360074 18.3756 10.8379068992336 18.3012 10.880568825686 18.3012 C 10.923230752138801 18.3012 10.9445617153652 18.538319999999604 10.987223641818 18.622799999999998 C 11.0298855682704 18.707279999999603 11.051216531496598 18.7236 11.093878457949 18.7236 C 11.1365403844018 18.7236 11.1578713476282 18.546 11.200533274081 18.546 C 11.243195200533401 18.546 11.2645261637596 18.5976 11.307188090212 18.5976 C 11.3498500166648 18.5976 11.371180979891198 18.4776 11.413842906344 18.4776 C 11.4565048327964 18.4776 11.4778357960226 18.708 11.520497722475 18.708 C 11.5631596489278 18.708 11.5844906121542 18.48864 11.627152538607 18.354 C 11.6698144650598 18.219359999999998 11.6911454282862 18.0348 11.733807354739 18.0348 C 11.7764692811914 18.0348 11.7978002444176 18.15312000000047 11.84046217087 18.2532 C 11.883124097322801 18.35328000000047 11.9044550605492 18.4752 11.947116987002 18.5352 C 11.9897789134544 18.5952 12.011109876680598 18.5952 12.053771803133 18.5952 C 12.096433729585799 18.5952 12.1177646928122 18.47424000000031 12.160426619265 18.408 C 12.203088545717401 18.34176000000031 12.2244195089436 18.408 12.267081435396 18.264 C 12.309743361848799 18.119999999999997 12.331074325075198 17.6652 12.373736251528 17.6652 C 12.4163981779804 17.6652 12.4377291412066 17.7084 12.480391067659 17.7084 C 12.523052994111799 17.7084 12.5443839573382 17.590800000000247 12.587045883791 17.538 C 12.6297078102434 17.485200000000248 12.6510387734696 17.4444 12.693700699922 17.4444 C 12.736362626374799 17.4444 12.7576935896012 17.680799999999998 12.800355516054 17.680799999999998 C 12.8430174425064 17.680799999999998 12.8643484057326 17.53751999999964 12.907010332185 17.461199999999998 C 12.949672258637799 17.38487999999964 12.971003221864198 17.2992 13.013665148317 17.2992 C 13.056327074769797 17.2992 13.077658037996201 17.3491199999998 13.120319964449 17.3916 C 13.162981890901401 17.434079999999803 13.184312854127601 17.47512000000017 13.22697478058 17.5116 C 13.269636707032799 17.54808000000017 13.290967670259201 17.5116 13.333629596712 17.573999999999998 C 13.3762915231644 17.636399999999995 13.397622486390599 17.838 13.440284412843 17.838 C 13.482946339295802 17.838 13.504277302522201 17.809680000001066 13.546939228975 17.5812 C 13.589601155427403 17.352720000001064 13.610932118653599 16.6956 13.653594045106 16.6956 C 13.696255971558799 16.6956 13.717586934785203 16.6956 13.760248861238 16.7208 C 13.802910787690402 16.746000000000002 13.824241750916599 16.795440000000216 13.866903677369 16.842 C 13.9095656038218 16.888560000000215 13.9308965670482 16.842 13.973558493501 16.9536 C 14.016220419953402 17.065200000000004 14.0375513831796 17.336880000003656 14.080213309632 18.1176 C 14.1228752360848 18.898320000003654 14.144206199311203 20.8572 14.186868125764 20.8572 C 14.2295300522164 20.8572 14.2508610154426 18.7272 14.293522941895 18.7272 C 14.3361848683478 18.7272 14.3575158315742 18.970080000000003 14.400177758027 19.0992 C 14.442839684479802 19.22832 14.4641706477062 19.265759999999496 14.506832574159 19.372799999999998 C 14.549494500611399 19.479839999999495 14.570825463837599 19.6344 14.61348739029 19.6344 C 14.656149316742802 19.6344 14.677480279969199 19.2324 14.720142206422 19.2072 C 14.762804132874402 19.182000000000002 14.784135096100602 19.182000000000002 14.826797022553 19.182000000000002 C 14.8694589490058 19.182000000000002 14.890789912232199 19.386 14.933451838685 19.3872 C 14.976113765137399 19.3884 14.9974447283636 19.3884 15.040106654816 19.3884 C 15.0827685812688 19.3884 15.104099544495199 19.3428 15.146761470948 19.3428 C 15.1894233974004 19.3428 15.2107543606266 19.3428 15.253416287079 19.3524 C 15.2960782135318 19.362 15.3174091767582 19.554239999999172 15.360071103211 19.7304 C 15.4027330296634 19.906559999999175 15.4240639928896 20.2332 15.466725919342 20.2332 C 15.5093878457948 20.2332 15.530718809021199 19.950000000000006 15.573380735474 19.7628 C 15.616042661926798 19.57560000000001 15.637373625153202 19.3428 15.680035551606 19.2972 C 15.722697478058402 19.2516 15.744028441284598 19.271759999999905 15.786690367737 19.2516 C 15.8293522941898 19.231439999999907 15.850683257416199 19.2182400000001 15.893345183869 19.1964 C 15.936007110321402 19.174560000000103 15.9573380735476 19.142400000000002 16 19.142400000000002 C 16.0426619264528 19.142400000000002 16.063992889679202 19.142400000000002 16.106654816132 19.1712 C 16.1493167425844 19.199999999999996 16.1706477058106 19.3824 16.213309632263 19.3824 C 16.2559715587158 19.3824 16.277302521942204 19.20336000000097 16.319964448395 18.996000000000002 C 16.3626263748474 18.78864000000097 16.3839573380736 18.3456 16.426619264526 18.3456 C 16.4692811909788 18.3456 16.490612154205202 18.42 16.533274080658 18.42 C 16.5759360071104 18.42 16.5972669703366 18.3396 16.639928896789 18.3396 C 16.682590823241803 18.3396 16.703921786468204 18.3948 16.746583712921 18.3948 C 16.789245639373398 18.3948 16.8105766025996 18.376559999999955 16.853238529052 18.3672 C 16.8959004555048 18.357839999999957 16.9172314187312 18.36048 16.959893345184 18.348 C 17.0025552716368 18.33552 17.0238862348632 18.33288000000013 17.066548161316 18.3048 C 17.1092100877684 18.276720000000132 17.1305410509946 18.3048 17.173202977447 18.2076 C 17.215864903899803 18.1104 17.2371958671262 17.788800000000002 17.279857793579 17.7708 C 17.3225197200314 17.7528 17.343850683257603 17.755200000000002 17.38651260971 17.7528 C 17.429174536162797 17.7504 17.450505499389198 17.7504 17.493167425842 17.7504 C 17.5358293522944 17.7504 17.557160315520598 17.7852 17.599822241973 17.7852 C 17.642484168425803 17.7852 17.6638151316522 17.697120000000144 17.706477058105 17.6664 C 17.7491389845574 17.635680000000143 17.770469947783603 17.6316 17.813131874236 17.6316 C 17.855793800688797 17.6316 17.877124763915198 17.6316 17.919786690368 17.6436 C 17.9624486168204 17.6556 17.9837795800466 17.6436 18.026441506499 17.755200000000002 C 18.0691034329518 17.866800000000005 18.0904343961782 18.397199999999998 18.133096322631 18.397199999999998 C 18.1757582490838 18.397199999999998 18.197089212310203 18.2316 18.239751138763 18.2316 C 18.2824130652154 18.2316 18.3037440284416 18.2316 18.346405954894 18.2808 C 18.3890678813468 18.33 18.4103988445732 18.5712 18.453060771026 18.5712 C 18.4957226974784 18.5712 18.5170536607046 17.9928 18.559715587157 17.9928 C 18.602377513609802 17.9928 18.623708476836203 18.06 18.666370403289 18.06 C 18.709032329741397 18.06 18.7303632929676 18.01103999999992 18.77302521942 17.994 C 18.8156871458728 17.976959999999917 18.837018109099198 17.976000000000003 18.879680035552 17.974800000000002 C 18.922341962004403 17.9736 18.9436729252306 17.974800000000002 18.986334851683 17.9736 C 19.028996778135802 17.9724 19.050327741362203 17.95416000000015 19.092989667815 17.922 C 19.135651594267397 17.889840000000152 19.1569825574936 17.8128 19.199644483946 17.8128 C 19.2423064103988 17.8128 19.263637373625198 17.891039999999638 19.306299300078 17.9688 C 19.3489612265304 18.046559999999637 19.3702921897566 18.2016 19.412954116209 18.2016 C 19.455616042661802 18.2016 19.4769470058882 18.0696 19.519608932341 18.0696 C 19.562270858793802 18.0696 19.5836018220202 18.088319999999904 19.626263748473 18.1092 C 19.6689256749254 18.130079999999904 19.690256638151602 18.174 19.732918564604 18.174 C 19.775580491056797 18.174 19.796911454283197 18.13680000000018 19.839573380736 18.098399999999998 C 19.8822353071884 18.06000000000018 19.9035662704146 17.989199999999997 19.946228196867 17.982 C 19.9888901233198 17.974800000000002 20.0102210865462 17.982 20.052883012999 17.974800000000002 C 20.0955449394514 17.967600000000004 20.1168759026776 17.616 20.15953782913 17.616 C 20.202199755582797 17.616 20.2235307188092 17.6628 20.266192645262 17.6628 C 20.3088545717144 17.6628 20.3301855349406 17.4804 20.372847461393 17.4804 C 20.4155093878458 17.4804 20.4368403510722 17.514 20.479502277525 17.514 C 20.5221642039774 17.514 20.5434951672036 17.335919999999543 20.586157093656 17.2392 C 20.6288190201088 17.142479999999544 20.6501499833352 17.12448000000044 20.692811909788 17.0304 C 20.7354738362404 16.93632000000044 20.7568047994666 16.949279999999156 20.799466725919 16.7688 C 20.842128652371798 16.588319999999158 20.863459615598202 16.405919999999988 20.906121542051 16.128 C 20.9487834685038 15.85007999999999 20.970114431730202 15.714000000001576 21.012776358183 15.3792 C 21.055438284635397 15.044400000001575 21.0767692478616 14.88791999999796 21.119431174314 14.454 C 21.1620931007668 14.020079999997959 21.183424063993197 13.2096 21.226085990446 13.2096 C 21.2687479168984 13.2096 21.2900788801246 13.2456 21.332740806577 13.2456 C 21.3754027330298 13.2456 21.3967336962562 12.9024 21.439395622709 12.9024 C 21.4820575491614 12.9024 21.5033885123876 12.9024 21.54605043884 13.0032 C 21.5887123652928 13.104 21.610043328519197 13.626 21.652705254972 13.626 C 21.6953671814244 13.626 21.7166981446506 13.56767999999796 21.759360071103 13.134 C 21.8020219975558 12.70031999999796 21.8233529607822 11.4576 21.866014887235 11.4576 C 21.9086768136874 11.4576 21.9300077769136 11.533200000000134 21.972669703366 11.562 C 22.015331629818803 11.590800000000135 22.0366625930452 11.6016 22.079324519498 11.6016 C 22.121986445950803 11.6016 22.1433174091772 11.4624 22.18597933563 11.4624 C 22.228641262082398 11.4624 22.2499722253086 12.0588 22.292634151761 12.0588 C 22.335296078213798 12.0588 22.3566270414402 11.4492 22.399288967893 11.4492 C 22.4419508943454 11.4492 22.4632818575716 11.5428 22.505943784024 11.5428 C 22.5486057104768 11.5428 22.5699366737032 11.5056 22.612598600156 11.5056 C 22.6552605266084 11.5056 22.6765914898346 11.6916 22.719253416287 11.6916 C 22.761915342739798 11.6916 22.783246305966202 10.7988 22.825908232419 10.7988 C 22.8685701588714 10.7988 22.889901122097598 11.8632 22.93256304855 11.8632 C 22.9752249750028 11.8632 22.9965559382292 11.759520000000979 23.039217864682 11.5512 C 23.0818797911344 11.34288000000098 23.1032107543606 10.8216 23.145872680813 10.8216 C 23.1885346072658 10.8216 23.2098655704922 10.9728 23.252527496945 10.9728 C 23.295189423397403 10.9728 23.3165203866236 10.8876 23.359182313076 10.8876 C 23.4018442395288 10.8876 23.423175202755203 10.8876 23.465837129208 10.9404 C 23.508499055660803 10.9932 23.529830018887203 11.282399999999361 23.57249194534 11.418 C 23.615153871792398 11.55359999999936 23.6364848350186 11.6184 23.679146761471 11.6184 C 23.7218086879238 11.6184 23.743139651150198 10.9632 23.785801577603 10.9632 C 23.8284635040554 10.9632 23.8497944672816 10.9632 23.892456393734 11.268 C 23.935118320186803 11.5728 23.9564492834132 12.365999999999998 23.999111209866 12.6612 C 24.0417731363184 12.9564 24.0631040995446 12.9564 24.105766025997 12.9564 C 24.1484279524498 12.9564 24.169758915676198 12.6504 24.212420842129 12.6504 C 24.2550827685814 12.6504 24.2764137318076 12.785760000000238 24.31907565826 12.8364 C 24.361737584712802 12.887040000000237 24.3830685479392 12.9036 24.425730474392 12.9036 C 24.4683924008444 12.9036 24.489723364070603 12.863039999997492 24.532385290523 12.33 C 24.575047216975797 11.796959999997492 24.596378180202198 10.2384 24.639040106655 10.2384 C 24.6817020331074 10.2384 24.703032996333597 10.9956 24.745694922786 10.9956 C 24.788356849238802 10.9956 24.8096878124652 9.994800000000001 24.852349738918 9.9648 C 24.8950116653708 9.9348 24.9163426285972 9.9348 24.95900455505 9.9348 C 25.0016664815024 9.9348 25.0229974447286 10.2348 25.065659371181 10.2348 C 25.1083212976338 10.2348 25.1296522608602 9.7068 25.172314187313 9.7068 C 25.214976113765402 9.7068 25.2363070769916 10.05888000000073 25.278969003444 10.2156 C 25.3216309298968 10.37232000000073 25.342961893123203 10.411199999999631 25.385623819576 10.4904 C 25.4282857460284 10.56959999999963 25.4496167092546 10.4904 25.492278635707 10.6116 C 25.5349405621598 10.7328 25.5562715253862 11.267999999999999 25.598933451839 11.3652 C 25.641595378291402 11.4624 25.6629263415176 11.4624 25.70558826797 11.4624 C 25.748250194422802 11.4624 25.769581157649203 10.9284 25.812243084102 10.9284 C 25.854905010554397 10.9284 25.876235973780602 10.9284 25.918897900233 11.0184 C 25.9615598266858 11.1084 25.982890789912197 11.4192 26.025552716365 11.4192 C 26.0682146428178 11.4192 26.089545606044197 10.7448 26.132207532497 10.7448 C 26.1748694589494 10.7448 26.1962004221756 10.7448 26.238862348628 10.9608 C 26.281524275080802 11.176800000000002 26.3028552383072 12.121199999999998 26.34551716476 12.1512 C 26.3881790912124 12.1812 26.409510054438602 12.1812 26.452171980891 12.1812 C 26.494833907343796 12.1812 26.516164870570197 12.1392 26.558826797023 12.1392 C 26.6014887234754 12.1392 26.622819686701597 12.1392 26.665481613154 12.1428 C 26.7081435396068 12.146399999999998 26.7294745028332 12.175439999999362 26.772136429286 12.3108 C 26.8147983557384 12.446159999999363 26.836129318964595 12.431040000001795 26.878791245417 12.8196 C 26.921453171869796 13.208160000001794 26.9427841350962 14.054400000000001 26.985446061549 14.2536 C 27.0281079880014 14.4528 27.049438951227604 14.4528 27.09210087768 14.4528 C 27.134762804132798 14.4528 27.1560937673592 14.418000000001975 27.198755693812 13.998 C 27.2414176202644 13.578000000001976 27.2627485834906 13.068719999996661 27.305410509943 12.3528 C 27.348072436395796 11.636879999996662 27.3694033996222 10.909439999999979 27.412065326075 10.4184 C 27.4547272525278 9.927359999999979 27.4760582157542 9.8976 27.518720142207 9.8976 C 27.561382068659395 9.8976 27.5827130318856 10.4544 27.625374958338 10.4544 C 27.668036884790798 10.4544 27.689367848017202 10.416000000002645 27.73202977447 9.8436 C 27.774691700922403 9.271200000002645 27.796022664148598 7.592400000000001 27.838684590601 7.592400000000001 C 27.8813465170538 7.592400000000001 27.902677480280204 8.0928 27.945339406733 8.0928 C 27.9880013331854 8.0928 28.0093322964116 7.249199999999998 28.051994222864 7.249199999999998 C 28.0946561493168 7.249199999999998 28.115987112543202 7.698 28.158649038996 7.698 C 28.201310965448396 7.698 28.2226419286746 7.0512000000000015 28.265303855127 7.0512000000000015 C 28.3079657815798 7.0512000000000015 28.329296744806204 8.0088 28.371958671259 8.0088 C 28.414620597711405 8.0088 28.4359515609376 6.8603999999999985 28.47861348739 6.8603999999999985 C 28.5212754138428 6.8603999999999985 28.5426063770692 7.531199999999998 28.585268303522 7.576799999999999 C 28.6279302299748 7.622399999999999 28.6492611932012 7.622399999999999 28.691923119654 7.622399999999999 C 28.7345850461064 7.622399999999999 28.7559160093326 7.1004000000000005 28.798577935785 7.1004000000000005 C 28.841239862237803 7.1004000000000005 28.8625708254642 8.004 28.905232751917 8.004 C 28.9478946783694 8.004 28.969225641595603 7.833119999998799 29.011887568048 7.577999999999999 C 29.054549494500797 7.322879999998799 29.075880457727198 6.728400000000001 29.11854238418 6.728400000000001 C 29.1612043106324 6.728400000000001 29.182535273858598 6.945599999999999 29.225197200311 6.945599999999999 C 29.267859126763803 6.945599999999999 29.2891900899902 6.486000000000001 29.331852016443 6.486000000000001 C 29.374513942895398 6.486000000000001 29.395844906121603 6.486000000000001 29.438506832574 6.498000000000001 C 29.481168759026797 6.510000000000002 29.502499722253198 6.74111999999953 29.545161648706 6.841200000000001 C 29.5878235751584 6.941279999999529 29.609154538384598 6.9984 29.651816464837 6.9984 C 29.6944783912898 6.9984 29.7158093545162 6.569280000000766 29.758471280969 6.4068000000000005 C 29.8011332074214 6.244320000000765 29.8224641706476 6.186 29.8651260971 6.186 C 29.907788023552797 6.186 29.9291189867792 6.398160000000004 29.971780913232 6.4848 C 30.0144428396848 6.5714400000000035 30.0357738029112 6.578879999999813 30.078435729364 6.619199999999999 C 30.121097655816403 6.659519999999813 30.1424286190426 6.686399999999999 30.185090545495 6.686399999999999 C 30.227752471947802 6.686399999999999 30.249083435174203 6.666720000001396 30.291745361627 6.369599999999998 C 30.334407288079397 6.072480000001397 30.355738251305603 5.460000000000001 30.398400177758 5.200800000000001 C 30.4410621042108 4.941600000000001 30.462393067437198 4.941600000000001 30.50505499389 4.941600000000001 C 30.547716920342403 4.941600000000001 30.5690478835686 4.998000000000001 30.611709810021 4.998000000000001 C 30.654371736473802 4.998000000000001 30.675702699700203 4.420320000001348 30.718364626153 4.134 C 30.761026552605397 3.847680000001348 30.7823575158316 3.5664000000000016 30.825019442284 3.5664000000000016 C 30.8676813687368 3.5664000000000016 30.889012331963198 3.734400000000001 30.931674258416 3.734400000000001 C 30.9743361848684 3.734400000000001 30.9956671480946 3.5627999999999993 31.038329074547 3.5627999999999993 C 31.080991000999802 3.5627999999999993 31.1023219642262 4.401599999999998 31.144983890679 4.401599999999998 C 31.187645817131397 4.401599999999998 31.208976780357602 3.5976 31.25163870681 3.5976 C 31.2943006332628 3.5976 31.315631596489197 5.319600000000001 31.358293522942 5.640000000000001 C 31.400955449394797 5.9604 31.4222864126212 5.656799999998584 31.464948339074 5.9604 C 31.5076102655264 6.263999999998584 31.528941228752604 7.158000000000001 31.571603155205 7.158000000000001 C 31.6142650816578 7.158000000000001 31.6355960448842 6.6396000000000015 31.678257971337 6.6396000000000015 C 31.7209198977894 6.6396000000000015 31.7422508610156 6.784320000000366 31.784912787468 6.8628 C 31.827574713920797 6.941280000000366 31.8489056771472 7.032 31.8915676036 7.032 C 31.934229530052402 7.032 31.998222419731 6.364799999999999 31.998222419731 6.364799999999999" stroke-linecap="round" />
</g>
		<g transform="matrix(1 0 0 1 0 -3.64)" style=""  >
		<text xml:space="preserve" font-family="'Lucida Grande', 'Lucida Sans Unicode', Arial, Helvetica, sans-serif" font-size="18" font-style="normal" font-weight="normal" style="stroke: none; stroke-width: 1; stroke-dasharray: none; stroke-linecap: butt; stroke-dashoffset: 0; stroke-linejoin: miter; stroke-miterlimit: 4; fill: rgb(51,51,51); fill-rule: nonzero; opacity: 1; white-space: pre;" ></text>
</g>
		<g transform="matrix(1 0 0 1 0 -1.76)" style=""  >
		<text xml:space="preserve" font-family="'Lucida Grande', 'Lucida Sans Unicode', Arial, Helvetica, sans-serif" font-size="12" font-style="normal" font-weight="normal" style="stroke: none; stroke-width: 1; stroke-dasharray: none; stroke-linecap: butt; stroke-dashoffset: 0; stroke-linejoin: miter; stroke-miterlimit: 4; fill: rgb(102,102,102); fill-rule: nonzero; opacity: 1; white-space: pre;" ></text>
</g>
		<g transform="matrix(1 0 0 1 -15 20.24)" style=""  >
		<text xml:space="preserve" font-family="'Lucida Grande', 'Lucida Sans Unicode', Arial, Helvetica, sans-serif" font-size="12" font-style="normal" font-weight="normal" style="stroke: none; stroke-width: 1; stroke-dasharray: none; stroke-linecap: butt; stroke-dashoffset: 0; stroke-linejoin: miter; stroke-miterlimit: 4; fill: rgb(102,102,102); fill-rule: nonzero; opacity: 1; white-space: pre;" ></text>
</g>
</g>
</g>
</svg>