<?xml version="1.0" encoding="UTF-8" standalone="no" ?>
<!DOCTYPE svg PUBLIC "-//W3C//DTD SVG 1.1//EN" "http://www.w3.org/Graphics/SVG/1.1/DTD/svg11.dtd">
<svg xmlns="http://www.w3.org/2000/svg" xmlns:xlink="http://www.w3.org/1999/xlink" version="1.1" width="1080" height="1080" viewBox="0 0 1080 1080" xml:space="preserve">
<desc>Created with Fabric.js 5.2.4</desc>
<defs>
</defs>
<g transform="matrix(1 0 0 1 540 540)" id="a8f682a0-55b0-4fd9-9aae-b4fe52da66cc"  >
<rect style="stroke: none; stroke-width: 1; stroke-dasharray: none; stroke-linecap: butt; stroke-dashoffset: 0; stroke-linejoin: miter; stroke-miterlimit: 4; fill: rgb(255,255,255); fill-rule: nonzero; opacity: 1; visibility: hidden;" vector-effect="non-scaling-stroke"  x="-540" y="-540" rx="0" ry="0" width="1080" height="1080" />
</g>
<g transform="matrix(1 0 0 1 540 540)" id="e82cfe80-f887-4738-a22e-c04902e91979"  >
</g>
<g transform="matrix(33.75 0 0 33.75 540 540)"  >
<g style=""   >
		<g transform="matrix(1 0 0 1 0 0)"  >
<rect style="stroke: none; stroke-width: 1; stroke-dasharray: none; stroke-linecap: butt; stroke-dashoffset: 0; stroke-linejoin: miter; stroke-miterlimit: 4; fill: none; fill-rule: nonzero; opacity: 1;" vector-effect="non-scaling-stroke"  x="-16" y="-12" rx="0" ry="0" width="32" height="24" />
</g>
		<g transform="matrix(1 0 0 1 0 0)"  >
<rect style="stroke: none; stroke-width: 1; stroke-dasharray: none; stroke-linecap: butt; stroke-dashoffset: 0; stroke-linejoin: miter; stroke-miterlimit: 4; fill: none; fill-rule: nonzero; opacity: 1;" vector-effect="non-scaling-stroke"  x="-16" y="-12" rx="0" ry="0" width="32" height="24" />
</g>
		<g transform="matrix(1 0 0 1 0 0)"  >
<rect style="stroke: none; stroke-width: 1; stroke-dasharray: none; stroke-linecap: butt; stroke-dashoffset: 0; stroke-linejoin: miter; stroke-miterlimit: 4; fill: none; fill-rule: nonzero; opacity: 1;" vector-effect="non-scaling-stroke"  x="-16" y="-12" rx="0" ry="0" width="32" height="24" />
</g>
		<g transform="matrix(1 0 0 1 0 0)" clip-path="url(#CLIPPATH_3)"  >
<clipPath id="CLIPPATH_3" >
	<rect transform="matrix(1 0 0 1 0 0)" id="highcharts-b73mifp-7681-" x="-16" y="-12" rx="0" ry="0" width="32" height="24" />
</clipPath>
<path style="stroke: rgb(24,220,166); stroke-width: 2; stroke-dasharray: none; stroke-linecap: round; stroke-dashoffset: 0; stroke-linejoin: round; stroke-miterlimit: 4; fill: none; fill-rule: nonzero; opacity: 1;" vector-effect="non-scaling-stroke"  transform=" translate(-16, -12)" d="M 0.00097674134668213 18 C 0.00097674134668213 18 0.03613942982723885 18 0.05958122214761 18 C 0.08302301446798199 18 0.09474391062816799 18.075 0.11818570294854 18.075 C 0.141627495268908 18.075 0.153348391429092 17.63219999999998 0.17679018374946 17.394 C 0.20023197606983204 17.155799999999978 0.211952872230018 16.884 0.23539466455039 16.884 C 0.258836456870762 16.884 0.270557353030948 17.265900000000002 0.29399914535132 17.4645 C 0.31744093767169196 17.6631 0.32916183383187797 17.877 0.35260362615225 17.877 C 0.37604541847262196 17.877 0.38776631463280803 17.828100000000003 0.41120810695318 17.781 C 0.434649899273548 17.733900000000006 0.446370795433732 17.689199999999996 0.4698125877541 17.6415 C 0.49325438007447203 17.593799999999995 0.504975276234658 17.5425 0.52841706855503 17.5425 C 0.551858860875402 17.5425 0.563579757035588 18.1065 0.58702154935596 18.1065 C 0.6104633416763321 18.1065 0.622184237836518 18.021 0.64562603015689 18.0075 C 0.669067822477258 17.994 0.680788718637442 18.0075 0.70423051095781 17.994 C 0.727672303278182 17.9805 0.739393199438368 17.8815 0.76283499175874 17.8815 C 0.7862767840791121 17.8815 0.7979976802392981 17.9004 0.82143947255967 18.012 C 0.844881264880042 18.1236 0.8566021610402281 18.1734 0.8800439533606 18.4395 C 0.9034857456809722 18.7056 0.9152066418411581 19.3425 0.93864843416153 19.3425 C 0.962090226481898 19.3425 0.973811122642082 19.3425 0.99725291496245 19.239 C 1.0206947072828298 19.1355 1.0324156034430199 18.822000000000003 1.0558573957634 18.799500000000002 C 1.0792991880837601 18.777 1.0910200842439401 18.799500000000002 1.1144618765643 18.777 C 1.1379036688847 18.7545 1.1496245650449 18.6315 1.1730663573653 18.6315 C 1.19650814968566 18.6315 1.20822904584584 18.772499999999997 1.2316708381662 18.834 C 1.25511263048656 18.8955 1.2668335266467399 18.939 1.2902753189671 18.939 C 1.31371711128746 18.939 1.3254380074476402 18.778799999999773 1.348879799768 18.5175 C 1.3723215920884002 18.256199999999772 1.3840424882486 17.6325 1.407484280569 17.6325 C 1.43092607288936 17.6325 1.4426469690495403 17.703 1.4660887613699 17.703 C 1.48953055369026 17.703 1.50125144985044 16.6995 1.5246932421708 16.6995 C 1.5481350344912 16.6995 1.5598559306514 16.87049999999987 1.5832977229718 17.0235 C 1.6067395152921597 17.17649999999987 1.61846041145234 17.4645 1.6419022037727 17.4645 C 1.66534399609306 17.4645 1.6770648922532403 17.3235 1.7005066845736 17.19 C 1.7239484768939601 17.0565 1.7356693730541402 16.797 1.7591111653745 16.797 C 1.7825529576949002 16.797 1.7942738538550997 17.163 1.8177156461755 17.163 C 1.8411574384958598 17.163 1.8528783346560402 17.0445 1.8763201269764 17.0445 C 1.89976191929676 17.0445 1.9114828154569399 17.5185 1.9349246077773 17.5185 C 1.9583664000976597 17.5185 1.9700872962578402 16.6035 1.9935290885782 16.6035 C 2.0169708808986 16.6035 2.0286917770588 16.629299999999954 2.0521335693792 16.683 C 2.0755753616995603 16.736699999999956 2.08729625785974 16.872 2.1107380501801 16.872 C 2.13417984250046 16.872 2.1459007386606404 16.85549999999992 2.169342530981 16.7655 C 2.1927843233014004 16.67549999999992 2.2045052194616 16.422 2.227947011782 16.422 C 2.25138880410236 16.422 2.2631097002625404 16.506 2.2865514925829 16.506 C 2.3099932849032596 16.506 2.32171418106344 16.4421 2.3451559733838 16.3455 C 2.36859776570416 16.248900000000003 2.38031866186434 16.092 2.4037604541847 16.023 C 2.4272022465051 15.954 2.4389231426653 15.954 2.4623649349857 15.954 C 2.48580672730606 15.954 2.49752762346624 15.954 2.5209694157866 15.954 C 2.54441120810696 15.954 2.55613210426714 15.954 2.5795738965875 15.954 C 2.6030156889079 15.954 2.6147365850681 15.780000000000001 2.6381783773885 15.759 C 2.66162016970886 15.738 2.6733410658690397 15.7395 2.6967828581894 15.738 C 2.72022465050976 15.7365 2.73194554666994 15.7365 2.7553873389903 15.7365 C 2.77882913131066 15.7365 2.7905500274708404 15.7365 2.8139918197912 15.7365 C 2.8374336121116004 15.7365 2.8491545082718 15.738 2.8725963005922 15.738 C 2.89603809291256 15.738 2.9077589890727404 15.738 2.9312007813931 15.738 C 2.9546425737134596 15.738 2.96636346987364 15.7365 2.989805262194 15.7365 C 3.0132470545144 15.7365 3.0249679506745997 15.738 3.048409742995 15.738 C 3.0718515353153597 15.738 3.08357243147554 15.738 3.1070142237959 15.738 C 3.13045601611626 15.738 3.1421769122764402 15.738 3.1656187045968 15.738 C 3.1890604969171603 15.738 3.2007813930773397 15.7365 3.2242231853977 15.7365 C 3.2476649777180997 15.7365 3.2593858738783 15.7365 3.2828276661987 15.7365 C 3.30626945851906 15.7365 3.31799035467924 15.7365 3.3414321469996 15.7365 C 3.36487393931996 15.7365 3.37659483548014 15.738 3.4000366278005 15.738 C 3.4234784201208597 15.738 3.4351993162810404 15.738 3.4586411086014 15.738 C 3.4820829009218004 15.738 3.4938037970820006 15.738 3.5172455894024 15.738 C 3.5406873817227607 15.738 3.5524082778829404 15.738 3.5758500702033 15.738 C 3.5992918625236596 15.738 3.6110127586838403 15.735899999999999 3.6344545510042 15.735 C 3.6578963433246003 15.734099999999998 3.6696172394847997 15.7335 3.6930590318052 15.7335 C 3.7165008241255597 15.7335 3.7282217202857395 15.735 3.7516635126061 15.735 C 3.77510530492646 15.735 3.7868262010866403 15.735 3.810267993407 15.735 C 3.8337097857273603 15.735 3.8454306818875397 15.722699999999998 3.8688724742079 15.7185 C 3.8923142665282997 15.714299999999996 3.9040351626885 15.714 3.9274769550089 15.714 C 3.95091874732926 15.714 3.96263964348944 15.714 3.9860814358098 15.714 C 4.00952322813016 15.714 4.021244124290339 15.714 4.0446859166107 15.714 C 4.068127708931099 15.714 4.0798486050913 15.714 4.1032903974117 15.714 C 4.12673218973206 15.714 4.13845308589224 15.714 4.1618948782126 15.714 C 4.18533667053296 15.714 4.19705756669314 15.714 4.2204993590135 15.714 C 4.24394115133386 15.714 4.25566204749404 15.714 4.2791038398144 15.714 C 4.3025456321348 15.714 4.314266528295001 15.714 4.3377083206154 15.714 C 4.361150112935761 15.714 4.37287100909594 15.714 4.3963128014163 15.714 C 4.41975459373666 15.714 4.43147548989684 15.714 4.4549172822172 15.714 C 4.47835907453756 15.714 4.49007997069774 15.714 4.5135217630181 15.714 C 4.5369635553385 15.714 4.5486844514986995 15.714 4.5721262438191 15.714 C 4.5955680361394595 15.714 4.607288932299641 15.714 4.63073072462 15.714 C 4.65417251694036 15.714 4.665893413100539 15.714 4.6893352054209 15.714 C 4.712776997741299 15.714 4.7244978939015 15.714 4.7479396862219 15.714 C 4.77138147854226 15.714 4.78310237470244 15.714 4.8065441670228 15.714 C 4.82998595934316 15.714 4.84170685550334 15.714 4.8651486478237 15.714 C 4.88859044014406 15.714 4.90031133630424 15.714 4.9237531286246 15.714 C 4.947194920945 15.714 4.958915817105201 15.714 4.9823576094256 15.714 C 5.005799401745961 15.714 5.01752029790614 15.714 5.0409620902265 15.714 C 5.06440388254686 15.714 5.07612477870704 15.714 5.0995665710274 15.714 C 5.1230083633478 15.714 5.134729259507999 15.714 5.1581710518284 15.714 C 5.181612844148759 15.714 5.1933337403089395 15.714 5.2167755326293 15.714 C 5.2402173249496595 15.714 5.251938221109841 15.714 5.2753800134302 15.714 C 5.29882180575056 15.714 5.310542701910739 15.714 5.3339844942311 15.714 C 5.357426286551499 15.714 5.3691471827117 15.714 5.3925889750321 15.714 C 5.41603076735246 15.714 5.42775166351264 15.714 5.451193455833 15.714 C 5.47463524815336 15.714 5.48635614431354 15.714 5.5097979366339 15.714 C 5.5332397289543 15.714 5.5449606251145 15.714 5.5684024174349 15.714 C 5.59184420975526 15.714 5.6035651059154405 15.714 5.6270068982358 15.714 C 5.650448690556161 15.714 5.66216958671634 15.714 5.6856113790367 15.714 C 5.70905317135706 15.714 5.72077406751724 15.714 5.7442158598376 15.714 C 5.767657652158 15.714 5.779378548318199 15.714 5.8028203406386 15.714 C 5.826262132958959 15.714 5.8379830291191395 15.714 5.8614248214395 15.714 C 5.8848666137598595 15.714 5.896587509920041 15.714 5.9200293022404 15.714 C 5.94347109456076 15.714 5.955191990720939 15.714 5.9786337830413 15.714 C 6.002075575361699 15.714 6.0137964715219 15.714 6.0372382638423 15.714 C 6.06068005616266 15.714 6.07240095232284 15.714 6.0958427446432 15.714 C 6.11928453696356 15.714 6.13100543312374 15.714 6.1544472254441 15.714 C 6.1778890177645 15.714 6.1896099139247 15.714 6.2130517062451 15.714 C 6.23649349856546 15.714 6.2482143947256406 15.714 6.271656187046 15.714 C 6.295097979366361 15.714 6.30681887552654 15.7599 6.3302606678469 15.7995 C 6.35370246016726 15.8391 6.36542335632744 15.912 6.3888651486478 15.912 C 6.4123069409682 15.912 6.424027837128399 15.6585 6.4474696294488 15.6585 C 6.470911421769159 15.6585 6.4826323179293395 15.813 6.5060741102497 15.813 C 6.5295159025700595 15.813 6.541236798730241 15.771 6.5646785910506 15.771 C 6.588120383371001 15.771 6.5998412795312005 15.862799999999973 6.6232830718516 15.8955 C 6.6467248641719605 15.928199999999974 6.65844576033214 15.8955 6.6818875526525 15.9345 C 6.70532934497286 15.9735 6.71705024113304 16.203 6.7404920334534 16.203 C 6.763933825773759 16.203 6.77565472193394 16.203 6.7990965142543 15.9525 C 6.8225383065747 15.702000000000002 6.8342592027349 14.826 6.8577009950553 14.67 C 6.88114278737566 14.514 6.892863683535841 14.569799999999999 6.9163054758562 14.514 C 6.939747268176561 14.458199999999998 6.95146816433674 14.514 6.9749099566571 14.391 C 6.99835174897746 14.268 7.01007264513764 13.829699999999741 7.033514437458 13.5345 C 7.0569562297784 13.239299999999742 7.068677125938599 12.915 7.092118918259 12.915 C 7.115560710579359 12.915 7.1272816067395395 13.56 7.1507233990599 13.56 C 7.1741651913802595 13.56 7.185886087540441 13.34549999999974 7.2093278798608 13.047 C 7.232769672181201 12.74849999999974 7.2444905683414005 12.0675 7.2679323606618 12.0675 C 7.2913741529821605 12.0675 7.30309504914234 12.82559999999999 7.3265368414627 13.329 C 7.34997863378306 13.832399999999991 7.36169952994324 14.5845 7.3851413222636 14.5845 C 7.408583114583959 14.5845 7.42030401074414 14.5845 7.4437458030645 14.4075 C 7.4671875953849 14.230500000000001 7.4789084915451 13.891500000000358 7.5023502838655 13.464 C 7.52579207618586 13.036500000000355 7.537512972346041 12.27 7.5609547646664 12.27 C 7.584396556986761 12.27 7.59611745314694 12.483 7.6195592454673 12.483 C 7.6430010377877 12.483 7.6547219339479 12.034499999999998 7.6781637262683 11.9325 C 7.70160551858866 11.8305 7.71332641474884 11.8305 7.7367682070692 11.8305 C 7.760209999389559 11.8305 7.7719308955497395 11.8305 7.7953726878701 12.132 C 7.8188144801904595 12.433499999999999 7.830535376350641 13.722 7.853977168671 13.722 C 7.877418960991401 13.722 7.8891398571516005 12.777600000000264 7.912581649472 12.462 C 7.9360234417923605 12.146400000000263 7.94774433795254 12.144 7.9711861302729 12.144 C 7.99462792259326 12.144 8.006348818753441 12.1815 8.0297906110738 12.1815 C 8.0532324033942 12.1815 8.0649532995544 11.5755 8.0883950918748 11.5755 C 8.11183688419516 11.5755 8.12355778035534 12.6195 8.1469995726757 12.6195 C 8.17044136499606 12.6195 8.18216226115624 12.414 8.2056040534766 12.414 C 8.22904584579696 12.414 8.24076674195714 13.302 8.2642085342775 13.302 C 8.287650326597902 13.302 8.2993712227581 13.2075 8.3228130150785 13.2075 C 8.34625480739886 13.2075 8.35797570355904 13.535400000000001 8.3814174958794 13.665 C 8.404859288199761 13.794599999999999 8.41658018435994 13.8555 8.4400219766803 13.8555 C 8.46346376900066 13.8555 8.475184665160839 13.6085999999999 8.4986264574812 13.488 C 8.522068249801599 13.367399999999899 8.5337891459618 13.2525 8.5572309382822 13.2525 C 8.58067273060256 13.2525 8.592393626762739 13.9965 8.6158354190831 13.9965 C 8.63927721140346 13.9965 8.650998107563641 13.9605 8.674439899884 13.9605 C 8.6978816922044 13.9605 8.7096025883646 14.168999999999917 8.733044380685 14.271 C 8.75648617300536 14.372999999999916 8.76820706916554 14.4165 8.7916488614859 14.4705 C 8.81509065380626 14.5245 8.82681154996644 14.4705 8.8502533422868 14.541 C 8.87369513460716 14.611500000000001 8.88541603076734 15.267 8.9088578230877 15.4245 C 8.932299615408102 15.582 8.9440205115683 15.539999999999965 8.9674623038887 15.582 C 8.99090409620906 15.623999999999965 9.00262499236924 15.6345 9.0260667846896 15.6345 C 9.049508577009961 15.6345 9.06122947317014 15.6345 9.0846712654905 15.5835 C 9.1081130578109 15.532500000000002 9.119833953971101 15.15 9.1432757462915 15.15 C 9.16671753861186 15.15 9.178438434772039 15.3525 9.2018802270924 15.3525 C 9.22532201941276 15.3525 9.237042915572939 15.243 9.2604847078933 15.243 C 9.28392650021366 15.243 9.295647396373841 15.477 9.3190891886942 15.477 C 9.3425309810146 15.477 9.3542518771748 15.453000000000031 9.3776936694952 15.4155 C 9.40113546181556 15.378000000000032 9.41285635797574 15.4155 9.4362981502961 15.2895 C 9.45973994261646 15.1635 9.47146083877664 14.76 9.494902631097 14.76 C 9.51834442341736 14.76 9.53006531957754 14.793 9.5535071118979 14.793 C 9.576948904218302 14.793 9.5886698003785 14.6295 9.6121115926989 14.583 C 9.63555338501926 14.5365 9.64727428117944 14.5365 9.6707160734998 14.5365 C 9.694157865820161 14.5365 9.70587876198034 14.594700000000056 9.7293205543007 14.661 C 9.7527623466211 14.727300000000055 9.764483242781301 14.868 9.7879250351017 14.868 C 9.81136682742206 14.868 9.823087723582239 14.8314 9.8465295159026 14.805 C 9.86997130822296 14.7786 9.881692204383139 14.801400000000001 9.9051339967035 14.736 C 9.92857578902386 14.6706 9.940296685184041 14.478 9.9637384775044 14.478 C 9.987180269825041 14.478 9.99890116598536 14.538899999999728 10.022342958306 14.592 C 10.0457847506264 14.64509999999973 10.0575056467866 14.660699999999999 10.080947439107 14.7435 C 10.1043892314274 14.8263 10.1161101275876 15.006 10.139551919908 15.006 C 10.162993712227998 15.006 10.174714608387998 14.969399999999574 10.198156400708 14.919 C 10.221598193028399 14.868599999999573 10.233319089188601 14.812799999999998 10.256760881509 14.754 C 10.2802026738294 14.6952 10.291923569989601 14.6832 10.31536536231 14.625 C 10.3388071546304 14.5668 10.3505280507906 14.548499999999999 10.373969843111 14.463 C 10.3974116354314 14.377499999999998 10.4091325315916 14.2692 10.432574323912 14.1975 C 10.4560161162324 14.1258 10.4677370123926 14.1045 10.491178804713 14.1045 C 10.5146205970334 14.1045 10.5263414931936 14.1045 10.549783285514 14.121 C 10.5732250778344 14.137500000000001 10.5849459739946 14.61 10.608387766315 14.61 C 10.631829558635399 14.61 10.643550454795598 14.229000000000001 10.666992247116 14.2125 C 10.6904340394364 14.196 10.7021549355966 14.196 10.725596727917 14.196 C 10.7490385202374 14.196 10.760759416397601 14.4621 10.784201208718 14.625 C 10.8076430010384 14.7879 10.819363897198603 14.879400000000004 10.842805689519 15.0105 C 10.8662474818394 15.141600000000006 10.8779683779996 15.1767 10.90141017032 15.2805 C 10.9248519626404 15.3843 10.936572858800599 15.510000000000002 10.960014651121 15.5295 C 10.983456443441 15.549 10.995177339601 15.549 11.018619131921 15.549 C 11.042060924241401 15.549 11.0537818204016 15.375 11.077223612722 15.375 C 11.100665405042399 15.375 11.1123863012026 15.7965 11.135828093523 15.7965 C 11.159269885843399 15.7965 11.170990782003601 15.318 11.194432574324 15.318 C 11.2178743666444 15.318 11.229595262804601 15.4785 11.253037055125 15.4785 C 11.2764788474454 15.4785 11.288199743605599 15.4785 11.311641535926 15.36 C 11.335083328246402 15.241499999999998 11.3468042244066 15.2367 11.370246016727 14.7375 C 11.3936878090474 14.238300000000002 11.4054087052076 12.864 11.428850497528 12.864 C 11.452292289848398 12.864 11.4640131860086 13.335 11.487454978329 13.335 C 11.5108967706494 13.335 11.5226176668096 12.5595 11.54605945913 12.4725 C 11.569501251450399 12.3855 11.5812221476106 12.3855 11.604663939931 12.3855 C 11.628105732251399 12.3855 11.639826628411601 12.5442 11.663268420732 12.6825 C 11.6867102130524 12.820799999999998 11.698431109212601 12.860999999999992 11.721872901533 13.077 C 11.745314693853398 13.292999999999992 11.7570355900136 13.7625 11.780477382334 13.7625 C 11.803919174654002 13.7625 11.815640070814002 12.987 11.839081863134 12.987 C 11.8625236554544 12.987 11.8742445516146 13.0695 11.897686343935 13.0695 C 11.9211281362554 13.0695 11.9328490324156 12.534 11.956290824736 12.534 C 11.9797326170564 12.534 11.991453513216602 13.548 12.014895305537 13.548 C 12.038337097857399 13.548 12.0500579940176 13.015499999999998 12.073499786338 13.011 C 12.096941578658399 13.0065 12.108662474818601 13.0065 12.132104267139 13.0065 C 12.1555460594594 13.0065 12.167266955619601 13.1685 12.19070874794 13.1685 C 12.2141505402604 13.1685 12.2258714364206 12.423 12.249313228741 12.423 C 12.2727550210614 12.423 12.284475917221602 12.599700000000004 12.307917709542 12.672 C 12.3313595018624 12.744300000000004 12.3430803980226 12.696 12.366522190343 12.7845 C 12.3899639826634 12.873 12.401684878823598 13.1145 12.425126671144 13.1145 C 12.448568463464401 13.1145 12.4602893596246 12.9405 12.483731151945 12.9405 C 12.507172944265399 12.9405 12.5188938404256 12.947399999999638 12.542335632746 12.99 C 12.565777425065999 13.032599999999638 12.577498321225999 12.99 12.600940113546 13.1535 C 12.6243819058664 13.316999999999998 12.636102802026603 13.768499999999998 12.659544594347 13.947 C 12.6829863866674 14.1255 12.6947072828276 14.1255 12.718149075148 14.1255 C 12.7415908674684 14.1255 12.753311763628599 13.2975 12.776753555949 13.2975 C 12.800195348269401 13.2975 12.8119162444296 13.5555 12.83535803675 13.5555 C 12.858799829070398 13.5555 12.8705207252306 13.4025 12.893962517551 13.4025 C 12.917404309871397 13.4025 12.9291252060316 13.4025 12.952566998352 13.4145 C 12.9760087906724 13.4265 12.9877296868326 13.4145 13.011171479153 13.482 C 13.0346132714734 13.549499999999998 13.0463341676336 13.992 13.069775959954 14.187 C 13.093217752274402 14.381999999999998 13.1049386484346 14.457 13.128380440755 14.457 C 13.151822233075398 14.457 13.1635431292356 14.0715 13.186984921556 14.013 C 13.210426713876398 13.9545 13.2221476100366 13.9545 13.245589402357 13.9545 C 13.2690311946774 13.9545 13.2807520908376 14.072699999999998 13.304193883158 14.286 C 13.3276356754784 14.4993 13.339356571638598 15.021 13.362798363959 15.021 C 13.386240156278998 15.021 13.397961052438998 14.65439999999177 13.421402844759 13.6845 C 13.444844637079399 12.71459999999177 13.456565533239601 10.6095 13.48000732556 10.1715 C 13.503449117880399 9.7335 13.515170014040601 9.890100000000006 13.538611806361 9.7335 C 13.562053598681398 9.576900000000006 13.5737744948416 9.7335 13.597216287162 9.3885 C 13.6206580794824 9.043500000000002 13.6323789756426 7.8765 13.655820767963 7.8765 C 13.6792625602834 7.8765 13.690983456443599 8.0775 13.714425248764 8.0775 C 13.7378670410844 8.0775 13.749587937244602 6.042000000000002 13.773029729565 6.042000000000002 C 13.7964715218854 6.042000000000002 13.808192418045598 8.1555 13.831634210366 8.1555 C 13.855076002686399 8.1555 13.866796898846598 8.1135 13.890238691167 8.1135 C 13.9136804834874 8.1135 13.9254013796476 8.217 13.948843171968 8.217 C 13.9722849642884 8.217 13.9840058604486 7.413 14.007447652769 7.413 C 14.0308894450894 7.413 14.042610341249603 8.1945 14.06605213357 8.385 C 14.0894939258904 8.5755 14.101214822050599 8.490899999999996 14.124656614371 8.5755 C 14.1480984066914 8.660099999999996 14.159819302851599 8.808 14.183261095172 8.808 C 14.206702887492 8.808 14.218423783652 8.525999999999998 14.241865575972 8.508 C 14.265307368292401 8.49 14.2770282644526 8.508 14.300470056773 8.49 C 14.3239118490934 8.472000000000001 14.3356327452536 8.426099999999998 14.359074537574 8.364 C 14.3825163298944 8.3019 14.3942372260546 8.243700000000004 14.417679018375 8.1795 C 14.4411208106954 8.115300000000003 14.4528417068556 8.1795 14.476283499176 8.043 C 14.4997252914964 7.906499999999998 14.511446187656599 7.426500000000001 14.534887979977 7.426500000000001 C 14.558329772297402 7.426500000000001 14.5700506684576 7.435800000000003 14.593492460778 7.450500000000002 C 14.616934253098401 7.465200000000001 14.6286551492586 7.450500000000002 14.652096941579 7.5 C 14.675538733899398 7.549499999999998 14.6872596300596 8.394000000000002 14.71070142238 8.6415 C 14.734143214700401 8.889 14.7458641108606 8.876999999999999 14.769305903181 8.889 C 14.792747695501399 8.901 14.8044685916616 8.889 14.827910383982 8.901 C 14.851352176302399 8.913 14.863073072462601 9.251100000000005 14.886514864783 9.372 C 14.909956657103402 9.492900000000004 14.921677553263601 9.5055 14.945119345584 9.5055 C 14.968561137904398 9.5055 14.9802820340646 9.5055 15.003723826385 9.4725 C 15.027165618705002 9.4395 15.038886514865002 8.958899999996715 15.062328307185 8.577 C 15.085770099505401 8.195099999996716 15.0974909956656 7.9472999999999985 15.120932787986 7.562999999999999 C 15.1443745803064 7.178699999999999 15.1560954764666 6.6555 15.179537268787 6.6555 C 15.2029790611074 6.6555 15.214699957267602 7.764000000000001 15.238141749588 8.034 C 15.261583541908399 8.304 15.273304438068601 8.193000000000005 15.296746230389 8.304 C 15.320188022709399 8.415000000000004 15.331908918869601 8.438400000000007 15.35535071119 8.589 C 15.378792503510402 8.739600000000006 15.390513399670601 9.057 15.413955191991 9.057 C 15.4373969843114 9.057 15.4491178804716 8.622 15.472559672792 8.622 C 15.4960014651124 8.622 15.507722361272602 9.7275 15.531164153593 9.7275 C 15.5546059459134 9.7275 15.566326842073602 9.7275 15.589768634394 9.7215 C 15.6132104267144 9.715500000000002 15.624931322874598 9.655500000000002 15.648373115195 9.6225 C 15.671814907515401 9.589500000000001 15.6835358036756 9.576 15.706977595996 9.5565 C 15.730419388316397 9.536999999999999 15.7421402844766 9.525 15.765582076797 9.525 C 15.789023869117397 9.525 15.800744765277603 9.525 15.824186557598 9.525 C 15.847628349918 9.525 15.859349246078 9.525 15.882791038398 9.525 C 15.9062328307184 9.525 15.917953726878602 9.525 15.941395519199 9.525 C 15.9648373115194 9.525 15.976558207679599 9.525 16 9.525 C 16.0234417923204 9.525 16.035162688480604 9.525 16.058604480801 9.525 C 16.0820462731214 9.525 16.0937671692816 9.525 16.117208961602 9.525 C 16.140650753922397 9.525 16.152371650082603 9.525 16.175813442403 9.525 C 16.199255234723402 9.525 16.2109761308836 9.525 16.234417923204 9.525 C 16.257859715524397 9.525 16.2695806116846 9.525 16.293022404005 9.525 C 16.3164641963254 9.525 16.3281850924856 9.525 16.351626884806 9.525 C 16.3750686771264 9.525 16.3867895732866 9.525 16.410231365607 9.5055 C 16.433673157927398 9.485999999999999 16.445394054087597 9.4911 16.468835846408 9.4275 C 16.4922776387284 9.363900000000001 16.5039985348886 9.1875 16.527440327209 9.1875 C 16.550882119529398 9.1875 16.5626030156896 9.9105 16.58604480801 9.9105 C 16.6094866003304 9.9105 16.6212074964906 9.6015 16.644649288811 9.6015 C 16.668091081131003 9.6015 16.679811977291003 9.6015 16.703253769611 9.717 C 16.7266955619314 9.832500000000001 16.7384164580916 10.323 16.761858250412 10.323 C 16.7853000427324 10.323 16.797020938892597 9.6165 16.820462731213 9.6165 C 16.8439045235334 9.6165 16.8556254196936 10.019399999999974 16.879067212014 10.377 C 16.902509004334398 10.734599999999974 16.9142299004946 11.078699999999976 16.937671692815 11.4045 C 16.9611134851354 11.730299999999977 16.972834381295602 11.781300000000018 16.996276173616 12.006 C 17.0197179659364 12.230700000000018 17.0314388620966 12.528 17.054880654417 12.528 C 17.0783224467374 12.528 17.090043342897598 12.5148 17.113485135218 12.4665 C 17.1369269275384 12.4182 17.1486478236986 12.362400000000006 17.172089616019 12.2865 C 17.1955314083394 12.210600000000007 17.207252304499598 12.2181 17.23069409682 12.087 C 17.2541358891404 11.9559 17.2658567853006 11.7552 17.289298577621 11.631 C 17.3127403699414 11.506800000000002 17.3244612661016 11.631 17.347903058422 11.466 C 17.3713448507424 11.300999999999998 17.3830657469026 9.0765 17.406507539223 9.0765 C 17.4299493315434 9.0765 17.4416702277036 9.270899999998775 17.465112020024 9.414 C 17.488553812344 9.557099999998774 17.500274708504 9.792 17.523716500824 9.792 C 17.5471582931444 9.792 17.558879189304598 9.723 17.582320981625 9.723 C 17.6057627739454 9.723 17.6174836701056 9.807 17.640925462426 9.807 C 17.664367254746402 9.807 17.6760881509066 9.66 17.699529943227 9.66 C 17.7229717355474 9.66 17.7346926317076 9.858 17.758134424028 9.858 C 17.7815762163484 9.858 17.7932971125086 8.6265 17.816738904829 8.355 C 17.8401806971494 8.0835 17.8519015933096 8.238600000000002 17.87534338563 8.0835 C 17.8987851779504 7.928400000000001 17.9105060741106 7.5794999999999995 17.933947866431 7.5794999999999995 C 17.957389658751403 7.5794999999999995 17.9691105549116 8.4105 17.992552347232 8.4105 C 18.0159941395524 8.4105 18.0277150357126 7.872 18.051156828033 7.872 C 18.074598620353402 7.872 18.0863195165136 8.159999999999998 18.109761308834 8.19 C 18.1332031011544 8.22 18.1449239973146 8.22 18.168365789635 8.22 C 18.1918075819554 8.22 18.2035284781156 8.117999999999995 18.226970270436 8.046 C 18.2504120627564 7.973999999999993 18.262132958916602 7.859999999999999 18.285574751237 7.859999999999999 C 18.309016543557 7.859999999999999 18.320737439717 7.922999999999998 18.344179232037 7.922999999999998 C 18.3676210243574 7.922999999999998 18.3793419205176 7.8918 18.402783712838 7.6935 C 18.426225505158403 7.4952000000000005 18.4379464013186 7.106999999999999 18.461388193639 6.9315 C 18.4848299859594 6.756 18.4965508821196 6.793500000000002 18.51999267444 6.756 C 18.5434344667604 6.718499999999999 18.5551553629206 6.718499999999999 18.578597155241 6.718499999999999 C 18.6020389475614 6.718499999999999 18.613759843721603 8.917500000000002 18.637201636042 9.0225 C 18.6606434283624 9.1275 18.672364324522597 9.057299999999994 18.695806116843 9.1275 C 18.719247909163396 9.197699999999994 18.730968805323602 9.131400000000019 18.754410597644 9.3735 C 18.7778523899644 9.615600000000018 18.7895732861246 10.338 18.813015078445 10.338 C 18.8364568707654 10.338 18.848177766925602 9.022499999999999 18.871619559246 8.898 C 18.8950613515664 8.7735 18.906782247726603 8.8815 18.930224040047 8.7735 C 18.9536658323674 8.665500000000002 18.965386728527598 8.377500000000001 18.988828520848 8.358 C 19.012270313168397 8.3385 19.023991209328603 8.358 19.047433001649 8.3385 C 19.070874793969 8.318999999999999 19.082595690129 8.217 19.106037482449 8.217 C 19.129479274769402 8.217 19.1412001709296 8.408700000000001 19.16464196325 8.5035 C 19.188083755570396 8.5983 19.1998046517306 8.691 19.223246444051 8.691 C 19.2466882363714 8.691 19.258409132531604 8.306700000000001 19.281850924852 8.037 C 19.3052927171724 7.7673000000000005 19.3170136133326 7.342500000000001 19.340455405653 7.342500000000001 C 19.363897197973397 7.342500000000001 19.375618094133603 8.0925 19.399059886454 8.0925 C 19.422501678774402 8.0925 19.4342225749346 8.067900000000002 19.457664367255 7.9785 C 19.481106159575397 7.8891 19.4928270557356 7.708499999999997 19.516268848056 7.645499999999998 C 19.5397106403764 7.5825 19.5514315365366 7.5825 19.574873328857 7.5825 C 19.5983151211774 7.5825 19.6100360173376 7.771500000000003 19.633477809658 7.816500000000001 C 19.656919601978398 7.8614999999999995 19.668640498138597 7.816500000000001 19.692082290459 7.8614999999999995 C 19.7155240827794 7.906499999999998 19.7272449789396 8.09639999999999 19.75068677126 8.214 C 19.774128563580398 8.331599999999991 19.7858494597406 8.4495 19.809291252061 8.4495 C 19.8327330443814 8.4495 19.8444539405416 8.287500000000001 19.867895732862 8.271 C 19.891337525182003 8.2545 19.903058421342003 8.271 19.926500213662 8.2545 C 19.9499420059824 8.238 19.9616629021426 8.0415 19.985104694463 8.0415 C 20.0085464867834 8.0415 20.020267382943597 8.2005 20.043709175264 8.4435 C 20.0671509675844 8.6865 20.0788718637446 9.2565 20.102313656065 9.2565 C 20.125755448385398 9.2565 20.1374763445456 9.224400000000003 20.160918136866 9.177 C 20.1843599291864 9.129600000000003 20.196080825346602 9.15089999999999 20.219522617667 9.0195 C 20.2429644099874 8.88809999999999 20.2546853061476 8.655900000000011 20.278127098468 8.52 C 20.3015688907884 8.384100000000009 20.313289786948598 8.391900000000001 20.336731579269 8.34 C 20.3601733715894 8.2881 20.3718942677496 8.286900000000003 20.39533606007 8.2605 C 20.4187778523904 8.234100000000003 20.430498748550598 8.208 20.453940540871 8.208 C 20.4773823331914 8.208 20.4891032293516 8.234700000000002 20.512545021672 8.2695 C 20.535986813992402 8.304300000000001 20.5477077101526 8.290500000000007 20.571149502473 8.382 C 20.5945912947934 8.473500000000007 20.6063121909536 8.727 20.629753983274 8.727 C 20.6531957755944 8.727 20.6649166717546 8.585400000000611 20.688358464075 8.514 C 20.711800256395 8.44260000000061 20.723521152555 8.37 20.746962944875 8.37 C 20.7704047371954 8.37 20.782125633355598 8.4588 20.805567425676 8.55 C 20.8290092179964 8.641200000000001 20.8407301141566 8.826 20.864171906477 8.826 C 20.887613698797402 8.826 20.8993345949576 8.708999999999994 20.922776387278 8.628 C 20.9462181795984 8.546999999999993 20.9579390757586 8.421 20.981380868079 8.421 C 21.0048226603994 8.421 21.0165435565596 8.421 21.03998534888 8.457 C 21.0634271412004 8.493000000000002 21.0751480373606 8.598 21.098589829681 8.6445 C 21.1220316220014 8.691 21.1337525181616 8.6445 21.157194310482 8.691 C 21.180636102802403 8.7375 21.1923569989626 9.06 21.215798791283 9.06 C 21.2392405836034 9.06 21.2509614797636 8.7555 21.274403272084 8.7555 C 21.297845064404402 8.7555 21.3095659605646 9.115800000000023 21.333007752885 9.3945 C 21.3564495452054 9.673200000000021 21.3681704413656 10.149 21.391612233686 10.149 C 21.4150540260064 10.149 21.4267749221666 10.02 21.450216714487 10.02 C 21.4736585068074 10.02 21.485379402967602 10.0545 21.508821195288 10.0545 C 21.532262987608 10.0545 21.543983883768 9.93599999999941 21.567425676088 9.867 C 21.5908674684084 9.797999999999409 21.6025883645686 9.779100000000001 21.626030156889 9.7095 C 21.649471949209403 9.6399 21.6611928453696 9.519 21.68463463769 9.519 C 21.7080764300104 9.519 21.7197973261706 9.5205 21.743239118491 9.5205 C 21.7666809108114 9.5205 21.7784018069716 9.0015 21.801843599292 9.0015 C 21.8252853916124 9.0015 21.837006287772603 9.0015 21.860448080093 9.075 C 21.883889872413402 9.148499999999999 21.895610768573597 10.1895 21.919052560894 10.1895 C 21.942494353214396 10.1895 21.954215249374602 9.612 21.977657041695 9.612 C 22.0010988340154 9.612 22.0128197301756 9.9405 22.036261522496 9.9405 C 22.0597033148164 9.9405 22.071424210976602 9.48389999999998 22.094866003297 9.2325 C 22.1183077956174 8.98109999999998 22.130028691777603 9.2325 22.153470484098 8.6835 C 22.176912276418403 8.134500000000001 22.188633172578598 4.651499999999999 22.212074964899 4.651499999999999 C 22.235516757219397 4.651499999999999 22.247237653379603 7.516500000000001 22.2706794457 7.516500000000001 C 22.294121238020402 7.516500000000001 22.305842134180597 6.94380000000215 22.329283926501 6.693000000000001 C 22.352725718821 6.442200000002147 22.364446614981 6.494699999998029 22.387888407301 6.262499999999999 C 22.411330199621396 6.030299999998028 22.4230510957816 5.532 22.446492888102 5.532 C 22.4699346804224 5.532 22.481655576582604 5.759100000000015 22.505097368903 5.9445000000000014 C 22.528539161223403 6.129900000000015 22.5402600573836 6.459 22.563701849704 6.459 C 22.587143642024397 6.459 22.598864538184603 6.043500000000002 22.622306330505 6.043500000000002 C 22.645748122825403 6.043500000000002 22.657469018985598 6.070799999999998 22.680910811306 6.0885 C 22.704352603626397 6.106199999999998 22.7160734997866 6.107399999999999 22.739515292107 6.1320000000000014 C 22.7629570844274 6.156599999999999 22.7746779805876 6.211500000000001 22.798119772908 6.211500000000001 C 22.8215615652284 6.211500000000001 22.8332824613886 5.911200000000022 22.856724253709 5.622 C 22.880166046029398 5.332800000000022 22.891886942189597 4.765499999999999 22.91532873451 4.765499999999999 C 22.9387705268304 4.765499999999999 22.9504914229906 5.5440000000000005 22.973933215311 5.5440000000000005 C 22.997375007631398 5.5440000000000005 23.0090959037916 5.202000000000002 23.032537696112 5.202000000000002 C 23.0559794884324 5.202000000000002 23.0677003845926 5.247 23.091142176913 5.247 C 23.1145839692334 5.247 23.1263048653936 5.042999999999999 23.149746657714 5.042999999999999 C 23.173188450034 5.042999999999999 23.184909346194 5.281500000000001 23.208351138514 5.281500000000001 C 23.2317929308344 5.281500000000001 23.243513826994597 5.275800000000001 23.266955619315 5.178000000000001 C 23.2903974116354 5.0802000000000005 23.3021183077956 4.7925 23.325560100116 4.7925 C 23.349001892436398 4.7925 23.360722788596597 4.8876 23.384164580917 5.1615 C 23.4076063732374 5.4354 23.4193272693976 6.119999999999997 23.442769061718 6.161999999999999 C 23.4662108540384 6.204000000000001 23.4779317501986 6.161999999999999 23.501373542519 6.204000000000001 C 23.5248153348394 6.246000000000002 23.536536230999598 6.775500000000001 23.55997802332 6.775500000000001 C 23.5834198156404 6.775500000000001 23.5951407118006 6.586500000000001 23.618582504121 6.586500000000001 C 23.6420242964414 6.586500000000001 23.653745192601598 6.639599999999999 23.677186984922 6.719999999999999 C 23.7006287772424 6.800399999999998 23.7123496734026 6.811499999999998 23.735791465723 6.988499999999998 C 23.759233258043402 7.1655 23.7709541542036 7.605 23.794395946524 7.605 C 23.8178377388444 7.605 23.8295586350046 5.320499999999999 23.853000427325 5.320499999999999 C 23.8764422196454 5.320499999999999 23.8881631158056 5.582999999999998 23.911604908126 5.599499999999999 C 23.9350467004464 5.616 23.9467675966066 5.599499999999999 23.970209388927 5.616 C 23.993651181246996 5.6325 24.005372077406996 5.7044999999999995 24.028813869727 5.7044999999999995 C 24.0522556620474 5.7044999999999995 24.0639765582076 5.532 24.087418350528 5.532 C 24.110860142848402 5.532 24.1225810390086 5.7315000000000165 24.146022831329 5.968499999999999 C 24.1694646236494 6.205500000000017 24.1811855198096 6.595499999999998 24.20462731213 6.716999999999999 C 24.2280691044504 6.8385 24.2397900006106 6.8385 24.263231792931 6.8385 C 24.2866735852514 6.8385 24.2983944814116 6.583499999999999 24.321836273732 6.440999999999999 C 24.3452780660524 6.298499999999999 24.3569989622126 6.126000000000001 24.380440754533 6.126000000000001 C 24.403882546853403 6.126000000000001 24.4156034430136 6.433499999999999 24.439045235334 6.433499999999999 C 24.4624870276544 6.433499999999999 24.4742079238146 6.433499999999999 24.497649716135 6.406500000000001 C 24.521091508455402 6.379500000000004 24.5328124046156 5.907 24.556254196936 5.907 C 24.5796959892564 5.907 24.5914168854166 6.640499999999999 24.614858677737 6.640499999999999 C 24.6383004700574 6.640499999999999 24.6500213662176 6.559199999999996 24.673463158538 6.529499999999999 C 24.6969049508584 6.499799999999997 24.708625847018602 6.507899999999999 24.732067639339 6.492000000000001 C 24.7555094316594 6.476100000000001 24.7672303278196 6.449999999999999 24.79067212014 6.449999999999999 C 24.81411391246 6.449999999999999 24.82583480862 6.527999999999999 24.84927660094 6.527999999999999 C 24.872718393260403 6.527999999999999 24.8844392894206 6.518999999999998 24.907881081741 6.518999999999998 C 24.9313228740614 6.518999999999998 24.9430437702216 6.6615 24.966485562542 6.6615 C 24.9899273548624 6.6615 25.0016482510226 6.422699999999993 25.025090043343 6.310500000000001 C 25.0485318356634 6.198299999999992 25.060252731823603 6.1005 25.083694524144 6.1005 C 25.107136316464402 6.1005 25.118857212624597 6.194399999999999 25.142299004945 6.231000000000002 C 25.165740797265396 6.267599999999999 25.177461693425602 6.2835 25.200903485746 6.2835 C 25.2243452780664 6.2835 25.2360661742266 6.222000000000001 25.259507966547 6.222000000000001 C 25.2829497588674 6.222000000000001 25.294670655027602 6.318000000000004 25.318112447348 6.3705 C 25.3415542396684 6.423000000000004 25.353275135828603 6.484500000000001 25.376716928149 6.484500000000001 C 25.400158720469403 6.484500000000001 25.411879616629598 6.4695 25.43532140895 6.4695 C 25.458763201270397 6.4695 25.470484097430603 6.4695 25.493925889751 6.510000000000002 C 25.517367682071402 6.550500000000003 25.529088578231597 6.828599999998927 25.552530370552 6.954000000000001 C 25.575972162872 7.079399999998927 25.587693059032 7.1370000000000005 25.611134851352 7.1370000000000005 C 25.634576643672396 7.1370000000000005 25.646297539832595 7.106999999999999 25.669739332153 7.106999999999999 C 25.693181124473405 7.106999999999999 25.704902020633604 7.346999999999998 25.728343812954 7.381499999999999 C 25.751785605274403 7.416 25.7635065014346 7.393499999999998 25.786948293755 7.416 C 25.810390086075397 7.4384999999999994 25.822110982235603 7.416 25.845552774556 7.494 C 25.868994566876403 7.571999999999999 25.880715463036598 7.799099999999976 25.904157255357 8.115 C 25.927599047677397 8.430899999999976 25.939319943837596 8.742599999999948 25.962761736158 9.0735 C 25.9862035284784 9.40439999999995 25.997924424638597 9.4281 26.021366216959 9.7695 C 26.0448080092794 10.1109 26.0565289054396 10.7805 26.07997069776 10.7805 C 26.103412490080398 10.7805 26.115133386240597 10.605 26.138575178561 10.605 C 26.1620169708814 10.605 26.1737378670416 10.6815 26.197179659362 10.6815 C 26.220621451682398 10.6815 26.232342347842597 10.641 26.255784140163 10.641 C 26.2792259324834 10.641 26.290946828643598 10.658100000000001 26.314388620964 10.7565 C 26.3378304132844 10.8549 26.3495513094446 10.7565 26.372993101765 11.133 C 26.396434894085 11.509499999999997 26.408155790245 12.405 26.431597582565 12.684 C 26.4550393748854 12.963 26.466760271045597 12.963 26.490202063366 12.963 C 26.5136438556864 12.963 26.5253647518466 12.552 26.548806544167 12.552 C 26.572248336487398 12.552 26.583969232647597 12.75 26.607411024968 12.8415 C 26.6308528172884 12.933 26.6425737134486 13.0095 26.666015505769 13.0095 C 26.6894572980894 13.0095 26.7011781942496 12.912 26.72461998657 12.912 C 26.7480617788904 12.912 26.759782675050598 13.0395 26.783224467371 13.0395 C 26.8066662596914 13.0395 26.8183871558516 12.5775 26.841828948172 12.5775 C 26.8652707404924 12.5775 26.876991636652598 12.918 26.900433428973 12.918 C 26.9238752212934 12.918 26.9355961174536 12.786 26.959037909774 12.786 C 26.982479702094402 12.786 26.9942005982546 12.786 27.017642390575 12.801 C 27.0410841828954 12.816 27.0528050790556 12.9186 27.076246871376 13.0215 C 27.0996886636964 13.1244 27.1114095598566 13.20779999999999 27.134851352177 13.3155 C 27.1582931444974 13.423199999999992 27.1700140406576 13.56 27.193455832978 13.56 C 27.216897625297996 13.56 27.228618521457996 13.158599999998684 27.252060313778 13.0035 C 27.2755021060984 12.848399999998684 27.2872230022586 12.7845 27.310664794579 12.7845 C 27.334106586899402 12.7845 27.3458274830596 12.834 27.36926927538 12.834 C 27.3927110677004 12.834 27.4044319638606 11.847 27.427873756181 11.847 C 27.4513155485014 11.847 27.4630364446616 11.847 27.486478236982 11.847 C 27.5099200293024 11.847 27.5216409254626 11.8428 27.545082717783 11.8155 C 27.5685245101034 11.7882 27.5802454062636 11.7522 27.603687198584 11.7105 C 27.627128990904403 11.6688 27.6388498870646 11.641799999999996 27.662291679385 11.607 C 27.6857334717054 11.572199999999997 27.6974543678656 11.5365 27.720896160186 11.5365 C 27.744337952506402 11.5365 27.7560588486666 11.539200000000003 27.779500640987 11.5755 C 27.8029424333074 11.611800000000002 27.8146633294676 11.6955 27.838105121788 11.718 C 27.861546914108395 11.7405 27.8732678102686 11.718 27.896709602589 11.7405 C 27.920151394909396 11.763000000000002 27.931872291069602 12.583499999999999 27.95531408339 12.603 C 27.9787558757104 12.6225 27.9904767718706 12.605099999999853 28.013918564191 12.6225 C 28.037360356510998 12.639899999999853 28.049081252670998 12.69 28.072523044991 12.69 C 28.095964837311403 12.69 28.1076857334716 12.60959999999999 28.131127525792 12.468 C 28.1545693181124 12.326399999999989 28.1662902142726 12.11640000000002 28.189732006593 11.982 C 28.213173798913395 11.84760000000002 28.2248946950736 11.8827 28.248336487394 11.796 C 28.271778279714397 11.709299999999999 28.283499175874603 11.629499999999995 28.306940968195 11.5485 C 28.330382760515402 11.467499999999994 28.3421036566756 11.463000000000001 28.365545448996 11.391 C 28.388987241316396 11.318999999999999 28.400708137476602 11.349899999999987 28.424149929797 11.1885 C 28.4475917221174 11.027099999999988 28.4593126182776 10.584 28.482754410598 10.584 C 28.506196202918396 10.584 28.517917099078602 10.663200000000002 28.541358891399 10.7385 C 28.564800683719398 10.8138 28.576521579879604 10.9515 28.5999633722 10.9605 C 28.623405164520403 10.9695 28.6351260606806 10.9695 28.658567853001 10.9695 C 28.682009645321397 10.9695 28.693730541481603 10.809 28.717172333802 10.809 C 28.7406141261224 10.809 28.752335022282598 10.989 28.775776814603 11.022 C 28.799218606923397 11.055 28.810939503083603 11.055 28.834381295404 11.055 C 28.857823087724 11.055 28.869543983884 9.961500000000001 28.892985776204 9.9525 C 28.916427568524398 9.9435 28.928148464684604 9.9435 28.951590257005 9.9435 C 28.975032049325403 9.9435 28.986752945485602 10.0335 29.010194737806 10.0335 C 29.033636530126397 10.0335 29.045357426286603 10.0335 29.068799218607 10.026 C 29.0922410109274 10.0185 29.103961907087598 9.952200000000012 29.127403699408 9.804 C 29.150845491728397 9.655800000000012 29.162566387888603 9.707099999999999 29.186008180209 9.285 C 29.2094499725294 8.8629 29.221170868689605 7.962 29.24461266101 7.6935 C 29.2680544533304 7.425000000000001 29.2797753494906 7.425000000000001 29.303217141811 7.425000000000001 C 29.326658934131398 7.425000000000001 29.338379830291597 7.425000000000001 29.361821622612 7.797000000000001 C 29.3852634149324 8.169 29.3969843110926 8.887799999999942 29.420426103413 9.6615 C 29.443867895733398 10.435199999999941 29.455588791893604 11.337 29.479030584214 11.6655 C 29.5024723765344 11.994 29.514193272694605 11.994 29.537635065015 11.994 C 29.5610768573354 11.994 29.5727977534956 11.7195 29.596239545816 11.7195 C 29.6196813381364 11.7195 29.631402234296598 11.86769999999609 29.654844026617 12.3285 C 29.678285818937002 12.789299999996087 29.690006715097002 14.0235 29.713448507417 14.0235 C 29.7368902997374 14.0235 29.7486111958976 13.911 29.772052988218 13.911 C 29.795494780538398 13.911 29.807215676698597 14.5755 29.830657469019 14.5755 C 29.8540992613394 14.5755 29.8658201574996 14.49 29.88926194982 14.49 C 29.9127037421404 14.49 29.9244246383006 14.658 29.947866430621 14.658 C 29.9713082229414 14.658 29.983029119101598 14.2665 30.006470911422 14.2665 C 30.0299127037424 14.2665 30.0416335999026 14.808 30.065075392223 14.808 C 30.0885171845434 14.808 30.100238080703598 14.4285 30.123679873024 14.4285 C 30.1471216653444 14.4285 30.1588425615046 14.4621 30.182284353825 14.514 C 30.205726146145402 14.5659 30.2174470423056 14.688 30.240888834626 14.688 C 30.2643306269464 14.688 30.2760515231066 14.467500000000001 30.299493315427 14.4015 C 30.3229351077474 14.3355 30.3346560039076 14.3355 30.358097796228 14.3355 C 30.3815395885484 14.3355 30.3932604847086 14.844 30.416702277029 14.844 C 30.4401440693494 14.844 30.4518649655096 14.787 30.47530675783 14.787 C 30.498748550150005 14.787 30.510469446310005 14.848800000000193 30.53391123863 14.871 C 30.557353030950402 14.893200000000192 30.5690739271106 14.871300000000003 30.592515719431 14.898 C 30.6159575117514 14.924700000000001 30.6276784079116 15.0045 30.651120200232 15.0045 C 30.674561992552402 15.0045 30.6862828887126 14.6775 30.709724681033 14.6775 C 30.7331664733534 14.6775 30.7448873695136 14.784 30.768329161834 14.784 C 30.7917709541544 14.784 30.8034918503146 14.751 30.826933642635 14.751 C 30.850375434955403 14.751 30.862096331115602 14.814 30.885538123436 14.814 C 30.9089799157564 14.814 30.9207008119166 14.796 30.944142604237 14.796 C 30.967584396557402 14.796 30.9793052927176 14.853000000000005 31.002747085038 14.9115 C 31.0261888773584 14.970000000000004 31.0379097735186 14.922600000000001 31.061351565839 15.0885 C 31.084793358159402 15.2544 31.0965142543196 15.564000000000027 31.11995604664 15.741 C 31.143397838960404 15.918000000000026 31.155118735120602 15.9735 31.178560527441 15.9735 C 31.2020023197614 15.9735 31.213723215921597 15.78 31.237165008242 15.78 C 31.260606800561998 15.78 31.272327696721998 15.9285 31.295769489042 15.9285 C 31.319211281362403 15.9285 31.3309321775226 15.888299999999997 31.354373969843 15.8505 C 31.3778157621634 15.812699999999998 31.3895366583236 15.771899999999999 31.412978450644 15.7395 C 31.436420242964402 15.7071 31.4481411391246 15.7395 31.471582931445 15.6885 C 31.495024723765404 15.6375 31.506745619925603 15.2205 31.530187412246 15.2205 C 31.553629204566402 15.2205 31.565350100726597 15.705 31.588791893047 15.705 C 31.612233685367396 15.705 31.623954581527602 15.206099999999987 31.647396373848 15.0105 C 31.6708381661684 14.814899999999986 31.6825590623286 14.8893 31.706000854649 14.727 C 31.729442646969403 14.5647 31.741163543129602 14.199 31.76460533545 14.199 C 31.788047127770405 14.199 31.799768023930604 14.4885 31.823209816251 14.4885 C 31.846651608571403 14.4885 31.858372504731598 14.423700000000002 31.881814297052 14.3955 C 31.905256089372397 14.367300000000002 31.916976985532603 14.3475 31.940418777853 14.3475 C 31.963860570173402 14.3475 31.999023258654 14.8635 31.999023258654 14.8635" stroke-linecap="round" />
</g>
		<g transform="matrix(1 0 0 1 0 0)" clip-path="url(#CLIPPATH_4)"  >
<clipPath id="CLIPPATH_4" >
	<rect transform="matrix(1 0 0 1 0 0)" id="highcharts-b73mifp-7681-" x="-16" y="-12" rx="0" ry="0" width="32" height="24" />
</clipPath>
<path style="stroke: rgb(192,192,192); stroke-opacity: 0.0001; stroke-width: 22; stroke-dasharray: none; stroke-linecap: round; stroke-dashoffset: 0; stroke-linejoin: round; stroke-miterlimit: 4; fill: none; fill-rule: nonzero; opacity: 1;" vector-effect="non-scaling-stroke"  transform=" translate(-16, -12)" d="M 0.00097674134668213 18 C 0.00097674134668213 18 0.03613942982723885 18 0.05958122214761 18 C 0.08302301446798199 18 0.09474391062816799 18.075 0.11818570294854 18.075 C 0.141627495268908 18.075 0.153348391429092 17.63219999999998 0.17679018374946 17.394 C 0.20023197606983204 17.155799999999978 0.211952872230018 16.884 0.23539466455039 16.884 C 0.258836456870762 16.884 0.270557353030948 17.265900000000002 0.29399914535132 17.4645 C 0.31744093767169196 17.6631 0.32916183383187797 17.877 0.35260362615225 17.877 C 0.37604541847262196 17.877 0.38776631463280803 17.828100000000003 0.41120810695318 17.781 C 0.434649899273548 17.733900000000006 0.446370795433732 17.689199999999996 0.4698125877541 17.6415 C 0.49325438007447203 17.593799999999995 0.504975276234658 17.5425 0.52841706855503 17.5425 C 0.551858860875402 17.5425 0.563579757035588 18.1065 0.58702154935596 18.1065 C 0.6104633416763321 18.1065 0.622184237836518 18.021 0.64562603015689 18.0075 C 0.669067822477258 17.994 0.680788718637442 18.0075 0.70423051095781 17.994 C 0.727672303278182 17.9805 0.739393199438368 17.8815 0.76283499175874 17.8815 C 0.7862767840791121 17.8815 0.7979976802392981 17.9004 0.82143947255967 18.012 C 0.844881264880042 18.1236 0.8566021610402281 18.1734 0.8800439533606 18.4395 C 0.9034857456809722 18.7056 0.9152066418411581 19.3425 0.93864843416153 19.3425 C 0.962090226481898 19.3425 0.973811122642082 19.3425 0.99725291496245 19.239 C 1.0206947072828298 19.1355 1.0324156034430199 18.822000000000003 1.0558573957634 18.799500000000002 C 1.0792991880837601 18.777 1.0910200842439401 18.799500000000002 1.1144618765643 18.777 C 1.1379036688847 18.7545 1.1496245650449 18.6315 1.1730663573653 18.6315 C 1.19650814968566 18.6315 1.20822904584584 18.772499999999997 1.2316708381662 18.834 C 1.25511263048656 18.8955 1.2668335266467399 18.939 1.2902753189671 18.939 C 1.31371711128746 18.939 1.3254380074476402 18.778799999999773 1.348879799768 18.5175 C 1.3723215920884002 18.256199999999772 1.3840424882486 17.6325 1.407484280569 17.6325 C 1.43092607288936 17.6325 1.4426469690495403 17.703 1.4660887613699 17.703 C 1.48953055369026 17.703 1.50125144985044 16.6995 1.5246932421708 16.6995 C 1.5481350344912 16.6995 1.5598559306514 16.87049999999987 1.5832977229718 17.0235 C 1.6067395152921597 17.17649999999987 1.61846041145234 17.4645 1.6419022037727 17.4645 C 1.66534399609306 17.4645 1.6770648922532403 17.3235 1.7005066845736 17.19 C 1.7239484768939601 17.0565 1.7356693730541402 16.797 1.7591111653745 16.797 C 1.7825529576949002 16.797 1.7942738538550997 17.163 1.8177156461755 17.163 C 1.8411574384958598 17.163 1.8528783346560402 17.0445 1.8763201269764 17.0445 C 1.89976191929676 17.0445 1.9114828154569399 17.5185 1.9349246077773 17.5185 C 1.9583664000976597 17.5185 1.9700872962578402 16.6035 1.9935290885782 16.6035 C 2.0169708808986 16.6035 2.0286917770588 16.629299999999954 2.0521335693792 16.683 C 2.0755753616995603 16.736699999999956 2.08729625785974 16.872 2.1107380501801 16.872 C 2.13417984250046 16.872 2.1459007386606404 16.85549999999992 2.169342530981 16.7655 C 2.1927843233014004 16.67549999999992 2.2045052194616 16.422 2.227947011782 16.422 C 2.25138880410236 16.422 2.2631097002625404 16.506 2.2865514925829 16.506 C 2.3099932849032596 16.506 2.32171418106344 16.4421 2.3451559733838 16.3455 C 2.36859776570416 16.248900000000003 2.38031866186434 16.092 2.4037604541847 16.023 C 2.4272022465051 15.954 2.4389231426653 15.954 2.4623649349857 15.954 C 2.48580672730606 15.954 2.49752762346624 15.954 2.5209694157866 15.954 C 2.54441120810696 15.954 2.55613210426714 15.954 2.5795738965875 15.954 C 2.6030156889079 15.954 2.6147365850681 15.780000000000001 2.6381783773885 15.759 C 2.66162016970886 15.738 2.6733410658690397 15.7395 2.6967828581894 15.738 C 2.72022465050976 15.7365 2.73194554666994 15.7365 2.7553873389903 15.7365 C 2.77882913131066 15.7365 2.7905500274708404 15.7365 2.8139918197912 15.7365 C 2.8374336121116004 15.7365 2.8491545082718 15.738 2.8725963005922 15.738 C 2.89603809291256 15.738 2.9077589890727404 15.738 2.9312007813931 15.738 C 2.9546425737134596 15.738 2.96636346987364 15.7365 2.989805262194 15.7365 C 3.0132470545144 15.7365 3.0249679506745997 15.738 3.048409742995 15.738 C 3.0718515353153597 15.738 3.08357243147554 15.738 3.1070142237959 15.738 C 3.13045601611626 15.738 3.1421769122764402 15.738 3.1656187045968 15.738 C 3.1890604969171603 15.738 3.2007813930773397 15.7365 3.2242231853977 15.7365 C 3.2476649777180997 15.7365 3.2593858738783 15.7365 3.2828276661987 15.7365 C 3.30626945851906 15.7365 3.31799035467924 15.7365 3.3414321469996 15.7365 C 3.36487393931996 15.7365 3.37659483548014 15.738 3.4000366278005 15.738 C 3.4234784201208597 15.738 3.4351993162810404 15.738 3.4586411086014 15.738 C 3.4820829009218004 15.738 3.4938037970820006 15.738 3.5172455894024 15.738 C 3.5406873817227607 15.738 3.5524082778829404 15.738 3.5758500702033 15.738 C 3.5992918625236596 15.738 3.6110127586838403 15.735899999999999 3.6344545510042 15.735 C 3.6578963433246003 15.734099999999998 3.6696172394847997 15.7335 3.6930590318052 15.7335 C 3.7165008241255597 15.7335 3.7282217202857395 15.735 3.7516635126061 15.735 C 3.77510530492646 15.735 3.7868262010866403 15.735 3.810267993407 15.735 C 3.8337097857273603 15.735 3.8454306818875397 15.722699999999998 3.8688724742079 15.7185 C 3.8923142665282997 15.714299999999996 3.9040351626885 15.714 3.9274769550089 15.714 C 3.95091874732926 15.714 3.96263964348944 15.714 3.9860814358098 15.714 C 4.00952322813016 15.714 4.021244124290339 15.714 4.0446859166107 15.714 C 4.068127708931099 15.714 4.0798486050913 15.714 4.1032903974117 15.714 C 4.12673218973206 15.714 4.13845308589224 15.714 4.1618948782126 15.714 C 4.18533667053296 15.714 4.19705756669314 15.714 4.2204993590135 15.714 C 4.24394115133386 15.714 4.25566204749404 15.714 4.2791038398144 15.714 C 4.3025456321348 15.714 4.314266528295001 15.714 4.3377083206154 15.714 C 4.361150112935761 15.714 4.37287100909594 15.714 4.3963128014163 15.714 C 4.41975459373666 15.714 4.43147548989684 15.714 4.4549172822172 15.714 C 4.47835907453756 15.714 4.49007997069774 15.714 4.5135217630181 15.714 C 4.5369635553385 15.714 4.5486844514986995 15.714 4.5721262438191 15.714 C 4.5955680361394595 15.714 4.607288932299641 15.714 4.63073072462 15.714 C 4.65417251694036 15.714 4.665893413100539 15.714 4.6893352054209 15.714 C 4.712776997741299 15.714 4.7244978939015 15.714 4.7479396862219 15.714 C 4.77138147854226 15.714 4.78310237470244 15.714 4.8065441670228 15.714 C 4.82998595934316 15.714 4.84170685550334 15.714 4.8651486478237 15.714 C 4.88859044014406 15.714 4.90031133630424 15.714 4.9237531286246 15.714 C 4.947194920945 15.714 4.958915817105201 15.714 4.9823576094256 15.714 C 5.005799401745961 15.714 5.01752029790614 15.714 5.0409620902265 15.714 C 5.06440388254686 15.714 5.07612477870704 15.714 5.0995665710274 15.714 C 5.1230083633478 15.714 5.134729259507999 15.714 5.1581710518284 15.714 C 5.181612844148759 15.714 5.1933337403089395 15.714 5.2167755326293 15.714 C 5.2402173249496595 15.714 5.251938221109841 15.714 5.2753800134302 15.714 C 5.29882180575056 15.714 5.310542701910739 15.714 5.3339844942311 15.714 C 5.357426286551499 15.714 5.3691471827117 15.714 5.3925889750321 15.714 C 5.41603076735246 15.714 5.42775166351264 15.714 5.451193455833 15.714 C 5.47463524815336 15.714 5.48635614431354 15.714 5.5097979366339 15.714 C 5.5332397289543 15.714 5.5449606251145 15.714 5.5684024174349 15.714 C 5.59184420975526 15.714 5.6035651059154405 15.714 5.6270068982358 15.714 C 5.650448690556161 15.714 5.66216958671634 15.714 5.6856113790367 15.714 C 5.70905317135706 15.714 5.72077406751724 15.714 5.7442158598376 15.714 C 5.767657652158 15.714 5.779378548318199 15.714 5.8028203406386 15.714 C 5.826262132958959 15.714 5.8379830291191395 15.714 5.8614248214395 15.714 C 5.8848666137598595 15.714 5.896587509920041 15.714 5.9200293022404 15.714 C 5.94347109456076 15.714 5.955191990720939 15.714 5.9786337830413 15.714 C 6.002075575361699 15.714 6.0137964715219 15.714 6.0372382638423 15.714 C 6.06068005616266 15.714 6.07240095232284 15.714 6.0958427446432 15.714 C 6.11928453696356 15.714 6.13100543312374 15.714 6.1544472254441 15.714 C 6.1778890177645 15.714 6.1896099139247 15.714 6.2130517062451 15.714 C 6.23649349856546 15.714 6.2482143947256406 15.714 6.271656187046 15.714 C 6.295097979366361 15.714 6.30681887552654 15.7599 6.3302606678469 15.7995 C 6.35370246016726 15.8391 6.36542335632744 15.912 6.3888651486478 15.912 C 6.4123069409682 15.912 6.424027837128399 15.6585 6.4474696294488 15.6585 C 6.470911421769159 15.6585 6.4826323179293395 15.813 6.5060741102497 15.813 C 6.5295159025700595 15.813 6.541236798730241 15.771 6.5646785910506 15.771 C 6.588120383371001 15.771 6.5998412795312005 15.862799999999973 6.6232830718516 15.8955 C 6.6467248641719605 15.928199999999974 6.65844576033214 15.8955 6.6818875526525 15.9345 C 6.70532934497286 15.9735 6.71705024113304 16.203 6.7404920334534 16.203 C 6.763933825773759 16.203 6.77565472193394 16.203 6.7990965142543 15.9525 C 6.8225383065747 15.702000000000002 6.8342592027349 14.826 6.8577009950553 14.67 C 6.88114278737566 14.514 6.892863683535841 14.569799999999999 6.9163054758562 14.514 C 6.939747268176561 14.458199999999998 6.95146816433674 14.514 6.9749099566571 14.391 C 6.99835174897746 14.268 7.01007264513764 13.829699999999741 7.033514437458 13.5345 C 7.0569562297784 13.239299999999742 7.068677125938599 12.915 7.092118918259 12.915 C 7.115560710579359 12.915 7.1272816067395395 13.56 7.1507233990599 13.56 C 7.1741651913802595 13.56 7.185886087540441 13.34549999999974 7.2093278798608 13.047 C 7.232769672181201 12.74849999999974 7.2444905683414005 12.0675 7.2679323606618 12.0675 C 7.2913741529821605 12.0675 7.30309504914234 12.82559999999999 7.3265368414627 13.329 C 7.34997863378306 13.832399999999991 7.36169952994324 14.5845 7.3851413222636 14.5845 C 7.408583114583959 14.5845 7.42030401074414 14.5845 7.4437458030645 14.4075 C 7.4671875953849 14.230500000000001 7.4789084915451 13.891500000000358 7.5023502838655 13.464 C 7.52579207618586 13.036500000000355 7.537512972346041 12.27 7.5609547646664 12.27 C 7.584396556986761 12.27 7.59611745314694 12.483 7.6195592454673 12.483 C 7.6430010377877 12.483 7.6547219339479 12.034499999999998 7.6781637262683 11.9325 C 7.70160551858866 11.8305 7.71332641474884 11.8305 7.7367682070692 11.8305 C 7.760209999389559 11.8305 7.7719308955497395 11.8305 7.7953726878701 12.132 C 7.8188144801904595 12.433499999999999 7.830535376350641 13.722 7.853977168671 13.722 C 7.877418960991401 13.722 7.8891398571516005 12.777600000000264 7.912581649472 12.462 C 7.9360234417923605 12.146400000000263 7.94774433795254 12.144 7.9711861302729 12.144 C 7.99462792259326 12.144 8.006348818753441 12.1815 8.0297906110738 12.1815 C 8.0532324033942 12.1815 8.0649532995544 11.5755 8.0883950918748 11.5755 C 8.11183688419516 11.5755 8.12355778035534 12.6195 8.1469995726757 12.6195 C 8.17044136499606 12.6195 8.18216226115624 12.414 8.2056040534766 12.414 C 8.22904584579696 12.414 8.24076674195714 13.302 8.2642085342775 13.302 C 8.287650326597902 13.302 8.2993712227581 13.2075 8.3228130150785 13.2075 C 8.34625480739886 13.2075 8.35797570355904 13.535400000000001 8.3814174958794 13.665 C 8.404859288199761 13.794599999999999 8.41658018435994 13.8555 8.4400219766803 13.8555 C 8.46346376900066 13.8555 8.475184665160839 13.6085999999999 8.4986264574812 13.488 C 8.522068249801599 13.367399999999899 8.5337891459618 13.2525 8.5572309382822 13.2525 C 8.58067273060256 13.2525 8.592393626762739 13.9965 8.6158354190831 13.9965 C 8.63927721140346 13.9965 8.650998107563641 13.9605 8.674439899884 13.9605 C 8.6978816922044 13.9605 8.7096025883646 14.168999999999917 8.733044380685 14.271 C 8.75648617300536 14.372999999999916 8.76820706916554 14.4165 8.7916488614859 14.4705 C 8.81509065380626 14.5245 8.82681154996644 14.4705 8.8502533422868 14.541 C 8.87369513460716 14.611500000000001 8.88541603076734 15.267 8.9088578230877 15.4245 C 8.932299615408102 15.582 8.9440205115683 15.539999999999965 8.9674623038887 15.582 C 8.99090409620906 15.623999999999965 9.00262499236924 15.6345 9.0260667846896 15.6345 C 9.049508577009961 15.6345 9.06122947317014 15.6345 9.0846712654905 15.5835 C 9.1081130578109 15.532500000000002 9.119833953971101 15.15 9.1432757462915 15.15 C 9.16671753861186 15.15 9.178438434772039 15.3525 9.2018802270924 15.3525 C 9.22532201941276 15.3525 9.237042915572939 15.243 9.2604847078933 15.243 C 9.28392650021366 15.243 9.295647396373841 15.477 9.3190891886942 15.477 C 9.3425309810146 15.477 9.3542518771748 15.453000000000031 9.3776936694952 15.4155 C 9.40113546181556 15.378000000000032 9.41285635797574 15.4155 9.4362981502961 15.2895 C 9.45973994261646 15.1635 9.47146083877664 14.76 9.494902631097 14.76 C 9.51834442341736 14.76 9.53006531957754 14.793 9.5535071118979 14.793 C 9.576948904218302 14.793 9.5886698003785 14.6295 9.6121115926989 14.583 C 9.63555338501926 14.5365 9.64727428117944 14.5365 9.6707160734998 14.5365 C 9.694157865820161 14.5365 9.70587876198034 14.594700000000056 9.7293205543007 14.661 C 9.7527623466211 14.727300000000055 9.764483242781301 14.868 9.7879250351017 14.868 C 9.81136682742206 14.868 9.823087723582239 14.8314 9.8465295159026 14.805 C 9.86997130822296 14.7786 9.881692204383139 14.801400000000001 9.9051339967035 14.736 C 9.92857578902386 14.6706 9.940296685184041 14.478 9.9637384775044 14.478 C 9.987180269825041 14.478 9.99890116598536 14.538899999999728 10.022342958306 14.592 C 10.0457847506264 14.64509999999973 10.0575056467866 14.660699999999999 10.080947439107 14.7435 C 10.1043892314274 14.8263 10.1161101275876 15.006 10.139551919908 15.006 C 10.162993712227998 15.006 10.174714608387998 14.969399999999574 10.198156400708 14.919 C 10.221598193028399 14.868599999999573 10.233319089188601 14.812799999999998 10.256760881509 14.754 C 10.2802026738294 14.6952 10.291923569989601 14.6832 10.31536536231 14.625 C 10.3388071546304 14.5668 10.3505280507906 14.548499999999999 10.373969843111 14.463 C 10.3974116354314 14.377499999999998 10.4091325315916 14.2692 10.432574323912 14.1975 C 10.4560161162324 14.1258 10.4677370123926 14.1045 10.491178804713 14.1045 C 10.5146205970334 14.1045 10.5263414931936 14.1045 10.549783285514 14.121 C 10.5732250778344 14.137500000000001 10.5849459739946 14.61 10.608387766315 14.61 C 10.631829558635399 14.61 10.643550454795598 14.229000000000001 10.666992247116 14.2125 C 10.6904340394364 14.196 10.7021549355966 14.196 10.725596727917 14.196 C 10.7490385202374 14.196 10.760759416397601 14.4621 10.784201208718 14.625 C 10.8076430010384 14.7879 10.819363897198603 14.879400000000004 10.842805689519 15.0105 C 10.8662474818394 15.141600000000006 10.8779683779996 15.1767 10.90141017032 15.2805 C 10.9248519626404 15.3843 10.936572858800599 15.510000000000002 10.960014651121 15.5295 C 10.983456443441 15.549 10.995177339601 15.549 11.018619131921 15.549 C 11.042060924241401 15.549 11.0537818204016 15.375 11.077223612722 15.375 C 11.100665405042399 15.375 11.1123863012026 15.7965 11.135828093523 15.7965 C 11.159269885843399 15.7965 11.170990782003601 15.318 11.194432574324 15.318 C 11.2178743666444 15.318 11.229595262804601 15.4785 11.253037055125 15.4785 C 11.2764788474454 15.4785 11.288199743605599 15.4785 11.311641535926 15.36 C 11.335083328246402 15.241499999999998 11.3468042244066 15.2367 11.370246016727 14.7375 C 11.3936878090474 14.238300000000002 11.4054087052076 12.864 11.428850497528 12.864 C 11.452292289848398 12.864 11.4640131860086 13.335 11.487454978329 13.335 C 11.5108967706494 13.335 11.5226176668096 12.5595 11.54605945913 12.4725 C 11.569501251450399 12.3855 11.5812221476106 12.3855 11.604663939931 12.3855 C 11.628105732251399 12.3855 11.639826628411601 12.5442 11.663268420732 12.6825 C 11.6867102130524 12.820799999999998 11.698431109212601 12.860999999999992 11.721872901533 13.077 C 11.745314693853398 13.292999999999992 11.7570355900136 13.7625 11.780477382334 13.7625 C 11.803919174654002 13.7625 11.815640070814002 12.987 11.839081863134 12.987 C 11.8625236554544 12.987 11.8742445516146 13.0695 11.897686343935 13.0695 C 11.9211281362554 13.0695 11.9328490324156 12.534 11.956290824736 12.534 C 11.9797326170564 12.534 11.991453513216602 13.548 12.014895305537 13.548 C 12.038337097857399 13.548 12.0500579940176 13.015499999999998 12.073499786338 13.011 C 12.096941578658399 13.0065 12.108662474818601 13.0065 12.132104267139 13.0065 C 12.1555460594594 13.0065 12.167266955619601 13.1685 12.19070874794 13.1685 C 12.2141505402604 13.1685 12.2258714364206 12.423 12.249313228741 12.423 C 12.2727550210614 12.423 12.284475917221602 12.599700000000004 12.307917709542 12.672 C 12.3313595018624 12.744300000000004 12.3430803980226 12.696 12.366522190343 12.7845 C 12.3899639826634 12.873 12.401684878823598 13.1145 12.425126671144 13.1145 C 12.448568463464401 13.1145 12.4602893596246 12.9405 12.483731151945 12.9405 C 12.507172944265399 12.9405 12.5188938404256 12.947399999999638 12.542335632746 12.99 C 12.565777425065999 13.032599999999638 12.577498321225999 12.99 12.600940113546 13.1535 C 12.6243819058664 13.316999999999998 12.636102802026603 13.768499999999998 12.659544594347 13.947 C 12.6829863866674 14.1255 12.6947072828276 14.1255 12.718149075148 14.1255 C 12.7415908674684 14.1255 12.753311763628599 13.2975 12.776753555949 13.2975 C 12.800195348269401 13.2975 12.8119162444296 13.5555 12.83535803675 13.5555 C 12.858799829070398 13.5555 12.8705207252306 13.4025 12.893962517551 13.4025 C 12.917404309871397 13.4025 12.9291252060316 13.4025 12.952566998352 13.4145 C 12.9760087906724 13.4265 12.9877296868326 13.4145 13.011171479153 13.482 C 13.0346132714734 13.549499999999998 13.0463341676336 13.992 13.069775959954 14.187 C 13.093217752274402 14.381999999999998 13.1049386484346 14.457 13.128380440755 14.457 C 13.151822233075398 14.457 13.1635431292356 14.0715 13.186984921556 14.013 C 13.210426713876398 13.9545 13.2221476100366 13.9545 13.245589402357 13.9545 C 13.2690311946774 13.9545 13.2807520908376 14.072699999999998 13.304193883158 14.286 C 13.3276356754784 14.4993 13.339356571638598 15.021 13.362798363959 15.021 C 13.386240156278998 15.021 13.397961052438998 14.65439999999177 13.421402844759 13.6845 C 13.444844637079399 12.71459999999177 13.456565533239601 10.6095 13.48000732556 10.1715 C 13.503449117880399 9.7335 13.515170014040601 9.890100000000006 13.538611806361 9.7335 C 13.562053598681398 9.576900000000006 13.5737744948416 9.7335 13.597216287162 9.3885 C 13.6206580794824 9.043500000000002 13.6323789756426 7.8765 13.655820767963 7.8765 C 13.6792625602834 7.8765 13.690983456443599 8.0775 13.714425248764 8.0775 C 13.7378670410844 8.0775 13.749587937244602 6.042000000000002 13.773029729565 6.042000000000002 C 13.7964715218854 6.042000000000002 13.808192418045598 8.1555 13.831634210366 8.1555 C 13.855076002686399 8.1555 13.866796898846598 8.1135 13.890238691167 8.1135 C 13.9136804834874 8.1135 13.9254013796476 8.217 13.948843171968 8.217 C 13.9722849642884 8.217 13.9840058604486 7.413 14.007447652769 7.413 C 14.0308894450894 7.413 14.042610341249603 8.1945 14.06605213357 8.385 C 14.0894939258904 8.5755 14.101214822050599 8.490899999999996 14.124656614371 8.5755 C 14.1480984066914 8.660099999999996 14.159819302851599 8.808 14.183261095172 8.808 C 14.206702887492 8.808 14.218423783652 8.525999999999998 14.241865575972 8.508 C 14.265307368292401 8.49 14.2770282644526 8.508 14.300470056773 8.49 C 14.3239118490934 8.472000000000001 14.3356327452536 8.426099999999998 14.359074537574 8.364 C 14.3825163298944 8.3019 14.3942372260546 8.243700000000004 14.417679018375 8.1795 C 14.4411208106954 8.115300000000003 14.4528417068556 8.1795 14.476283499176 8.043 C 14.4997252914964 7.906499999999998 14.511446187656599 7.426500000000001 14.534887979977 7.426500000000001 C 14.558329772297402 7.426500000000001 14.5700506684576 7.435800000000003 14.593492460778 7.450500000000002 C 14.616934253098401 7.465200000000001 14.6286551492586 7.450500000000002 14.652096941579 7.5 C 14.675538733899398 7.549499999999998 14.6872596300596 8.394000000000002 14.71070142238 8.6415 C 14.734143214700401 8.889 14.7458641108606 8.876999999999999 14.769305903181 8.889 C 14.792747695501399 8.901 14.8044685916616 8.889 14.827910383982 8.901 C 14.851352176302399 8.913 14.863073072462601 9.251100000000005 14.886514864783 9.372 C 14.909956657103402 9.492900000000004 14.921677553263601 9.5055 14.945119345584 9.5055 C 14.968561137904398 9.5055 14.9802820340646 9.5055 15.003723826385 9.4725 C 15.027165618705002 9.4395 15.038886514865002 8.958899999996715 15.062328307185 8.577 C 15.085770099505401 8.195099999996716 15.0974909956656 7.9472999999999985 15.120932787986 7.562999999999999 C 15.1443745803064 7.178699999999999 15.1560954764666 6.6555 15.179537268787 6.6555 C 15.2029790611074 6.6555 15.214699957267602 7.764000000000001 15.238141749588 8.034 C 15.261583541908399 8.304 15.273304438068601 8.193000000000005 15.296746230389 8.304 C 15.320188022709399 8.415000000000004 15.331908918869601 8.438400000000007 15.35535071119 8.589 C 15.378792503510402 8.739600000000006 15.390513399670601 9.057 15.413955191991 9.057 C 15.4373969843114 9.057 15.4491178804716 8.622 15.472559672792 8.622 C 15.4960014651124 8.622 15.507722361272602 9.7275 15.531164153593 9.7275 C 15.5546059459134 9.7275 15.566326842073602 9.7275 15.589768634394 9.7215 C 15.6132104267144 9.715500000000002 15.624931322874598 9.655500000000002 15.648373115195 9.6225 C 15.671814907515401 9.589500000000001 15.6835358036756 9.576 15.706977595996 9.5565 C 15.730419388316397 9.536999999999999 15.7421402844766 9.525 15.765582076797 9.525 C 15.789023869117397 9.525 15.800744765277603 9.525 15.824186557598 9.525 C 15.847628349918 9.525 15.859349246078 9.525 15.882791038398 9.525 C 15.9062328307184 9.525 15.917953726878602 9.525 15.941395519199 9.525 C 15.9648373115194 9.525 15.976558207679599 9.525 16 9.525 C 16.0234417923204 9.525 16.035162688480604 9.525 16.058604480801 9.525 C 16.0820462731214 9.525 16.0937671692816 9.525 16.117208961602 9.525 C 16.140650753922397 9.525 16.152371650082603 9.525 16.175813442403 9.525 C 16.199255234723402 9.525 16.2109761308836 9.525 16.234417923204 9.525 C 16.257859715524397 9.525 16.2695806116846 9.525 16.293022404005 9.525 C 16.3164641963254 9.525 16.3281850924856 9.525 16.351626884806 9.525 C 16.3750686771264 9.525 16.3867895732866 9.525 16.410231365607 9.5055 C 16.433673157927398 9.485999999999999 16.445394054087597 9.4911 16.468835846408 9.4275 C 16.4922776387284 9.363900000000001 16.5039985348886 9.1875 16.527440327209 9.1875 C 16.550882119529398 9.1875 16.5626030156896 9.9105 16.58604480801 9.9105 C 16.6094866003304 9.9105 16.6212074964906 9.6015 16.644649288811 9.6015 C 16.668091081131003 9.6015 16.679811977291003 9.6015 16.703253769611 9.717 C 16.7266955619314 9.832500000000001 16.7384164580916 10.323 16.761858250412 10.323 C 16.7853000427324 10.323 16.797020938892597 9.6165 16.820462731213 9.6165 C 16.8439045235334 9.6165 16.8556254196936 10.019399999999974 16.879067212014 10.377 C 16.902509004334398 10.734599999999974 16.9142299004946 11.078699999999976 16.937671692815 11.4045 C 16.9611134851354 11.730299999999977 16.972834381295602 11.781300000000018 16.996276173616 12.006 C 17.0197179659364 12.230700000000018 17.0314388620966 12.528 17.054880654417 12.528 C 17.0783224467374 12.528 17.090043342897598 12.5148 17.113485135218 12.4665 C 17.1369269275384 12.4182 17.1486478236986 12.362400000000006 17.172089616019 12.2865 C 17.1955314083394 12.210600000000007 17.207252304499598 12.2181 17.23069409682 12.087 C 17.2541358891404 11.9559 17.2658567853006 11.7552 17.289298577621 11.631 C 17.3127403699414 11.506800000000002 17.3244612661016 11.631 17.347903058422 11.466 C 17.3713448507424 11.300999999999998 17.3830657469026 9.0765 17.406507539223 9.0765 C 17.4299493315434 9.0765 17.4416702277036 9.270899999998775 17.465112020024 9.414 C 17.488553812344 9.557099999998774 17.500274708504 9.792 17.523716500824 9.792 C 17.5471582931444 9.792 17.558879189304598 9.723 17.582320981625 9.723 C 17.6057627739454 9.723 17.6174836701056 9.807 17.640925462426 9.807 C 17.664367254746402 9.807 17.6760881509066 9.66 17.699529943227 9.66 C 17.7229717355474 9.66 17.7346926317076 9.858 17.758134424028 9.858 C 17.7815762163484 9.858 17.7932971125086 8.6265 17.816738904829 8.355 C 17.8401806971494 8.0835 17.8519015933096 8.238600000000002 17.87534338563 8.0835 C 17.8987851779504 7.928400000000001 17.9105060741106 7.5794999999999995 17.933947866431 7.5794999999999995 C 17.957389658751403 7.5794999999999995 17.9691105549116 8.4105 17.992552347232 8.4105 C 18.0159941395524 8.4105 18.0277150357126 7.872 18.051156828033 7.872 C 18.074598620353402 7.872 18.0863195165136 8.159999999999998 18.109761308834 8.19 C 18.1332031011544 8.22 18.1449239973146 8.22 18.168365789635 8.22 C 18.1918075819554 8.22 18.2035284781156 8.117999999999995 18.226970270436 8.046 C 18.2504120627564 7.973999999999993 18.262132958916602 7.859999999999999 18.285574751237 7.859999999999999 C 18.309016543557 7.859999999999999 18.320737439717 7.922999999999998 18.344179232037 7.922999999999998 C 18.3676210243574 7.922999999999998 18.3793419205176 7.8918 18.402783712838 7.6935 C 18.426225505158403 7.4952000000000005 18.4379464013186 7.106999999999999 18.461388193639 6.9315 C 18.4848299859594 6.756 18.4965508821196 6.793500000000002 18.51999267444 6.756 C 18.5434344667604 6.718499999999999 18.5551553629206 6.718499999999999 18.578597155241 6.718499999999999 C 18.6020389475614 6.718499999999999 18.613759843721603 8.917500000000002 18.637201636042 9.0225 C 18.6606434283624 9.1275 18.672364324522597 9.057299999999994 18.695806116843 9.1275 C 18.719247909163396 9.197699999999994 18.730968805323602 9.131400000000019 18.754410597644 9.3735 C 18.7778523899644 9.615600000000018 18.7895732861246 10.338 18.813015078445 10.338 C 18.8364568707654 10.338 18.848177766925602 9.022499999999999 18.871619559246 8.898 C 18.8950613515664 8.7735 18.906782247726603 8.8815 18.930224040047 8.7735 C 18.9536658323674 8.665500000000002 18.965386728527598 8.377500000000001 18.988828520848 8.358 C 19.012270313168397 8.3385 19.023991209328603 8.358 19.047433001649 8.3385 C 19.070874793969 8.318999999999999 19.082595690129 8.217 19.106037482449 8.217 C 19.129479274769402 8.217 19.1412001709296 8.408700000000001 19.16464196325 8.5035 C 19.188083755570396 8.5983 19.1998046517306 8.691 19.223246444051 8.691 C 19.2466882363714 8.691 19.258409132531604 8.306700000000001 19.281850924852 8.037 C 19.3052927171724 7.7673000000000005 19.3170136133326 7.342500000000001 19.340455405653 7.342500000000001 C 19.363897197973397 7.342500000000001 19.375618094133603 8.0925 19.399059886454 8.0925 C 19.422501678774402 8.0925 19.4342225749346 8.067900000000002 19.457664367255 7.9785 C 19.481106159575397 7.8891 19.4928270557356 7.708499999999997 19.516268848056 7.645499999999998 C 19.5397106403764 7.5825 19.5514315365366 7.5825 19.574873328857 7.5825 C 19.5983151211774 7.5825 19.6100360173376 7.771500000000003 19.633477809658 7.816500000000001 C 19.656919601978398 7.8614999999999995 19.668640498138597 7.816500000000001 19.692082290459 7.8614999999999995 C 19.7155240827794 7.906499999999998 19.7272449789396 8.09639999999999 19.75068677126 8.214 C 19.774128563580398 8.331599999999991 19.7858494597406 8.4495 19.809291252061 8.4495 C 19.8327330443814 8.4495 19.8444539405416 8.287500000000001 19.867895732862 8.271 C 19.891337525182003 8.2545 19.903058421342003 8.271 19.926500213662 8.2545 C 19.9499420059824 8.238 19.9616629021426 8.0415 19.985104694463 8.0415 C 20.0085464867834 8.0415 20.020267382943597 8.2005 20.043709175264 8.4435 C 20.0671509675844 8.6865 20.0788718637446 9.2565 20.102313656065 9.2565 C 20.125755448385398 9.2565 20.1374763445456 9.224400000000003 20.160918136866 9.177 C 20.1843599291864 9.129600000000003 20.196080825346602 9.15089999999999 20.219522617667 9.0195 C 20.2429644099874 8.88809999999999 20.2546853061476 8.655900000000011 20.278127098468 8.52 C 20.3015688907884 8.384100000000009 20.313289786948598 8.391900000000001 20.336731579269 8.34 C 20.3601733715894 8.2881 20.3718942677496 8.286900000000003 20.39533606007 8.2605 C 20.4187778523904 8.234100000000003 20.430498748550598 8.208 20.453940540871 8.208 C 20.4773823331914 8.208 20.4891032293516 8.234700000000002 20.512545021672 8.2695 C 20.535986813992402 8.304300000000001 20.5477077101526 8.290500000000007 20.571149502473 8.382 C 20.5945912947934 8.473500000000007 20.6063121909536 8.727 20.629753983274 8.727 C 20.6531957755944 8.727 20.6649166717546 8.585400000000611 20.688358464075 8.514 C 20.711800256395 8.44260000000061 20.723521152555 8.37 20.746962944875 8.37 C 20.7704047371954 8.37 20.782125633355598 8.4588 20.805567425676 8.55 C 20.8290092179964 8.641200000000001 20.8407301141566 8.826 20.864171906477 8.826 C 20.887613698797402 8.826 20.8993345949576 8.708999999999994 20.922776387278 8.628 C 20.9462181795984 8.546999999999993 20.9579390757586 8.421 20.981380868079 8.421 C 21.0048226603994 8.421 21.0165435565596 8.421 21.03998534888 8.457 C 21.0634271412004 8.493000000000002 21.0751480373606 8.598 21.098589829681 8.6445 C 21.1220316220014 8.691 21.1337525181616 8.6445 21.157194310482 8.691 C 21.180636102802403 8.7375 21.1923569989626 9.06 21.215798791283 9.06 C 21.2392405836034 9.06 21.2509614797636 8.7555 21.274403272084 8.7555 C 21.297845064404402 8.7555 21.3095659605646 9.115800000000023 21.333007752885 9.3945 C 21.3564495452054 9.673200000000021 21.3681704413656 10.149 21.391612233686 10.149 C 21.4150540260064 10.149 21.4267749221666 10.02 21.450216714487 10.02 C 21.4736585068074 10.02 21.485379402967602 10.0545 21.508821195288 10.0545 C 21.532262987608 10.0545 21.543983883768 9.93599999999941 21.567425676088 9.867 C 21.5908674684084 9.797999999999409 21.6025883645686 9.779100000000001 21.626030156889 9.7095 C 21.649471949209403 9.6399 21.6611928453696 9.519 21.68463463769 9.519 C 21.7080764300104 9.519 21.7197973261706 9.5205 21.743239118491 9.5205 C 21.7666809108114 9.5205 21.7784018069716 9.0015 21.801843599292 9.0015 C 21.8252853916124 9.0015 21.837006287772603 9.0015 21.860448080093 9.075 C 21.883889872413402 9.148499999999999 21.895610768573597 10.1895 21.919052560894 10.1895 C 21.942494353214396 10.1895 21.954215249374602 9.612 21.977657041695 9.612 C 22.0010988340154 9.612 22.0128197301756 9.9405 22.036261522496 9.9405 C 22.0597033148164 9.9405 22.071424210976602 9.48389999999998 22.094866003297 9.2325 C 22.1183077956174 8.98109999999998 22.130028691777603 9.2325 22.153470484098 8.6835 C 22.176912276418403 8.134500000000001 22.188633172578598 4.651499999999999 22.212074964899 4.651499999999999 C 22.235516757219397 4.651499999999999 22.247237653379603 7.516500000000001 22.2706794457 7.516500000000001 C 22.294121238020402 7.516500000000001 22.305842134180597 6.94380000000215 22.329283926501 6.693000000000001 C 22.352725718821 6.442200000002147 22.364446614981 6.494699999998029 22.387888407301 6.262499999999999 C 22.411330199621396 6.030299999998028 22.4230510957816 5.532 22.446492888102 5.532 C 22.4699346804224 5.532 22.481655576582604 5.759100000000015 22.505097368903 5.9445000000000014 C 22.528539161223403 6.129900000000015 22.5402600573836 6.459 22.563701849704 6.459 C 22.587143642024397 6.459 22.598864538184603 6.043500000000002 22.622306330505 6.043500000000002 C 22.645748122825403 6.043500000000002 22.657469018985598 6.070799999999998 22.680910811306 6.0885 C 22.704352603626397 6.106199999999998 22.7160734997866 6.107399999999999 22.739515292107 6.1320000000000014 C 22.7629570844274 6.156599999999999 22.7746779805876 6.211500000000001 22.798119772908 6.211500000000001 C 22.8215615652284 6.211500000000001 22.8332824613886 5.911200000000022 22.856724253709 5.622 C 22.880166046029398 5.332800000000022 22.891886942189597 4.765499999999999 22.91532873451 4.765499999999999 C 22.9387705268304 4.765499999999999 22.9504914229906 5.5440000000000005 22.973933215311 5.5440000000000005 C 22.997375007631398 5.5440000000000005 23.0090959037916 5.202000000000002 23.032537696112 5.202000000000002 C 23.0559794884324 5.202000000000002 23.0677003845926 5.247 23.091142176913 5.247 C 23.1145839692334 5.247 23.1263048653936 5.042999999999999 23.149746657714 5.042999999999999 C 23.173188450034 5.042999999999999 23.184909346194 5.281500000000001 23.208351138514 5.281500000000001 C 23.2317929308344 5.281500000000001 23.243513826994597 5.275800000000001 23.266955619315 5.178000000000001 C 23.2903974116354 5.0802000000000005 23.3021183077956 4.7925 23.325560100116 4.7925 C 23.349001892436398 4.7925 23.360722788596597 4.8876 23.384164580917 5.1615 C 23.4076063732374 5.4354 23.4193272693976 6.119999999999997 23.442769061718 6.161999999999999 C 23.4662108540384 6.204000000000001 23.4779317501986 6.161999999999999 23.501373542519 6.204000000000001 C 23.5248153348394 6.246000000000002 23.536536230999598 6.775500000000001 23.55997802332 6.775500000000001 C 23.5834198156404 6.775500000000001 23.5951407118006 6.586500000000001 23.618582504121 6.586500000000001 C 23.6420242964414 6.586500000000001 23.653745192601598 6.639599999999999 23.677186984922 6.719999999999999 C 23.7006287772424 6.800399999999998 23.7123496734026 6.811499999999998 23.735791465723 6.988499999999998 C 23.759233258043402 7.1655 23.7709541542036 7.605 23.794395946524 7.605 C 23.8178377388444 7.605 23.8295586350046 5.320499999999999 23.853000427325 5.320499999999999 C 23.8764422196454 5.320499999999999 23.8881631158056 5.582999999999998 23.911604908126 5.599499999999999 C 23.9350467004464 5.616 23.9467675966066 5.599499999999999 23.970209388927 5.616 C 23.993651181246996 5.6325 24.005372077406996 5.7044999999999995 24.028813869727 5.7044999999999995 C 24.0522556620474 5.7044999999999995 24.0639765582076 5.532 24.087418350528 5.532 C 24.110860142848402 5.532 24.1225810390086 5.7315000000000165 24.146022831329 5.968499999999999 C 24.1694646236494 6.205500000000017 24.1811855198096 6.595499999999998 24.20462731213 6.716999999999999 C 24.2280691044504 6.8385 24.2397900006106 6.8385 24.263231792931 6.8385 C 24.2866735852514 6.8385 24.2983944814116 6.583499999999999 24.321836273732 6.440999999999999 C 24.3452780660524 6.298499999999999 24.3569989622126 6.126000000000001 24.380440754533 6.126000000000001 C 24.403882546853403 6.126000000000001 24.4156034430136 6.433499999999999 24.439045235334 6.433499999999999 C 24.4624870276544 6.433499999999999 24.4742079238146 6.433499999999999 24.497649716135 6.406500000000001 C 24.521091508455402 6.379500000000004 24.5328124046156 5.907 24.556254196936 5.907 C 24.5796959892564 5.907 24.5914168854166 6.640499999999999 24.614858677737 6.640499999999999 C 24.6383004700574 6.640499999999999 24.6500213662176 6.559199999999996 24.673463158538 6.529499999999999 C 24.6969049508584 6.499799999999997 24.708625847018602 6.507899999999999 24.732067639339 6.492000000000001 C 24.7555094316594 6.476100000000001 24.7672303278196 6.449999999999999 24.79067212014 6.449999999999999 C 24.81411391246 6.449999999999999 24.82583480862 6.527999999999999 24.84927660094 6.527999999999999 C 24.872718393260403 6.527999999999999 24.8844392894206 6.518999999999998 24.907881081741 6.518999999999998 C 24.9313228740614 6.518999999999998 24.9430437702216 6.6615 24.966485562542 6.6615 C 24.9899273548624 6.6615 25.0016482510226 6.422699999999993 25.025090043343 6.310500000000001 C 25.0485318356634 6.198299999999992 25.060252731823603 6.1005 25.083694524144 6.1005 C 25.107136316464402 6.1005 25.118857212624597 6.194399999999999 25.142299004945 6.231000000000002 C 25.165740797265396 6.267599999999999 25.177461693425602 6.2835 25.200903485746 6.2835 C 25.2243452780664 6.2835 25.2360661742266 6.222000000000001 25.259507966547 6.222000000000001 C 25.2829497588674 6.222000000000001 25.294670655027602 6.318000000000004 25.318112447348 6.3705 C 25.3415542396684 6.423000000000004 25.353275135828603 6.484500000000001 25.376716928149 6.484500000000001 C 25.400158720469403 6.484500000000001 25.411879616629598 6.4695 25.43532140895 6.4695 C 25.458763201270397 6.4695 25.470484097430603 6.4695 25.493925889751 6.510000000000002 C 25.517367682071402 6.550500000000003 25.529088578231597 6.828599999998927 25.552530370552 6.954000000000001 C 25.575972162872 7.079399999998927 25.587693059032 7.1370000000000005 25.611134851352 7.1370000000000005 C 25.634576643672396 7.1370000000000005 25.646297539832595 7.106999999999999 25.669739332153 7.106999999999999 C 25.693181124473405 7.106999999999999 25.704902020633604 7.346999999999998 25.728343812954 7.381499999999999 C 25.751785605274403 7.416 25.7635065014346 7.393499999999998 25.786948293755 7.416 C 25.810390086075397 7.4384999999999994 25.822110982235603 7.416 25.845552774556 7.494 C 25.868994566876403 7.571999999999999 25.880715463036598 7.799099999999976 25.904157255357 8.115 C 25.927599047677397 8.430899999999976 25.939319943837596 8.742599999999948 25.962761736158 9.0735 C 25.9862035284784 9.40439999999995 25.997924424638597 9.4281 26.021366216959 9.7695 C 26.0448080092794 10.1109 26.0565289054396 10.7805 26.07997069776 10.7805 C 26.103412490080398 10.7805 26.115133386240597 10.605 26.138575178561 10.605 C 26.1620169708814 10.605 26.1737378670416 10.6815 26.197179659362 10.6815 C 26.220621451682398 10.6815 26.232342347842597 10.641 26.255784140163 10.641 C 26.2792259324834 10.641 26.290946828643598 10.658100000000001 26.314388620964 10.7565 C 26.3378304132844 10.8549 26.3495513094446 10.7565 26.372993101765 11.133 C 26.396434894085 11.509499999999997 26.408155790245 12.405 26.431597582565 12.684 C 26.4550393748854 12.963 26.466760271045597 12.963 26.490202063366 12.963 C 26.5136438556864 12.963 26.5253647518466 12.552 26.548806544167 12.552 C 26.572248336487398 12.552 26.583969232647597 12.75 26.607411024968 12.8415 C 26.6308528172884 12.933 26.6425737134486 13.0095 26.666015505769 13.0095 C 26.6894572980894 13.0095 26.7011781942496 12.912 26.72461998657 12.912 C 26.7480617788904 12.912 26.759782675050598 13.0395 26.783224467371 13.0395 C 26.8066662596914 13.0395 26.8183871558516 12.5775 26.841828948172 12.5775 C 26.8652707404924 12.5775 26.876991636652598 12.918 26.900433428973 12.918 C 26.9238752212934 12.918 26.9355961174536 12.786 26.959037909774 12.786 C 26.982479702094402 12.786 26.9942005982546 12.786 27.017642390575 12.801 C 27.0410841828954 12.816 27.0528050790556 12.9186 27.076246871376 13.0215 C 27.0996886636964 13.1244 27.1114095598566 13.20779999999999 27.134851352177 13.3155 C 27.1582931444974 13.423199999999992 27.1700140406576 13.56 27.193455832978 13.56 C 27.216897625297996 13.56 27.228618521457996 13.158599999998684 27.252060313778 13.0035 C 27.2755021060984 12.848399999998684 27.2872230022586 12.7845 27.310664794579 12.7845 C 27.334106586899402 12.7845 27.3458274830596 12.834 27.36926927538 12.834 C 27.3927110677004 12.834 27.4044319638606 11.847 27.427873756181 11.847 C 27.4513155485014 11.847 27.4630364446616 11.847 27.486478236982 11.847 C 27.5099200293024 11.847 27.5216409254626 11.8428 27.545082717783 11.8155 C 27.5685245101034 11.7882 27.5802454062636 11.7522 27.603687198584 11.7105 C 27.627128990904403 11.6688 27.6388498870646 11.641799999999996 27.662291679385 11.607 C 27.6857334717054 11.572199999999997 27.6974543678656 11.5365 27.720896160186 11.5365 C 27.744337952506402 11.5365 27.7560588486666 11.539200000000003 27.779500640987 11.5755 C 27.8029424333074 11.611800000000002 27.8146633294676 11.6955 27.838105121788 11.718 C 27.861546914108395 11.7405 27.8732678102686 11.718 27.896709602589 11.7405 C 27.920151394909396 11.763000000000002 27.931872291069602 12.583499999999999 27.95531408339 12.603 C 27.9787558757104 12.6225 27.9904767718706 12.605099999999853 28.013918564191 12.6225 C 28.037360356510998 12.639899999999853 28.049081252670998 12.69 28.072523044991 12.69 C 28.095964837311403 12.69 28.1076857334716 12.60959999999999 28.131127525792 12.468 C 28.1545693181124 12.326399999999989 28.1662902142726 12.11640000000002 28.189732006593 11.982 C 28.213173798913395 11.84760000000002 28.2248946950736 11.8827 28.248336487394 11.796 C 28.271778279714397 11.709299999999999 28.283499175874603 11.629499999999995 28.306940968195 11.5485 C 28.330382760515402 11.467499999999994 28.3421036566756 11.463000000000001 28.365545448996 11.391 C 28.388987241316396 11.318999999999999 28.400708137476602 11.349899999999987 28.424149929797 11.1885 C 28.4475917221174 11.027099999999988 28.4593126182776 10.584 28.482754410598 10.584 C 28.506196202918396 10.584 28.517917099078602 10.663200000000002 28.541358891399 10.7385 C 28.564800683719398 10.8138 28.576521579879604 10.9515 28.5999633722 10.9605 C 28.623405164520403 10.9695 28.6351260606806 10.9695 28.658567853001 10.9695 C 28.682009645321397 10.9695 28.693730541481603 10.809 28.717172333802 10.809 C 28.7406141261224 10.809 28.752335022282598 10.989 28.775776814603 11.022 C 28.799218606923397 11.055 28.810939503083603 11.055 28.834381295404 11.055 C 28.857823087724 11.055 28.869543983884 9.961500000000001 28.892985776204 9.9525 C 28.916427568524398 9.9435 28.928148464684604 9.9435 28.951590257005 9.9435 C 28.975032049325403 9.9435 28.986752945485602 10.0335 29.010194737806 10.0335 C 29.033636530126397 10.0335 29.045357426286603 10.0335 29.068799218607 10.026 C 29.0922410109274 10.0185 29.103961907087598 9.952200000000012 29.127403699408 9.804 C 29.150845491728397 9.655800000000012 29.162566387888603 9.707099999999999 29.186008180209 9.285 C 29.2094499725294 8.8629 29.221170868689605 7.962 29.24461266101 7.6935 C 29.2680544533304 7.425000000000001 29.2797753494906 7.425000000000001 29.303217141811 7.425000000000001 C 29.326658934131398 7.425000000000001 29.338379830291597 7.425000000000001 29.361821622612 7.797000000000001 C 29.3852634149324 8.169 29.3969843110926 8.887799999999942 29.420426103413 9.6615 C 29.443867895733398 10.435199999999941 29.455588791893604 11.337 29.479030584214 11.6655 C 29.5024723765344 11.994 29.514193272694605 11.994 29.537635065015 11.994 C 29.5610768573354 11.994 29.5727977534956 11.7195 29.596239545816 11.7195 C 29.6196813381364 11.7195 29.631402234296598 11.86769999999609 29.654844026617 12.3285 C 29.678285818937002 12.789299999996087 29.690006715097002 14.0235 29.713448507417 14.0235 C 29.7368902997374 14.0235 29.7486111958976 13.911 29.772052988218 13.911 C 29.795494780538398 13.911 29.807215676698597 14.5755 29.830657469019 14.5755 C 29.8540992613394 14.5755 29.8658201574996 14.49 29.88926194982 14.49 C 29.9127037421404 14.49 29.9244246383006 14.658 29.947866430621 14.658 C 29.9713082229414 14.658 29.983029119101598 14.2665 30.006470911422 14.2665 C 30.0299127037424 14.2665 30.0416335999026 14.808 30.065075392223 14.808 C 30.0885171845434 14.808 30.100238080703598 14.4285 30.123679873024 14.4285 C 30.1471216653444 14.4285 30.1588425615046 14.4621 30.182284353825 14.514 C 30.205726146145402 14.5659 30.2174470423056 14.688 30.240888834626 14.688 C 30.2643306269464 14.688 30.2760515231066 14.467500000000001 30.299493315427 14.4015 C 30.3229351077474 14.3355 30.3346560039076 14.3355 30.358097796228 14.3355 C 30.3815395885484 14.3355 30.3932604847086 14.844 30.416702277029 14.844 C 30.4401440693494 14.844 30.4518649655096 14.787 30.47530675783 14.787 C 30.498748550150005 14.787 30.510469446310005 14.848800000000193 30.53391123863 14.871 C 30.557353030950402 14.893200000000192 30.5690739271106 14.871300000000003 30.592515719431 14.898 C 30.6159575117514 14.924700000000001 30.6276784079116 15.0045 30.651120200232 15.0045 C 30.674561992552402 15.0045 30.6862828887126 14.6775 30.709724681033 14.6775 C 30.7331664733534 14.6775 30.7448873695136 14.784 30.768329161834 14.784 C 30.7917709541544 14.784 30.8034918503146 14.751 30.826933642635 14.751 C 30.850375434955403 14.751 30.862096331115602 14.814 30.885538123436 14.814 C 30.9089799157564 14.814 30.9207008119166 14.796 30.944142604237 14.796 C 30.967584396557402 14.796 30.9793052927176 14.853000000000005 31.002747085038 14.9115 C 31.0261888773584 14.970000000000004 31.0379097735186 14.922600000000001 31.061351565839 15.0885 C 31.084793358159402 15.2544 31.0965142543196 15.564000000000027 31.11995604664 15.741 C 31.143397838960404 15.918000000000026 31.155118735120602 15.9735 31.178560527441 15.9735 C 31.2020023197614 15.9735 31.213723215921597 15.78 31.237165008242 15.78 C 31.260606800561998 15.78 31.272327696721998 15.9285 31.295769489042 15.9285 C 31.319211281362403 15.9285 31.3309321775226 15.888299999999997 31.354373969843 15.8505 C 31.3778157621634 15.812699999999998 31.3895366583236 15.771899999999999 31.412978450644 15.7395 C 31.436420242964402 15.7071 31.4481411391246 15.7395 31.471582931445 15.6885 C 31.495024723765404 15.6375 31.506745619925603 15.2205 31.530187412246 15.2205 C 31.553629204566402 15.2205 31.565350100726597 15.705 31.588791893047 15.705 C 31.612233685367396 15.705 31.623954581527602 15.206099999999987 31.647396373848 15.0105 C 31.6708381661684 14.814899999999986 31.6825590623286 14.8893 31.706000854649 14.727 C 31.729442646969403 14.5647 31.741163543129602 14.199 31.76460533545 14.199 C 31.788047127770405 14.199 31.799768023930604 14.4885 31.823209816251 14.4885 C 31.846651608571403 14.4885 31.858372504731598 14.423700000000002 31.881814297052 14.3955 C 31.905256089372397 14.367300000000002 31.916976985532603 14.3475 31.940418777853 14.3475 C 31.963860570173402 14.3475 31.999023258654 14.8635 31.999023258654 14.8635" stroke-linecap="round" />
</g>
		<g transform="matrix(1 0 0 1 0 -3.64)" style=""  >
		<text xml:space="preserve" font-family="'Lucida Grande', 'Lucida Sans Unicode', Arial, Helvetica, sans-serif" font-size="18" font-style="normal" font-weight="normal" style="stroke: none; stroke-width: 1; stroke-dasharray: none; stroke-linecap: butt; stroke-dashoffset: 0; stroke-linejoin: miter; stroke-miterlimit: 4; fill: rgb(51,51,51); fill-rule: nonzero; opacity: 1; white-space: pre;" ></text>
</g>
		<g transform="matrix(1 0 0 1 0 -1.76)" style=""  >
		<text xml:space="preserve" font-family="'Lucida Grande', 'Lucida Sans Unicode', Arial, Helvetica, sans-serif" font-size="12" font-style="normal" font-weight="normal" style="stroke: none; stroke-width: 1; stroke-dasharray: none; stroke-linecap: butt; stroke-dashoffset: 0; stroke-linejoin: miter; stroke-miterlimit: 4; fill: rgb(102,102,102); fill-rule: nonzero; opacity: 1; white-space: pre;" ></text>
</g>
		<g transform="matrix(1 0 0 1 -15 20.24)" style=""  >
		<text xml:space="preserve" font-family="'Lucida Grande', 'Lucida Sans Unicode', Arial, Helvetica, sans-serif" font-size="12" font-style="normal" font-weight="normal" style="stroke: none; stroke-width: 1; stroke-dasharray: none; stroke-linecap: butt; stroke-dashoffset: 0; stroke-linejoin: miter; stroke-miterlimit: 4; fill: rgb(102,102,102); fill-rule: nonzero; opacity: 1; white-space: pre;" ></text>
</g>
</g>
</g>
</svg>