<?xml version="1.0" encoding="UTF-8" standalone="no" ?>
<!DOCTYPE svg PUBLIC "-//W3C//DTD SVG 1.1//EN" "http://www.w3.org/Graphics/SVG/1.1/DTD/svg11.dtd">
<svg xmlns="http://www.w3.org/2000/svg" xmlns:xlink="http://www.w3.org/1999/xlink" version="1.1" width="1080" height="1080" viewBox="0 0 1080 1080" xml:space="preserve">
<desc>Created with Fabric.js 5.2.4</desc>
<defs>
</defs>
<g transform="matrix(1 0 0 1 540 540)" id="bd7ba09e-b9cb-41ed-b636-f2b030e87676"  >
<rect style="stroke: none; stroke-width: 1; stroke-dasharray: none; stroke-linecap: butt; stroke-dashoffset: 0; stroke-linejoin: miter; stroke-miterlimit: 4; fill: rgb(255,255,255); fill-rule: nonzero; opacity: 1; visibility: hidden;" vector-effect="non-scaling-stroke"  x="-540" y="-540" rx="0" ry="0" width="1080" height="1080" />
</g>
<g transform="matrix(1 0 0 1 540 540)" id="9707353e-efcf-438c-b548-fb6ee3a29ea2"  >
</g>
<g transform="matrix(33.75 0 0 33.75 540 540)"  >
<g style=""   >
		<g transform="matrix(1 0 0 1 0 0)"  >
<rect style="stroke: none; stroke-width: 1; stroke-dasharray: none; stroke-linecap: butt; stroke-dashoffset: 0; stroke-linejoin: miter; stroke-miterlimit: 4; fill: none; fill-rule: nonzero; opacity: 1;" vector-effect="non-scaling-stroke"  x="-16" y="-12" rx="0" ry="0" width="32" height="24" />
</g>
		<g transform="matrix(1 0 0 1 0 0)"  >
<rect style="stroke: none; stroke-width: 1; stroke-dasharray: none; stroke-linecap: butt; stroke-dashoffset: 0; stroke-linejoin: miter; stroke-miterlimit: 4; fill: none; fill-rule: nonzero; opacity: 1;" vector-effect="non-scaling-stroke"  x="-16" y="-12" rx="0" ry="0" width="32" height="24" />
</g>
		<g transform="matrix(1 0 0 1 0 0)"  >
<rect style="stroke: none; stroke-width: 1; stroke-dasharray: none; stroke-linecap: butt; stroke-dashoffset: 0; stroke-linejoin: miter; stroke-miterlimit: 4; fill: none; fill-rule: nonzero; opacity: 1;" vector-effect="non-scaling-stroke"  x="-16" y="-12" rx="0" ry="0" width="32" height="24" />
</g>
		<g transform="matrix(1 0 0 1 0 -1.15)" clip-path="url(#CLIPPATH_3)"  >
<clipPath id="CLIPPATH_3" >
	<rect transform="matrix(1 0 0 1 0 1.15)" id="highcharts-b73mifp-7940-" x="-16" y="-12" rx="0" ry="0" width="32" height="24" />
</clipPath>
<path style="stroke: rgb(24,220,166); stroke-width: 2; stroke-dasharray: none; stroke-linecap: round; stroke-dashoffset: 0; stroke-linejoin: round; stroke-miterlimit: 4; fill: none; fill-rule: nonzero; opacity: 1;" vector-effect="non-scaling-stroke"  transform=" translate(-16, -10.85)" d="M 0.0021077591885127 18 C 0.0021077591885127 18 0.07798708997496709 18 0.12857331049927 18 C 0.179159531023578 18 0.204452641285732 18 0.25503886181004 18 C 0.305625082334344 18 0.330918192596496 18 0.3815044131208 18 C 0.432090633645104 18 0.457383743907256 18 0.50796996443156 18 C 0.558556184955864 18 0.583849295218016 18.00075 0.63443551574232 18.00075 C 0.685021736266628 18.00075 0.7103148465287821 18.00075 0.76090106705309 18.00075 C 0.8114872875773941 18.00075 0.836780397839546 18.00075 0.88736661836385 18.00075 C 0.93795283888815 18.00075 0.9632459491502999 18.00075 1.0138321696746 18.00075 C 1.06441839019892 18.00075 1.08971150046108 18.134999999999998 1.1402977209854 18.137999999999998 C 1.19088394150968 18.141 1.21617705177182 18.137999999999998 1.2667632722961 18.141 C 1.31734949282042 18.144 1.34264260308258 18.869999999999997 1.3932288236069 18.886499999999998 C 1.4438150441312199 18.903 1.4691081543933802 18.903 1.5196943749177 18.903 C 1.57028059544198 18.903 1.5955737057041202 18.903 1.6461599262284 18.903 C 1.69674614675272 18.903 1.72203925701488 18.911849999999994 1.7726254775392 18.9165 C 1.82321169806348 18.921149999999997 1.84850480832562 18.9228 1.8990910288499 18.92625 C 1.9496772493742198 18.9297 1.9749703596363801 18.931050000000003 2.0255565801607 18.93375 C 2.07614280068502 18.93645 2.10143591094718 18.93975 2.1520221314715 18.93975 C 2.20260835199578 18.93975 2.2279014622579196 18.93975 2.2784876827822 18.93975 C 2.32907390330652 18.93975 2.35436701356868 18.9393 2.404953234093 18.93825 C 2.45553945461732 18.937199999999997 2.48083256487948 18.9345 2.5314187854038 18.9345 C 2.5820050059280804 18.9345 2.60729811619022 18.9345 2.6578843367145 18.9345 C 2.70847055723882 18.9345 2.73376366750098 18.93825 2.7843498880253 18.93825 C 2.83493610854958 18.93825 2.86022921881172 18.257999999999996 2.910815439336 18.224249999999998 C 2.96140165986032 18.1905 2.9866947701224804 18.224249999999998 3.0372809906468 18.1905 C 3.0878672111711203 18.156750000000002 3.1131603214332797 18.046500000000048 3.1637465419576 17.928 C 3.2143327624818796 17.809500000000046 3.23962587274402 17.633999999999997 3.2902120932683 17.598 C 3.3407983137926203 17.562 3.3660914240547797 17.598 3.4166776445791 17.562 C 3.46726386510342 17.526000000000003 3.49255697536558 17.30175 3.5431431958899 17.30175 C 3.5937294164141798 17.30175 3.61902252667632 17.30175 3.6696087472006 17.30175 C 3.7201949677249195 17.30175 3.74548807798708 17.30175 3.7960742985114 17.30175 C 3.84666051903568 17.30175 3.8719536292978196 17.30475 3.9225398498221 17.30475 C 3.97312607034642 17.30475 3.9984191806085803 17.28075 4.0490054011329 17.28075 C 4.09959162165722 17.28075 4.12488473191938 17.2815 4.1754709524437 17.2815 C 4.2260571729679794 17.2815 4.25135028323012 17.103749999999998 4.3019365037544 17.06025 C 4.352522724278719 17.016750000000002 4.37781583454088 17.0277 4.4284020550652 17.016750000000002 C 4.47898827558952 17.0058 4.504281385851679 17.005499999999998 4.554867606376 17.005499999999998 C 4.60545382690028 17.005499999999998 4.630746937162419 17.005499999999998 4.6813331576867 17.005499999999998 C 4.731919378211019 17.005499999999998 4.75721248847318 17.005499999999998 4.8077987089975 16.9995 C 4.8583849295217805 16.993500000000004 4.883678039783919 16.96275 4.9342642603082 16.96275 C 4.984850480832519 16.96275 5.01014359109468 16.96275 5.060729811619 16.96275 C 5.1113160321433195 16.96275 5.13660914240548 16.96275 5.1871953629298 16.96275 C 5.23778158345408 16.96275 5.26307469371622 16.9635 5.3136609142405 16.9635 C 5.3642471347648195 16.9635 5.38954024502698 16.962 5.4401264655513 16.962 C 5.49071268607562 16.962 5.51600579633778 16.96275 5.5665920168621 16.96275 C 5.617178237386381 16.96275 5.642471347648519 16.9485 5.6930575681728 16.94625 C 5.74364378869712 16.944 5.76893689895928 16.94475 5.8195231194836 16.944 C 5.870109340007881 16.94325 5.89540245027002 16.9425 5.9459886707943 16.9425 C 5.9965748913186205 16.9425 6.0218680015807795 16.9425 6.0724542221051 16.9425 C 6.12304044262942 16.9425 6.148333552891581 16.8525 6.1989197734159 16.8525 C 6.24950599394018 16.8525 6.27479910420232 16.8555 6.3253853247266 16.8555 C 6.37597154525092 16.8555 6.40126465551308 16.815 6.4518508760374 16.815 C 6.502437096561721 16.815 6.527730206823881 16.815 6.5783164273482 16.815 C 6.628902647872481 16.815 6.65419575813462 16.848 6.7047819786589 16.848 C 6.755368199183221 16.848 6.780661309445381 16.84575 6.8312475299697 16.84575 C 6.88183375049402 16.84575 6.907126860756181 16.84575 6.9577130812805 16.84575 C 7.00829930180478 16.84575 7.033592412066921 16.8555 7.0841786325912 16.8555 C 7.13476485311552 16.8555 7.16005796337768 16.61925 7.210644183902 16.61925 C 7.26123040442628 16.61925 7.286523514688421 16.62075 7.3371097352127 16.62075 C 7.38769595573702 16.62075 7.41298906599918 16.569 7.4635752865235 16.569 C 7.514161507047819 16.569 7.53945461730998 16.62825 7.5900408378343 16.62825 C 7.64062705835858 16.62825 7.66592016862072 16.62825 7.716506389145 16.62825 C 7.767092609669319 16.62825 7.792385719931479 16.62825 7.8429719404558 16.623 C 7.89355816098012 16.61775 7.91885127124228 16.563 7.9694374917666 16.563 C 8.02002371229088 16.563 8.04531682255302 16.5657 8.0959030430773 16.56675 C 8.14648926360162 16.5678 8.171782373863781 16.56825 8.2223685943881 16.56825 C 8.272954814912381 16.56825 8.29824792517452 16.567199999999996 8.3488341456988 16.56 C 8.39942036622312 16.552799999999994 8.42471347648528 16.53225 8.4752996970096 16.53225 C 8.52588591753392 16.53225 8.55117902779608 16.533 8.6017652483204 16.533 C 8.65235146884468 16.533 8.67764457910682 16.52775 8.7282307996311 16.52775 C 8.77881702015542 16.52775 8.80411013041758 16.569 8.8546963509419 16.569 C 8.90528257146622 16.569 8.93057568172838 16.5015 8.9811619022527 16.5015 C 9.031748122776978 16.5015 9.057041233039119 16.50225 9.1076274535634 16.50225 C 9.158213674087719 16.50225 9.183506784349879 16.469550000000005 9.2340930048742 16.457250000000002 C 9.284679225398481 16.44495000000001 9.309972335660621 16.457250000000002 9.3605585561849 16.44075 C 9.41114477670922 16.42425 9.43643788697138 15.8205 9.4870241074957 15.78525 C 9.537610328020019 15.75 9.56290343828218 15.75825 9.6134896588065 15.75 C 9.664075879330781 15.74175 9.68936898959292 15.74175 9.7399552101172 15.74175 C 9.79054143064152 15.74175 9.81583454090368 16.008 9.866420761428 16.008 C 9.917006981952321 16.008 9.94230009221448 15.99225 9.9928863127388 15.99225 C 10.04347253326328 15.99225 10.06876564352552 15.99225 10.11935186405 15.993 C 10.169938084574401 15.99375 10.1952311948366 16.00125 10.245817415361 16.00125 C 10.296403635885401 16.00125 10.3216967461476 15.98625 10.372282966672 15.98625 C 10.422869187196 15.98625 10.448162297458 16.042500000000004 10.498748517982 16.0575 C 10.5493347385064 16.072499999999998 10.5746278487686 16.05945 10.625214069293 16.072499999999998 C 10.6758002898174 16.085549999999998 10.7010934000796 16.12275 10.751679620604 16.12275 C 10.8022658411284 16.12275 10.8275589513906 15.597750000000001 10.878145171915 15.444 C 10.928731392439 15.29025 10.954024502701 15.370049999999685 11.004610723225 15.29025 C 11.055196943749399 15.210449999999685 11.0804900540116 15.045 11.131076274536 15.045 C 11.181662495060399 15.045 11.2069556053226 15.0555 11.257541825847 15.0555 C 11.3081280463714 15.0555 11.3334211566336 14.76225 11.384007377158 14.76225 C 11.434593597682 14.76225 11.459886707944 14.76225 11.510472928468 14.76225 C 11.561059148992399 14.76225 11.5863522592546 14.748299999999999 11.636938479779 14.72025 C 11.687524700303399 14.6922 11.7128178105656 14.6712 11.76340403109 14.622 C 11.813990251614399 14.572799999999999 11.8392833618766 14.47425 11.889869582401 14.47425 C 11.940455802925 14.47425 11.965748913187 14.47425 12.016335133711 14.47425 C 12.0669213542354 14.47425 12.0922144644976 14.478 12.142800685022 14.478 C 12.1933869055464 14.478 12.2186800158086 14.32275 12.269266236333 14.32275 C 12.3198524568574 14.32275 12.3451455671196 14.57175 12.395731787644 14.58075 C 12.4463180081684 14.58975 12.4716111184306 14.58075 12.522197338955 14.58975 C 12.572783559479001 14.59875 12.598076669741 15.598500000000001 12.648662890265 15.7125 C 12.699249110789399 15.8265 12.724542221051598 15.8265 12.775128441576 15.8265 C 12.825714662100399 15.8265 12.851007772362598 15.740250000000001 12.901593992887 15.711 C 12.952180213411399 15.68175 12.977473323673598 15.68025 13.028059544198 15.68025 C 13.078645764722001 15.68025 13.103938874984 15.74175 13.154525095508 15.74175 C 13.2051113160324 15.74175 13.230404426294598 15.3465 13.280990646819 15.339 C 13.331576867343397 15.3315 13.356869977605601 15.3315 13.40745619813 15.3315 C 13.4580424186544 15.3315 13.483335528916598 15.428549999999609 13.533921749441 15.52725 C 13.584507969965 15.62594999999961 13.609801080226998 15.825 13.660387300751 15.825 C 13.7109735212754 15.825 13.7362666315376 15.79875 13.786852852062 15.79875 C 13.8374390725864 15.79875 13.8627321828486 15.799650000000002 13.913318403373 15.801 C 13.9639046238974 15.80235 13.9891977341596 15.8055 14.039783954684 15.8055 C 14.090370175208 15.8055 14.115663285469997 15.64499999999963 14.166249505994 15.55125 C 14.2168357265184 15.45749999999963 14.242128836780598 15.447300000000006 14.292715057305 15.33675 C 14.343301277829397 15.226200000000004 14.3685943880916 14.9985 14.419180608616 14.9985 C 14.4697668291404 14.9985 14.495059939402598 15.0135 14.545646159927 15.0135 C 14.596232380451 15.0135 14.621525490712997 14.87775 14.672111711237 14.87625 C 14.722697931761399 14.87475 14.7479910420236 14.875200000000001 14.798577262548 14.87475 C 14.849163483072399 14.874300000000002 14.8744565933346 14.87475 14.925042813859 14.874 C 14.975629034383399 14.87325 15.0009221446456 14.67975 15.05150836517 14.67375 C 15.102094585694399 14.66775 15.1273876959566 14.66775 15.177973916481 14.66775 C 15.228560137005 14.66775 15.253853247267 14.811900000000346 15.304439467791 14.8995 C 15.355025688315399 14.987100000000346 15.3803187985776 15.10575 15.430905019102 15.10575 C 15.481491239626399 15.10575 15.5067843498886 14.974950000000002 15.557370570413 14.67975 C 15.607956790937399 14.384549999999999 15.6332499011996 13.62975 15.683836121724 13.62975 C 15.734422342248 13.62975 15.75971545251 13.635 15.810301673034 13.635 C 15.860887893558399 13.635 15.8861810038206 13.49625 15.936767224345 13.49625 C 15.987353444869399 13.49625 16.0126465551316 13.708499999999999 16.063232775656 13.72275 C 16.113818996180402 13.737 16.1391121064426 13.72949999999997 16.189698326967 13.737 C 16.240284547491 13.74449999999997 16.265577657753 13.752150000000032 16.316163878277 13.76025 C 16.3667500988014 13.76835000000003 16.392043209063598 13.77525 16.442629429588 13.7775 C 16.493215650112397 13.77975 16.5185087603746 13.779000000000002 16.569094980899 13.77975 C 16.6196812014234 13.7805 16.644974311685598 13.78125 16.69556053221 13.78125 C 16.746146752734 13.78125 16.771439862995997 13.78125 16.82202608352 13.78125 C 16.872612304044402 13.78125 16.8979054143066 13.78125 16.948491634831 13.78125 C 16.999077855355402 13.78125 17.0243709656176 13.383750000000001 17.074957186142 13.3695 C 17.125543406666402 13.35525 17.1508365169286 13.36035000000002 17.201422737453 13.35525 C 17.252008957977 13.35015000000002 17.277302068239 13.352999999999962 17.327888288763 13.344 C 17.3784745092874 13.334999999999965 17.403767619549598 13.31025 17.454353840074 13.31025 C 17.504940060598397 13.31025 17.5302331708606 13.31025 17.580819391385 13.31025 C 17.6314056119094 13.31025 17.656698722171598 13.257 17.707284942696 13.257 C 17.757871163220397 13.257 17.7831642734826 13.257 17.833750494007 13.25775 C 17.884336714531 13.2585 17.909629824793 13.6935 17.960216045317 13.6935 C 18.010802265841402 13.6935 18.0360953761036 13.6935 18.086681596628 13.66575 C 18.1372678171524 13.637999999999998 18.162560927414603 13.556249999999999 18.213147147939 13.52625 C 18.263733368463402 13.49625 18.2890264787256 13.525500000000115 18.33961269925 13.49625 C 18.390198919774 13.467000000000116 18.415492030036 13.457849999999695 18.46607825056 13.38 C 18.516664471084397 13.302149999999695 18.5419575813466 13.107 18.592543801871 13.107 C 18.6431300223954 13.107 18.668423132657598 13.1085 18.719009353182 13.1085 C 18.769595573706397 13.1085 18.7948886839686 12.96870000000037 18.845474904493 12.8745 C 18.896061125017 12.780300000000372 18.921354235279 12.712199999999703 18.971940455803 12.6375 C 19.022526676327402 12.562799999999703 19.0478197865896 12.541500000000001 19.098406007114 12.501 C 19.1489922276384 12.460500000000001 19.174285337900603 12.488549999999998 19.224871558425 12.435 C 19.275457778949402 12.381449999999997 19.3007508892116 12.24 19.351337109736 12.23325 C 19.40192333026 12.2265 19.427216440522 12.232049999999978 19.477802661046 12.2265 C 19.5283888815704 12.220949999999977 19.553681991832597 12.216750000000001 19.604268212357 12.2055 C 19.6548544328814 12.19425 19.680147543143597 12.17025 19.730733763668 12.17025 C 19.7813199841924 12.17025 19.806613094454598 12.35025 19.857199314979 12.35025 C 19.9077855355034 12.35025 19.933078645765598 11.938499999999998 19.98366486629 11.93175 C 20.034251086814 11.925 20.059544197076 11.926949999999993 20.1101304176 11.925 C 20.1607166381244 11.923049999999993 20.186009748386603 11.925 20.236595968911 11.922 C 20.287182189435402 11.919 20.3124752996976 11.658 20.363061520222 11.658 C 20.4136477407464 11.658 20.438940851008603 11.9865 20.489527071533 11.9865 C 20.540113292056997 11.9865 20.565406402319002 11.884499999999784 20.615992622843 11.82975 C 20.666578843367397 11.774999999999784 20.6918719536296 11.768849999999999 20.742458174154 11.71275 C 20.7930443946784 11.656649999999997 20.818337504940597 11.573250000000002 20.868923725465 11.54925 C 20.919509945989397 11.52525 20.9448030562516 11.547150000000086 20.995389276776 11.52525 C 21.0459754973 11.503350000000085 21.071268607562 11.43975 21.121854828086 11.43975 C 21.172441048610402 11.43975 21.1977341588726 11.470650000000001 21.248320379397 11.49825 C 21.298906599921402 11.52585 21.3241997101836 11.5725 21.374785930708 11.57775 C 21.425372151232402 11.583 21.4506652614946 11.583 21.501251482019 11.583 C 21.551837702543 11.583 21.577130812805002 11.1645 21.627717033329 11.1645 C 21.6783032538534 11.1645 21.703596364115597 11.16675 21.75418258464 11.16675 C 21.804768805164397 11.16675 21.8300619154266 10.85775 21.880648135951 10.85775 C 21.9312343564754 10.85775 21.956527466737597 10.998149999999733 22.007113687262 11.06475 C 22.057699907785995 11.131349999999733 22.082993018048 11.19075 22.133579238572 11.19075 C 22.184165459096402 11.19075 22.2094585693586 10.498500000000002 22.260044789883 10.374 C 22.3106310104074 10.2495 22.335924120669603 10.2495 22.386510341194 10.2495 C 22.437096561718402 10.2495 22.4623896719806 10.7565 22.512975892505 10.7565 C 22.5635621130294 10.7565 22.588855223291603 10.698900000000084 22.639441443816 10.67775 C 22.69002766434 10.656600000000083 22.715320774602 10.67775 22.765906995126 10.65075 C 22.8164932156504 10.623750000000001 22.841786325912597 10.2 22.892372546437 10.2 C 22.942958766961397 10.2 22.9682518772236 10.2555 23.018838097748 10.25775 C 23.0694243182724 10.26 23.094717428534597 10.26 23.145303649059 10.26 C 23.195889869583 10.26 23.221182979845004 9.843299999999214 23.271769200369 9.64725 C 23.322355420893402 9.451199999999215 23.3476485311556 9.447600000000007 23.39823475168 9.27975 C 23.4488209722044 9.111900000000006 23.474114082466603 8.981249999999994 23.524700302991 8.808 C 23.575286523515402 8.634749999999995 23.6005796337776 8.452500000000002 23.651165854302 8.4135 C 23.701752074825997 8.3745 23.727045185088 8.4135 23.777631405612 8.3745 C 23.8282176261364 8.335499999999998 23.853510736398597 7.755749999999999 23.904096956923 7.755749999999999 C 23.9546831774474 7.755749999999999 23.979976287709597 8.006850000000002 24.030562508234 8.175 C 24.0811487287584 8.343150000000001 24.106441839020597 8.5965 24.157028059545 8.5965 C 24.207614280069 8.5965 24.232907390331 8.53275 24.283493610855 8.53275 C 24.3340798313794 8.53275 24.359372941641602 8.944500000000001 24.409959162166 9.015 C 24.460545382690402 9.0855 24.4858384929526 9.0855 24.536424713477 9.0855 C 24.5870109340014 9.0855 24.612304044263603 9.0855 24.662890264788 9.0855 C 24.713476485311997 9.0855 24.738769595574002 9.05025 24.789355816098 9.05025 C 24.839942036622396 9.05025 24.8652351468846 9.24525 24.915821367409 9.24525 C 24.9664075879334 9.24525 24.991700698195597 9.24525 25.04228691872 9.2415 C 25.092873139244396 9.23775 25.1181662495066 9.2415 25.168752470031 9.222 C 25.2193386905554 9.202499999999999 25.244631800817597 8.47425 25.295218021342 8.4285 C 25.345804241866 8.38275 25.371097352127997 8.38275 25.421683572652 8.38275 C 25.4722697931764 8.38275 25.4975629034386 8.493 25.548149123963 8.493 C 25.5987353444874 8.493 25.6240284547496 8.493 25.674614675274 8.493 C 25.7252008957984 8.493 25.750494006060602 8.44110000000078 25.801080226585 8.2425 C 25.851666447109 8.04390000000078 25.876959557371 7.8962999999984556 25.927545777895 7.5 C 25.978131998419393 7.103699999998455 26.003425108681597 6.260999999999999 26.054011329206 6.260999999999999 C 26.104597549730396 6.260999999999999 26.1298906599926 6.2649 26.180476880517 6.2669999999999995 C 26.2310631010414 6.2691 26.256356211303604 6.2669999999999995 26.306942431828 6.2715 C 26.357528652352 6.276 26.382821762614004 6.463800000000457 26.433407983138 6.579000000000001 C 26.483994203662398 6.694200000000458 26.509287313924602 6.8475 26.559873534449 6.8475 C 26.6104597549734 6.8475 26.6357528652356 6.674250000000001 26.68633908576 6.674250000000001 C 26.736925306284398 6.674250000000001 26.762218416546602 6.687000000000001 26.812804637071 6.687000000000001 C 26.863390857595 6.687000000000001 26.888683967857 6.628349999999709 26.939270188381 6.555 C 26.9898564089054 6.481649999999709 27.015149519167597 6.555 27.065735739692 6.3202500000000015 C 27.116321960216396 6.085500000000003 27.1416150704786 5.833049999999982 27.192201291003 5.33475 C 27.2427875115274 4.8364499999999815 27.268080621789597 3.8497500000000002 27.318666842314 3.8287499999999994 C 27.369253062838396 3.8077499999999986 27.3945461731006 3.8166000000000335 27.445132393625 3.8077499999999986 C 27.495718614148995 3.7989000000000344 27.521011724411 3.7845000000000013 27.571597944935 3.7845000000000013 C 27.622184165459394 3.7845000000000013 27.6474772757216 4.0305 27.698063496246 4.032 C 27.748649716770398 4.0335 27.773942827032602 4.0335 27.824529047557 4.0335 C 27.8751152680814 4.0335 27.900408378343606 4.0335 27.950994598868 4.001249999999999 C 28.001580819392 3.9689999999999976 28.026873929654 3.122250000000001 28.077460150178 3.122250000000001 C 28.128046370702396 3.122250000000001 28.153339480964597 3.123000000000001 28.203925701489 3.123000000000001 C 28.2545119220134 3.123000000000001 28.2798050322756 2.7749999999999986 28.3303912528 2.7749999999999986 C 28.3809774733244 2.7749999999999986 28.406270583586597 2.8499999999998193 28.456856804111 2.8957499999999996 C 28.507443024635002 2.9414999999998197 28.532736134897 3.00375 28.583322355421 3.00375 C 28.6339085759454 3.00375 28.6592016862076 2.9587499999999984 28.709787906732 2.9587499999999984 C 28.760374127256398 2.9587499999999984 28.785667237518602 3.0044999999999993 28.836253458043 3.0472499999999982 C 28.8868396785674 3.09 28.9121327888296 3.1724999999999994 28.962719009354 3.1724999999999994 C 29.013305229878 3.1724999999999994 29.03859834014 3.1724999999999994 29.089184560664 3.1709999999999994 C 29.1397707811884 3.1694999999999993 29.165063891450597 3.1372500000000016 29.215650111975 3.1372500000000016 C 29.266236332499396 3.1372500000000016 29.2915294427616 3.1372500000000016 29.342115663286 3.1477499999999985 C 29.3927018838104 3.1582499999999953 29.417994994072597 4.2075 29.468581214597 4.288499999999999 C 29.519167435121 4.369499999999999 29.544460545382996 4.369499999999999 29.595046765907 4.369499999999999 C 29.6456329864314 4.369499999999999 29.6709260966936 4.093500000000002 29.721512317218 4.077000000000002 C 29.772098537742398 4.060500000000001 29.7973916480046 4.060500000000001 29.847977868529 4.060500000000001 C 29.8985640890534 4.060500000000001 29.923857199315602 4.060500000000001 29.97444341984 4.066500000000001 C 30.0250296403644 4.072500000000002 30.0503227506266 4.422000000000001 30.100908971151 4.428750000000001 C 30.151495191675004 4.435500000000001 30.176788301937002 4.43310000000001 30.227374522461 4.435500000000001 C 30.277960742985403 4.437900000000011 30.3032538532476 4.440750000000001 30.353840073772 4.440750000000001 C 30.4044262942964 4.440750000000001 30.429719404558604 3.760349999999976 30.480305625083 3.5122500000000016 C 30.530891845607403 3.2641499999999755 30.556184955869593 3.317250000000473 30.606771176394 3.2002500000000005 C 30.657357396917995 3.0832500000004726 30.68265050718 3.0136499999996587 30.733236727704 2.927250000000001 C 30.7838229482284 2.8408499999996577 30.8091160584906 2.7682499999999983 30.859702279015 2.7682499999999983 C 30.910288499539398 2.7682499999999983 30.935581609801602 2.776199999999999 30.986167830326 2.780999999999999 C 31.0367540508504 2.785799999999999 31.0620471611126 2.780999999999999 31.112633381637 2.7922499999999992 C 31.163219602161 2.8034999999999997 31.188512712422998 3.0534000000013304 31.239098932947 3.3915000000000006 C 31.289685153471403 3.7296000000013305 31.3149782637336 4.174349999999989 31.365564484258 4.482749999999999 C 31.4161507047824 4.7911499999999885 31.4414438150446 4.813499999999999 31.492030035569 4.933499999999999 C 31.542616256093403 5.0535 31.567909366355604 5.043599999999847 31.61849558688 5.082750000000001 C 31.669081807404 5.121899999999847 31.694374917666 5.129249999999999 31.74496113819 5.129249999999999 C 31.795547358714394 5.129249999999999 31.8208404689766 5.095500000000001 31.871426689501 5.095500000000001 C 31.922012910025398 5.095500000000001 31.997892240812 5.107500000000002 31.997892240812 5.107500000000002" stroke-linecap="round" />
</g>
		<g transform="matrix(1 0 0 1 0 -1.15)" clip-path="url(#CLIPPATH_4)"  >
<clipPath id="CLIPPATH_4" >
	<rect transform="matrix(1 0 0 1 0 1.15)" id="highcharts-b73mifp-7940-" x="-16" y="-12" rx="0" ry="0" width="32" height="24" />
</clipPath>
<path style="stroke: rgb(192,192,192); stroke-opacity: 0.0001; stroke-width: 22; stroke-dasharray: none; stroke-linecap: round; stroke-dashoffset: 0; stroke-linejoin: round; stroke-miterlimit: 4; fill: none; fill-rule: nonzero; opacity: 1;" vector-effect="non-scaling-stroke"  transform=" translate(-16, -10.85)" d="M 0.0021077591885127 18 C 0.0021077591885127 18 0.07798708997496709 18 0.12857331049927 18 C 0.179159531023578 18 0.204452641285732 18 0.25503886181004 18 C 0.305625082334344 18 0.330918192596496 18 0.3815044131208 18 C 0.432090633645104 18 0.457383743907256 18 0.50796996443156 18 C 0.558556184955864 18 0.583849295218016 18.00075 0.63443551574232 18.00075 C 0.685021736266628 18.00075 0.7103148465287821 18.00075 0.76090106705309 18.00075 C 0.8114872875773941 18.00075 0.836780397839546 18.00075 0.88736661836385 18.00075 C 0.93795283888815 18.00075 0.9632459491502999 18.00075 1.0138321696746 18.00075 C 1.06441839019892 18.00075 1.08971150046108 18.134999999999998 1.1402977209854 18.137999999999998 C 1.19088394150968 18.141 1.21617705177182 18.137999999999998 1.2667632722961 18.141 C 1.31734949282042 18.144 1.34264260308258 18.869999999999997 1.3932288236069 18.886499999999998 C 1.4438150441312199 18.903 1.4691081543933802 18.903 1.5196943749177 18.903 C 1.57028059544198 18.903 1.5955737057041202 18.903 1.6461599262284 18.903 C 1.69674614675272 18.903 1.72203925701488 18.911849999999994 1.7726254775392 18.9165 C 1.82321169806348 18.921149999999997 1.84850480832562 18.9228 1.8990910288499 18.92625 C 1.9496772493742198 18.9297 1.9749703596363801 18.931050000000003 2.0255565801607 18.93375 C 2.07614280068502 18.93645 2.10143591094718 18.93975 2.1520221314715 18.93975 C 2.20260835199578 18.93975 2.2279014622579196 18.93975 2.2784876827822 18.93975 C 2.32907390330652 18.93975 2.35436701356868 18.9393 2.404953234093 18.93825 C 2.45553945461732 18.937199999999997 2.48083256487948 18.9345 2.5314187854038 18.9345 C 2.5820050059280804 18.9345 2.60729811619022 18.9345 2.6578843367145 18.9345 C 2.70847055723882 18.9345 2.73376366750098 18.93825 2.7843498880253 18.93825 C 2.83493610854958 18.93825 2.86022921881172 18.257999999999996 2.910815439336 18.224249999999998 C 2.96140165986032 18.1905 2.9866947701224804 18.224249999999998 3.0372809906468 18.1905 C 3.0878672111711203 18.156750000000002 3.1131603214332797 18.046500000000048 3.1637465419576 17.928 C 3.2143327624818796 17.809500000000046 3.23962587274402 17.633999999999997 3.2902120932683 17.598 C 3.3407983137926203 17.562 3.3660914240547797 17.598 3.4166776445791 17.562 C 3.46726386510342 17.526000000000003 3.49255697536558 17.30175 3.5431431958899 17.30175 C 3.5937294164141798 17.30175 3.61902252667632 17.30175 3.6696087472006 17.30175 C 3.7201949677249195 17.30175 3.74548807798708 17.30175 3.7960742985114 17.30175 C 3.84666051903568 17.30175 3.8719536292978196 17.30475 3.9225398498221 17.30475 C 3.97312607034642 17.30475 3.9984191806085803 17.28075 4.0490054011329 17.28075 C 4.09959162165722 17.28075 4.12488473191938 17.2815 4.1754709524437 17.2815 C 4.2260571729679794 17.2815 4.25135028323012 17.103749999999998 4.3019365037544 17.06025 C 4.352522724278719 17.016750000000002 4.37781583454088 17.0277 4.4284020550652 17.016750000000002 C 4.47898827558952 17.0058 4.504281385851679 17.005499999999998 4.554867606376 17.005499999999998 C 4.60545382690028 17.005499999999998 4.630746937162419 17.005499999999998 4.6813331576867 17.005499999999998 C 4.731919378211019 17.005499999999998 4.75721248847318 17.005499999999998 4.8077987089975 16.9995 C 4.8583849295217805 16.993500000000004 4.883678039783919 16.96275 4.9342642603082 16.96275 C 4.984850480832519 16.96275 5.01014359109468 16.96275 5.060729811619 16.96275 C 5.1113160321433195 16.96275 5.13660914240548 16.96275 5.1871953629298 16.96275 C 5.23778158345408 16.96275 5.26307469371622 16.9635 5.3136609142405 16.9635 C 5.3642471347648195 16.9635 5.38954024502698 16.962 5.4401264655513 16.962 C 5.49071268607562 16.962 5.51600579633778 16.96275 5.5665920168621 16.96275 C 5.617178237386381 16.96275 5.642471347648519 16.9485 5.6930575681728 16.94625 C 5.74364378869712 16.944 5.76893689895928 16.94475 5.8195231194836 16.944 C 5.870109340007881 16.94325 5.89540245027002 16.9425 5.9459886707943 16.9425 C 5.9965748913186205 16.9425 6.0218680015807795 16.9425 6.0724542221051 16.9425 C 6.12304044262942 16.9425 6.148333552891581 16.8525 6.1989197734159 16.8525 C 6.24950599394018 16.8525 6.27479910420232 16.8555 6.3253853247266 16.8555 C 6.37597154525092 16.8555 6.40126465551308 16.815 6.4518508760374 16.815 C 6.502437096561721 16.815 6.527730206823881 16.815 6.5783164273482 16.815 C 6.628902647872481 16.815 6.65419575813462 16.848 6.7047819786589 16.848 C 6.755368199183221 16.848 6.780661309445381 16.84575 6.8312475299697 16.84575 C 6.88183375049402 16.84575 6.907126860756181 16.84575 6.9577130812805 16.84575 C 7.00829930180478 16.84575 7.033592412066921 16.8555 7.0841786325912 16.8555 C 7.13476485311552 16.8555 7.16005796337768 16.61925 7.210644183902 16.61925 C 7.26123040442628 16.61925 7.286523514688421 16.62075 7.3371097352127 16.62075 C 7.38769595573702 16.62075 7.41298906599918 16.569 7.4635752865235 16.569 C 7.514161507047819 16.569 7.53945461730998 16.62825 7.5900408378343 16.62825 C 7.64062705835858 16.62825 7.66592016862072 16.62825 7.716506389145 16.62825 C 7.767092609669319 16.62825 7.792385719931479 16.62825 7.8429719404558 16.623 C 7.89355816098012 16.61775 7.91885127124228 16.563 7.9694374917666 16.563 C 8.02002371229088 16.563 8.04531682255302 16.5657 8.0959030430773 16.56675 C 8.14648926360162 16.5678 8.171782373863781 16.56825 8.2223685943881 16.56825 C 8.272954814912381 16.56825 8.29824792517452 16.567199999999996 8.3488341456988 16.56 C 8.39942036622312 16.552799999999994 8.42471347648528 16.53225 8.4752996970096 16.53225 C 8.52588591753392 16.53225 8.55117902779608 16.533 8.6017652483204 16.533 C 8.65235146884468 16.533 8.67764457910682 16.52775 8.7282307996311 16.52775 C 8.77881702015542 16.52775 8.80411013041758 16.569 8.8546963509419 16.569 C 8.90528257146622 16.569 8.93057568172838 16.5015 8.9811619022527 16.5015 C 9.031748122776978 16.5015 9.057041233039119 16.50225 9.1076274535634 16.50225 C 9.158213674087719 16.50225 9.183506784349879 16.469550000000005 9.2340930048742 16.457250000000002 C 9.284679225398481 16.44495000000001 9.309972335660621 16.457250000000002 9.3605585561849 16.44075 C 9.41114477670922 16.42425 9.43643788697138 15.8205 9.4870241074957 15.78525 C 9.537610328020019 15.75 9.56290343828218 15.75825 9.6134896588065 15.75 C 9.664075879330781 15.74175 9.68936898959292 15.74175 9.7399552101172 15.74175 C 9.79054143064152 15.74175 9.81583454090368 16.008 9.866420761428 16.008 C 9.917006981952321 16.008 9.94230009221448 15.99225 9.9928863127388 15.99225 C 10.04347253326328 15.99225 10.06876564352552 15.99225 10.11935186405 15.993 C 10.169938084574401 15.99375 10.1952311948366 16.00125 10.245817415361 16.00125 C 10.296403635885401 16.00125 10.3216967461476 15.98625 10.372282966672 15.98625 C 10.422869187196 15.98625 10.448162297458 16.042500000000004 10.498748517982 16.0575 C 10.5493347385064 16.072499999999998 10.5746278487686 16.05945 10.625214069293 16.072499999999998 C 10.6758002898174 16.085549999999998 10.7010934000796 16.12275 10.751679620604 16.12275 C 10.8022658411284 16.12275 10.8275589513906 15.597750000000001 10.878145171915 15.444 C 10.928731392439 15.29025 10.954024502701 15.370049999999685 11.004610723225 15.29025 C 11.055196943749399 15.210449999999685 11.0804900540116 15.045 11.131076274536 15.045 C 11.181662495060399 15.045 11.2069556053226 15.0555 11.257541825847 15.0555 C 11.3081280463714 15.0555 11.3334211566336 14.76225 11.384007377158 14.76225 C 11.434593597682 14.76225 11.459886707944 14.76225 11.510472928468 14.76225 C 11.561059148992399 14.76225 11.5863522592546 14.748299999999999 11.636938479779 14.72025 C 11.687524700303399 14.6922 11.7128178105656 14.6712 11.76340403109 14.622 C 11.813990251614399 14.572799999999999 11.8392833618766 14.47425 11.889869582401 14.47425 C 11.940455802925 14.47425 11.965748913187 14.47425 12.016335133711 14.47425 C 12.0669213542354 14.47425 12.0922144644976 14.478 12.142800685022 14.478 C 12.1933869055464 14.478 12.2186800158086 14.32275 12.269266236333 14.32275 C 12.3198524568574 14.32275 12.3451455671196 14.57175 12.395731787644 14.58075 C 12.4463180081684 14.58975 12.4716111184306 14.58075 12.522197338955 14.58975 C 12.572783559479001 14.59875 12.598076669741 15.598500000000001 12.648662890265 15.7125 C 12.699249110789399 15.8265 12.724542221051598 15.8265 12.775128441576 15.8265 C 12.825714662100399 15.8265 12.851007772362598 15.740250000000001 12.901593992887 15.711 C 12.952180213411399 15.68175 12.977473323673598 15.68025 13.028059544198 15.68025 C 13.078645764722001 15.68025 13.103938874984 15.74175 13.154525095508 15.74175 C 13.2051113160324 15.74175 13.230404426294598 15.3465 13.280990646819 15.339 C 13.331576867343397 15.3315 13.356869977605601 15.3315 13.40745619813 15.3315 C 13.4580424186544 15.3315 13.483335528916598 15.428549999999609 13.533921749441 15.52725 C 13.584507969965 15.62594999999961 13.609801080226998 15.825 13.660387300751 15.825 C 13.7109735212754 15.825 13.7362666315376 15.79875 13.786852852062 15.79875 C 13.8374390725864 15.79875 13.8627321828486 15.799650000000002 13.913318403373 15.801 C 13.9639046238974 15.80235 13.9891977341596 15.8055 14.039783954684 15.8055 C 14.090370175208 15.8055 14.115663285469997 15.64499999999963 14.166249505994 15.55125 C 14.2168357265184 15.45749999999963 14.242128836780598 15.447300000000006 14.292715057305 15.33675 C 14.343301277829397 15.226200000000004 14.3685943880916 14.9985 14.419180608616 14.9985 C 14.4697668291404 14.9985 14.495059939402598 15.0135 14.545646159927 15.0135 C 14.596232380451 15.0135 14.621525490712997 14.87775 14.672111711237 14.87625 C 14.722697931761399 14.87475 14.7479910420236 14.875200000000001 14.798577262548 14.87475 C 14.849163483072399 14.874300000000002 14.8744565933346 14.87475 14.925042813859 14.874 C 14.975629034383399 14.87325 15.0009221446456 14.67975 15.05150836517 14.67375 C 15.102094585694399 14.66775 15.1273876959566 14.66775 15.177973916481 14.66775 C 15.228560137005 14.66775 15.253853247267 14.811900000000346 15.304439467791 14.8995 C 15.355025688315399 14.987100000000346 15.3803187985776 15.10575 15.430905019102 15.10575 C 15.481491239626399 15.10575 15.5067843498886 14.974950000000002 15.557370570413 14.67975 C 15.607956790937399 14.384549999999999 15.6332499011996 13.62975 15.683836121724 13.62975 C 15.734422342248 13.62975 15.75971545251 13.635 15.810301673034 13.635 C 15.860887893558399 13.635 15.8861810038206 13.49625 15.936767224345 13.49625 C 15.987353444869399 13.49625 16.0126465551316 13.708499999999999 16.063232775656 13.72275 C 16.113818996180402 13.737 16.1391121064426 13.72949999999997 16.189698326967 13.737 C 16.240284547491 13.74449999999997 16.265577657753 13.752150000000032 16.316163878277 13.76025 C 16.3667500988014 13.76835000000003 16.392043209063598 13.77525 16.442629429588 13.7775 C 16.493215650112397 13.77975 16.5185087603746 13.779000000000002 16.569094980899 13.77975 C 16.6196812014234 13.7805 16.644974311685598 13.78125 16.69556053221 13.78125 C 16.746146752734 13.78125 16.771439862995997 13.78125 16.82202608352 13.78125 C 16.872612304044402 13.78125 16.8979054143066 13.78125 16.948491634831 13.78125 C 16.999077855355402 13.78125 17.0243709656176 13.383750000000001 17.074957186142 13.3695 C 17.125543406666402 13.35525 17.1508365169286 13.36035000000002 17.201422737453 13.35525 C 17.252008957977 13.35015000000002 17.277302068239 13.352999999999962 17.327888288763 13.344 C 17.3784745092874 13.334999999999965 17.403767619549598 13.31025 17.454353840074 13.31025 C 17.504940060598397 13.31025 17.5302331708606 13.31025 17.580819391385 13.31025 C 17.6314056119094 13.31025 17.656698722171598 13.257 17.707284942696 13.257 C 17.757871163220397 13.257 17.7831642734826 13.257 17.833750494007 13.25775 C 17.884336714531 13.2585 17.909629824793 13.6935 17.960216045317 13.6935 C 18.010802265841402 13.6935 18.0360953761036 13.6935 18.086681596628 13.66575 C 18.1372678171524 13.637999999999998 18.162560927414603 13.556249999999999 18.213147147939 13.52625 C 18.263733368463402 13.49625 18.2890264787256 13.525500000000115 18.33961269925 13.49625 C 18.390198919774 13.467000000000116 18.415492030036 13.457849999999695 18.46607825056 13.38 C 18.516664471084397 13.302149999999695 18.5419575813466 13.107 18.592543801871 13.107 C 18.6431300223954 13.107 18.668423132657598 13.1085 18.719009353182 13.1085 C 18.769595573706397 13.1085 18.7948886839686 12.96870000000037 18.845474904493 12.8745 C 18.896061125017 12.780300000000372 18.921354235279 12.712199999999703 18.971940455803 12.6375 C 19.022526676327402 12.562799999999703 19.0478197865896 12.541500000000001 19.098406007114 12.501 C 19.1489922276384 12.460500000000001 19.174285337900603 12.488549999999998 19.224871558425 12.435 C 19.275457778949402 12.381449999999997 19.3007508892116 12.24 19.351337109736 12.23325 C 19.40192333026 12.2265 19.427216440522 12.232049999999978 19.477802661046 12.2265 C 19.5283888815704 12.220949999999977 19.553681991832597 12.216750000000001 19.604268212357 12.2055 C 19.6548544328814 12.19425 19.680147543143597 12.17025 19.730733763668 12.17025 C 19.7813199841924 12.17025 19.806613094454598 12.35025 19.857199314979 12.35025 C 19.9077855355034 12.35025 19.933078645765598 11.938499999999998 19.98366486629 11.93175 C 20.034251086814 11.925 20.059544197076 11.926949999999993 20.1101304176 11.925 C 20.1607166381244 11.923049999999993 20.186009748386603 11.925 20.236595968911 11.922 C 20.287182189435402 11.919 20.3124752996976 11.658 20.363061520222 11.658 C 20.4136477407464 11.658 20.438940851008603 11.9865 20.489527071533 11.9865 C 20.540113292056997 11.9865 20.565406402319002 11.884499999999784 20.615992622843 11.82975 C 20.666578843367397 11.774999999999784 20.6918719536296 11.768849999999999 20.742458174154 11.71275 C 20.7930443946784 11.656649999999997 20.818337504940597 11.573250000000002 20.868923725465 11.54925 C 20.919509945989397 11.52525 20.9448030562516 11.547150000000086 20.995389276776 11.52525 C 21.0459754973 11.503350000000085 21.071268607562 11.43975 21.121854828086 11.43975 C 21.172441048610402 11.43975 21.1977341588726 11.470650000000001 21.248320379397 11.49825 C 21.298906599921402 11.52585 21.3241997101836 11.5725 21.374785930708 11.57775 C 21.425372151232402 11.583 21.4506652614946 11.583 21.501251482019 11.583 C 21.551837702543 11.583 21.577130812805002 11.1645 21.627717033329 11.1645 C 21.6783032538534 11.1645 21.703596364115597 11.16675 21.75418258464 11.16675 C 21.804768805164397 11.16675 21.8300619154266 10.85775 21.880648135951 10.85775 C 21.9312343564754 10.85775 21.956527466737597 10.998149999999733 22.007113687262 11.06475 C 22.057699907785995 11.131349999999733 22.082993018048 11.19075 22.133579238572 11.19075 C 22.184165459096402 11.19075 22.2094585693586 10.498500000000002 22.260044789883 10.374 C 22.3106310104074 10.2495 22.335924120669603 10.2495 22.386510341194 10.2495 C 22.437096561718402 10.2495 22.4623896719806 10.7565 22.512975892505 10.7565 C 22.5635621130294 10.7565 22.588855223291603 10.698900000000084 22.639441443816 10.67775 C 22.69002766434 10.656600000000083 22.715320774602 10.67775 22.765906995126 10.65075 C 22.8164932156504 10.623750000000001 22.841786325912597 10.2 22.892372546437 10.2 C 22.942958766961397 10.2 22.9682518772236 10.2555 23.018838097748 10.25775 C 23.0694243182724 10.26 23.094717428534597 10.26 23.145303649059 10.26 C 23.195889869583 10.26 23.221182979845004 9.843299999999214 23.271769200369 9.64725 C 23.322355420893402 9.451199999999215 23.3476485311556 9.447600000000007 23.39823475168 9.27975 C 23.4488209722044 9.111900000000006 23.474114082466603 8.981249999999994 23.524700302991 8.808 C 23.575286523515402 8.634749999999995 23.6005796337776 8.452500000000002 23.651165854302 8.4135 C 23.701752074825997 8.3745 23.727045185088 8.4135 23.777631405612 8.3745 C 23.8282176261364 8.335499999999998 23.853510736398597 7.755749999999999 23.904096956923 7.755749999999999 C 23.9546831774474 7.755749999999999 23.979976287709597 8.006850000000002 24.030562508234 8.175 C 24.0811487287584 8.343150000000001 24.106441839020597 8.5965 24.157028059545 8.5965 C 24.207614280069 8.5965 24.232907390331 8.53275 24.283493610855 8.53275 C 24.3340798313794 8.53275 24.359372941641602 8.944500000000001 24.409959162166 9.015 C 24.460545382690402 9.0855 24.4858384929526 9.0855 24.536424713477 9.0855 C 24.5870109340014 9.0855 24.612304044263603 9.0855 24.662890264788 9.0855 C 24.713476485311997 9.0855 24.738769595574002 9.05025 24.789355816098 9.05025 C 24.839942036622396 9.05025 24.8652351468846 9.24525 24.915821367409 9.24525 C 24.9664075879334 9.24525 24.991700698195597 9.24525 25.04228691872 9.2415 C 25.092873139244396 9.23775 25.1181662495066 9.2415 25.168752470031 9.222 C 25.2193386905554 9.202499999999999 25.244631800817597 8.47425 25.295218021342 8.4285 C 25.345804241866 8.38275 25.371097352127997 8.38275 25.421683572652 8.38275 C 25.4722697931764 8.38275 25.4975629034386 8.493 25.548149123963 8.493 C 25.5987353444874 8.493 25.6240284547496 8.493 25.674614675274 8.493 C 25.7252008957984 8.493 25.750494006060602 8.44110000000078 25.801080226585 8.2425 C 25.851666447109 8.04390000000078 25.876959557371 7.8962999999984556 25.927545777895 7.5 C 25.978131998419393 7.103699999998455 26.003425108681597 6.260999999999999 26.054011329206 6.260999999999999 C 26.104597549730396 6.260999999999999 26.1298906599926 6.2649 26.180476880517 6.2669999999999995 C 26.2310631010414 6.2691 26.256356211303604 6.2669999999999995 26.306942431828 6.2715 C 26.357528652352 6.276 26.382821762614004 6.463800000000457 26.433407983138 6.579000000000001 C 26.483994203662398 6.694200000000458 26.509287313924602 6.8475 26.559873534449 6.8475 C 26.6104597549734 6.8475 26.6357528652356 6.674250000000001 26.68633908576 6.674250000000001 C 26.736925306284398 6.674250000000001 26.762218416546602 6.687000000000001 26.812804637071 6.687000000000001 C 26.863390857595 6.687000000000001 26.888683967857 6.628349999999709 26.939270188381 6.555 C 26.9898564089054 6.481649999999709 27.015149519167597 6.555 27.065735739692 6.3202500000000015 C 27.116321960216396 6.085500000000003 27.1416150704786 5.833049999999982 27.192201291003 5.33475 C 27.2427875115274 4.8364499999999815 27.268080621789597 3.8497500000000002 27.318666842314 3.8287499999999994 C 27.369253062838396 3.8077499999999986 27.3945461731006 3.8166000000000335 27.445132393625 3.8077499999999986 C 27.495718614148995 3.7989000000000344 27.521011724411 3.7845000000000013 27.571597944935 3.7845000000000013 C 27.622184165459394 3.7845000000000013 27.6474772757216 4.0305 27.698063496246 4.032 C 27.748649716770398 4.0335 27.773942827032602 4.0335 27.824529047557 4.0335 C 27.8751152680814 4.0335 27.900408378343606 4.0335 27.950994598868 4.001249999999999 C 28.001580819392 3.9689999999999976 28.026873929654 3.122250000000001 28.077460150178 3.122250000000001 C 28.128046370702396 3.122250000000001 28.153339480964597 3.123000000000001 28.203925701489 3.123000000000001 C 28.2545119220134 3.123000000000001 28.2798050322756 2.7749999999999986 28.3303912528 2.7749999999999986 C 28.3809774733244 2.7749999999999986 28.406270583586597 2.8499999999998193 28.456856804111 2.8957499999999996 C 28.507443024635002 2.9414999999998197 28.532736134897 3.00375 28.583322355421 3.00375 C 28.6339085759454 3.00375 28.6592016862076 2.9587499999999984 28.709787906732 2.9587499999999984 C 28.760374127256398 2.9587499999999984 28.785667237518602 3.0044999999999993 28.836253458043 3.0472499999999982 C 28.8868396785674 3.09 28.9121327888296 3.1724999999999994 28.962719009354 3.1724999999999994 C 29.013305229878 3.1724999999999994 29.03859834014 3.1724999999999994 29.089184560664 3.1709999999999994 C 29.1397707811884 3.1694999999999993 29.165063891450597 3.1372500000000016 29.215650111975 3.1372500000000016 C 29.266236332499396 3.1372500000000016 29.2915294427616 3.1372500000000016 29.342115663286 3.1477499999999985 C 29.3927018838104 3.1582499999999953 29.417994994072597 4.2075 29.468581214597 4.288499999999999 C 29.519167435121 4.369499999999999 29.544460545382996 4.369499999999999 29.595046765907 4.369499999999999 C 29.6456329864314 4.369499999999999 29.6709260966936 4.093500000000002 29.721512317218 4.077000000000002 C 29.772098537742398 4.060500000000001 29.7973916480046 4.060500000000001 29.847977868529 4.060500000000001 C 29.8985640890534 4.060500000000001 29.923857199315602 4.060500000000001 29.97444341984 4.066500000000001 C 30.0250296403644 4.072500000000002 30.0503227506266 4.422000000000001 30.100908971151 4.428750000000001 C 30.151495191675004 4.435500000000001 30.176788301937002 4.43310000000001 30.227374522461 4.435500000000001 C 30.277960742985403 4.437900000000011 30.3032538532476 4.440750000000001 30.353840073772 4.440750000000001 C 30.4044262942964 4.440750000000001 30.429719404558604 3.760349999999976 30.480305625083 3.5122500000000016 C 30.530891845607403 3.2641499999999755 30.556184955869593 3.317250000000473 30.606771176394 3.2002500000000005 C 30.657357396917995 3.0832500000004726 30.68265050718 3.0136499999996587 30.733236727704 2.927250000000001 C 30.7838229482284 2.8408499999996577 30.8091160584906 2.7682499999999983 30.859702279015 2.7682499999999983 C 30.910288499539398 2.7682499999999983 30.935581609801602 2.776199999999999 30.986167830326 2.780999999999999 C 31.0367540508504 2.785799999999999 31.0620471611126 2.780999999999999 31.112633381637 2.7922499999999992 C 31.163219602161 2.8034999999999997 31.188512712422998 3.0534000000013304 31.239098932947 3.3915000000000006 C 31.289685153471403 3.7296000000013305 31.3149782637336 4.174349999999989 31.365564484258 4.482749999999999 C 31.4161507047824 4.7911499999999885 31.4414438150446 4.813499999999999 31.492030035569 4.933499999999999 C 31.542616256093403 5.0535 31.567909366355604 5.043599999999847 31.61849558688 5.082750000000001 C 31.669081807404 5.121899999999847 31.694374917666 5.129249999999999 31.74496113819 5.129249999999999 C 31.795547358714394 5.129249999999999 31.8208404689766 5.095500000000001 31.871426689501 5.095500000000001 C 31.922012910025398 5.095500000000001 31.997892240812 5.107500000000002 31.997892240812 5.107500000000002" stroke-linecap="round" />
</g>
		<g transform="matrix(1 0 0 1 0 -3.64)" style=""  >
		<text xml:space="preserve" font-family="'Lucida Grande', 'Lucida Sans Unicode', Arial, Helvetica, sans-serif" font-size="18" font-style="normal" font-weight="normal" style="stroke: none; stroke-width: 1; stroke-dasharray: none; stroke-linecap: butt; stroke-dashoffset: 0; stroke-linejoin: miter; stroke-miterlimit: 4; fill: rgb(51,51,51); fill-rule: nonzero; opacity: 1; white-space: pre;" ></text>
</g>
		<g transform="matrix(1 0 0 1 0 -1.76)" style=""  >
		<text xml:space="preserve" font-family="'Lucida Grande', 'Lucida Sans Unicode', Arial, Helvetica, sans-serif" font-size="12" font-style="normal" font-weight="normal" style="stroke: none; stroke-width: 1; stroke-dasharray: none; stroke-linecap: butt; stroke-dashoffset: 0; stroke-linejoin: miter; stroke-miterlimit: 4; fill: rgb(102,102,102); fill-rule: nonzero; opacity: 1; white-space: pre;" ></text>
</g>
		<g transform="matrix(1 0 0 1 -15 20.24)" style=""  >
		<text xml:space="preserve" font-family="'Lucida Grande', 'Lucida Sans Unicode', Arial, Helvetica, sans-serif" font-size="12" font-style="normal" font-weight="normal" style="stroke: none; stroke-width: 1; stroke-dasharray: none; stroke-linecap: butt; stroke-dashoffset: 0; stroke-linejoin: miter; stroke-miterlimit: 4; fill: rgb(102,102,102); fill-rule: nonzero; opacity: 1; white-space: pre;" ></text>
</g>
</g>
</g>
</svg>