<svg width="56" height="56" viewBox="0 0 56 56" fill="none" xmlns="http://www.w3.org/2000/svg">
<rect x="9" y="17" width="14" height="2" rx="1" fill="#CFD5E4"/>
<rect x="9" y="22" width="9" height="2" rx="1" fill="#CFD5E4"/>
<path fill-rule="evenodd" clip-rule="evenodd" d="M31 9H6C3.79086 9 2 10.7909 2 13V33.6486C2 34.4546 2.98822 34.8427 3.53664 34.2521L4.08409 33.6625C5.06851 32.6024 6.4499 32 7.89661 32H16V34H7.89661C7.00603 34 6.15567 34.3708 5.54967 35.0234L5.00223 35.613C3.21692 37.5356 0 36.2724 0 33.6486V13C0 9.68629 2.68629 7 6 7H31C34.3137 7 37 9.68629 37 13V17H35V13C35 10.7909 33.2091 9 31 9Z" fill="#E7EBF4"/>
<path fill-rule="evenodd" clip-rule="evenodd" d="M50 19H22C19.7909 19 18 20.7909 18 23V42C18 44.2091 19.7909 46 22 46H47.5503C49.0089 46 50.4079 46.5795 51.4393 47.6109L52.1713 48.3428C52.8461 49.0177 54 48.5397 54 47.5854V23C54 20.7909 52.2091 19 50 19ZM22 17C18.6863 17 16 19.6863 16 23V42C16 45.3137 18.6863 48 22 48H47.5503C48.4785 48 49.3687 48.3687 50.0251 49.0251L50.7571 49.7571C52.6918 51.6918 56 50.3216 56 47.5854V23C56 19.6863 53.3137 17 50 17H22ZM27 29C27 28.4477 27.4477 28 28 28H45C45.5523 28 46 28.4477 46 29C46 29.5523 45.5523 30 45 30H28C27.4477 30 27 29.5523 27 29ZM28 34C27.4477 34 27 34.4477 27 35C27 35.5523 27.4477 36 28 36H42C42.5523 36 43 35.5523 43 35C43 34.4477 42.5523 34 42 34H28Z" fill="#18DCA6"/>
</svg>
