<svg width="56" height="56" viewBox="0 0 56 56" fill="none" xmlns="http://www.w3.org/2000/svg">
<path fill-rule="evenodd" clip-rule="evenodd" d="M29.8503 14.8769C29.1717 13.222 26.8281 13.222 26.1495 14.8769L25.4741 16.5237L23.6992 16.6571C21.9156 16.7912 21.1914 19.0201 22.5555 20.1769L23.9131 21.3281L23.4915 23.0573C23.0678 24.795 24.9638 26.1726 26.4856 25.2327L27.9999 24.2973L29.5142 25.2327C31.036 26.1726 32.932 24.795 32.5083 23.0573L32.0867 21.3281L33.4443 20.1769C34.8084 19.0201 34.0842 16.7912 32.3006 16.6571L30.5257 16.5237L29.8503 14.8769ZM27.9999 15.6357L28.6752 17.2826C28.9625 17.9831 29.6208 18.4613 30.3758 18.5181L32.1507 18.6515L30.7932 19.8027C30.2157 20.2924 29.9643 21.0662 30.1436 21.8018L30.5653 23.5311L29.0509 22.5957C28.4067 22.1978 27.5931 22.1978 26.9489 22.5957L25.4346 23.5311L25.8562 21.8018C26.0355 21.0662 25.7841 20.2924 25.2066 19.8027L23.8491 18.6515L25.624 18.5181C26.379 18.4613 27.0373 17.9831 27.3246 17.2826L27.9999 15.6357ZM10.1495 20.8769C10.8281 19.222 13.1717 19.222 13.8503 20.8769L14.5257 22.5237L16.3006 22.6571C18.0842 22.7912 18.8084 25.0201 17.4443 26.1769L16.0867 27.3281L16.5083 29.0573C16.932 30.795 15.036 32.1726 13.5142 31.2327L11.9999 30.2973L10.4856 31.2327C8.96381 32.1726 7.0678 30.795 7.49147 29.0573L7.91308 27.3281L6.55555 26.1769C5.19139 25.0201 5.91561 22.7912 7.69919 22.6571L9.47411 22.5237L10.1495 20.8769ZM12.6752 23.2826L11.9999 21.6357L11.3246 23.2826C11.0373 23.9831 10.379 24.4613 9.624 24.5181L7.84908 24.6515L9.20661 25.8027C9.78408 26.2924 10.0355 27.0662 9.85616 27.8018L9.43455 29.5311L10.9489 28.5957C11.5931 28.1978 12.4067 28.1978 13.0509 28.5957L14.5653 29.5311L14.1436 27.8018C13.9643 27.0662 14.2157 26.2924 14.7932 25.8027L16.1507 24.6515L14.3758 24.5181C13.6208 24.4613 12.9625 23.9831 12.6752 23.2826ZM25 31.0002H31C31.5523 31.0002 32 31.448 32 32.0002V49.0002H24V32.0002C24 31.448 24.4477 31.0002 25 31.0002ZM22 32.0002C22 30.3434 23.3431 29.0002 25 29.0002H31C32.6569 29.0002 34 30.3434 34 32.0002V51.0002H22V32.0002ZM9 37.0002H15C15.5523 37.0002 16 37.448 16 38.0002V49.0002H8V38.0002C8 37.448 8.44772 37.0002 9 37.0002ZM6 38.0002C6 36.3434 7.34315 35.0002 9 35.0002H15C16.6569 35.0002 18 36.3434 18 38.0002V51.0002H6V38.0002Z" fill="#E7EBF4"/>
<path fill-rule="evenodd" clip-rule="evenodd" d="M45.8503 6.87689C45.1717 5.22203 42.8281 5.22203 42.1495 6.87689L41.4741 8.52372L39.6992 8.65712C37.9156 8.79116 37.1914 11.0201 38.5555 12.1769L39.9131 13.3281L39.4915 15.0573C39.0678 16.795 40.9638 18.1726 42.4856 17.2327L43.9999 16.2973L45.5142 17.2327C47.036 18.1726 48.932 16.795 48.5083 15.0573L48.0867 13.3281L49.4443 12.1769C50.8084 11.0201 50.0842 8.79116 48.3006 8.65712L46.5257 8.52372L45.8503 6.87689ZM43.9999 7.63574L44.6752 9.28257C44.9625 9.9831 45.6208 10.4613 46.3758 10.5181L48.1507 10.6515L46.7932 11.8027C46.2157 12.2924 45.9643 13.0662 46.1436 13.8018L46.5653 15.5311L45.0509 14.5957C44.4067 14.1978 43.5931 14.1978 42.9489 14.5957L41.4346 15.5311L41.8562 13.8018C42.0355 13.0662 41.7841 12.2924 41.2066 11.8027L39.8491 10.6515L41.624 10.5181C42.379 10.4613 43.0373 9.9831 43.3246 9.28257L43.9999 7.63574ZM41 23.0002H47C47.5523 23.0002 48 23.448 48 24.0002V49.0002H40V24.0002C40 23.448 40.4477 23.0002 41 23.0002ZM38 24.0002C38 22.3434 39.3431 21.0002 41 21.0002H47C48.6569 21.0002 50 22.3434 50 24.0002V51.0002H38V24.0002Z" fill="#18DCA6"/>
<rect x="3" y="49" width="50" height="2" rx="1" fill="#CFD5E4"/>
</svg>
