<svg width="56" height="56" viewBox="0 0 56 56" fill="none" xmlns="http://www.w3.org/2000/svg">
<path d="M12.1661 27.1864C13.2914 26.574 14.5476 26.0629 15.7213 25.5492C17.7406 24.7078 19.7678 23.881 21.8155 23.1112C22.2139 22.9801 22.9298 22.8519 23 23.4351C22.9616 24.2608 22.8035 25.0816 22.695 25.9024C22.4198 27.7074 22.1015 29.5062 21.7913 31.3052C21.6844 31.9045 20.9245 32.2147 20.4383 31.8312C19.2698 31.0515 18.0923 30.2793 16.9387 29.4815C16.5608 29.1022 16.9113 28.5575 17.2487 28.2866C18.1986 27.524 18.4518 27.3312 19.201 26.4992C19.3857 26.046 18.8491 26.3699 18.4803 26.5585C17.0285 27.3009 16.8203 27.4761 15.4312 28.2644C14.7217 28.6503 13.8947 28.3205 13.1855 28.1052C12.5495 27.8451 11.6178 27.5829 12.1661 27.1864Z" fill="#CFD5E4"/>
<path fill-rule="evenodd" clip-rule="evenodd" d="M50 9H31C30.4477 9 30 9.44772 30 10V23.6781C30.635 23.2383 31.3917 23 32.1703 23H50C50.5523 23 51 22.5523 51 22V10C51 9.44772 50.5523 9 50 9ZM31 7C29.3431 7 28 8.34315 28 10V25C28 26.1788 29.3827 26.8148 30.2778 26.0476L30.9911 25.4362C31.3195 25.1547 31.7377 25 32.1703 25H50C51.6569 25 53 23.6569 53 22V10C53 8.34315 51.6569 7 50 7H31Z" fill="#18DCA6"/>
<path fill-rule="evenodd" clip-rule="evenodd" d="M32 12C32 11.4477 32.4477 11 33 11H44C44.5523 11 45 11.4477 45 12C45 12.5523 44.5523 13 44 13H33C32.4477 13 32 12.5523 32 12ZM32 16C32 15.4477 32.4477 15 33 15H40C40.5523 15 41 15.4477 41 16C41 16.5523 40.5523 17 40 17H33C32.4477 17 32 16.5523 32 16ZM33 19C32.4477 19 32 19.4477 32 20C32 20.5523 32.4477 21 33 21H47C47.5523 21 48 20.5523 48 20C48 19.4477 47.5523 19 47 19H33Z" fill="#18DCA6"/>
<path fill-rule="evenodd" clip-rule="evenodd" d="M7 3C4.79086 3 3 4.79086 3 7V48C3 50.2091 4.79086 52 7 52H29C31.2091 52 33 50.2091 33 48V25H31V47C31 48.6569 29.6569 50 28 50H8C6.34315 50 5 48.6569 5 47V8C5 6.34315 6.34315 5 8 5H11C11 6.10457 11.8954 7 13 7H23C24.1046 7 25 6.10457 25 5H28C29.3062 5 30.4175 5.83481 30.8293 7H33C33 4.79086 31.2091 3 29 3H23H13H7Z" fill="#E7EBF4"/>
</svg>
