<svg width="56" height="56" viewBox="0 0 56 56" fill="none" xmlns="http://www.w3.org/2000/svg">
<path fill-rule="evenodd" clip-rule="evenodd" d="M4 8.38897C4 6.51729 5.51729 5 7.38897 5H41.611C43.4827 5 45 6.51729 45 8.38897V15H48C51.3137 15 54 17.6863 54 21V35C54 37.2091 52.2091 39 50 39V37C51.1046 37 52 36.1046 52 35V21C52 18.7909 50.2091 17 48 17H45V22H43V8.69449C43 7.75865 42.2414 7 41.3055 7H7.69449C6.75865 7 6 7.75865 6 8.69449V30.1528C6 30.6207 6.37932 31 6.84724 31H9V34H7.38897H4.18182C2.97684 34 2 33.0232 2 31.8182C2 31.3663 2.36631 31 2.81818 31H4.02208C4.00749 30.8724 4 30.7426 4 30.611V8.38897Z" fill="#E7EBF4"/>
<path fill-rule="evenodd" clip-rule="evenodd" d="M12.389 21C10.5173 21 9 22.5173 9 24.389V47.611C9 49.4827 10.5173 51 12.389 51H46.611C48.4827 51 50 49.4827 50 47.611V24.389C50 22.5173 48.4827 21 46.611 21H12.389ZM12.6945 23C11.7586 23 11 23.7586 11 24.6945V47.1528C11 47.6207 11.3793 48 11.8472 48H47.1528C47.6207 48 48 47.6207 48 47.1528V24.6945C48 23.7586 47.2414 23 46.3055 23H12.6945Z" fill="#CFD5E4"/>
<path d="M7 48.8182C7 48.3663 7.36631 48 7.81818 48H51.1818C51.6337 48 52 48.3663 52 48.8182C52 50.0232 51.0232 51 49.8182 51H9.18182C7.97683 51 7 50.0232 7 48.8182Z" fill="#CFD5E4"/>
<rect x="21" y="28" width="17" height="15" rx="2" stroke="#18DCA6" stroke-width="2"/>
<rect x="17.5" y="33.5" width="1" height="4" rx="0.5" stroke="#18DCA6"/>
<rect x="40.5" y="33.5" width="1" height="4" rx="0.5" stroke="#18DCA6"/>
<rect x="25" y="33" width="3" height="3" rx="1" stroke="#18DCA6" stroke-width="2"/>
<rect x="31" y="33" width="3" height="3" rx="1" stroke="#18DCA6" stroke-width="2"/>
<rect x="24.5" y="38.5" width="1" height="1" fill="#CFD5E4" stroke="#18DCA6"/>
<rect x="27.5" y="38.5" width="1" height="1" fill="#CFD5E4" stroke="#18DCA6"/>
<rect x="30.5" y="38.5" width="1" height="1" fill="#CFD5E4" stroke="#18DCA6"/>
<rect x="33.5" y="38.5" width="1" height="1" fill="#CFD5E4" stroke="#18DCA6"/>
</svg>
