<svg width="56" height="56" viewBox="0 0 56 56" fill="none" xmlns="http://www.w3.org/2000/svg">
<path fill-rule="evenodd" clip-rule="evenodd" d="M2 8.38897C2 6.51729 3.51729 5 5.38897 5H39.611C41.4827 5 43 6.51729 43 8.38897V14H41V8.69449C41 7.75865 40.2414 7 39.3055 7H5.69449C4.75865 7 4 7.75865 4 8.69448V29.1528C4 29.6207 4.37933 30 4.84724 30H7V33H5.38897C3.51729 33 2 31.4827 2 29.611V8.38897Z" fill="#E7EBF4"/>
<path d="M0 30.8182C0 30.3663 0.366313 30 0.818182 30H8.18182C8.63369 30 9 30.3663 9 30.8182C9 32.0232 8.02317 33 6.81818 33H2.18182C0.976833 33 0 32.0232 0 30.8182Z" fill="#CFD5E4"/>
<path fill-rule="evenodd" clip-rule="evenodd" d="M7 17.389C7 15.5173 8.51729 14 10.389 14H44.611C46.4827 14 48 15.5173 48 17.389V23H46V17.6945C46 16.7586 45.2414 16 44.3055 16H10.6945C9.75865 16 9 16.7586 9 17.6945V38.1528C9 38.6207 9.37933 39 9.84724 39H12V42H10.389C8.51729 42 7 40.4827 7 38.611V17.389Z" fill="#E7EBF4"/>
<path d="M5 39.8182C5 39.3663 5.36631 39 5.81818 39H13.1818C13.6337 39 14 39.3663 14 39.8182C14 41.0232 13.0232 42 11.8182 42H7.18182C5.97683 42 5 41.0232 5 39.8182Z" fill="#CFD5E4"/>
<path fill-rule="evenodd" clip-rule="evenodd" d="M12 26.389C12 24.5173 13.5173 23 15.389 23H49.611C51.4827 23 53 24.5173 53 26.389V47.611C53 47.7426 52.9925 47.8724 52.9779 48H54.1818C54.6337 48 55 48.3663 55 48.8182C55 50.0232 54.0232 51 52.8182 51H49.611H15.389H12.1818C10.9768 51 10 50.0232 10 48.8182C10 48.3663 10.3663 48 10.8182 48H12.0221C12.0075 47.8724 12 47.7426 12 47.611V26.389ZM14.8472 48H50.1528C50.6207 48 51 47.6207 51 47.1528V26.6945C51 25.7586 50.2414 25 49.3055 25H15.6945C14.7586 25 14 25.7586 14 26.6945V47.1528C14 47.6207 14.3793 48 14.8472 48Z" fill="#18DCA6"/>
</svg>
