<svg width="56" height="56" viewBox="0 0 56 56" fill="none" xmlns="http://www.w3.org/2000/svg">
<path fill-rule="evenodd" clip-rule="evenodd" d="M20.5405 20.4324V23.1892C20.5405 25.6372 18.5561 27.6216 16.1081 27.6216C13.6601 27.6216 11.6757 25.6372 11.6757 23.1892V20.4324C11.6757 17.9845 13.6601 16 16.1081 16C18.5561 16 20.5405 17.9845 20.5405 20.4324ZM9.67568 23.1892C9.67568 25.3751 10.766 27.3063 12.4324 28.4687V30.0021C8.18978 31.202 6 35.1028 6 39.7297V47.9999H17V45.9999H8V39.7297C8 35.7035 9.84873 32.8113 12.9768 31.9266L14.4324 31.5148V29.7837H17.7838V31.5148L19.0592 31.8756C19.4862 31.275 19.979 30.7301 20.5367 30.2511C20.2933 30.1584 20.0424 30.0752 19.7838 30.0021V28.4687C21.4502 27.3063 22.5405 25.3751 22.5405 23.1892V20.4324C22.5405 16.8799 19.6606 14 16.1081 14C12.5556 14 9.67568 16.8799 9.67568 20.4324V23.1892ZM39 47.9999H50.2162V39.7297C50.2162 35.1028 48.0264 31.202 43.7838 30.0021V28.4687C45.4502 27.3063 46.5405 25.3751 46.5405 23.1892V20.4324C46.5405 16.8799 43.6606 14 40.1081 14C36.5556 14 33.6757 16.8799 33.6757 20.4324V23.1892C33.6757 25.3751 34.766 27.3063 36.4324 28.4687V30.0021C36.1207 30.0902 35.8201 30.193 35.5306 30.3095C36.0763 30.7879 36.5586 31.3302 36.9768 31.9265L38.4324 31.5148V29.7837H41.7838V31.5148L43.2395 31.9266C46.3675 32.8113 48.2162 35.7035 48.2162 39.7297V45.9999H39V47.9999ZM44.5405 23.1892V20.4324C44.5405 17.9845 42.5561 16 40.1081 16C37.6601 16 35.6757 17.9845 35.6757 20.4324V23.1892C35.6757 25.6372 37.6601 27.6216 40.1081 27.6216C42.5561 27.6216 44.5405 25.6372 44.5405 23.1892Z" fill="#E7EBF4"/>
<path fill-rule="evenodd" clip-rule="evenodd" d="M33 21V18C33 15.2386 30.7614 13 28 13C25.2386 13 23 15.2386 23 18V21C23 23.7614 25.2386 26 28 26C30.7614 26 33 23.7614 33 21ZM32 26.7453C33.8135 25.4804 35 23.3787 35 21V18C35 14.134 31.866 11 28 11C24.134 11 21 14.134 21 18V21C21 23.3787 22.1865 25.4804 24 26.7453V27.6577L24 27.6608C23.9986 28.1069 23.699 28.4935 23.2801 28.6479C19.1355 30.1752 17 34.2336 17 39V48H39V39C39 34.2336 36.8645 30.1752 32.7199 28.6479C32.3001 28.4931 32 28.1051 32 27.6577V26.7453ZM28 28H25.9809C25.8446 29.2108 24.9951 30.1473 23.9716 30.5245C20.8438 31.6771 19 34.7956 19 39V46H37V39C37 34.7956 35.1562 31.6771 32.0284 30.5245C31.0049 30.1473 30.1554 29.2108 30.0191 28H28Z" fill="#18DCA6"/>
<rect x="3" y="46" width="50" height="2" rx="1" fill="#CFD5E4"/>
</svg>
