<svg width="56" height="56" viewBox="0 0 56 56" fill="none" xmlns="http://www.w3.org/2000/svg">
<path fill-rule="evenodd" clip-rule="evenodd" d="M51.5039 19.7101C51.8111 19.8893 52 20.2182 52 20.5739V45.9995C52 47.6564 50.6569 48.9995 49 48.9995H7C5.34315 48.9995 4 47.6564 4 45.9995V20.5739C4 20.2182 4.18891 19.8893 4.49613 19.7101L11 15.9162V18.2316L6 21.1483V45.9995C6 46.5518 6.44772 46.9995 7 46.9995H49C49.5523 46.9995 50 46.5518 50 45.9995V21.1483L45 18.2316V15.9162L51.5039 19.7101ZM36.5714 10.9995L29.5116 6.88132C28.5775 6.33644 27.4225 6.33643 26.4884 6.88132L19.4286 10.9995H23.3979L27.4961 8.60888C27.8075 8.42725 28.1925 8.42725 28.5039 8.60888L32.6021 10.9995H36.5714Z" fill="#CFD5E4"/>
<path fill-rule="evenodd" clip-rule="evenodd" d="M15 13H41C42.1046 13 43 13.8954 43 15V24.7879L45 23.6191V15C45 12.7909 43.2091 11 41 11H15C12.7909 11 11 12.7909 11 15V23.6191L13 24.7879V15C13 13.8954 13.8954 13 15 13ZM19 21C18.4477 21 18 21.4477 18 22C18 22.5523 18.4477 23 19 23H37C37.5523 23 38 22.5523 38 22C38 21.4477 37.5523 21 37 21H19ZM22 27C22 26.4477 22.4477 26 23 26H33C33.5523 26 34 26.4477 34 27C34 27.5523 33.5523 28 33 28H23C22.4477 28 22 27.5523 22 27Z" fill="#18DCA6"/>
<path fill-rule="evenodd" clip-rule="evenodd" d="M4 46.0104C4 47.6615 5.31573 49 6.93877 49H49.0612C50.6843 49 52 47.6615 52 46.0104V20.8392C52 20.728 51.9939 20.6178 51.982 20.5088C51.9317 20.0471 51.4169 19.8703 51.0204 20.1008L29.4639 32.6984C28.5574 33.2281 27.4426 33.2281 26.5361 32.6984L4.97959 20.1008C4.58311 19.8703 4.06834 20.0471 4.01795 20.5088C4.00606 20.6178 4 20.728 4 20.8392V46.0104ZM50 23.0136L30.473 34.4251C28.9431 35.3192 27.0569 35.3192 25.527 34.4251L6 23.0136V46.0104C6 46.5894 6.45248 47 6.93877 47H49.0612C49.5475 47 50 46.5894 50 46.0104V23.0136Z" fill="#E7EBF4"/>
</svg>
