<svg width="56" height="56" viewBox="0 0 56 56" fill="none" xmlns="http://www.w3.org/2000/svg">
<path fill-rule="evenodd" clip-rule="evenodd" d="M1 12C1 9.79086 2.79086 8 5 8H51C53.2091 8 55 9.79086 55 12V44C55 46.2091 53.2091 48 51 48H5C2.79086 48 1 46.2091 1 44V12ZM3 13C3 11.3431 4.34315 10 6 10H50C51.6569 10 53 11.3431 53 13V43C53 44.6569 51.6569 46 50 46H6C4.34315 46 3 44.6569 3 43V13ZM28 12C27.4477 12 27 12.4477 27 13V43C27 43.5523 27.4477 44 28 44C28.5523 44 29 43.5523 29 43V13C29 12.4477 28.5523 12 28 12Z" fill="#E7EBF4"/>
<path fill-rule="evenodd" clip-rule="evenodd" d="M35 21C34.4477 21 34 21.4477 34 22C34 22.5523 34.4477 23 35 23H47C47.5523 23 48 22.5523 48 22C48 21.4477 47.5523 21 47 21H35ZM35 25C34.4477 25 34 25.4477 34 26C34 26.5523 34.4477 27 35 27H47C47.5523 27 48 26.5523 48 26C48 25.4477 47.5523 25 47 25H35ZM34 30C34 29.4477 34.4477 29 35 29H47C47.5523 29 48 29.4477 48 30C48 30.5523 47.5523 31 47 31H35C34.4477 31 34 30.5523 34 30ZM35 33C34.4477 33 34 33.4477 34 34C34 34.5523 34.4477 35 35 35H42C42.5523 35 43 34.5523 43 34C43 33.4477 42.5523 33 42 33H35Z" fill="#CFD5E4"/>
<path d="M14.9059 29.6256C14.3536 29.6256 13.8773 29.1651 14.0481 28.6399C14.1151 28.4339 14.2057 28.2465 14.3199 28.0776C14.6079 27.6696 15.0219 27.2196 15.5619 26.7276C15.9579 26.3676 16.2459 26.0676 16.4259 25.8276C16.6179 25.5756 16.7139 25.2936 16.7139 24.9816C16.7139 24.5376 16.5339 24.1896 16.1739 23.9376C15.8259 23.6736 15.3579 23.5416 14.7699 23.5416C14.2059 23.5416 13.7019 23.6616 13.2579 23.9016C13.0903 23.9901 12.9326 24.093 12.7848 24.2104C12.3795 24.5324 11.8179 24.6729 11.3715 24.4109L10.8888 24.1277C10.3955 23.8382 10.239 23.185 10.6452 22.7822C11.0367 22.3939 11.4936 22.0711 12.0159 21.8136C12.8799 21.3936 13.8999 21.1836 15.0759 21.1836C16.4559 21.1836 17.5599 21.4776 18.3879 22.0656C19.2279 22.6536 19.6479 23.4696 19.6479 24.5136C19.6479 25.0056 19.5639 25.4376 19.3959 25.8096C19.2399 26.1816 19.0419 26.4996 18.8019 26.7636C18.5739 27.0156 18.2739 27.3096 17.9019 27.6456C17.4579 28.0416 17.1339 28.3776 16.9299 28.6536C16.9221 28.6637 16.9144 28.6739 16.9069 28.6842C16.5812 29.1302 16.1762 29.6256 15.6239 29.6256H14.9059ZM15.2739 34.1436C14.7819 34.1436 14.3679 33.9876 14.0319 33.6756C13.7079 33.3516 13.5459 32.9616 13.5459 32.5056C13.5459 32.0496 13.7079 31.6716 14.0319 31.3716C14.3559 31.0596 14.7699 30.9036 15.2739 30.9036C15.7779 30.9036 16.1919 31.0596 16.5159 31.3716C16.8399 31.6716 17.0019 32.0496 17.0019 32.5056C17.0019 32.9616 16.8339 33.3516 16.4979 33.6756C16.1739 33.9876 15.7659 34.1436 15.2739 34.1436Z" fill="#18DCA6"/>
</svg>
