<svg width="32" height="32" viewBox="0 0 32 32" fill="none" xmlns="http://www.w3.org/2000/svg">
<path fill-rule="evenodd" clip-rule="evenodd" d="M11.4667 4H4.53338C4.23883 4 4 4.23872 4 4.53337V11.4667C4 11.7612 4.23883 12.0001 4.53338 12.0001H11.4667C11.7613 12.0001 12.0001 11.7612 12.0001 11.4667V4.53337C12.0001 4.23872 11.7613 4 11.4667 4ZM19.47 12.0003H12.5367C12.2421 12.0003 12.0033 12.239 12.0033 12.5335V19.467C12.0033 19.7615 12.2421 20.0003 12.5367 20.0003H19.47C19.7646 20.0003 20.0034 19.7615 20.0034 19.467V12.5335C20.0034 12.239 19.7646 12.0003 19.47 12.0003ZM20.5333 4H27.4667C27.7613 4 28 4.23872 28 4.53337V11.4667C28 11.7612 27.7613 12.0001 27.4667 12.0001H20.5333C20.2388 12.0001 19.9999 11.7612 19.9999 11.4667V4.53337C19.9999 4.23872 20.2388 4 20.5333 4ZM11.4667 19.9999H4.53338C4.23883 19.9999 4 20.2387 4 20.5332V27.4666C4 27.7612 4.23883 28 4.53338 28H11.4667C11.7613 28 12.0001 27.7612 12.0001 27.4666V20.5332C12.0001 20.2387 11.7613 19.9999 11.4667 19.9999ZM20.5333 19.9999H27.4667C27.7613 19.9999 28 20.2387 28 20.5332V27.4666C28 27.7612 27.7613 28 27.4667 28H20.5333C20.2388 28 19.9999 27.7612 19.9999 27.4666V20.5332C19.9999 20.2387 20.2388 19.9999 20.5333 19.9999Z" fill="white" fill-opacity="0.7"/>
</svg>
