<svg width="475" height="347" viewBox="0 0 475 347" fill="none" xmlns="http://www.w3.org/2000/svg">
<path d="M113 93.4941H361V299.494H113V93.4941Z" fill="#18346A"/>
<path fill-rule="evenodd" clip-rule="evenodd" d="M142.398 75.4941C121.192 75.4941 104 92.6857 104 113.893V279.173C104 300.38 121.192 317.572 142.399 317.572H334.391C355.598 317.572 372.789 300.38 372.789 279.173V113.893C372.789 92.6857 355.598 75.4941 334.391 75.4941H142.398ZM130.712 157.359L129.519 157.714C125.38 158.946 122.364 162.781 122.364 167.316V225.749C122.364 230.284 125.38 234.119 129.519 235.351L130.712 235.706V270.825C130.712 283.734 141.176 294.198 154.085 294.198H326.043C338.952 294.198 349.416 283.734 349.416 270.825V254.13H347.747C345.903 254.13 344.408 252.636 344.408 250.791V220.74C344.408 218.896 345.903 217.401 347.747 217.401H352.755C354.6 217.401 356.094 218.896 356.094 220.74V250.791C356.094 252.636 354.6 254.13 352.755 254.13H351.086V270.825C351.086 284.656 339.874 295.868 326.043 295.868H154.085C140.254 295.868 129.042 284.656 129.042 270.825V236.951C124.215 235.515 120.695 231.043 120.695 225.749V167.316C120.695 162.022 124.215 157.551 129.042 156.114V122.24C129.042 108.409 140.254 97.1974 154.085 97.1974H326.043C339.874 97.1974 351.086 108.409 351.086 122.24V137.265H349.416V122.24C349.416 109.331 338.952 98.8669 326.043 98.8669H154.085C141.176 98.8669 130.712 109.331 130.712 122.24V157.359ZM351.086 217.401H349.416V173.994H347.747C345.903 173.994 344.408 172.5 344.408 170.655V140.604C344.408 138.76 345.903 137.266 347.747 137.266H352.755C354.6 137.266 356.094 138.76 356.094 140.605V170.655C356.094 172.5 354.6 173.994 352.755 173.994H351.086V217.401ZM347.747 138.935H352.755C353.677 138.935 354.425 139.682 354.425 140.605V170.655C354.425 171.578 353.677 172.325 352.755 172.325H347.747C346.825 172.325 346.077 171.578 346.077 170.655V140.604C346.077 139.682 346.825 138.935 347.747 138.935ZM352.755 219.071H347.747C346.825 219.071 346.077 219.818 346.077 220.74V250.791C346.077 251.714 346.825 252.461 347.747 252.461H352.755C353.677 252.461 354.425 251.714 354.425 250.791V220.74C354.425 219.818 353.677 219.071 352.755 219.071Z" fill="url(#paint0_linear_7304_194486)"/>
<path opacity="0.2" d="M135.441 180.13L108.496 126.231C96.8419 102.92 113.793 75.4941 139.855 75.4941H335.894C360.279 75.4941 377.216 99.7706 368.798 122.656L350.413 172.641C339.784 201.538 312.261 220.741 281.471 220.741H201.146C173.32 220.741 147.883 205.019 135.441 180.13Z" fill="#57B6DC"/>
<path d="M142.398 317.572H205.839V319.241C205.839 321.085 204.345 322.58 202.5 322.58H145.737C143.893 322.58 142.398 321.085 142.398 319.241V317.572Z" fill="#2A5296"/>
<path d="M270.95 317.572H334.391V319.241C334.391 321.085 332.896 322.58 331.052 322.58H274.289C272.445 322.58 270.95 321.085 270.95 319.241V317.572Z" fill="#2A5296"/>
<path d="M132.381 172.325C132.381 170.481 133.876 168.986 135.72 168.986H154.085C155.929 168.986 157.424 170.481 157.424 172.325V182.342C157.424 184.186 155.929 185.681 154.085 185.681H135.72C133.876 185.681 132.381 184.186 132.381 182.342V172.325Z" fill="#2FFF9A"/>
<path fill-rule="evenodd" clip-rule="evenodd" d="M142.398 193.194C142.398 191.811 143.519 190.69 144.903 190.69C146.286 190.69 147.407 191.811 147.407 193.194C147.407 194.577 146.286 195.698 144.903 195.698C143.519 195.698 142.398 194.577 142.398 193.194ZM136.555 190.69C135.172 190.69 134.051 191.811 134.051 193.194C134.051 194.577 135.172 195.699 136.555 195.699C137.938 195.699 139.059 194.577 139.059 193.194C139.059 191.811 137.938 190.69 136.555 190.69ZM136.555 199.037C135.172 199.037 134.051 200.159 134.051 201.542C134.051 202.925 135.172 204.046 136.555 204.046C137.938 204.046 139.059 202.925 139.059 201.542C139.059 200.159 137.938 199.037 136.555 199.037ZM134.051 209.889C134.051 208.506 135.172 207.385 136.555 207.385C137.938 207.385 139.059 208.506 139.059 209.889C139.059 211.272 137.938 212.393 136.555 212.393C135.172 212.393 134.051 211.272 134.051 209.889ZM136.555 215.732C135.172 215.732 134.051 216.854 134.051 218.237C134.051 219.62 135.172 220.741 136.555 220.741C137.938 220.741 139.059 219.62 139.059 218.237C139.059 216.854 137.938 215.732 136.555 215.732ZM144.903 199.037C143.519 199.037 142.398 200.159 142.398 201.542C142.398 202.925 143.519 204.046 144.903 204.046C146.286 204.046 147.407 202.925 147.407 201.542C147.407 200.159 146.286 199.037 144.903 199.037ZM142.398 209.889C142.398 208.506 143.519 207.385 144.903 207.385C146.286 207.385 147.407 208.506 147.407 209.889C147.407 211.272 146.286 212.393 144.903 212.393C143.519 212.393 142.398 211.272 142.398 209.889ZM144.903 215.732C143.519 215.732 142.398 216.854 142.398 218.237C142.398 219.62 143.519 220.741 144.903 220.741C146.286 220.741 147.407 219.62 147.407 218.237C147.407 216.854 146.286 215.732 144.903 215.732ZM150.746 193.194C150.746 191.811 151.867 190.69 153.25 190.69C154.633 190.69 155.754 191.811 155.754 193.194C155.754 194.577 154.633 195.698 153.25 195.698C151.867 195.698 150.746 194.577 150.746 193.194ZM153.25 199.037C151.867 199.037 150.746 200.159 150.746 201.542C150.746 202.925 151.867 204.046 153.25 204.046C154.633 204.046 155.754 202.925 155.754 201.542C155.754 200.159 154.633 199.037 153.25 199.037ZM150.746 209.889C150.746 208.506 151.867 207.385 153.25 207.385C154.633 207.385 155.754 208.506 155.754 209.889C155.754 211.272 154.633 212.393 153.25 212.393C151.867 212.393 150.746 211.272 150.746 209.889ZM153.25 215.732C151.867 215.732 150.746 216.854 150.746 218.237C150.746 219.62 151.867 220.741 153.25 220.741C154.633 220.741 155.754 219.62 155.754 218.237C155.754 216.854 154.633 215.732 153.25 215.732Z" fill="#2FFF9A"/>
<path fill-rule="evenodd" clip-rule="evenodd" d="M154.085 317.571V295.033H155.754V317.571H154.085Z" fill="#18346A"/>
<path fill-rule="evenodd" clip-rule="evenodd" d="M283.471 317.571V295.033H285.141V317.571H283.471Z" fill="#18346A"/>
<path fill-rule="evenodd" clip-rule="evenodd" d="M176.623 317.571V295.033H178.293V317.571H176.623Z" fill="#18346A"/>
<path fill-rule="evenodd" clip-rule="evenodd" d="M306.009 317.571V295.033H307.679V317.571H306.009Z" fill="#18346A"/>
<path fill-rule="evenodd" clip-rule="evenodd" d="M164.937 317.571V295.033H166.606V317.571H164.937Z" fill="#18346A"/>
<path fill-rule="evenodd" clip-rule="evenodd" d="M294.323 317.571V295.033H295.992V317.571H294.323Z" fill="#18346A"/>
<path fill-rule="evenodd" clip-rule="evenodd" d="M187.475 317.571V295.033H189.145V317.571H187.475Z" fill="#18346A"/>
<path fill-rule="evenodd" clip-rule="evenodd" d="M316.861 317.571V295.033H318.531V317.571H316.861Z" fill="#18346A"/>
<path fill-rule="evenodd" clip-rule="evenodd" d="M159.928 317.571V295.033H161.598V317.571H159.928Z" fill="#18346A"/>
<path fill-rule="evenodd" clip-rule="evenodd" d="M289.314 317.571V295.033H290.984V317.571H289.314Z" fill="#18346A"/>
<path fill-rule="evenodd" clip-rule="evenodd" d="M182.466 317.571V295.033H184.136V317.571H182.466Z" fill="#18346A"/>
<path fill-rule="evenodd" clip-rule="evenodd" d="M311.853 317.571V295.033H313.522V317.571H311.853Z" fill="#18346A"/>
<path fill-rule="evenodd" clip-rule="evenodd" d="M170.78 317.571V295.033H172.449V317.571H170.78Z" fill="#18346A"/>
<path fill-rule="evenodd" clip-rule="evenodd" d="M300.166 317.571V295.033H301.836V317.571H300.166Z" fill="#18346A"/>
<path fill-rule="evenodd" clip-rule="evenodd" d="M193.318 317.571V295.033H194.988V317.571H193.318Z" fill="#18346A"/>
<path fill-rule="evenodd" clip-rule="evenodd" d="M233.386 98.0324V75.4941H235.056V98.0324H233.386Z" fill="#18346A"/>
<path fill-rule="evenodd" clip-rule="evenodd" d="M240.064 98.0324V75.4941H241.734V98.0324H240.064Z" fill="#18346A"/>
<path fill-rule="evenodd" clip-rule="evenodd" d="M322.705 317.571V295.033H324.374V317.571H322.705Z" fill="#18346A"/>
<g opacity="0.8">
<path d="M294.07 233.367C283.515 248.351 266.079 258.14 246.358 258.14C214.147 258.14 188.035 232.028 188.035 199.817C188.035 167.606 214.147 141.494 246.358 141.494C261.688 141.494 275.638 147.409 286.048 157.082C287.843 158.75 287.778 161.558 286.045 163.29L270.556 178.781C268.671 180.666 265.593 180.505 263.53 178.817C258.853 174.988 252.874 172.69 246.358 172.69C231.376 172.69 219.231 184.835 219.231 199.817C219.231 214.799 231.376 226.944 246.358 226.944C255.204 226.944 263.061 222.71 268.013 216.157L294.07 233.367Z" fill="white"/>
<path d="M258.398 247.179L292.498 208.905L277.982 195.973L251.276 225.949L219.498 197.122L219.345 197.3C219.269 198.129 219.23 198.968 219.23 199.817C219.23 207.056 222.065 213.633 226.687 218.497L226.69 218.579L227.392 219.212C227.916 219.725 228.462 220.217 229.026 220.687L258.398 247.179Z" fill="#DEE6EF"/>
<path d="M194.392 226.324C197.447 232.302 201.504 237.683 206.341 242.247L191.742 259.227L177 246.553L194.392 226.324Z" fill="#DEE6EF"/>
<path d="M229.026 220.688L266.563 254.545C266.542 254.553 266.521 254.56 266.5 254.568L272.225 259.744L312.532 215.644L298.182 202.528L270.92 232.355L239.373 203.83L226.689 218.575L226.689 218.58L227.391 219.213C227.916 219.726 228.461 220.218 229.026 220.688Z" fill="#AABDD6"/>
<path d="M206.332 242.24L196.94 253.158L211.679 265.836L222.626 253.11C216.582 250.415 211.081 246.721 206.332 242.24Z" fill="#AABDD6"/>
</g>
<g opacity="0.6">
<path opacity="0.6" d="M76.7522 52.6422C78.8055 49.5675 75.7613 44.2813 69.9528 40.8352C64.1443 37.389 57.7711 37.088 55.7178 40.1627C53.6645 43.2374 56.7087 48.5236 62.5172 51.9698C68.3257 55.4159 74.6989 55.717 76.7522 52.6422Z" fill="#0EA8A0"/>
<path opacity="0.6" d="M77.4818 51.5892C79.1249 49.2133 75.796 44.4234 70.0464 40.8907C64.2968 37.3579 58.3038 36.42 56.6607 38.7958C55.0176 41.1717 58.3465 45.9615 64.0961 49.4943C69.8457 53.0271 75.8387 53.965 77.4818 51.5892Z" fill="#8586AD"/>
<path opacity="0.6" d="M70.0454 40.891C64.2959 37.3582 58.3029 36.4203 56.6598 38.7962C55.0167 41.1721 58.3456 45.9619 64.0952 49.4947C66.5947 51.0305 69.1395 52.0745 71.3537 52.5705C70.9936 48.7063 70.671 44.8527 70.1054 40.9297C70.0849 40.9171 70.066 40.9036 70.0454 40.891Z" fill="#3C7499"/>
<path opacity="0.6" d="M70.1069 40.9302C70.6725 44.8532 70.9951 48.7068 71.3553 52.571C74.2342 53.2158 76.5537 52.9331 77.4825 51.59C79.1198 49.2227 75.8189 44.4593 70.1069 40.9302Z" fill="#47A3B5"/>
<path opacity="0.6" d="M60.2114 39.7549L68.8567 43.0426L74.6832 49.902L66.0379 46.6144L60.2114 39.7549Z" fill="#2C5B7A"/>
</g>
<g opacity="0.6">
<path opacity="0.6" d="M368.743 37.5033C370.215 35.2992 368.033 31.5099 363.869 29.0396C359.705 26.5692 355.137 26.3534 353.665 28.5575C352.193 30.7616 354.375 34.5509 358.539 37.0212C362.703 39.4915 367.271 39.7074 368.743 37.5033Z" fill="#0EA8A0"/>
<path opacity="0.6" d="M369.266 36.7487C370.444 35.0456 368.058 31.612 363.936 29.0796C359.815 26.5471 355.519 25.8748 354.341 27.5779C353.163 29.281 355.549 32.7146 359.671 35.247C363.792 37.7794 368.088 38.4517 369.266 36.7487Z" fill="#8586AD"/>
<path opacity="0.6" d="M363.936 29.0799C359.814 26.5475 355.518 25.8751 354.34 27.5783C353.162 29.2814 355.549 32.7149 359.67 35.2473C361.462 36.3483 363.286 37.0967 364.873 37.4522C364.615 34.6822 364.384 31.9198 363.979 29.1076C363.964 29.0986 363.95 29.0889 363.936 29.0799Z" fill="#3C7499"/>
<path opacity="0.6" d="M363.979 29.1074C364.385 31.9196 364.616 34.682 364.874 37.452C366.938 37.9142 368.601 37.7115 369.267 36.7488C370.44 35.0518 368.074 31.6372 363.979 29.1074Z" fill="#47A3B5"/>
<path opacity="0.6" d="M356.886 28.2656L363.083 30.6224L367.26 35.5395L361.063 33.1827L356.886 28.2656Z" fill="#2C5B7A"/>
</g>
<path d="M132.005 44.7622C137.62 41.0412 139.745 34.7719 136.751 30.7595C133.758 26.747 126.78 26.5107 121.166 30.2317C115.551 33.9527 113.427 40.222 116.42 44.2345C119.413 48.247 126.391 48.4832 132.005 44.7622Z" fill="#00E8A9"/>
<path d="M130.581 42.8523C136.195 39.1313 138.639 33.2896 136.039 29.8045C133.439 26.3195 126.78 26.5107 121.166 30.2318C115.551 33.9528 113.108 39.7944 115.707 43.2795C118.307 46.7646 124.966 46.5733 130.581 42.8523Z" fill="#3C7499"/>
<path d="M119.048 42.1031L123.068 33.6661L132.323 30.5938L128.303 39.0308L119.048 42.1031Z" fill="#2C5B7A"/>
<path d="M386.005 114.762C391.62 111.041 393.745 104.772 390.751 100.759C387.758 96.747 380.78 96.5107 375.166 100.232C369.551 103.953 367.427 110.222 370.42 114.234C373.413 118.247 380.391 118.483 386.005 114.762Z" fill="#00E8A9"/>
<path d="M384.581 112.852C390.195 109.131 392.639 103.29 390.039 99.8045C387.439 96.3195 380.78 96.5107 375.166 100.232C369.551 103.953 367.108 109.794 369.707 113.28C372.307 116.765 378.966 116.573 384.581 112.852Z" fill="#3C7499"/>
<path d="M373.048 112.103L377.068 103.666L386.323 100.594L382.303 109.031L373.048 112.103Z" fill="#2C5B7A"/>
<path d="M134.104 131.514C138.66 129.035 139.572 122.483 136.141 116.88C132.709 111.278 126.233 108.746 121.676 111.226C117.12 113.706 116.208 120.258 119.639 125.86C123.071 131.462 129.547 133.994 134.104 131.514Z" fill="#00E8A9"/>
<path d="M135.266 130.882C139.18 128.751 139.571 122.483 136.14 116.88C132.708 111.278 126.753 108.463 122.839 110.593C118.924 112.723 118.533 118.992 121.965 124.594C125.396 130.197 131.351 133.012 135.266 130.882Z" fill="#3C7499"/>
<path d="M132.492 127.69L125.296 121.889L126.036 112.992L133.232 118.792L132.492 127.69Z" fill="#2C5B7A"/>
<path d="M335.678 68.2726C340.234 65.7928 341.146 59.2409 337.715 53.6385C334.283 48.036 327.807 45.5045 323.251 47.9842C318.694 50.4639 317.782 57.0158 321.214 62.6183C324.645 68.2208 331.121 70.7523 335.678 68.2726Z" fill="#00E8A9"/>
<path d="M336.84 67.6398C340.754 65.5096 341.146 59.2411 337.714 53.6386C334.282 48.0361 328.327 45.2213 324.413 47.3515C320.498 49.4816 320.107 55.7502 323.539 61.3527C326.97 66.9551 332.926 69.77 336.84 67.6398Z" fill="#3C7499"/>
<path d="M334.066 64.4479L326.87 58.6473L327.611 49.75L334.806 55.5506L334.066 64.4479Z" fill="#2C5B7A"/>
<path d="M97.6864 102.767C104.633 100.704 108.451 93.6022 106.212 86.9039C103.974 80.2055 96.5279 76.4474 89.5808 78.5098C82.6337 80.5722 78.8164 87.6742 81.0547 94.3726C83.293 101.071 90.7392 104.829 97.6864 102.767Z" fill="#00E8A9"/>
<path d="M97.0474 100.855C103.995 98.7922 107.955 92.1182 105.893 85.9479C103.831 79.7775 96.5279 76.4473 89.5808 78.5098C82.6337 80.5722 78.6734 87.2462 80.7353 93.4166C82.7971 99.587 90.1003 102.917 97.0474 100.855Z" fill="#3C7499"/>
<path d="M89.1301 96.7457L89.1211 87.2076L97.2969 81.5874L97.3059 91.1255L89.1301 96.7457Z" fill="#2C5B7A"/>
<path d="M412.684 53.4854C419.632 51.423 423.449 44.321 421.21 37.6226C418.972 30.9243 411.526 27.1661 404.579 29.2285C397.632 31.291 393.814 38.393 396.053 45.0913C398.291 51.7897 405.737 55.5479 412.684 53.4854Z" fill="#00E8A9"/>
<path d="M412.045 51.5734C418.993 49.511 422.953 42.837 420.891 36.6666C418.829 30.4962 411.526 27.1661 404.579 29.2285C397.632 31.291 393.671 37.965 395.733 44.1353C397.795 50.3057 405.098 53.6359 412.045 51.5734Z" fill="#3C7499"/>
<path d="M404.128 47.4644L404.119 37.9264L412.295 32.3062L412.304 41.8442L404.128 47.4644Z" fill="#2C5B7A"/>
<defs>
<linearGradient id="paint0_linear_7304_194486" x1="104" y1="196.533" x2="372.789" y2="196.533" gradientUnits="userSpaceOnUse">
<stop offset="0.334135" stop-color="#4F679E"/>
<stop offset="0.836779" stop-color="#4477B2"/>
</linearGradient>
</defs>
</svg>
